<?xml version="1.0" encoding="UTF-8" standalone="no"?>
<!DOCTYPE svg PUBLIC "-//W3C//DTD SVG 1.1//EN"
 "http://www.w3.org/Graphics/SVG/1.1/DTD/svg11.dtd">
<!-- Generated by graphviz version 14.0.2 (0)
 -->
<!-- Title: AST Pages: 1 -->
<svg width="3679pt" height="836pt"
 viewBox="0.00 0.00 3679.00 836.00" xmlns="http://www.w3.org/2000/svg" xmlns:xlink="http://www.w3.org/1999/xlink">
<g id="graph0" class="graph" transform="scale(1 1) rotate(0) translate(4 832)">
<title>AST</title>
<polygon fill="white" stroke="none" points="-4,4 -4,-832 3675.22,-832 3675.22,4 -4,4"/>
<!-- 0 -->
<g id="node1" class="node">
<title>0</title>
<path fill="none" stroke="black" d="M575.78,-828C575.78,-828 535.57,-828 535.57,-828 529.57,-828 523.57,-822 523.57,-816 523.57,-816 523.57,-804 523.57,-804 523.57,-798 529.57,-792 535.57,-792 535.57,-792 575.78,-792 575.78,-792 581.78,-792 587.78,-798 587.78,-804 587.78,-804 587.78,-816 587.78,-816 587.78,-822 581.78,-828 575.78,-828"/>
<text xml:space="preserve" text-anchor="middle" x="555.67" y="-805.8" font-family="Times,serif" font-size="14.00">Program</text>
</g>
<!-- 1 -->
<g id="node2" class="node">
<title>1</title>
<path fill="none" stroke="black" d="M330.42,-756C330.42,-756 224.93,-756 224.93,-756 218.93,-756 212.93,-750 212.93,-744 212.93,-744 212.93,-732 212.93,-732 212.93,-726 218.93,-720 224.93,-720 224.93,-720 330.42,-720 330.42,-720 336.42,-720 342.42,-726 342.42,-732 342.42,-732 342.42,-744 342.42,-744 342.42,-750 336.42,-756 330.42,-756"/>
<text xml:space="preserve" text-anchor="middle" x="277.67" y="-733.8" font-family="Times,serif" font-size="14.00">VariableDeclaration</text>
</g>
<!-- 0&#45;&gt;1 -->
<g id="edge1" class="edge">
<title>0&#45;&gt;1</title>
<path fill="none" stroke="black" d="M523.24,-800.83C481.95,-790.44 409.31,-772.14 353.71,-758.14"/>
<polygon fill="black" stroke="black" points="354.85,-754.82 344.3,-755.78 353.14,-761.61 354.85,-754.82"/>
</g>
<!-- 9 -->
<g id="node10" class="node">
<title>9</title>
<path fill="none" stroke="black" d="M535.42,-756C535.42,-756 429.93,-756 429.93,-756 423.93,-756 417.93,-750 417.93,-744 417.93,-744 417.93,-732 417.93,-732 417.93,-726 423.93,-720 429.93,-720 429.93,-720 535.42,-720 535.42,-720 541.42,-720 547.42,-726 547.42,-732 547.42,-732 547.42,-744 547.42,-744 547.42,-750 541.42,-756 535.42,-756"/>
<text xml:space="preserve" text-anchor="middle" x="482.67" y="-733.8" font-family="Times,serif" font-size="14.00">VariableDeclaration</text>
</g>
<!-- 0&#45;&gt;9 -->
<g id="edge9" class="edge">
<title>0&#45;&gt;9</title>
<path fill="none" stroke="black" d="M537.63,-791.7C528.94,-783.37 518.36,-773.22 508.82,-764.07"/>
<polygon fill="black" stroke="black" points="511.5,-761.79 501.86,-757.39 506.65,-766.84 511.5,-761.79"/>
</g>
<!-- 17 -->
<g id="node18" class="node">
<title>17</title>
<path fill="none" stroke="black" d="M682.42,-756C682.42,-756 576.93,-756 576.93,-756 570.93,-756 564.93,-750 564.93,-744 564.93,-744 564.93,-732 564.93,-732 564.93,-726 570.93,-720 576.93,-720 576.93,-720 682.42,-720 682.42,-720 688.42,-720 694.42,-726 694.42,-732 694.42,-732 694.42,-744 694.42,-744 694.42,-750 688.42,-756 682.42,-756"/>
<text xml:space="preserve" text-anchor="middle" x="629.67" y="-733.8" font-family="Times,serif" font-size="14.00">VariableDeclaration</text>
</g>
<!-- 0&#45;&gt;17 -->
<g id="edge17" class="edge">
<title>0&#45;&gt;17</title>
<path fill="none" stroke="black" d="M573.97,-791.7C582.77,-783.37 593.5,-773.22 603.17,-764.07"/>
<polygon fill="black" stroke="black" points="605.38,-766.8 610.24,-757.39 600.57,-761.72 605.38,-766.8"/>
</g>
<!-- 25 -->
<g id="node26" class="node">
<title>25</title>
<path fill="none" stroke="black" d="M1549.33,-756C1549.33,-756 1492.02,-756 1492.02,-756 1486.02,-756 1480.02,-750 1480.02,-744 1480.02,-744 1480.02,-732 1480.02,-732 1480.02,-726 1486.02,-720 1492.02,-720 1492.02,-720 1549.33,-720 1549.33,-720 1555.33,-720 1561.33,-726 1561.33,-732 1561.33,-732 1561.33,-744 1561.33,-744 1561.33,-750 1555.33,-756 1549.33,-756"/>
<text xml:space="preserve" text-anchor="middle" x="1520.67" y="-733.8" font-family="Times,serif" font-size="14.00">IfStatement</text>
</g>
<!-- 0&#45;&gt;25 -->
<g id="edge25" class="edge">
<title>0&#45;&gt;25</title>
<path fill="none" stroke="black" d="M588.06,-806.65C729.35,-796.4 1292.65,-755.54 1468.17,-742.81"/>
<polygon fill="black" stroke="black" points="1468.42,-746.3 1478.14,-742.09 1467.91,-739.32 1468.42,-746.3"/>
</g>
<!-- 2 -->
<g id="node3" class="node">
<title>2</title>
<path fill="none" stroke="black" d="M278.31,-684C278.31,-684 179.04,-684 179.04,-684 173.04,-684 167.04,-678 167.04,-672 167.04,-672 167.04,-660 167.04,-660 167.04,-654 173.04,-648 179.04,-648 179.04,-648 278.31,-648 278.31,-648 284.31,-648 290.31,-654 290.31,-660 290.31,-660 290.31,-672 290.31,-672 290.31,-678 284.31,-684 278.31,-684"/>
<text xml:space="preserve" text-anchor="middle" x="228.67" y="-661.8" font-family="Times,serif" font-size="14.00">VariableDeclarator</text>
</g>
<!-- 1&#45;&gt;2 -->
<g id="edge2" class="edge">
<title>1&#45;&gt;2</title>
<path fill="none" stroke="black" d="M265.56,-719.7C259.98,-711.73 253.24,-702.1 247.06,-693.26"/>
<polygon fill="black" stroke="black" points="250.12,-691.53 241.52,-685.34 244.38,-695.54 250.12,-691.53"/>
</g>
<!-- 3 -->
<g id="node4" class="node">
<title>3</title>
<path fill="none" stroke="black" d="M148.23,-612C148.23,-612 85.11,-612 85.11,-612 79.11,-612 73.11,-606 73.11,-600 73.11,-600 73.11,-588 73.11,-588 73.11,-582 79.11,-576 85.11,-576 85.11,-576 148.23,-576 148.23,-576 154.23,-576 160.23,-582 160.23,-588 160.23,-588 160.23,-600 160.23,-600 160.23,-606 154.23,-612 148.23,-612"/>
<text xml:space="preserve" text-anchor="middle" x="116.67" y="-589.8" font-family="Times,serif" font-size="14.00">Identifier (a)</text>
</g>
<!-- 2&#45;&gt;3 -->
<g id="edge3" class="edge">
<title>2&#45;&gt;3</title>
<path fill="none" stroke="black" d="M200.7,-647.52C186.56,-638.68 169.21,-627.84 153.96,-618.3"/>
<polygon fill="black" stroke="black" points="155.91,-615.39 145.57,-613.06 152.2,-621.33 155.91,-615.39"/>
</g>
<!-- 4 -->
<g id="node5" class="node">
<title>4</title>
<path fill="none" stroke="black" d="M267.45,-612C267.45,-612 189.9,-612 189.9,-612 183.9,-612 177.9,-606 177.9,-600 177.9,-600 177.9,-588 177.9,-588 177.9,-582 183.9,-576 189.9,-576 189.9,-576 267.45,-576 267.45,-576 273.45,-576 279.45,-582 279.45,-588 279.45,-588 279.45,-600 279.45,-600 279.45,-606 273.45,-612 267.45,-612"/>
<text xml:space="preserve" text-anchor="middle" x="228.67" y="-589.8" font-family="Times,serif" font-size="14.00">CallExpression</text>
</g>
<!-- 2&#45;&gt;4 -->
<g id="edge4" class="edge">
<title>2&#45;&gt;4</title>
<path fill="none" stroke="black" d="M228.67,-647.7C228.67,-640.41 228.67,-631.73 228.67,-623.54"/>
<polygon fill="black" stroke="black" points="232.17,-623.62 228.67,-613.62 225.17,-623.62 232.17,-623.62"/>
</g>
<!-- 5 -->
<g id="node6" class="node">
<title>5</title>
<path fill="none" stroke="black" d="M148.07,-540C148.07,-540 45.28,-540 45.28,-540 39.28,-540 33.28,-534 33.28,-528 33.28,-528 33.28,-516 33.28,-516 33.28,-510 39.28,-504 45.28,-504 45.28,-504 148.07,-504 148.07,-504 154.07,-504 160.07,-510 160.07,-516 160.07,-516 160.07,-528 160.07,-528 160.07,-534 154.07,-540 148.07,-540"/>
<text xml:space="preserve" text-anchor="middle" x="96.67" y="-517.8" font-family="Times,serif" font-size="14.00">Identifier (Number)</text>
</g>
<!-- 4&#45;&gt;5 -->
<g id="edge5" class="edge">
<title>4&#45;&gt;5</title>
<path fill="none" stroke="black" d="M195.71,-575.52C178.65,-566.47 157.62,-555.32 139.34,-545.62"/>
<polygon fill="black" stroke="black" points="141.03,-542.56 130.56,-540.97 137.75,-548.75 141.03,-542.56"/>
</g>
<!-- 6 -->
<g id="node7" class="node">
<title>6</title>
<path fill="none" stroke="black" d="M267.45,-540C267.45,-540 189.9,-540 189.9,-540 183.9,-540 177.9,-534 177.9,-528 177.9,-528 177.9,-516 177.9,-516 177.9,-510 183.9,-504 189.9,-504 189.9,-504 267.45,-504 267.45,-504 273.45,-504 279.45,-510 279.45,-516 279.45,-516 279.45,-528 279.45,-528 279.45,-534 273.45,-540 267.45,-540"/>
<text xml:space="preserve" text-anchor="middle" x="228.67" y="-517.8" font-family="Times,serif" font-size="14.00">CallExpression</text>
</g>
<!-- 4&#45;&gt;6 -->
<g id="edge6" class="edge">
<title>4&#45;&gt;6</title>
<path fill="none" stroke="black" d="M228.67,-575.7C228.67,-568.41 228.67,-559.73 228.67,-551.54"/>
<polygon fill="black" stroke="black" points="232.17,-551.62 228.67,-541.62 225.17,-551.62 232.17,-551.62"/>
</g>
<!-- 7 -->
<g id="node8" class="node">
<title>7</title>
<path fill="none" stroke="black" d="M109.35,-468C109.35,-468 12,-468 12,-468 6,-468 0,-462 0,-456 0,-456 0,-444 0,-444 0,-438 6,-432 12,-432 12,-432 109.35,-432 109.35,-432 115.35,-432 121.35,-438 121.35,-444 121.35,-444 121.35,-456 121.35,-456 121.35,-462 115.35,-468 109.35,-468"/>
<text xml:space="preserve" text-anchor="middle" x="60.67" y="-445.8" font-family="Times,serif" font-size="14.00">Identifier (prompt)</text>
</g>
<!-- 6&#45;&gt;7 -->
<g id="edge7" class="edge">
<title>6&#45;&gt;7</title>
<path fill="none" stroke="black" d="M186.71,-503.52C164.38,-494.21 136.7,-482.68 112.98,-472.79"/>
<polygon fill="black" stroke="black" points="114.36,-469.58 103.79,-468.96 111.67,-476.04 114.36,-469.58"/>
</g>
<!-- 8 -->
<g id="node9" class="node">
<title>8</title>
<path fill="none" stroke="black" d="M305.53,-468C305.53,-468 151.82,-468 151.82,-468 145.82,-468 139.82,-462 139.82,-456 139.82,-456 139.82,-444 139.82,-444 139.82,-438 145.82,-432 151.82,-432 151.82,-432 305.53,-432 305.53,-432 311.53,-432 317.53,-438 317.53,-444 317.53,-444 317.53,-456 317.53,-456 317.53,-462 311.53,-468 305.53,-468"/>
<text xml:space="preserve" text-anchor="middle" x="228.67" y="-445.8" font-family="Times,serif" font-size="14.00">Literal (Digite o valor de a: )</text>
</g>
<!-- 6&#45;&gt;8 -->
<g id="edge8" class="edge">
<title>6&#45;&gt;8</title>
<path fill="none" stroke="black" d="M228.67,-503.7C228.67,-496.41 228.67,-487.73 228.67,-479.54"/>
<polygon fill="black" stroke="black" points="232.17,-479.62 228.67,-469.62 225.17,-479.62 232.17,-479.62"/>
</g>
<!-- 10 -->
<g id="node11" class="node">
<title>10</title>
<path fill="none" stroke="black" d="M532.31,-684C532.31,-684 433.04,-684 433.04,-684 427.04,-684 421.04,-678 421.04,-672 421.04,-672 421.04,-660 421.04,-660 421.04,-654 427.04,-648 433.04,-648 433.04,-648 532.31,-648 532.31,-648 538.31,-648 544.31,-654 544.31,-660 544.31,-660 544.31,-672 544.31,-672 544.31,-678 538.31,-684 532.31,-684"/>
<text xml:space="preserve" text-anchor="middle" x="482.67" y="-661.8" font-family="Times,serif" font-size="14.00">VariableDeclarator</text>
</g>
<!-- 9&#45;&gt;10 -->
<g id="edge10" class="edge">
<title>9&#45;&gt;10</title>
<path fill="none" stroke="black" d="M482.67,-719.7C482.67,-712.41 482.67,-703.73 482.67,-695.54"/>
<polygon fill="black" stroke="black" points="486.17,-695.62 482.67,-685.62 479.17,-695.62 486.17,-695.62"/>
</g>
<!-- 11 -->
<g id="node12" class="node">
<title>11</title>
<path fill="none" stroke="black" d="M410.63,-612C410.63,-612 346.72,-612 346.72,-612 340.72,-612 334.72,-606 334.72,-600 334.72,-600 334.72,-588 334.72,-588 334.72,-582 340.72,-576 346.72,-576 346.72,-576 410.63,-576 410.63,-576 416.63,-576 422.63,-582 422.63,-588 422.63,-588 422.63,-600 422.63,-600 422.63,-606 416.63,-612 410.63,-612"/>
<text xml:space="preserve" text-anchor="middle" x="378.67" y="-589.8" font-family="Times,serif" font-size="14.00">Identifier (b)</text>
</g>
<!-- 10&#45;&gt;11 -->
<g id="edge11" class="edge">
<title>10&#45;&gt;11</title>
<path fill="none" stroke="black" d="M456.7,-647.52C443.7,-638.76 427.77,-628.04 413.7,-618.58"/>
<polygon fill="black" stroke="black" points="415.82,-615.79 405.57,-613.11 411.92,-621.59 415.82,-615.79"/>
</g>
<!-- 12 -->
<g id="node13" class="node">
<title>12</title>
<path fill="none" stroke="black" d="M530.45,-612C530.45,-612 452.9,-612 452.9,-612 446.9,-612 440.9,-606 440.9,-600 440.9,-600 440.9,-588 440.9,-588 440.9,-582 446.9,-576 452.9,-576 452.9,-576 530.45,-576 530.45,-576 536.45,-576 542.45,-582 542.45,-588 542.45,-588 542.45,-600 542.45,-600 542.45,-606 536.45,-612 530.45,-612"/>
<text xml:space="preserve" text-anchor="middle" x="491.67" y="-589.8" font-family="Times,serif" font-size="14.00">CallExpression</text>
</g>
<!-- 10&#45;&gt;12 -->
<g id="edge12" class="edge">
<title>10&#45;&gt;12</title>
<path fill="none" stroke="black" d="M484.9,-647.7C485.85,-640.32 486.98,-631.52 488.04,-623.25"/>
<polygon fill="black" stroke="black" points="491.48,-623.97 489.28,-613.61 484.54,-623.08 491.48,-623.97"/>
</g>
<!-- 13 -->
<g id="node14" class="node">
<title>13</title>
<path fill="none" stroke="black" d="M448.07,-540C448.07,-540 345.28,-540 345.28,-540 339.28,-540 333.28,-534 333.28,-528 333.28,-528 333.28,-516 333.28,-516 333.28,-510 339.28,-504 345.28,-504 345.28,-504 448.07,-504 448.07,-504 454.07,-504 460.07,-510 460.07,-516 460.07,-516 460.07,-528 460.07,-528 460.07,-534 454.07,-540 448.07,-540"/>
<text xml:space="preserve" text-anchor="middle" x="396.67" y="-517.8" font-family="Times,serif" font-size="14.00">Identifier (Number)</text>
</g>
<!-- 12&#45;&gt;13 -->
<g id="edge13" class="edge">
<title>12&#45;&gt;13</title>
<path fill="none" stroke="black" d="M468.19,-575.7C456.43,-567.03 442,-556.4 429.2,-546.96"/>
<polygon fill="black" stroke="black" points="431.56,-544.36 421.44,-541.24 427.41,-549.99 431.56,-544.36"/>
</g>
<!-- 14 -->
<g id="node15" class="node">
<title>14</title>
<path fill="none" stroke="black" d="M567.45,-540C567.45,-540 489.9,-540 489.9,-540 483.9,-540 477.9,-534 477.9,-528 477.9,-528 477.9,-516 477.9,-516 477.9,-510 483.9,-504 489.9,-504 489.9,-504 567.45,-504 567.45,-504 573.45,-504 579.45,-510 579.45,-516 579.45,-516 579.45,-528 579.45,-528 579.45,-534 573.45,-540 567.45,-540"/>
<text xml:space="preserve" text-anchor="middle" x="528.67" y="-517.8" font-family="Times,serif" font-size="14.00">CallExpression</text>
</g>
<!-- 12&#45;&gt;14 -->
<g id="edge14" class="edge">
<title>12&#45;&gt;14</title>
<path fill="none" stroke="black" d="M500.82,-575.7C504.9,-567.98 509.8,-558.71 514.34,-550.11"/>
<polygon fill="black" stroke="black" points="517.35,-551.92 518.93,-541.44 511.16,-548.65 517.35,-551.92"/>
</g>
<!-- 15 -->
<g id="node16" class="node">
<title>15</title>
<path fill="none" stroke="black" d="M445.35,-468C445.35,-468 348,-468 348,-468 342,-468 336,-462 336,-456 336,-456 336,-444 336,-444 336,-438 342,-432 348,-432 348,-432 445.35,-432 445.35,-432 451.35,-432 457.35,-438 457.35,-444 457.35,-444 457.35,-456 457.35,-456 457.35,-462 451.35,-468 445.35,-468"/>
<text xml:space="preserve" text-anchor="middle" x="396.67" y="-445.8" font-family="Times,serif" font-size="14.00">Identifier (prompt)</text>
</g>
<!-- 14&#45;&gt;15 -->
<g id="edge15" class="edge">
<title>14&#45;&gt;15</title>
<path fill="none" stroke="black" d="M495.71,-503.52C478.65,-494.47 457.62,-483.32 439.34,-473.62"/>
<polygon fill="black" stroke="black" points="441.03,-470.56 430.56,-468.97 437.75,-476.75 441.03,-470.56"/>
</g>
<!-- 16 -->
<g id="node17" class="node">
<title>16</title>
<path fill="none" stroke="black" d="M641.92,-468C641.92,-468 487.43,-468 487.43,-468 481.43,-468 475.43,-462 475.43,-456 475.43,-456 475.43,-444 475.43,-444 475.43,-438 481.43,-432 487.43,-432 487.43,-432 641.92,-432 641.92,-432 647.92,-432 653.92,-438 653.92,-444 653.92,-444 653.92,-456 653.92,-456 653.92,-462 647.92,-468 641.92,-468"/>
<text xml:space="preserve" text-anchor="middle" x="564.67" y="-445.8" font-family="Times,serif" font-size="14.00">Literal (Digite o valor de b: )</text>
</g>
<!-- 14&#45;&gt;16 -->
<g id="edge16" class="edge">
<title>14&#45;&gt;16</title>
<path fill="none" stroke="black" d="M537.57,-503.7C541.54,-495.98 546.31,-486.71 550.73,-478.11"/>
<polygon fill="black" stroke="black" points="553.72,-479.94 555.19,-469.45 547.5,-476.74 553.72,-479.94"/>
</g>
<!-- 18 -->
<g id="node19" class="node">
<title>18</title>
<path fill="none" stroke="black" d="M679.31,-684C679.31,-684 580.04,-684 580.04,-684 574.04,-684 568.04,-678 568.04,-672 568.04,-672 568.04,-660 568.04,-660 568.04,-654 574.04,-648 580.04,-648 580.04,-648 679.31,-648 679.31,-648 685.31,-648 691.31,-654 691.31,-660 691.31,-660 691.31,-672 691.31,-672 691.31,-678 685.31,-684 679.31,-684"/>
<text xml:space="preserve" text-anchor="middle" x="629.67" y="-661.8" font-family="Times,serif" font-size="14.00">VariableDeclarator</text>
</g>
<!-- 17&#45;&gt;18 -->
<g id="edge18" class="edge">
<title>17&#45;&gt;18</title>
<path fill="none" stroke="black" d="M629.67,-719.7C629.67,-712.41 629.67,-703.73 629.67,-695.54"/>
<polygon fill="black" stroke="black" points="633.17,-695.62 629.67,-685.62 626.17,-695.62 633.17,-695.62"/>
</g>
<!-- 19 -->
<g id="node20" class="node">
<title>19</title>
<path fill="none" stroke="black" d="M652.23,-612C652.23,-612 589.11,-612 589.11,-612 583.11,-612 577.11,-606 577.11,-600 577.11,-600 577.11,-588 577.11,-588 577.11,-582 583.11,-576 589.11,-576 589.11,-576 652.23,-576 652.23,-576 658.23,-576 664.23,-582 664.23,-588 664.23,-588 664.23,-600 664.23,-600 664.23,-606 658.23,-612 652.23,-612"/>
<text xml:space="preserve" text-anchor="middle" x="620.67" y="-589.8" font-family="Times,serif" font-size="14.00">Identifier (c)</text>
</g>
<!-- 18&#45;&gt;19 -->
<g id="edge19" class="edge">
<title>18&#45;&gt;19</title>
<path fill="none" stroke="black" d="M627.45,-647.7C626.5,-640.32 625.37,-631.52 624.31,-623.25"/>
<polygon fill="black" stroke="black" points="627.81,-623.08 623.07,-613.61 620.87,-623.97 627.81,-623.08"/>
</g>
<!-- 20 -->
<g id="node21" class="node">
<title>20</title>
<path fill="none" stroke="black" d="M771.45,-612C771.45,-612 693.9,-612 693.9,-612 687.9,-612 681.9,-606 681.9,-600 681.9,-600 681.9,-588 681.9,-588 681.9,-582 687.9,-576 693.9,-576 693.9,-576 771.45,-576 771.45,-576 777.45,-576 783.45,-582 783.45,-588 783.45,-588 783.45,-600 783.45,-600 783.45,-606 777.45,-612 771.45,-612"/>
<text xml:space="preserve" text-anchor="middle" x="732.67" y="-589.8" font-family="Times,serif" font-size="14.00">CallExpression</text>
</g>
<!-- 18&#45;&gt;20 -->
<g id="edge20" class="edge">
<title>18&#45;&gt;20</title>
<path fill="none" stroke="black" d="M655.4,-647.52C668.28,-638.76 684.05,-628.04 697.98,-618.58"/>
<polygon fill="black" stroke="black" points="699.72,-621.63 706.02,-613.11 695.79,-615.84 699.72,-621.63"/>
</g>
<!-- 21 -->
<g id="node22" class="node">
<title>21</title>
<path fill="none" stroke="black" d="M748.07,-540C748.07,-540 645.28,-540 645.28,-540 639.28,-540 633.28,-534 633.28,-528 633.28,-528 633.28,-516 633.28,-516 633.28,-510 639.28,-504 645.28,-504 645.28,-504 748.07,-504 748.07,-504 754.07,-504 760.07,-510 760.07,-516 760.07,-516 760.07,-528 760.07,-528 760.07,-534 754.07,-540 748.07,-540"/>
<text xml:space="preserve" text-anchor="middle" x="696.67" y="-517.8" font-family="Times,serif" font-size="14.00">Identifier (Number)</text>
</g>
<!-- 20&#45;&gt;21 -->
<g id="edge21" class="edge">
<title>20&#45;&gt;21</title>
<path fill="none" stroke="black" d="M723.78,-575.7C719.81,-567.98 715.04,-558.71 710.62,-550.11"/>
<polygon fill="black" stroke="black" points="713.85,-548.74 706.16,-541.45 707.62,-551.94 713.85,-548.74"/>
</g>
<!-- 22 -->
<g id="node23" class="node">
<title>22</title>
<path fill="none" stroke="black" d="M867.45,-540C867.45,-540 789.9,-540 789.9,-540 783.9,-540 777.9,-534 777.9,-528 777.9,-528 777.9,-516 777.9,-516 777.9,-510 783.9,-504 789.9,-504 789.9,-504 867.45,-504 867.45,-504 873.45,-504 879.45,-510 879.45,-516 879.45,-516 879.45,-528 879.45,-528 879.45,-534 873.45,-540 867.45,-540"/>
<text xml:space="preserve" text-anchor="middle" x="828.67" y="-517.8" font-family="Times,serif" font-size="14.00">CallExpression</text>
</g>
<!-- 20&#45;&gt;22 -->
<g id="edge22" class="edge">
<title>20&#45;&gt;22</title>
<path fill="none" stroke="black" d="M756.4,-575.7C768.29,-567.03 782.87,-556.4 795.81,-546.96"/>
<polygon fill="black" stroke="black" points="797.64,-549.96 803.66,-541.24 793.52,-544.3 797.64,-549.96"/>
</g>
<!-- 23 -->
<g id="node24" class="node">
<title>23</title>
<path fill="none" stroke="black" d="M781.35,-468C781.35,-468 684,-468 684,-468 678,-468 672,-462 672,-456 672,-456 672,-444 672,-444 672,-438 678,-432 684,-432 684,-432 781.35,-432 781.35,-432 787.35,-432 793.35,-438 793.35,-444 793.35,-444 793.35,-456 793.35,-456 793.35,-462 787.35,-468 781.35,-468"/>
<text xml:space="preserve" text-anchor="middle" x="732.67" y="-445.8" font-family="Times,serif" font-size="14.00">Identifier (prompt)</text>
</g>
<!-- 22&#45;&gt;23 -->
<g id="edge23" class="edge">
<title>22&#45;&gt;23</title>
<path fill="none" stroke="black" d="M804.94,-503.7C793.06,-495.03 778.48,-484.4 765.54,-474.96"/>
<polygon fill="black" stroke="black" points="767.83,-472.3 757.69,-469.24 763.71,-477.96 767.83,-472.3"/>
</g>
<!-- 24 -->
<g id="node25" class="node">
<title>24</title>
<path fill="none" stroke="black" d="M977.53,-468C977.53,-468 823.82,-468 823.82,-468 817.82,-468 811.82,-462 811.82,-456 811.82,-456 811.82,-444 811.82,-444 811.82,-438 817.82,-432 823.82,-432 823.82,-432 977.53,-432 977.53,-432 983.53,-432 989.53,-438 989.53,-444 989.53,-444 989.53,-456 989.53,-456 989.53,-462 983.53,-468 977.53,-468"/>
<text xml:space="preserve" text-anchor="middle" x="900.67" y="-445.8" font-family="Times,serif" font-size="14.00">Literal (Digite o valor de c: )</text>
</g>
<!-- 22&#45;&gt;24 -->
<g id="edge24" class="edge">
<title>22&#45;&gt;24</title>
<path fill="none" stroke="black" d="M846.47,-503.7C854.95,-495.45 865.26,-485.43 874.6,-476.35"/>
<polygon fill="black" stroke="black" points="877.02,-478.88 881.75,-469.4 872.14,-473.86 877.02,-478.88"/>
</g>
<!-- 26 -->
<g id="node27" class="node">
<title>26</title>
<path fill="none" stroke="black" d="M1502.38,-684C1502.38,-684 1386.97,-684 1386.97,-684 1380.97,-684 1374.97,-678 1374.97,-672 1374.97,-672 1374.97,-660 1374.97,-660 1374.97,-654 1380.97,-648 1386.97,-648 1386.97,-648 1502.38,-648 1502.38,-648 1508.38,-648 1514.38,-654 1514.38,-660 1514.38,-660 1514.38,-672 1514.38,-672 1514.38,-678 1508.38,-684 1502.38,-684"/>
<text xml:space="preserve" text-anchor="middle" x="1444.67" y="-661.8" font-family="Times,serif" font-size="14.00">LogicalExpression (||)</text>
</g>
<!-- 25&#45;&gt;26 -->
<g id="edge26" class="edge">
<title>25&#45;&gt;26</title>
<path fill="none" stroke="black" d="M1501.89,-719.7C1492.84,-711.37 1481.83,-701.22 1471.89,-692.07"/>
<polygon fill="black" stroke="black" points="1474.35,-689.57 1464.62,-685.37 1469.61,-694.72 1474.35,-689.57"/>
</g>
<!-- 37 -->
<g id="node38" class="node">
<title>37</title>
<path fill="none" stroke="black" d="M1638.39,-684C1638.39,-684 1556.96,-684 1556.96,-684 1550.96,-684 1544.96,-678 1544.96,-672 1544.96,-672 1544.96,-660 1544.96,-660 1544.96,-654 1550.96,-648 1556.96,-648 1556.96,-648 1638.39,-648 1638.39,-648 1644.39,-648 1650.39,-654 1650.39,-660 1650.39,-660 1650.39,-672 1650.39,-672 1650.39,-678 1644.39,-684 1638.39,-684"/>
<text xml:space="preserve" text-anchor="middle" x="1597.67" y="-661.8" font-family="Times,serif" font-size="14.00">BlockStatement</text>
</g>
<!-- 25&#45;&gt;37 -->
<g id="edge37" class="edge">
<title>25&#45;&gt;37</title>
<path fill="none" stroke="black" d="M1539.71,-719.7C1548.87,-711.37 1560.03,-701.22 1570.1,-692.07"/>
<polygon fill="black" stroke="black" points="1572.43,-694.68 1577.47,-685.37 1567.72,-689.5 1572.43,-694.68"/>
</g>
<!-- 42 -->
<g id="node43" class="node">
<title>42</title>
<path fill="none" stroke="black" d="M2058.39,-684C2058.39,-684 1976.96,-684 1976.96,-684 1970.96,-684 1964.96,-678 1964.96,-672 1964.96,-672 1964.96,-660 1964.96,-660 1964.96,-654 1970.96,-648 1976.96,-648 1976.96,-648 2058.39,-648 2058.39,-648 2064.39,-648 2070.39,-654 2070.39,-660 2070.39,-660 2070.39,-672 2070.39,-672 2070.39,-678 2064.39,-684 2058.39,-684"/>
<text xml:space="preserve" text-anchor="middle" x="2017.67" y="-661.8" font-family="Times,serif" font-size="14.00">BlockStatement</text>
</g>
<!-- 25&#45;&gt;42 -->
<g id="edge42" class="edge">
<title>25&#45;&gt;42</title>
<path fill="none" stroke="black" d="M1561.77,-731.21C1648.3,-719.03 1849.81,-690.64 1953.5,-676.04"/>
<polygon fill="black" stroke="black" points="1953.83,-679.53 1963.24,-674.67 1952.85,-672.6 1953.83,-679.53"/>
</g>
<!-- 27 -->
<g id="node28" class="node">
<title>27</title>
<path fill="none" stroke="black" d="M1337.38,-612C1337.38,-612 1221.97,-612 1221.97,-612 1215.97,-612 1209.97,-606 1209.97,-600 1209.97,-600 1209.97,-588 1209.97,-588 1209.97,-582 1215.97,-576 1221.97,-576 1221.97,-576 1337.38,-576 1337.38,-576 1343.38,-576 1349.38,-582 1349.38,-588 1349.38,-588 1349.38,-600 1349.38,-600 1349.38,-606 1343.38,-612 1337.38,-612"/>
<text xml:space="preserve" text-anchor="middle" x="1279.67" y="-589.8" font-family="Times,serif" font-size="14.00">LogicalExpression (||)</text>
</g>
<!-- 26&#45;&gt;27 -->
<g id="edge27" class="edge">
<title>26&#45;&gt;27</title>
<path fill="none" stroke="black" d="M1403.46,-647.52C1381.53,-638.21 1354.35,-626.68 1331.05,-616.79"/>
<polygon fill="black" stroke="black" points="1332.61,-613.66 1322.04,-612.97 1329.88,-620.1 1332.61,-613.66"/>
</g>
<!-- 34 -->
<g id="node35" class="node">
<title>34</title>
<path fill="none" stroke="black" d="M1505.14,-612C1505.14,-612 1384.21,-612 1384.21,-612 1378.21,-612 1372.21,-606 1372.21,-600 1372.21,-600 1372.21,-588 1372.21,-588 1372.21,-582 1378.21,-576 1384.21,-576 1384.21,-576 1505.14,-576 1505.14,-576 1511.14,-576 1517.14,-582 1517.14,-588 1517.14,-588 1517.14,-600 1517.14,-600 1517.14,-606 1511.14,-612 1505.14,-612"/>
<text xml:space="preserve" text-anchor="middle" x="1444.67" y="-589.8" font-family="Times,serif" font-size="14.00">BinaryExpression (&lt;=)</text>
</g>
<!-- 26&#45;&gt;34 -->
<g id="edge34" class="edge">
<title>26&#45;&gt;34</title>
<path fill="none" stroke="black" d="M1444.67,-647.7C1444.67,-640.41 1444.67,-631.73 1444.67,-623.54"/>
<polygon fill="black" stroke="black" points="1448.17,-623.62 1444.67,-613.62 1441.17,-623.62 1448.17,-623.62"/>
</g>
<!-- 28 -->
<g id="node29" class="node">
<title>28</title>
<path fill="none" stroke="black" d="M1177.14,-540C1177.14,-540 1056.21,-540 1056.21,-540 1050.21,-540 1044.21,-534 1044.21,-528 1044.21,-528 1044.21,-516 1044.21,-516 1044.21,-510 1050.21,-504 1056.21,-504 1056.21,-504 1177.14,-504 1177.14,-504 1183.14,-504 1189.14,-510 1189.14,-516 1189.14,-516 1189.14,-528 1189.14,-528 1189.14,-534 1183.14,-540 1177.14,-540"/>
<text xml:space="preserve" text-anchor="middle" x="1116.67" y="-517.8" font-family="Times,serif" font-size="14.00">BinaryExpression (&lt;=)</text>
</g>
<!-- 27&#45;&gt;28 -->
<g id="edge28" class="edge">
<title>27&#45;&gt;28</title>
<path fill="none" stroke="black" d="M1238.96,-575.52C1217.29,-566.21 1190.44,-554.68 1167.42,-544.79"/>
<polygon fill="black" stroke="black" points="1169.11,-541.71 1158.54,-540.98 1166.35,-548.14 1169.11,-541.71"/>
</g>
<!-- 31 -->
<g id="node32" class="node">
<title>31</title>
<path fill="none" stroke="black" d="M1340.14,-540C1340.14,-540 1219.21,-540 1219.21,-540 1213.21,-540 1207.21,-534 1207.21,-528 1207.21,-528 1207.21,-516 1207.21,-516 1207.21,-510 1213.21,-504 1219.21,-504 1219.21,-504 1340.14,-504 1340.14,-504 1346.14,-504 1352.14,-510 1352.14,-516 1352.14,-516 1352.14,-528 1352.14,-528 1352.14,-534 1346.14,-540 1340.14,-540"/>
<text xml:space="preserve" text-anchor="middle" x="1279.67" y="-517.8" font-family="Times,serif" font-size="14.00">BinaryExpression (&lt;=)</text>
</g>
<!-- 27&#45;&gt;31 -->
<g id="edge31" class="edge">
<title>27&#45;&gt;31</title>
<path fill="none" stroke="black" d="M1279.67,-575.7C1279.67,-568.41 1279.67,-559.73 1279.67,-551.54"/>
<polygon fill="black" stroke="black" points="1283.17,-551.62 1279.67,-541.62 1276.17,-551.62 1283.17,-551.62"/>
</g>
<!-- 29 -->
<g id="node30" class="node">
<title>29</title>
<path fill="none" stroke="black" d="M1082.23,-468C1082.23,-468 1019.11,-468 1019.11,-468 1013.11,-468 1007.11,-462 1007.11,-456 1007.11,-456 1007.11,-444 1007.11,-444 1007.11,-438 1013.11,-432 1019.11,-432 1019.11,-432 1082.23,-432 1082.23,-432 1088.23,-432 1094.23,-438 1094.23,-444 1094.23,-444 1094.23,-456 1094.23,-456 1094.23,-462 1088.23,-468 1082.23,-468"/>
<text xml:space="preserve" text-anchor="middle" x="1050.67" y="-445.8" font-family="Times,serif" font-size="14.00">Identifier (a)</text>
</g>
<!-- 28&#45;&gt;29 -->
<g id="edge29" class="edge">
<title>28&#45;&gt;29</title>
<path fill="none" stroke="black" d="M1100.36,-503.7C1092.61,-495.47 1083.19,-485.48 1074.64,-476.42"/>
<polygon fill="black" stroke="black" points="1077.25,-474.08 1067.84,-469.21 1072.15,-478.88 1077.25,-474.08"/>
</g>
<!-- 30 -->
<g id="node31" class="node">
<title>30</title>
<path fill="none" stroke="black" d="M1173.24,-468C1173.24,-468 1124.11,-468 1124.11,-468 1118.11,-468 1112.11,-462 1112.11,-456 1112.11,-456 1112.11,-444 1112.11,-444 1112.11,-438 1118.11,-432 1124.11,-432 1124.11,-432 1173.24,-432 1173.24,-432 1179.24,-432 1185.24,-438 1185.24,-444 1185.24,-444 1185.24,-456 1185.24,-456 1185.24,-462 1179.24,-468 1173.24,-468"/>
<text xml:space="preserve" text-anchor="middle" x="1148.67" y="-445.8" font-family="Times,serif" font-size="14.00">Literal (0)</text>
</g>
<!-- 28&#45;&gt;30 -->
<g id="edge30" class="edge">
<title>28&#45;&gt;30</title>
<path fill="none" stroke="black" d="M1124.58,-503.7C1128.07,-496.07 1132.26,-486.92 1136.15,-478.4"/>
<polygon fill="black" stroke="black" points="1139.25,-480.03 1140.23,-469.48 1132.89,-477.12 1139.25,-480.03"/>
</g>
<!-- 32 -->
<g id="node33" class="node">
<title>32</title>
<path fill="none" stroke="black" d="M1279.63,-468C1279.63,-468 1215.72,-468 1215.72,-468 1209.72,-468 1203.72,-462 1203.72,-456 1203.72,-456 1203.72,-444 1203.72,-444 1203.72,-438 1209.72,-432 1215.72,-432 1215.72,-432 1279.63,-432 1279.63,-432 1285.63,-432 1291.63,-438 1291.63,-444 1291.63,-444 1291.63,-456 1291.63,-456 1291.63,-462 1285.63,-468 1279.63,-468"/>
<text xml:space="preserve" text-anchor="middle" x="1247.67" y="-445.8" font-family="Times,serif" font-size="14.00">Identifier (b)</text>
</g>
<!-- 31&#45;&gt;32 -->
<g id="edge32" class="edge">
<title>31&#45;&gt;32</title>
<path fill="none" stroke="black" d="M1271.76,-503.7C1268.28,-496.07 1264.09,-486.92 1260.2,-478.4"/>
<polygon fill="black" stroke="black" points="1263.46,-477.12 1256.12,-469.48 1257.1,-480.03 1263.46,-477.12"/>
</g>
<!-- 33 -->
<g id="node34" class="node">
<title>33</title>
<path fill="none" stroke="black" d="M1371.24,-468C1371.24,-468 1322.11,-468 1322.11,-468 1316.11,-468 1310.11,-462 1310.11,-456 1310.11,-456 1310.11,-444 1310.11,-444 1310.11,-438 1316.11,-432 1322.11,-432 1322.11,-432 1371.24,-432 1371.24,-432 1377.24,-432 1383.24,-438 1383.24,-444 1383.24,-444 1383.24,-456 1383.24,-456 1383.24,-462 1377.24,-468 1371.24,-468"/>
<text xml:space="preserve" text-anchor="middle" x="1346.67" y="-445.8" font-family="Times,serif" font-size="14.00">Literal (0)</text>
</g>
<!-- 31&#45;&gt;33 -->
<g id="edge33" class="edge">
<title>31&#45;&gt;33</title>
<path fill="none" stroke="black" d="M1296.24,-503.7C1304.11,-495.47 1313.67,-485.48 1322.34,-476.42"/>
<polygon fill="black" stroke="black" points="1324.87,-478.84 1329.26,-469.2 1319.81,-474 1324.87,-478.84"/>
</g>
<!-- 35 -->
<g id="node36" class="node">
<title>35</title>
<path fill="none" stroke="black" d="M1445.23,-540C1445.23,-540 1382.11,-540 1382.11,-540 1376.11,-540 1370.11,-534 1370.11,-528 1370.11,-528 1370.11,-516 1370.11,-516 1370.11,-510 1376.11,-504 1382.11,-504 1382.11,-504 1445.23,-504 1445.23,-504 1451.23,-504 1457.23,-510 1457.23,-516 1457.23,-516 1457.23,-528 1457.23,-528 1457.23,-534 1451.23,-540 1445.23,-540"/>
<text xml:space="preserve" text-anchor="middle" x="1413.67" y="-517.8" font-family="Times,serif" font-size="14.00">Identifier (c)</text>
</g>
<!-- 34&#45;&gt;35 -->
<g id="edge35" class="edge">
<title>34&#45;&gt;35</title>
<path fill="none" stroke="black" d="M1437.01,-575.7C1433.63,-568.07 1429.58,-558.92 1425.81,-550.4"/>
<polygon fill="black" stroke="black" points="1429.11,-549.21 1421.86,-541.49 1422.71,-552.05 1429.11,-549.21"/>
</g>
<!-- 36 -->
<g id="node37" class="node">
<title>36</title>
<path fill="none" stroke="black" d="M1536.24,-540C1536.24,-540 1487.11,-540 1487.11,-540 1481.11,-540 1475.11,-534 1475.11,-528 1475.11,-528 1475.11,-516 1475.11,-516 1475.11,-510 1481.11,-504 1487.11,-504 1487.11,-504 1536.24,-504 1536.24,-504 1542.24,-504 1548.24,-510 1548.24,-516 1548.24,-516 1548.24,-528 1548.24,-528 1548.24,-534 1542.24,-540 1536.24,-540"/>
<text xml:space="preserve" text-anchor="middle" x="1511.67" y="-517.8" font-family="Times,serif" font-size="14.00">Literal (0)</text>
</g>
<!-- 34&#45;&gt;36 -->
<g id="edge36" class="edge">
<title>34&#45;&gt;36</title>
<path fill="none" stroke="black" d="M1461.24,-575.7C1469.11,-567.47 1478.67,-557.48 1487.34,-548.42"/>
<polygon fill="black" stroke="black" points="1489.87,-550.84 1494.26,-541.2 1484.81,-546 1489.87,-550.84"/>
</g>
<!-- 38 -->
<g id="node39" class="node">
<title>38</title>
<path fill="none" stroke="black" d="M1666.77,-612C1666.77,-612 1556.57,-612 1556.57,-612 1550.57,-612 1544.57,-606 1544.57,-600 1544.57,-600 1544.57,-588 1544.57,-588 1544.57,-582 1550.57,-576 1556.57,-576 1556.57,-576 1666.77,-576 1666.77,-576 1672.77,-576 1678.77,-582 1678.77,-588 1678.77,-588 1678.77,-600 1678.77,-600 1678.77,-606 1672.77,-612 1666.77,-612"/>
<text xml:space="preserve" text-anchor="middle" x="1611.67" y="-589.8" font-family="Times,serif" font-size="14.00">ExpressionStatement</text>
</g>
<!-- 37&#45;&gt;38 -->
<g id="edge38" class="edge">
<title>37&#45;&gt;38</title>
<path fill="none" stroke="black" d="M1601.13,-647.7C1602.61,-640.32 1604.37,-631.52 1606.02,-623.25"/>
<polygon fill="black" stroke="black" points="1609.43,-624.08 1607.96,-613.59 1602.56,-622.71 1609.43,-624.08"/>
</g>
<!-- 39 -->
<g id="node40" class="node">
<title>39</title>
<path fill="none" stroke="black" d="M1655.45,-540C1655.45,-540 1577.9,-540 1577.9,-540 1571.9,-540 1565.9,-534 1565.9,-528 1565.9,-528 1565.9,-516 1565.9,-516 1565.9,-510 1571.9,-504 1577.9,-504 1577.9,-504 1655.45,-504 1655.45,-504 1661.45,-504 1667.45,-510 1667.45,-516 1667.45,-516 1667.45,-528 1667.45,-528 1667.45,-534 1661.45,-540 1655.45,-540"/>
<text xml:space="preserve" text-anchor="middle" x="1616.67" y="-517.8" font-family="Times,serif" font-size="14.00">CallExpression</text>
</g>
<!-- 38&#45;&gt;39 -->
<g id="edge39" class="edge">
<title>38&#45;&gt;39</title>
<path fill="none" stroke="black" d="M1612.91,-575.7C1613.43,-568.41 1614.05,-559.73 1614.64,-551.54"/>
<polygon fill="black" stroke="black" points="1618.12,-551.84 1615.34,-541.61 1611.14,-551.34 1618.12,-551.84"/>
</g>
<!-- 40 -->
<g id="node41" class="node">
<title>40</title>
<path fill="none" stroke="black" d="M1534.21,-468C1534.21,-468 1413.14,-468 1413.14,-468 1407.14,-468 1401.14,-462 1401.14,-456 1401.14,-456 1401.14,-444 1401.14,-444 1401.14,-438 1407.14,-432 1413.14,-432 1413.14,-432 1534.21,-432 1534.21,-432 1540.21,-432 1546.21,-438 1546.21,-444 1546.21,-444 1546.21,-456 1546.21,-456 1546.21,-462 1540.21,-468 1534.21,-468"/>
<text xml:space="preserve" text-anchor="middle" x="1473.67" y="-445.8" font-family="Times,serif" font-size="14.00">Identifier (console.log)</text>
</g>
<!-- 39&#45;&gt;40 -->
<g id="edge40" class="edge">
<title>39&#45;&gt;40</title>
<path fill="none" stroke="black" d="M1580.96,-503.52C1562.22,-494.34 1539.06,-483.01 1519.06,-473.22"/>
<polygon fill="black" stroke="black" points="1520.82,-470.18 1510.29,-468.93 1517.74,-476.47 1520.82,-470.18"/>
</g>
<!-- 41 -->
<g id="node42" class="node">
<title>41</title>
<path fill="none" stroke="black" d="M1917.41,-468C1917.41,-468 1575.93,-468 1575.93,-468 1569.93,-468 1563.93,-462 1563.93,-456 1563.93,-456 1563.93,-444 1563.93,-444 1563.93,-438 1569.93,-432 1575.93,-432 1575.93,-432 1917.41,-432 1917.41,-432 1923.41,-432 1929.41,-438 1929.41,-444 1929.41,-444 1929.41,-456 1929.41,-456 1929.41,-462 1923.41,-468 1917.41,-468"/>
<text xml:space="preserve" text-anchor="middle" x="1746.67" y="-445.8" font-family="Times,serif" font-size="14.00">Literal (Erro: Valores devem ser positivos e maiores que zero)</text>
</g>
<!-- 39&#45;&gt;41 -->
<g id="edge41" class="edge">
<title>39&#45;&gt;41</title>
<path fill="none" stroke="black" d="M1649.14,-503.52C1665.94,-494.47 1686.65,-483.32 1704.66,-473.62"/>
<polygon fill="black" stroke="black" points="1706.14,-476.8 1713.29,-468.98 1702.82,-470.64 1706.14,-476.8"/>
</g>
<!-- 43 -->
<g id="node44" class="node">
<title>43</title>
<path fill="none" stroke="black" d="M2386.33,-612C2386.33,-612 2329.02,-612 2329.02,-612 2323.02,-612 2317.02,-606 2317.02,-600 2317.02,-600 2317.02,-588 2317.02,-588 2317.02,-582 2323.02,-576 2329.02,-576 2329.02,-576 2386.33,-576 2386.33,-576 2392.33,-576 2398.33,-582 2398.33,-588 2398.33,-588 2398.33,-600 2398.33,-600 2398.33,-606 2392.33,-612 2386.33,-612"/>
<text xml:space="preserve" text-anchor="middle" x="2357.67" y="-589.8" font-family="Times,serif" font-size="14.00">IfStatement</text>
</g>
<!-- 42&#45;&gt;43 -->
<g id="edge43" class="edge">
<title>42&#45;&gt;43</title>
<path fill="none" stroke="black" d="M2070.8,-654.06C2134.93,-640.86 2242.08,-618.8 2305.69,-605.7"/>
<polygon fill="black" stroke="black" points="2306.09,-609.19 2315.18,-603.75 2304.68,-602.34 2306.09,-609.19"/>
</g>
<!-- 44 -->
<g id="node45" class="node">
<title>44</title>
<path fill="none" stroke="black" d="M2344.46,-540C2344.46,-540 2212.89,-540 2212.89,-540 2206.89,-540 2200.89,-534 2200.89,-528 2200.89,-528 2200.89,-516 2200.89,-516 2200.89,-510 2206.89,-504 2212.89,-504 2212.89,-504 2344.46,-504 2344.46,-504 2350.46,-504 2356.46,-510 2356.46,-516 2356.46,-516 2356.46,-528 2356.46,-528 2356.46,-534 2350.46,-540 2344.46,-540"/>
<text xml:space="preserve" text-anchor="middle" x="2278.67" y="-517.8" font-family="Times,serif" font-size="14.00">LogicalExpression (&amp;&amp;)</text>
</g>
<!-- 43&#45;&gt;44 -->
<g id="edge44" class="edge">
<title>43&#45;&gt;44</title>
<path fill="none" stroke="black" d="M2338.15,-575.7C2328.65,-567.28 2317.07,-557.02 2306.65,-547.79"/>
<polygon fill="black" stroke="black" points="2309.19,-545.36 2299.38,-541.35 2304.55,-550.6 2309.19,-545.36"/>
</g>
<!-- 61 -->
<g id="node62" class="node">
<title>61</title>
<path fill="none" stroke="black" d="M2477.39,-540C2477.39,-540 2395.96,-540 2395.96,-540 2389.96,-540 2383.96,-534 2383.96,-528 2383.96,-528 2383.96,-516 2383.96,-516 2383.96,-510 2389.96,-504 2395.96,-504 2395.96,-504 2477.39,-504 2477.39,-504 2483.39,-504 2489.39,-510 2489.39,-516 2489.39,-516 2489.39,-528 2489.39,-528 2489.39,-534 2483.39,-540 2477.39,-540"/>
<text xml:space="preserve" text-anchor="middle" x="2436.67" y="-517.8" font-family="Times,serif" font-size="14.00">BlockStatement</text>
</g>
<!-- 43&#45;&gt;61 -->
<g id="edge61" class="edge">
<title>43&#45;&gt;61</title>
<path fill="none" stroke="black" d="M2377.2,-575.7C2386.7,-567.28 2398.28,-557.02 2408.7,-547.79"/>
<polygon fill="black" stroke="black" points="2410.8,-550.6 2415.96,-541.35 2406.16,-545.36 2410.8,-550.6"/>
</g>
<!-- 98 -->
<g id="node99" class="node">
<title>98</title>
<path fill="none" stroke="black" d="M2708.39,-540C2708.39,-540 2626.96,-540 2626.96,-540 2620.96,-540 2614.96,-534 2614.96,-528 2614.96,-528 2614.96,-516 2614.96,-516 2614.96,-510 2620.96,-504 2626.96,-504 2626.96,-504 2708.39,-504 2708.39,-504 2714.39,-504 2720.39,-510 2720.39,-516 2720.39,-516 2720.39,-528 2720.39,-528 2720.39,-534 2714.39,-540 2708.39,-540"/>
<text xml:space="preserve" text-anchor="middle" x="2667.67" y="-517.8" font-family="Times,serif" font-size="14.00">BlockStatement</text>
</g>
<!-- 43&#45;&gt;98 -->
<g id="edge98" class="edge">
<title>43&#45;&gt;98</title>
<path fill="none" stroke="black" d="M2398.52,-583.78C2450.76,-571.98 2541.81,-551.42 2603.39,-537.52"/>
<polygon fill="black" stroke="black" points="2604.07,-540.95 2613.05,-535.33 2602.53,-534.12 2604.07,-540.95"/>
</g>
<!-- 45 -->
<g id="node46" class="node">
<title>45</title>
<path fill="none" stroke="black" d="M2091.46,-468C2091.46,-468 1959.89,-468 1959.89,-468 1953.89,-468 1947.89,-462 1947.89,-456 1947.89,-456 1947.89,-444 1947.89,-444 1947.89,-438 1953.89,-432 1959.89,-432 1959.89,-432 2091.46,-432 2091.46,-432 2097.46,-432 2103.46,-438 2103.46,-444 2103.46,-444 2103.46,-456 2103.46,-456 2103.46,-462 2097.46,-468 2091.46,-468"/>
<text xml:space="preserve" text-anchor="middle" x="2025.67" y="-445.8" font-family="Times,serif" font-size="14.00">LogicalExpression (&amp;&amp;)</text>
</g>
<!-- 44&#45;&gt;45 -->
<g id="edge45" class="edge">
<title>44&#45;&gt;45</title>
<path fill="none" stroke="black" d="M2215.48,-503.52C2180.18,-493.75 2136.02,-481.53 2099.18,-471.34"/>
<polygon fill="black" stroke="black" points="2100.53,-468.08 2089.96,-468.79 2098.66,-474.83 2100.53,-468.08"/>
</g>
<!-- 56 -->
<g id="node57" class="node">
<title>56</title>
<path fill="none" stroke="black" d="M2335.19,-468C2335.19,-468 2222.16,-468 2222.16,-468 2216.16,-468 2210.16,-462 2210.16,-456 2210.16,-456 2210.16,-444 2210.16,-444 2210.16,-438 2216.16,-432 2222.16,-432 2222.16,-432 2335.19,-432 2335.19,-432 2341.19,-432 2347.19,-438 2347.19,-444 2347.19,-444 2347.19,-456 2347.19,-456 2347.19,-462 2341.19,-468 2335.19,-468"/>
<text xml:space="preserve" text-anchor="middle" x="2278.67" y="-445.8" font-family="Times,serif" font-size="14.00">BinaryExpression (&gt;)</text>
</g>
<!-- 44&#45;&gt;56 -->
<g id="edge56" class="edge">
<title>44&#45;&gt;56</title>
<path fill="none" stroke="black" d="M2278.67,-503.7C2278.67,-496.41 2278.67,-487.73 2278.67,-479.54"/>
<polygon fill="black" stroke="black" points="2282.17,-479.62 2278.67,-469.62 2275.17,-479.62 2282.17,-479.62"/>
</g>
<!-- 46 -->
<g id="node47" class="node">
<title>46</title>
<path fill="none" stroke="black" d="M1799.19,-396C1799.19,-396 1686.16,-396 1686.16,-396 1680.16,-396 1674.16,-390 1674.16,-384 1674.16,-384 1674.16,-372 1674.16,-372 1674.16,-366 1680.16,-360 1686.16,-360 1686.16,-360 1799.19,-360 1799.19,-360 1805.19,-360 1811.19,-366 1811.19,-372 1811.19,-372 1811.19,-384 1811.19,-384 1811.19,-390 1805.19,-396 1799.19,-396"/>
<text xml:space="preserve" text-anchor="middle" x="1742.67" y="-373.8" font-family="Times,serif" font-size="14.00">BinaryExpression (&gt;)</text>
</g>
<!-- 45&#45;&gt;46 -->
<g id="edge46" class="edge">
<title>45&#45;&gt;46</title>
<path fill="none" stroke="black" d="M1954.99,-431.52C1914.71,-421.55 1864.12,-409.04 1822.43,-398.73"/>
<polygon fill="black" stroke="black" points="1823.5,-395.39 1812.95,-396.38 1821.82,-402.18 1823.5,-395.39"/>
</g>
<!-- 51 -->
<g id="node52" class="node">
<title>51</title>
<path fill="none" stroke="black" d="M2059.19,-396C2059.19,-396 1946.16,-396 1946.16,-396 1940.16,-396 1934.16,-390 1934.16,-384 1934.16,-384 1934.16,-372 1934.16,-372 1934.16,-366 1940.16,-360 1946.16,-360 1946.16,-360 2059.19,-360 2059.19,-360 2065.19,-360 2071.19,-366 2071.19,-372 2071.19,-372 2071.19,-384 2071.19,-384 2071.19,-390 2065.19,-396 2059.19,-396"/>
<text xml:space="preserve" text-anchor="middle" x="2002.67" y="-373.8" font-family="Times,serif" font-size="14.00">BinaryExpression (&gt;)</text>
</g>
<!-- 45&#45;&gt;51 -->
<g id="edge51" class="edge">
<title>45&#45;&gt;51</title>
<path fill="none" stroke="black" d="M2019.99,-431.7C2017.54,-424.24 2014.61,-415.32 2011.86,-406.97"/>
<polygon fill="black" stroke="black" points="2015.21,-405.95 2008.77,-397.54 2008.56,-408.14 2015.21,-405.95"/>
</g>
<!-- 47 -->
<g id="node48" class="node">
<title>47</title>
<path fill="none" stroke="black" d="M1669.19,-324C1669.19,-324 1556.16,-324 1556.16,-324 1550.16,-324 1544.16,-318 1544.16,-312 1544.16,-312 1544.16,-300 1544.16,-300 1544.16,-294 1550.16,-288 1556.16,-288 1556.16,-288 1669.19,-288 1669.19,-288 1675.19,-288 1681.19,-294 1681.19,-300 1681.19,-300 1681.19,-312 1681.19,-312 1681.19,-318 1675.19,-324 1669.19,-324"/>
<text xml:space="preserve" text-anchor="middle" x="1612.67" y="-301.8" font-family="Times,serif" font-size="14.00">BinaryExpression (+)</text>
</g>
<!-- 46&#45;&gt;47 -->
<g id="edge47" class="edge">
<title>46&#45;&gt;47</title>
<path fill="none" stroke="black" d="M1710.21,-359.52C1693.4,-350.47 1672.7,-339.32 1654.69,-329.62"/>
<polygon fill="black" stroke="black" points="1656.53,-326.64 1646.06,-324.98 1653.21,-332.8 1656.53,-326.64"/>
</g>
<!-- 50 -->
<g id="node51" class="node">
<title>50</title>
<path fill="none" stroke="black" d="M1774.23,-324C1774.23,-324 1711.11,-324 1711.11,-324 1705.11,-324 1699.11,-318 1699.11,-312 1699.11,-312 1699.11,-300 1699.11,-300 1699.11,-294 1705.11,-288 1711.11,-288 1711.11,-288 1774.23,-288 1774.23,-288 1780.23,-288 1786.23,-294 1786.23,-300 1786.23,-300 1786.23,-312 1786.23,-312 1786.23,-318 1780.23,-324 1774.23,-324"/>
<text xml:space="preserve" text-anchor="middle" x="1742.67" y="-301.8" font-family="Times,serif" font-size="14.00">Identifier (c)</text>
</g>
<!-- 46&#45;&gt;50 -->
<g id="edge50" class="edge">
<title>46&#45;&gt;50</title>
<path fill="none" stroke="black" d="M1742.67,-359.7C1742.67,-352.41 1742.67,-343.73 1742.67,-335.54"/>
<polygon fill="black" stroke="black" points="1746.17,-335.62 1742.67,-325.62 1739.17,-335.62 1746.17,-335.62"/>
</g>
<!-- 48 -->
<g id="node49" class="node">
<title>48</title>
<path fill="none" stroke="black" d="M1591.23,-252C1591.23,-252 1528.11,-252 1528.11,-252 1522.11,-252 1516.11,-246 1516.11,-240 1516.11,-240 1516.11,-228 1516.11,-228 1516.11,-222 1522.11,-216 1528.11,-216 1528.11,-216 1591.23,-216 1591.23,-216 1597.23,-216 1603.23,-222 1603.23,-228 1603.23,-228 1603.23,-240 1603.23,-240 1603.23,-246 1597.23,-252 1591.23,-252"/>
<text xml:space="preserve" text-anchor="middle" x="1559.67" y="-229.8" font-family="Times,serif" font-size="14.00">Identifier (a)</text>
</g>
<!-- 47&#45;&gt;48 -->
<g id="edge48" class="edge">
<title>47&#45;&gt;48</title>
<path fill="none" stroke="black" d="M1599.57,-287.7C1593.54,-279.73 1586.25,-270.1 1579.56,-261.26"/>
<polygon fill="black" stroke="black" points="1582.37,-259.17 1573.54,-253.31 1576.78,-263.4 1582.37,-259.17"/>
</g>
<!-- 49 -->
<g id="node50" class="node">
<title>49</title>
<path fill="none" stroke="black" d="M1697.63,-252C1697.63,-252 1633.72,-252 1633.72,-252 1627.72,-252 1621.72,-246 1621.72,-240 1621.72,-240 1621.72,-228 1621.72,-228 1621.72,-222 1627.72,-216 1633.72,-216 1633.72,-216 1697.63,-216 1697.63,-216 1703.63,-216 1709.63,-222 1709.63,-228 1709.63,-228 1709.63,-240 1709.63,-240 1709.63,-246 1703.63,-252 1697.63,-252"/>
<text xml:space="preserve" text-anchor="middle" x="1665.67" y="-229.8" font-family="Times,serif" font-size="14.00">Identifier (b)</text>
</g>
<!-- 47&#45;&gt;49 -->
<g id="edge49" class="edge">
<title>47&#45;&gt;49</title>
<path fill="none" stroke="black" d="M1625.78,-287.7C1631.81,-279.73 1639.1,-270.1 1645.79,-261.26"/>
<polygon fill="black" stroke="black" points="1648.56,-263.4 1651.81,-253.31 1642.98,-259.17 1648.56,-263.4"/>
</g>
<!-- 52 -->
<g id="node53" class="node">
<title>52</title>
<path fill="none" stroke="black" d="M1929.19,-324C1929.19,-324 1816.16,-324 1816.16,-324 1810.16,-324 1804.16,-318 1804.16,-312 1804.16,-312 1804.16,-300 1804.16,-300 1804.16,-294 1810.16,-288 1816.16,-288 1816.16,-288 1929.19,-288 1929.19,-288 1935.19,-288 1941.19,-294 1941.19,-300 1941.19,-300 1941.19,-312 1941.19,-312 1941.19,-318 1935.19,-324 1929.19,-324"/>
<text xml:space="preserve" text-anchor="middle" x="1872.67" y="-301.8" font-family="Times,serif" font-size="14.00">BinaryExpression (+)</text>
</g>
<!-- 51&#45;&gt;52 -->
<g id="edge52" class="edge">
<title>51&#45;&gt;52</title>
<path fill="none" stroke="black" d="M1970.21,-359.52C1953.4,-350.47 1932.7,-339.32 1914.69,-329.62"/>
<polygon fill="black" stroke="black" points="1916.53,-326.64 1906.06,-324.98 1913.21,-332.8 1916.53,-326.64"/>
</g>
<!-- 55 -->
<g id="node56" class="node">
<title>55</title>
<path fill="none" stroke="black" d="M2034.63,-324C2034.63,-324 1970.72,-324 1970.72,-324 1964.72,-324 1958.72,-318 1958.72,-312 1958.72,-312 1958.72,-300 1958.72,-300 1958.72,-294 1964.72,-288 1970.72,-288 1970.72,-288 2034.63,-288 2034.63,-288 2040.63,-288 2046.63,-294 2046.63,-300 2046.63,-300 2046.63,-312 2046.63,-312 2046.63,-318 2040.63,-324 2034.63,-324"/>
<text xml:space="preserve" text-anchor="middle" x="2002.67" y="-301.8" font-family="Times,serif" font-size="14.00">Identifier (b)</text>
</g>
<!-- 51&#45;&gt;55 -->
<g id="edge55" class="edge">
<title>51&#45;&gt;55</title>
<path fill="none" stroke="black" d="M2002.67,-359.7C2002.67,-352.41 2002.67,-343.73 2002.67,-335.54"/>
<polygon fill="black" stroke="black" points="2006.17,-335.62 2002.67,-325.62 1999.17,-335.62 2006.17,-335.62"/>
</g>
<!-- 53 -->
<g id="node54" class="node">
<title>53</title>
<path fill="none" stroke="black" d="M1854.23,-252C1854.23,-252 1791.11,-252 1791.11,-252 1785.11,-252 1779.11,-246 1779.11,-240 1779.11,-240 1779.11,-228 1779.11,-228 1779.11,-222 1785.11,-216 1791.11,-216 1791.11,-216 1854.23,-216 1854.23,-216 1860.23,-216 1866.23,-222 1866.23,-228 1866.23,-228 1866.23,-240 1866.23,-240 1866.23,-246 1860.23,-252 1854.23,-252"/>
<text xml:space="preserve" text-anchor="middle" x="1822.67" y="-229.8" font-family="Times,serif" font-size="14.00">Identifier (a)</text>
</g>
<!-- 52&#45;&gt;53 -->
<g id="edge53" class="edge">
<title>52&#45;&gt;53</title>
<path fill="none" stroke="black" d="M1860.31,-287.7C1854.62,-279.73 1847.75,-270.1 1841.43,-261.26"/>
<polygon fill="black" stroke="black" points="1844.43,-259.44 1835.77,-253.34 1838.74,-263.51 1844.43,-259.44"/>
</g>
<!-- 54 -->
<g id="node55" class="node">
<title>54</title>
<path fill="none" stroke="black" d="M1959.23,-252C1959.23,-252 1896.11,-252 1896.11,-252 1890.11,-252 1884.11,-246 1884.11,-240 1884.11,-240 1884.11,-228 1884.11,-228 1884.11,-222 1890.11,-216 1896.11,-216 1896.11,-216 1959.23,-216 1959.23,-216 1965.23,-216 1971.23,-222 1971.23,-228 1971.23,-228 1971.23,-240 1971.23,-240 1971.23,-246 1965.23,-252 1959.23,-252"/>
<text xml:space="preserve" text-anchor="middle" x="1927.67" y="-229.8" font-family="Times,serif" font-size="14.00">Identifier (c)</text>
</g>
<!-- 52&#45;&gt;54 -->
<g id="edge54" class="edge">
<title>52&#45;&gt;54</title>
<path fill="none" stroke="black" d="M1886.27,-287.7C1892.6,-279.64 1900.26,-269.89 1907.26,-260.98"/>
<polygon fill="black" stroke="black" points="1909.87,-263.32 1913.3,-253.29 1904.37,-259 1909.87,-263.32"/>
</g>
<!-- 57 -->
<g id="node58" class="node">
<title>57</title>
<path fill="none" stroke="black" d="M2249.19,-396C2249.19,-396 2136.16,-396 2136.16,-396 2130.16,-396 2124.16,-390 2124.16,-384 2124.16,-384 2124.16,-372 2124.16,-372 2124.16,-366 2130.16,-360 2136.16,-360 2136.16,-360 2249.19,-360 2249.19,-360 2255.19,-360 2261.19,-366 2261.19,-372 2261.19,-372 2261.19,-384 2261.19,-384 2261.19,-390 2255.19,-396 2249.19,-396"/>
<text xml:space="preserve" text-anchor="middle" x="2192.67" y="-373.8" font-family="Times,serif" font-size="14.00">BinaryExpression (+)</text>
</g>
<!-- 56&#45;&gt;57 -->
<g id="edge57" class="edge">
<title>56&#45;&gt;57</title>
<path fill="none" stroke="black" d="M2257.42,-431.7C2246.98,-423.2 2234.22,-412.81 2222.79,-403.51"/>
<polygon fill="black" stroke="black" points="2225.13,-400.9 2215.16,-397.3 2220.71,-406.33 2225.13,-400.9"/>
</g>
<!-- 60 -->
<g id="node61" class="node">
<title>60</title>
<path fill="none" stroke="black" d="M2354.23,-396C2354.23,-396 2291.11,-396 2291.11,-396 2285.11,-396 2279.11,-390 2279.11,-384 2279.11,-384 2279.11,-372 2279.11,-372 2279.11,-366 2285.11,-360 2291.11,-360 2291.11,-360 2354.23,-360 2354.23,-360 2360.23,-360 2366.23,-366 2366.23,-372 2366.23,-372 2366.23,-384 2366.23,-384 2366.23,-390 2360.23,-396 2354.23,-396"/>
<text xml:space="preserve" text-anchor="middle" x="2322.67" y="-373.8" font-family="Times,serif" font-size="14.00">Identifier (a)</text>
</g>
<!-- 56&#45;&gt;60 -->
<g id="edge60" class="edge">
<title>56&#45;&gt;60</title>
<path fill="none" stroke="black" d="M2289.55,-431.7C2294.45,-423.9 2300.35,-414.51 2305.81,-405.83"/>
<polygon fill="black" stroke="black" points="2308.76,-407.71 2311.12,-397.39 2302.83,-403.99 2308.76,-407.71"/>
</g>
<!-- 58 -->
<g id="node59" class="node">
<title>58</title>
<path fill="none" stroke="black" d="M2140.63,-324C2140.63,-324 2076.72,-324 2076.72,-324 2070.72,-324 2064.72,-318 2064.72,-312 2064.72,-312 2064.72,-300 2064.72,-300 2064.72,-294 2070.72,-288 2076.72,-288 2076.72,-288 2140.63,-288 2140.63,-288 2146.63,-288 2152.63,-294 2152.63,-300 2152.63,-300 2152.63,-312 2152.63,-312 2152.63,-318 2146.63,-324 2140.63,-324"/>
<text xml:space="preserve" text-anchor="middle" x="2108.67" y="-301.8" font-family="Times,serif" font-size="14.00">Identifier (b)</text>
</g>
<!-- 57&#45;&gt;58 -->
<g id="edge58" class="edge">
<title>57&#45;&gt;58</title>
<path fill="none" stroke="black" d="M2171.91,-359.7C2161.71,-351.2 2149.25,-340.81 2138.09,-331.51"/>
<polygon fill="black" stroke="black" points="2140.58,-329.03 2130.65,-325.32 2136.09,-334.41 2140.58,-329.03"/>
</g>
<!-- 59 -->
<g id="node60" class="node">
<title>59</title>
<path fill="none" stroke="black" d="M2246.23,-324C2246.23,-324 2183.11,-324 2183.11,-324 2177.11,-324 2171.11,-318 2171.11,-312 2171.11,-312 2171.11,-300 2171.11,-300 2171.11,-294 2177.11,-288 2183.11,-288 2183.11,-288 2246.23,-288 2246.23,-288 2252.23,-288 2258.23,-294 2258.23,-300 2258.23,-300 2258.23,-312 2258.23,-312 2258.23,-318 2252.23,-324 2246.23,-324"/>
<text xml:space="preserve" text-anchor="middle" x="2214.67" y="-301.8" font-family="Times,serif" font-size="14.00">Identifier (c)</text>
</g>
<!-- 57&#45;&gt;59 -->
<g id="edge59" class="edge">
<title>57&#45;&gt;59</title>
<path fill="none" stroke="black" d="M2198.11,-359.7C2200.46,-352.24 2203.26,-343.32 2205.89,-334.97"/>
<polygon fill="black" stroke="black" points="2209.19,-336.14 2208.84,-325.55 2202.51,-334.04 2209.19,-336.14"/>
</g>
<!-- 62 -->
<g id="node63" class="node">
<title>62</title>
<path fill="none" stroke="black" d="M2617.33,-468C2617.33,-468 2560.02,-468 2560.02,-468 2554.02,-468 2548.02,-462 2548.02,-456 2548.02,-456 2548.02,-444 2548.02,-444 2548.02,-438 2554.02,-432 2560.02,-432 2560.02,-432 2617.33,-432 2617.33,-432 2623.33,-432 2629.33,-438 2629.33,-444 2629.33,-444 2629.33,-456 2629.33,-456 2629.33,-462 2623.33,-468 2617.33,-468"/>
<text xml:space="preserve" text-anchor="middle" x="2588.67" y="-445.8" font-family="Times,serif" font-size="14.00">IfStatement</text>
</g>
<!-- 61&#45;&gt;62 -->
<g id="edge62" class="edge">
<title>61&#45;&gt;62</title>
<path fill="none" stroke="black" d="M2474.64,-503.52C2494.57,-494.34 2519.21,-482.99 2540.48,-473.2"/>
<polygon fill="black" stroke="black" points="2541.94,-476.38 2549.56,-469.01 2539.01,-470.02 2541.94,-476.38"/>
</g>
<!-- 63 -->
<g id="node64" class="node">
<title>63</title>
<path fill="none" stroke="black" d="M2577.46,-396C2577.46,-396 2445.89,-396 2445.89,-396 2439.89,-396 2433.89,-390 2433.89,-384 2433.89,-384 2433.89,-372 2433.89,-372 2433.89,-366 2439.89,-360 2445.89,-360 2445.89,-360 2577.46,-360 2577.46,-360 2583.46,-360 2589.46,-366 2589.46,-372 2589.46,-372 2589.46,-384 2589.46,-384 2589.46,-390 2583.46,-396 2577.46,-396"/>
<text xml:space="preserve" text-anchor="middle" x="2511.67" y="-373.8" font-family="Times,serif" font-size="14.00">LogicalExpression (&amp;&amp;)</text>
</g>
<!-- 62&#45;&gt;63 -->
<g id="edge63" class="edge">
<title>62&#45;&gt;63</title>
<path fill="none" stroke="black" d="M2569.64,-431.7C2560.48,-423.37 2549.32,-413.22 2539.25,-404.07"/>
<polygon fill="black" stroke="black" points="2541.63,-401.5 2531.88,-397.37 2536.92,-406.68 2541.63,-401.5"/>
</g>
<!-- 70 -->
<g id="node71" class="node">
<title>70</title>
<path fill="none" stroke="black" d="M2706.39,-396C2706.39,-396 2624.96,-396 2624.96,-396 2618.96,-396 2612.96,-390 2612.96,-384 2612.96,-384 2612.96,-372 2612.96,-372 2612.96,-366 2618.96,-360 2624.96,-360 2624.96,-360 2706.39,-360 2706.39,-360 2712.39,-360 2718.39,-366 2718.39,-372 2718.39,-372 2718.39,-384 2718.39,-384 2718.39,-390 2712.39,-396 2706.39,-396"/>
<text xml:space="preserve" text-anchor="middle" x="2665.67" y="-373.8" font-family="Times,serif" font-size="14.00">BlockStatement</text>
</g>
<!-- 62&#45;&gt;70 -->
<g id="edge70" class="edge">
<title>62&#45;&gt;70</title>
<path fill="none" stroke="black" d="M2607.71,-431.7C2616.87,-423.37 2628.03,-413.22 2638.1,-404.07"/>
<polygon fill="black" stroke="black" points="2640.43,-406.68 2645.47,-397.37 2635.72,-401.5 2640.43,-406.68"/>
</g>
<!-- 75 -->
<g id="node76" class="node">
<title>75</title>
<path fill="none" stroke="black" d="M2949.39,-396C2949.39,-396 2867.96,-396 2867.96,-396 2861.96,-396 2855.96,-390 2855.96,-384 2855.96,-384 2855.96,-372 2855.96,-372 2855.96,-366 2861.96,-360 2867.96,-360 2867.96,-360 2949.39,-360 2949.39,-360 2955.39,-360 2961.39,-366 2961.39,-372 2961.39,-372 2961.39,-384 2961.39,-384 2961.39,-390 2955.39,-396 2949.39,-396"/>
<text xml:space="preserve" text-anchor="middle" x="2908.67" y="-373.8" font-family="Times,serif" font-size="14.00">BlockStatement</text>
</g>
<!-- 62&#45;&gt;75 -->
<g id="edge75" class="edge">
<title>62&#45;&gt;75</title>
<path fill="none" stroke="black" d="M2629.53,-440.06C2683.81,-428.19 2780.3,-407.08 2844.39,-393.06"/>
<polygon fill="black" stroke="black" points="2845.07,-396.5 2854.09,-390.94 2843.57,-389.66 2845.07,-396.5"/>
</g>
<!-- 64 -->
<g id="node65" class="node">
<title>64</title>
<path fill="none" stroke="black" d="M2409.14,-324C2409.14,-324 2288.21,-324 2288.21,-324 2282.21,-324 2276.21,-318 2276.21,-312 2276.21,-312 2276.21,-300 2276.21,-300 2276.21,-294 2282.21,-288 2288.21,-288 2288.21,-288 2409.14,-288 2409.14,-288 2415.14,-288 2421.14,-294 2421.14,-300 2421.14,-300 2421.14,-312 2421.14,-312 2421.14,-318 2415.14,-324 2409.14,-324"/>
<text xml:space="preserve" text-anchor="middle" x="2348.67" y="-301.8" font-family="Times,serif" font-size="14.00">BinaryExpression (==)</text>
</g>
<!-- 63&#45;&gt;64 -->
<g id="edge64" class="edge">
<title>63&#45;&gt;64</title>
<path fill="none" stroke="black" d="M2470.96,-359.52C2449.29,-350.21 2422.44,-338.68 2399.42,-328.79"/>
<polygon fill="black" stroke="black" points="2401.11,-325.71 2390.54,-324.98 2398.35,-332.14 2401.11,-325.71"/>
</g>
<!-- 67 -->
<g id="node68" class="node">
<title>67</title>
<path fill="none" stroke="black" d="M2572.14,-324C2572.14,-324 2451.21,-324 2451.21,-324 2445.21,-324 2439.21,-318 2439.21,-312 2439.21,-312 2439.21,-300 2439.21,-300 2439.21,-294 2445.21,-288 2451.21,-288 2451.21,-288 2572.14,-288 2572.14,-288 2578.14,-288 2584.14,-294 2584.14,-300 2584.14,-300 2584.14,-312 2584.14,-312 2584.14,-318 2578.14,-324 2572.14,-324"/>
<text xml:space="preserve" text-anchor="middle" x="2511.67" y="-301.8" font-family="Times,serif" font-size="14.00">BinaryExpression (==)</text>
</g>
<!-- 63&#45;&gt;67 -->
<g id="edge67" class="edge">
<title>63&#45;&gt;67</title>
<path fill="none" stroke="black" d="M2511.67,-359.7C2511.67,-352.41 2511.67,-343.73 2511.67,-335.54"/>
<polygon fill="black" stroke="black" points="2515.17,-335.62 2511.67,-325.62 2508.17,-335.62 2515.17,-335.62"/>
</g>
<!-- 65 -->
<g id="node66" class="node">
<title>65</title>
<path fill="none" stroke="black" d="M2271.23,-252C2271.23,-252 2208.11,-252 2208.11,-252 2202.11,-252 2196.11,-246 2196.11,-240 2196.11,-240 2196.11,-228 2196.11,-228 2196.11,-222 2202.11,-216 2208.11,-216 2208.11,-216 2271.23,-216 2271.23,-216 2277.23,-216 2283.23,-222 2283.23,-228 2283.23,-228 2283.23,-240 2283.23,-240 2283.23,-246 2277.23,-252 2271.23,-252"/>
<text xml:space="preserve" text-anchor="middle" x="2239.67" y="-229.8" font-family="Times,serif" font-size="14.00">Identifier (a)</text>
</g>
<!-- 64&#45;&gt;65 -->
<g id="edge65" class="edge">
<title>64&#45;&gt;65</title>
<path fill="none" stroke="black" d="M2321.45,-287.52C2307.69,-278.68 2290.81,-267.84 2275.96,-258.3"/>
<polygon fill="black" stroke="black" points="2278.13,-255.54 2267.83,-253.08 2274.35,-261.43 2278.13,-255.54"/>
</g>
<!-- 66 -->
<g id="node67" class="node">
<title>66</title>
<path fill="none" stroke="black" d="M2377.63,-252C2377.63,-252 2313.72,-252 2313.72,-252 2307.72,-252 2301.72,-246 2301.72,-240 2301.72,-240 2301.72,-228 2301.72,-228 2301.72,-222 2307.72,-216 2313.72,-216 2313.72,-216 2377.63,-216 2377.63,-216 2383.63,-216 2389.63,-222 2389.63,-228 2389.63,-228 2389.63,-240 2389.63,-240 2389.63,-246 2383.63,-252 2377.63,-252"/>
<text xml:space="preserve" text-anchor="middle" x="2345.67" y="-229.8" font-family="Times,serif" font-size="14.00">Identifier (b)</text>
</g>
<!-- 64&#45;&gt;66 -->
<g id="edge66" class="edge">
<title>64&#45;&gt;66</title>
<path fill="none" stroke="black" d="M2347.93,-287.7C2347.62,-280.41 2347.25,-271.73 2346.9,-263.54"/>
<polygon fill="black" stroke="black" points="2350.4,-263.46 2346.47,-253.62 2343.4,-263.76 2350.4,-263.46"/>
</g>
<!-- 68 -->
<g id="node69" class="node">
<title>68</title>
<path fill="none" stroke="black" d="M2483.63,-252C2483.63,-252 2419.72,-252 2419.72,-252 2413.72,-252 2407.72,-246 2407.72,-240 2407.72,-240 2407.72,-228 2407.72,-228 2407.72,-222 2413.72,-216 2419.72,-216 2419.72,-216 2483.63,-216 2483.63,-216 2489.63,-216 2495.63,-222 2495.63,-228 2495.63,-228 2495.63,-240 2495.63,-240 2495.63,-246 2489.63,-252 2483.63,-252"/>
<text xml:space="preserve" text-anchor="middle" x="2451.67" y="-229.8" font-family="Times,serif" font-size="14.00">Identifier (b)</text>
</g>
<!-- 67&#45;&gt;68 -->
<g id="edge68" class="edge">
<title>67&#45;&gt;68</title>
<path fill="none" stroke="black" d="M2496.84,-287.7C2489.87,-279.56 2481.41,-269.69 2473.7,-260.7"/>
<polygon fill="black" stroke="black" points="2476.49,-258.57 2467.32,-253.25 2471.17,-263.12 2476.49,-258.57"/>
</g>
<!-- 69 -->
<g id="node70" class="node">
<title>69</title>
<path fill="none" stroke="black" d="M2589.23,-252C2589.23,-252 2526.11,-252 2526.11,-252 2520.11,-252 2514.11,-246 2514.11,-240 2514.11,-240 2514.11,-228 2514.11,-228 2514.11,-222 2520.11,-216 2526.11,-216 2526.11,-216 2589.23,-216 2589.23,-216 2595.23,-216 2601.23,-222 2601.23,-228 2601.23,-228 2601.23,-240 2601.23,-240 2601.23,-246 2595.23,-252 2589.23,-252"/>
<text xml:space="preserve" text-anchor="middle" x="2557.67" y="-229.8" font-family="Times,serif" font-size="14.00">Identifier (c)</text>
</g>
<!-- 67&#45;&gt;69 -->
<g id="edge69" class="edge">
<title>67&#45;&gt;69</title>
<path fill="none" stroke="black" d="M2523.05,-287.7C2528.23,-279.81 2534.47,-270.3 2540.23,-261.55"/>
<polygon fill="black" stroke="black" points="2543.04,-263.65 2545.6,-253.37 2537.19,-259.8 2543.04,-263.65"/>
</g>
<!-- 71 -->
<g id="node72" class="node">
<title>71</title>
<path fill="none" stroke="black" d="M2724.77,-324C2724.77,-324 2614.57,-324 2614.57,-324 2608.57,-324 2602.57,-318 2602.57,-312 2602.57,-312 2602.57,-300 2602.57,-300 2602.57,-294 2608.57,-288 2614.57,-288 2614.57,-288 2724.77,-288 2724.77,-288 2730.77,-288 2736.77,-294 2736.77,-300 2736.77,-300 2736.77,-312 2736.77,-312 2736.77,-318 2730.77,-324 2724.77,-324"/>
<text xml:space="preserve" text-anchor="middle" x="2669.67" y="-301.8" font-family="Times,serif" font-size="14.00">ExpressionStatement</text>
</g>
<!-- 70&#45;&gt;71 -->
<g id="edge71" class="edge">
<title>70&#45;&gt;71</title>
<path fill="none" stroke="black" d="M2666.66,-359.7C2667.08,-352.41 2667.58,-343.73 2668.04,-335.54"/>
<polygon fill="black" stroke="black" points="2671.53,-335.8 2668.61,-325.62 2664.55,-335.4 2671.53,-335.8"/>
</g>
<!-- 72 -->
<g id="node73" class="node">
<title>72</title>
<path fill="none" stroke="black" d="M2708.45,-252C2708.45,-252 2630.9,-252 2630.9,-252 2624.9,-252 2618.9,-246 2618.9,-240 2618.9,-240 2618.9,-228 2618.9,-228 2618.9,-222 2624.9,-216 2630.9,-216 2630.9,-216 2708.45,-216 2708.45,-216 2714.45,-216 2720.45,-222 2720.45,-228 2720.45,-228 2720.45,-240 2720.45,-240 2720.45,-246 2714.45,-252 2708.45,-252"/>
<text xml:space="preserve" text-anchor="middle" x="2669.67" y="-229.8" font-family="Times,serif" font-size="14.00">CallExpression</text>
</g>
<!-- 71&#45;&gt;72 -->
<g id="edge72" class="edge">
<title>71&#45;&gt;72</title>
<path fill="none" stroke="black" d="M2669.67,-287.7C2669.67,-280.41 2669.67,-271.73 2669.67,-263.54"/>
<polygon fill="black" stroke="black" points="2673.17,-263.62 2669.67,-253.62 2666.17,-263.62 2673.17,-263.62"/>
</g>
<!-- 73 -->
<g id="node74" class="node">
<title>73</title>
<path fill="none" stroke="black" d="M2473.21,-180C2473.21,-180 2352.14,-180 2352.14,-180 2346.14,-180 2340.14,-174 2340.14,-168 2340.14,-168 2340.14,-156 2340.14,-156 2340.14,-150 2346.14,-144 2352.14,-144 2352.14,-144 2473.21,-144 2473.21,-144 2479.21,-144 2485.21,-150 2485.21,-156 2485.21,-156 2485.21,-168 2485.21,-168 2485.21,-174 2479.21,-180 2473.21,-180"/>
<text xml:space="preserve" text-anchor="middle" x="2412.67" y="-157.8" font-family="Times,serif" font-size="14.00">Identifier (console.log)</text>
</g>
<!-- 72&#45;&gt;73 -->
<g id="edge73" class="edge">
<title>72&#45;&gt;73</title>
<path fill="none" stroke="black" d="M2618.52,-218.2C2615.87,-217.45 2613.24,-216.71 2610.67,-216 2571.06,-204.99 2526.87,-193.12 2490.3,-183.41"/>
<polygon fill="black" stroke="black" points="2491.24,-180.04 2480.67,-180.86 2489.44,-186.81 2491.24,-180.04"/>
</g>
<!-- 74 -->
<g id="node75" class="node">
<title>74</title>
<path fill="none" stroke="black" d="M2712.51,-180C2712.51,-180 2514.84,-180 2514.84,-180 2508.84,-180 2502.84,-174 2502.84,-168 2502.84,-168 2502.84,-156 2502.84,-156 2502.84,-150 2508.84,-144 2514.84,-144 2514.84,-144 2712.51,-144 2712.51,-144 2718.51,-144 2724.51,-150 2724.51,-156 2724.51,-156 2724.51,-168 2724.51,-168 2724.51,-174 2718.51,-180 2712.51,-180"/>
<text xml:space="preserve" text-anchor="middle" x="2613.67" y="-157.8" font-family="Times,serif" font-size="14.00">Literal (Tringulo equiltero vlido)</text>
</g>
<!-- 72&#45;&gt;74 -->
<g id="edge74" class="edge">
<title>72&#45;&gt;74</title>
<path fill="none" stroke="black" d="M2655.83,-215.7C2649.39,-207.64 2641.59,-197.89 2634.46,-188.98"/>
<polygon fill="black" stroke="black" points="2637.28,-186.91 2628.3,-181.29 2631.82,-191.28 2637.28,-186.91"/>
</g>
<!-- 76 -->
<g id="node77" class="node">
<title>76</title>
<path fill="none" stroke="black" d="M2946.33,-324C2946.33,-324 2889.02,-324 2889.02,-324 2883.02,-324 2877.02,-318 2877.02,-312 2877.02,-312 2877.02,-300 2877.02,-300 2877.02,-294 2883.02,-288 2889.02,-288 2889.02,-288 2946.33,-288 2946.33,-288 2952.33,-288 2958.33,-294 2958.33,-300 2958.33,-300 2958.33,-312 2958.33,-312 2958.33,-318 2952.33,-324 2946.33,-324"/>
<text xml:space="preserve" text-anchor="middle" x="2917.67" y="-301.8" font-family="Times,serif" font-size="14.00">IfStatement</text>
</g>
<!-- 75&#45;&gt;76 -->
<g id="edge76" class="edge">
<title>75&#45;&gt;76</title>
<path fill="none" stroke="black" d="M2910.9,-359.7C2911.85,-352.32 2912.98,-343.52 2914.04,-335.25"/>
<polygon fill="black" stroke="black" points="2917.48,-335.97 2915.28,-325.61 2910.54,-335.08 2917.48,-335.97"/>
</g>
<!-- 77 -->
<g id="node78" class="node">
<title>77</title>
<path fill="none" stroke="black" d="M2975.38,-252C2975.38,-252 2859.97,-252 2859.97,-252 2853.97,-252 2847.97,-246 2847.97,-240 2847.97,-240 2847.97,-228 2847.97,-228 2847.97,-222 2853.97,-216 2859.97,-216 2859.97,-216 2975.38,-216 2975.38,-216 2981.38,-216 2987.38,-222 2987.38,-228 2987.38,-228 2987.38,-240 2987.38,-240 2987.38,-246 2981.38,-252 2975.38,-252"/>
<text xml:space="preserve" text-anchor="middle" x="2917.67" y="-229.8" font-family="Times,serif" font-size="14.00">LogicalExpression (||)</text>
</g>
<!-- 76&#45;&gt;77 -->
<g id="edge77" class="edge">
<title>76&#45;&gt;77</title>
<path fill="none" stroke="black" d="M2917.67,-287.7C2917.67,-280.41 2917.67,-271.73 2917.67,-263.54"/>
<polygon fill="black" stroke="black" points="2921.17,-263.62 2917.67,-253.62 2914.17,-263.62 2921.17,-263.62"/>
</g>
<!-- 88 -->
<g id="node89" class="node">
<title>88</title>
<path fill="none" stroke="black" d="M3115.39,-252C3115.39,-252 3033.96,-252 3033.96,-252 3027.96,-252 3021.96,-246 3021.96,-240 3021.96,-240 3021.96,-228 3021.96,-228 3021.96,-222 3027.96,-216 3033.96,-216 3033.96,-216 3115.39,-216 3115.39,-216 3121.39,-216 3127.39,-222 3127.39,-228 3127.39,-228 3127.39,-240 3127.39,-240 3127.39,-246 3121.39,-252 3115.39,-252"/>
<text xml:space="preserve" text-anchor="middle" x="3074.67" y="-229.8" font-family="Times,serif" font-size="14.00">BlockStatement</text>
</g>
<!-- 76&#45;&gt;88 -->
<g id="edge88" class="edge">
<title>76&#45;&gt;88</title>
<path fill="none" stroke="black" d="M2956.89,-287.52C2977.57,-278.29 3003.16,-266.89 3025.19,-257.06"/>
<polygon fill="black" stroke="black" points="3026.6,-260.27 3034.31,-253 3023.75,-253.87 3026.6,-260.27"/>
</g>
<!-- 93 -->
<g id="node94" class="node">
<title>93</title>
<path fill="none" stroke="black" d="M3276.39,-252C3276.39,-252 3194.96,-252 3194.96,-252 3188.96,-252 3182.96,-246 3182.96,-240 3182.96,-240 3182.96,-228 3182.96,-228 3182.96,-222 3188.96,-216 3194.96,-216 3194.96,-216 3276.39,-216 3276.39,-216 3282.39,-216 3288.39,-222 3288.39,-228 3288.39,-228 3288.39,-240 3288.39,-240 3288.39,-246 3282.39,-252 3276.39,-252"/>
<text xml:space="preserve" text-anchor="middle" x="3235.67" y="-229.8" font-family="Times,serif" font-size="14.00">BlockStatement</text>
</g>
<!-- 76&#45;&gt;93 -->
<g id="edge93" class="edge">
<title>76&#45;&gt;93</title>
<path fill="none" stroke="black" d="M2958.72,-290.3C2961.4,-289.48 2964.07,-288.71 2966.67,-288 3004.41,-277.79 3104.45,-258.86 3171.32,-246.61"/>
<polygon fill="black" stroke="black" points="3171.88,-250.07 3181.09,-244.83 3170.62,-243.18 3171.88,-250.07"/>
</g>
<!-- 78 -->
<g id="node79" class="node">
<title>78</title>
<path fill="none" stroke="black" d="M2870.38,-180C2870.38,-180 2754.97,-180 2754.97,-180 2748.97,-180 2742.97,-174 2742.97,-168 2742.97,-168 2742.97,-156 2742.97,-156 2742.97,-150 2748.97,-144 2754.97,-144 2754.97,-144 2870.38,-144 2870.38,-144 2876.38,-144 2882.38,-150 2882.38,-156 2882.38,-156 2882.38,-168 2882.38,-168 2882.38,-174 2876.38,-180 2870.38,-180"/>
<text xml:space="preserve" text-anchor="middle" x="2812.67" y="-157.8" font-family="Times,serif" font-size="14.00">LogicalExpression (||)</text>
</g>
<!-- 77&#45;&gt;78 -->
<g id="edge78" class="edge">
<title>77&#45;&gt;78</title>
<path fill="none" stroke="black" d="M2891.45,-215.52C2878.32,-206.76 2862.24,-196.04 2848.04,-186.58"/>
<polygon fill="black" stroke="black" points="2850.09,-183.73 2839.82,-181.1 2846.2,-189.56 2850.09,-183.73"/>
</g>
<!-- 85 -->
<g id="node86" class="node">
<title>85</title>
<path fill="none" stroke="black" d="M3033.14,-180C3033.14,-180 2912.21,-180 2912.21,-180 2906.21,-180 2900.21,-174 2900.21,-168 2900.21,-168 2900.21,-156 2900.21,-156 2900.21,-150 2906.21,-144 2912.21,-144 2912.21,-144 3033.14,-144 3033.14,-144 3039.14,-144 3045.14,-150 3045.14,-156 3045.14,-156 3045.14,-168 3045.14,-168 3045.14,-174 3039.14,-180 3033.14,-180"/>
<text xml:space="preserve" text-anchor="middle" x="2972.67" y="-157.8" font-family="Times,serif" font-size="14.00">BinaryExpression (==)</text>
</g>
<!-- 77&#45;&gt;85 -->
<g id="edge85" class="edge">
<title>77&#45;&gt;85</title>
<path fill="none" stroke="black" d="M2931.27,-215.7C2937.6,-207.64 2945.26,-197.89 2952.26,-188.98"/>
<polygon fill="black" stroke="black" points="2954.87,-191.32 2958.3,-181.29 2949.37,-187 2954.87,-191.32"/>
</g>
<!-- 79 -->
<g id="node80" class="node">
<title>79</title>
<path fill="none" stroke="black" d="M2687.14,-108C2687.14,-108 2566.21,-108 2566.21,-108 2560.21,-108 2554.21,-102 2554.21,-96 2554.21,-96 2554.21,-84 2554.21,-84 2554.21,-78 2560.21,-72 2566.21,-72 2566.21,-72 2687.14,-72 2687.14,-72 2693.14,-72 2699.14,-78 2699.14,-84 2699.14,-84 2699.14,-96 2699.14,-96 2699.14,-102 2693.14,-108 2687.14,-108"/>
<text xml:space="preserve" text-anchor="middle" x="2626.67" y="-85.8" font-family="Times,serif" font-size="14.00">BinaryExpression (==)</text>
</g>
<!-- 78&#45;&gt;79 -->
<g id="edge79" class="edge">
<title>78&#45;&gt;79</title>
<path fill="none" stroke="black" d="M2766.22,-143.52C2741.16,-134.08 2710.02,-122.37 2683.52,-112.39"/>
<polygon fill="black" stroke="black" points="2684.87,-109.16 2674.28,-108.91 2682.4,-115.71 2684.87,-109.16"/>
</g>
<!-- 82 -->
<g id="node83" class="node">
<title>82</title>
<path fill="none" stroke="black" d="M2864.14,-108C2864.14,-108 2743.21,-108 2743.21,-108 2737.21,-108 2731.21,-102 2731.21,-96 2731.21,-96 2731.21,-84 2731.21,-84 2731.21,-78 2737.21,-72 2743.21,-72 2743.21,-72 2864.14,-72 2864.14,-72 2870.14,-72 2876.14,-78 2876.14,-84 2876.14,-84 2876.14,-96 2876.14,-96 2876.14,-102 2870.14,-108 2864.14,-108"/>
<text xml:space="preserve" text-anchor="middle" x="2803.67" y="-85.8" font-family="Times,serif" font-size="14.00">BinaryExpression (==)</text>
</g>
<!-- 78&#45;&gt;82 -->
<g id="edge82" class="edge">
<title>78&#45;&gt;82</title>
<path fill="none" stroke="black" d="M2810.45,-143.7C2809.5,-136.32 2808.37,-127.52 2807.31,-119.25"/>
<polygon fill="black" stroke="black" points="2810.81,-119.08 2806.07,-109.61 2803.87,-119.97 2810.81,-119.08"/>
</g>
<!-- 80 -->
<g id="node81" class="node">
<title>80</title>
<path fill="none" stroke="black" d="M2552.23,-36C2552.23,-36 2489.11,-36 2489.11,-36 2483.11,-36 2477.11,-30 2477.11,-24 2477.11,-24 2477.11,-12 2477.11,-12 2477.11,-6 2483.11,0 2489.11,0 2489.11,0 2552.23,0 2552.23,0 2558.23,0 2564.23,-6 2564.23,-12 2564.23,-12 2564.23,-24 2564.23,-24 2564.23,-30 2558.23,-36 2552.23,-36"/>
<text xml:space="preserve" text-anchor="middle" x="2520.67" y="-13.8" font-family="Times,serif" font-size="14.00">Identifier (a)</text>
</g>
<!-- 79&#45;&gt;80 -->
<g id="edge80" class="edge">
<title>79&#45;&gt;80</title>
<path fill="none" stroke="black" d="M2600.2,-71.52C2586.95,-62.76 2570.71,-52.04 2556.37,-42.58"/>
<polygon fill="black" stroke="black" points="2558.35,-39.68 2548.07,-37.09 2554.49,-45.53 2558.35,-39.68"/>
</g>
<!-- 81 -->
<g id="node82" class="node">
<title>81</title>
<path fill="none" stroke="black" d="M2658.63,-36C2658.63,-36 2594.72,-36 2594.72,-36 2588.72,-36 2582.72,-30 2582.72,-24 2582.72,-24 2582.72,-12 2582.72,-12 2582.72,-6 2588.72,0 2594.72,0 2594.72,0 2658.63,0 2658.63,0 2664.63,0 2670.63,-6 2670.63,-12 2670.63,-12 2670.63,-24 2670.63,-24 2670.63,-30 2664.63,-36 2658.63,-36"/>
<text xml:space="preserve" text-anchor="middle" x="2626.67" y="-13.8" font-family="Times,serif" font-size="14.00">Identifier (b)</text>
</g>
<!-- 79&#45;&gt;81 -->
<g id="edge81" class="edge">
<title>79&#45;&gt;81</title>
<path fill="none" stroke="black" d="M2626.67,-71.7C2626.67,-64.41 2626.67,-55.73 2626.67,-47.54"/>
<polygon fill="black" stroke="black" points="2630.17,-47.62 2626.67,-37.62 2623.17,-47.62 2630.17,-47.62"/>
</g>
<!-- 83 -->
<g id="node84" class="node">
<title>83</title>
<path fill="none" stroke="black" d="M2764.23,-36C2764.23,-36 2701.11,-36 2701.11,-36 2695.11,-36 2689.11,-30 2689.11,-24 2689.11,-24 2689.11,-12 2689.11,-12 2689.11,-6 2695.11,0 2701.11,0 2701.11,0 2764.23,0 2764.23,0 2770.23,0 2776.23,-6 2776.23,-12 2776.23,-12 2776.23,-24 2776.23,-24 2776.23,-30 2770.23,-36 2764.23,-36"/>
<text xml:space="preserve" text-anchor="middle" x="2732.67" y="-13.8" font-family="Times,serif" font-size="14.00">Identifier (a)</text>
</g>
<!-- 82&#45;&gt;83 -->
<g id="edge83" class="edge">
<title>82&#45;&gt;83</title>
<path fill="none" stroke="black" d="M2786.12,-71.7C2777.7,-63.39 2767.44,-53.28 2758.17,-44.14"/>
<polygon fill="black" stroke="black" points="2760.68,-41.7 2751.1,-37.17 2755.76,-46.68 2760.68,-41.7"/>
</g>
<!-- 84 -->
<g id="node85" class="node">
<title>84</title>
<path fill="none" stroke="black" d="M2869.23,-36C2869.23,-36 2806.11,-36 2806.11,-36 2800.11,-36 2794.11,-30 2794.11,-24 2794.11,-24 2794.11,-12 2794.11,-12 2794.11,-6 2800.11,0 2806.11,0 2806.11,0 2869.23,0 2869.23,0 2875.23,0 2881.23,-6 2881.23,-12 2881.23,-12 2881.23,-24 2881.23,-24 2881.23,-30 2875.23,-36 2869.23,-36"/>
<text xml:space="preserve" text-anchor="middle" x="2837.67" y="-13.8" font-family="Times,serif" font-size="14.00">Identifier (c)</text>
</g>
<!-- 82&#45;&gt;84 -->
<g id="edge84" class="edge">
<title>82&#45;&gt;84</title>
<path fill="none" stroke="black" d="M2812.08,-71.7C2815.78,-64.07 2820.23,-54.92 2824.37,-46.4"/>
<polygon fill="black" stroke="black" points="2827.48,-47.99 2828.71,-37.47 2821.19,-44.93 2827.48,-47.99"/>
</g>
<!-- 86 -->
<g id="node87" class="node">
<title>86</title>
<path fill="none" stroke="black" d="M2969.63,-108C2969.63,-108 2905.72,-108 2905.72,-108 2899.72,-108 2893.72,-102 2893.72,-96 2893.72,-96 2893.72,-84 2893.72,-84 2893.72,-78 2899.72,-72 2905.72,-72 2905.72,-72 2969.63,-72 2969.63,-72 2975.63,-72 2981.63,-78 2981.63,-84 2981.63,-84 2981.63,-96 2981.63,-96 2981.63,-102 2975.63,-108 2969.63,-108"/>
<text xml:space="preserve" text-anchor="middle" x="2937.67" y="-85.8" font-family="Times,serif" font-size="14.00">Identifier (b)</text>
</g>
<!-- 85&#45;&gt;86 -->
<g id="edge86" class="edge">
<title>85&#45;&gt;86</title>
<path fill="none" stroke="black" d="M2964.02,-143.7C2960.21,-136.07 2955.63,-126.92 2951.37,-118.4"/>
<polygon fill="black" stroke="black" points="2954.51,-116.84 2946.9,-109.46 2948.25,-119.97 2954.51,-116.84"/>
</g>
<!-- 87 -->
<g id="node88" class="node">
<title>87</title>
<path fill="none" stroke="black" d="M3075.23,-108C3075.23,-108 3012.11,-108 3012.11,-108 3006.11,-108 3000.11,-102 3000.11,-96 3000.11,-96 3000.11,-84 3000.11,-84 3000.11,-78 3006.11,-72 3012.11,-72 3012.11,-72 3075.23,-72 3075.23,-72 3081.23,-72 3087.23,-78 3087.23,-84 3087.23,-84 3087.23,-96 3087.23,-96 3087.23,-102 3081.23,-108 3075.23,-108"/>
<text xml:space="preserve" text-anchor="middle" x="3043.67" y="-85.8" font-family="Times,serif" font-size="14.00">Identifier (c)</text>
</g>
<!-- 85&#45;&gt;87 -->
<g id="edge87" class="edge">
<title>85&#45;&gt;87</title>
<path fill="none" stroke="black" d="M2990.22,-143.7C2998.65,-135.39 3008.91,-125.28 3018.17,-116.14"/>
<polygon fill="black" stroke="black" points="3020.58,-118.68 3025.25,-109.17 3015.67,-113.7 3020.58,-118.68"/>
</g>
<!-- 89 -->
<g id="node90" class="node">
<title>89</title>
<path fill="none" stroke="black" d="M3202.77,-180C3202.77,-180 3092.57,-180 3092.57,-180 3086.57,-180 3080.57,-174 3080.57,-168 3080.57,-168 3080.57,-156 3080.57,-156 3080.57,-150 3086.57,-144 3092.57,-144 3092.57,-144 3202.77,-144 3202.77,-144 3208.77,-144 3214.77,-150 3214.77,-156 3214.77,-156 3214.77,-168 3214.77,-168 3214.77,-174 3208.77,-180 3202.77,-180"/>
<text xml:space="preserve" text-anchor="middle" x="3147.67" y="-157.8" font-family="Times,serif" font-size="14.00">ExpressionStatement</text>
</g>
<!-- 88&#45;&gt;89 -->
<g id="edge89" class="edge">
<title>88&#45;&gt;89</title>
<path fill="none" stroke="black" d="M3092.72,-215.7C3101.41,-207.37 3111.98,-197.22 3121.53,-188.07"/>
<polygon fill="black" stroke="black" points="3123.7,-190.84 3128.49,-181.39 3118.85,-185.79 3123.7,-190.84"/>
</g>
<!-- 90 -->
<g id="node91" class="node">
<title>90</title>
<path fill="none" stroke="black" d="M3194.45,-108C3194.45,-108 3116.9,-108 3116.9,-108 3110.9,-108 3104.9,-102 3104.9,-96 3104.9,-96 3104.9,-84 3104.9,-84 3104.9,-78 3110.9,-72 3116.9,-72 3116.9,-72 3194.45,-72 3194.45,-72 3200.45,-72 3206.45,-78 3206.45,-84 3206.45,-84 3206.45,-96 3206.45,-96 3206.45,-102 3200.45,-108 3194.45,-108"/>
<text xml:space="preserve" text-anchor="middle" x="3155.67" y="-85.8" font-family="Times,serif" font-size="14.00">CallExpression</text>
</g>
<!-- 89&#45;&gt;90 -->
<g id="edge90" class="edge">
<title>89&#45;&gt;90</title>
<path fill="none" stroke="black" d="M3149.65,-143.7C3150.48,-136.41 3151.48,-127.73 3152.41,-119.54"/>
<polygon fill="black" stroke="black" points="3155.89,-119.94 3153.55,-109.61 3148.93,-119.15 3155.89,-119.94"/>
</g>
<!-- 91 -->
<g id="node92" class="node">
<title>91</title>
<path fill="none" stroke="black" d="M3032.21,-36C3032.21,-36 2911.14,-36 2911.14,-36 2905.14,-36 2899.14,-30 2899.14,-24 2899.14,-24 2899.14,-12 2899.14,-12 2899.14,-6 2905.14,0 2911.14,0 2911.14,0 3032.21,0 3032.21,0 3038.21,0 3044.21,-6 3044.21,-12 3044.21,-12 3044.21,-24 3044.21,-24 3044.21,-30 3038.21,-36 3032.21,-36"/>
<text xml:space="preserve" text-anchor="middle" x="2971.67" y="-13.8" font-family="Times,serif" font-size="14.00">Identifier (console.log)</text>
</g>
<!-- 90&#45;&gt;91 -->
<g id="edge91" class="edge">
<title>90&#45;&gt;91</title>
<path fill="none" stroke="black" d="M3109.72,-71.52C3084.93,-62.08 3054.12,-50.37 3027.91,-40.39"/>
<polygon fill="black" stroke="black" points="3029.37,-37.2 3018.78,-36.92 3026.88,-43.75 3029.37,-37.2"/>
</g>
<!-- 92 -->
<g id="node93" class="node">
<title>92</title>
<path fill="none" stroke="black" d="M3265.01,-36C3265.01,-36 3074.34,-36 3074.34,-36 3068.34,-36 3062.34,-30 3062.34,-24 3062.34,-24 3062.34,-12 3062.34,-12 3062.34,-6 3068.34,0 3074.34,0 3074.34,0 3265.01,0 3265.01,0 3271.01,0 3277.01,-6 3277.01,-12 3277.01,-12 3277.01,-24 3277.01,-24 3277.01,-30 3271.01,-36 3265.01,-36"/>
<text xml:space="preserve" text-anchor="middle" x="3169.67" y="-13.8" font-family="Times,serif" font-size="14.00">Literal (Tringulo issceles vlido)</text>
</g>
<!-- 90&#45;&gt;92 -->
<g id="edge92" class="edge">
<title>90&#45;&gt;92</title>
<path fill="none" stroke="black" d="M3159.13,-71.7C3160.61,-64.32 3162.37,-55.52 3164.02,-47.25"/>
<polygon fill="black" stroke="black" points="3167.43,-48.08 3165.96,-37.59 3160.56,-46.71 3167.43,-48.08"/>
</g>
<!-- 94 -->
<g id="node95" class="node">
<title>94</title>
<path fill="none" stroke="black" d="M3384.77,-180C3384.77,-180 3274.57,-180 3274.57,-180 3268.57,-180 3262.57,-174 3262.57,-168 3262.57,-168 3262.57,-156 3262.57,-156 3262.57,-150 3268.57,-144 3274.57,-144 3274.57,-144 3384.77,-144 3384.77,-144 3390.77,-144 3396.77,-150 3396.77,-156 3396.77,-156 3396.77,-168 3396.77,-168 3396.77,-174 3390.77,-180 3384.77,-180"/>
<text xml:space="preserve" text-anchor="middle" x="3329.67" y="-157.8" font-family="Times,serif" font-size="14.00">ExpressionStatement</text>
</g>
<!-- 93&#45;&gt;94 -->
<g id="edge94" class="edge">
<title>93&#45;&gt;94</title>
<path fill="none" stroke="black" d="M3258.91,-215.7C3270.55,-207.03 3284.82,-196.4 3297.5,-186.96"/>
<polygon fill="black" stroke="black" points="3299.24,-190.03 3305.17,-181.25 3295.06,-184.42 3299.24,-190.03"/>
</g>
<!-- 95 -->
<g id="node96" class="node">
<title>95</title>
<path fill="none" stroke="black" d="M3406.45,-108C3406.45,-108 3328.9,-108 3328.9,-108 3322.9,-108 3316.9,-102 3316.9,-96 3316.9,-96 3316.9,-84 3316.9,-84 3316.9,-78 3322.9,-72 3328.9,-72 3328.9,-72 3406.45,-72 3406.45,-72 3412.45,-72 3418.45,-78 3418.45,-84 3418.45,-84 3418.45,-96 3418.45,-96 3418.45,-102 3412.45,-108 3406.45,-108"/>
<text xml:space="preserve" text-anchor="middle" x="3367.67" y="-85.8" font-family="Times,serif" font-size="14.00">CallExpression</text>
</g>
<!-- 94&#45;&gt;95 -->
<g id="edge95" class="edge">
<title>94&#45;&gt;95</title>
<path fill="none" stroke="black" d="M3339.07,-143.7C3343.26,-135.98 3348.29,-126.71 3352.96,-118.11"/>
<polygon fill="black" stroke="black" points="3355.97,-119.89 3357.67,-109.43 3349.82,-116.55 3355.97,-119.89"/>
</g>
<!-- 96 -->
<g id="node97" class="node">
<title>96</title>
<path fill="none" stroke="black" d="M3428.21,-36C3428.21,-36 3307.14,-36 3307.14,-36 3301.14,-36 3295.14,-30 3295.14,-24 3295.14,-24 3295.14,-12 3295.14,-12 3295.14,-6 3301.14,0 3307.14,0 3307.14,0 3428.21,0 3428.21,0 3434.21,0 3440.21,-6 3440.21,-12 3440.21,-12 3440.21,-24 3440.21,-24 3440.21,-30 3434.21,-36 3428.21,-36"/>
<text xml:space="preserve" text-anchor="middle" x="3367.67" y="-13.8" font-family="Times,serif" font-size="14.00">Identifier (console.log)</text>
</g>
<!-- 95&#45;&gt;96 -->
<g id="edge96" class="edge">
<title>95&#45;&gt;96</title>
<path fill="none" stroke="black" d="M3367.67,-71.7C3367.67,-64.41 3367.67,-55.73 3367.67,-47.54"/>
<polygon fill="black" stroke="black" points="3371.17,-47.62 3367.67,-37.62 3364.17,-47.62 3371.17,-47.62"/>
</g>
<!-- 97 -->
<g id="node98" class="node">
<title>97</title>
<path fill="none" stroke="black" d="M3659.22,-36C3659.22,-36 3470.12,-36 3470.12,-36 3464.12,-36 3458.12,-30 3458.12,-24 3458.12,-24 3458.12,-12 3458.12,-12 3458.12,-6 3464.12,0 3470.12,0 3470.12,0 3659.22,0 3659.22,0 3665.22,0 3671.22,-6 3671.22,-12 3671.22,-12 3671.22,-24 3671.22,-24 3671.22,-30 3665.22,-36 3659.22,-36"/>
<text xml:space="preserve" text-anchor="middle" x="3564.67" y="-13.8" font-family="Times,serif" font-size="14.00">Literal (Tringulo escaleno vlido)</text>
</g>
<!-- 95&#45;&gt;97 -->
<g id="edge97" class="edge">
<title>95&#45;&gt;97</title>
<path fill="none" stroke="black" d="M3416.88,-71.52C3443.66,-62 3476.99,-50.16 3505.21,-40.13"/>
<polygon fill="black" stroke="black" points="3506.08,-43.53 3514.33,-36.89 3503.74,-36.94 3506.08,-43.53"/>
</g>
<!-- 99 -->
<g id="node100" class="node">
<title>99</title>
<path fill="none" stroke="black" d="M2974.77,-468C2974.77,-468 2864.57,-468 2864.57,-468 2858.57,-468 2852.57,-462 2852.57,-456 2852.57,-456 2852.57,-444 2852.57,-444 2852.57,-438 2858.57,-432 2864.57,-432 2864.57,-432 2974.77,-432 2974.77,-432 2980.77,-432 2986.77,-438 2986.77,-444 2986.77,-444 2986.77,-456 2986.77,-456 2986.77,-462 2980.77,-468 2974.77,-468"/>
<text xml:space="preserve" text-anchor="middle" x="2919.67" y="-445.8" font-family="Times,serif" font-size="14.00">ExpressionStatement</text>
</g>
<!-- 98&#45;&gt;99 -->
<g id="edge99" class="edge">
<title>98&#45;&gt;99</title>
<path fill="none" stroke="black" d="M2720.81,-506.24C2757.11,-496.16 2805.7,-482.66 2845.76,-471.53"/>
<polygon fill="black" stroke="black" points="2846.66,-474.91 2855.36,-468.87 2844.79,-468.17 2846.66,-474.91"/>
</g>
<!-- 100 -->
<g id="node101" class="node">
<title>100</title>
<path fill="none" stroke="black" d="M3087.45,-396C3087.45,-396 3009.9,-396 3009.9,-396 3003.9,-396 2997.9,-390 2997.9,-384 2997.9,-384 2997.9,-372 2997.9,-372 2997.9,-366 3003.9,-360 3009.9,-360 3009.9,-360 3087.45,-360 3087.45,-360 3093.45,-360 3099.45,-366 3099.45,-372 3099.45,-372 3099.45,-384 3099.45,-384 3099.45,-390 3093.45,-396 3087.45,-396"/>
<text xml:space="preserve" text-anchor="middle" x="3048.67" y="-373.8" font-family="Times,serif" font-size="14.00">CallExpression</text>
</g>
<!-- 99&#45;&gt;100 -->
<g id="edge100" class="edge">
<title>99&#45;&gt;100</title>
<path fill="none" stroke="black" d="M2951.89,-431.52C2968.57,-422.47 2989.11,-411.32 3006.98,-401.62"/>
<polygon fill="black" stroke="black" points="3008.42,-404.83 3015.54,-396.98 3005.08,-398.68 3008.42,-404.83"/>
</g>
<!-- 101 -->
<g id="node102" class="node">
<title>101</title>
<path fill="none" stroke="black" d="M3109.21,-324C3109.21,-324 2988.14,-324 2988.14,-324 2982.14,-324 2976.14,-318 2976.14,-312 2976.14,-312 2976.14,-300 2976.14,-300 2976.14,-294 2982.14,-288 2988.14,-288 2988.14,-288 3109.21,-288 3109.21,-288 3115.21,-288 3121.21,-294 3121.21,-300 3121.21,-300 3121.21,-312 3121.21,-312 3121.21,-318 3115.21,-324 3109.21,-324"/>
<text xml:space="preserve" text-anchor="middle" x="3048.67" y="-301.8" font-family="Times,serif" font-size="14.00">Identifier (console.log)</text>
</g>
<!-- 100&#45;&gt;101 -->
<g id="edge101" class="edge">
<title>100&#45;&gt;101</title>
<path fill="none" stroke="black" d="M3048.67,-359.7C3048.67,-352.41 3048.67,-343.73 3048.67,-335.54"/>
<polygon fill="black" stroke="black" points="3052.17,-335.62 3048.67,-325.62 3045.17,-335.62 3052.17,-335.62"/>
</g>
<!-- 102 -->
<g id="node103" class="node">
<title>102</title>
<path fill="none" stroke="black" d="M3296.26,-324C3296.26,-324 3151.08,-324 3151.08,-324 3145.08,-324 3139.08,-318 3139.08,-312 3139.08,-312 3139.08,-300 3139.08,-300 3139.08,-294 3145.08,-288 3151.08,-288 3151.08,-288 3296.26,-288 3296.26,-288 3302.26,-288 3308.26,-294 3308.26,-300 3308.26,-300 3308.26,-312 3308.26,-312 3308.26,-318 3302.26,-324 3296.26,-324"/>
<text xml:space="preserve" text-anchor="middle" x="3223.67" y="-301.8" font-family="Times,serif" font-size="14.00">Literal (Medidas invlidas)</text>
</g>
<!-- 100&#45;&gt;102 -->
<g id="edge102" class="edge">
<title>100&#45;&gt;102</title>
<path fill="none" stroke="black" d="M3092.38,-359.52C3115.86,-350.13 3145,-338.47 3169.86,-328.53"/>
<polygon fill="black" stroke="black" points="3170.83,-331.91 3178.81,-324.94 3168.23,-325.41 3170.83,-331.91"/>
</g>
</g>
</svg>
