<?xml version="1.0" encoding="UTF-8" standalone="no"?>
<!DOCTYPE svg PUBLIC "-//W3C//DTD SVG 1.1//EN"
 "http://www.w3.org/Graphics/SVG/1.1/DTD/svg11.dtd">
<!-- Generated by graphviz version 14.0.2 (0)
 -->
<!-- Title: AST Pages: 1 -->
<svg width="919pt" height="548pt"
 viewBox="0.00 0.00 919.00 548.00" xmlns="http://www.w3.org/2000/svg" xmlns:xlink="http://www.w3.org/1999/xlink">
<g id="graph0" class="graph" transform="scale(1 1) rotate(0) translate(4 544)">
<title>AST</title>
<polygon fill="white" stroke="none" points="-4,4 -4,-544 914.67,-544 914.67,4 -4,4"/>
<!-- 0 -->
<g id="node1" class="node">
<title>0</title>
<path fill="none" stroke="black" d="M356.94,-540C356.94,-540 316.73,-540 316.73,-540 310.73,-540 304.73,-534 304.73,-528 304.73,-528 304.73,-516 304.73,-516 304.73,-510 310.73,-504 316.73,-504 316.73,-504 356.94,-504 356.94,-504 362.94,-504 368.94,-510 368.94,-516 368.94,-516 368.94,-528 368.94,-528 368.94,-534 362.94,-540 356.94,-540"/>
<text xml:space="preserve" text-anchor="middle" x="336.84" y="-517.8" font-family="Times,serif" font-size="14.00">Program</text>
</g>
<!-- 1 -->
<g id="node2" class="node">
<title>1</title>
<path fill="none" stroke="black" d="M241.58,-468C241.58,-468 136.09,-468 136.09,-468 130.09,-468 124.09,-462 124.09,-456 124.09,-456 124.09,-444 124.09,-444 124.09,-438 130.09,-432 136.09,-432 136.09,-432 241.58,-432 241.58,-432 247.58,-432 253.58,-438 253.58,-444 253.58,-444 253.58,-456 253.58,-456 253.58,-462 247.58,-468 241.58,-468"/>
<text xml:space="preserve" text-anchor="middle" x="188.84" y="-445.8" font-family="Times,serif" font-size="14.00">VariableDeclaration</text>
</g>
<!-- 0&#45;&gt;1 -->
<g id="edge1" class="edge">
<title>0&#45;&gt;1</title>
<path fill="none" stroke="black" d="M304.36,-505.64C284.3,-496.15 258.23,-483.82 235.94,-473.28"/>
<polygon fill="black" stroke="black" points="237.57,-470.18 227.03,-469.07 234.58,-476.51 237.57,-470.18"/>
</g>
<!-- 4 -->
<g id="node5" class="node">
<title>4</title>
<path fill="none" stroke="black" d="M386.49,-468C386.49,-468 287.18,-468 287.18,-468 281.18,-468 275.18,-462 275.18,-456 275.18,-456 275.18,-444 275.18,-444 275.18,-438 281.18,-432 287.18,-432 287.18,-432 386.49,-432 386.49,-432 392.49,-432 398.49,-438 398.49,-444 398.49,-444 398.49,-456 398.49,-456 398.49,-462 392.49,-468 386.49,-468"/>
<text xml:space="preserve" text-anchor="middle" x="336.84" y="-445.8" font-family="Times,serif" font-size="14.00">DoWhileStatement</text>
</g>
<!-- 0&#45;&gt;4 -->
<g id="edge4" class="edge">
<title>0&#45;&gt;4</title>
<path fill="none" stroke="black" d="M336.84,-503.7C336.84,-496.41 336.84,-487.73 336.84,-479.54"/>
<polygon fill="black" stroke="black" points="340.34,-479.62 336.84,-469.62 333.34,-479.62 340.34,-479.62"/>
</g>
<!-- 17 -->
<g id="node18" class="node">
<title>17</title>
<path fill="none" stroke="black" d="M615.94,-468C615.94,-468 505.74,-468 505.74,-468 499.74,-468 493.74,-462 493.74,-456 493.74,-456 493.74,-444 493.74,-444 493.74,-438 499.74,-432 505.74,-432 505.74,-432 615.94,-432 615.94,-432 621.94,-432 627.94,-438 627.94,-444 627.94,-444 627.94,-456 627.94,-456 627.94,-462 621.94,-468 615.94,-468"/>
<text xml:space="preserve" text-anchor="middle" x="560.84" y="-445.8" font-family="Times,serif" font-size="14.00">ExpressionStatement</text>
</g>
<!-- 0&#45;&gt;17 -->
<g id="edge17" class="edge">
<title>0&#45;&gt;17</title>
<path fill="none" stroke="black" d="M369.41,-510.82C402.04,-500.62 453.22,-484.63 494.45,-471.75"/>
<polygon fill="black" stroke="black" points="495.3,-475.15 503.8,-468.82 493.21,-468.47 495.3,-475.15"/>
</g>
<!-- 2 -->
<g id="node3" class="node">
<title>2</title>
<path fill="none" stroke="black" d="M154.47,-396C154.47,-396 55.21,-396 55.21,-396 49.21,-396 43.21,-390 43.21,-384 43.21,-384 43.21,-372 43.21,-372 43.21,-366 49.21,-360 55.21,-360 55.21,-360 154.47,-360 154.47,-360 160.47,-360 166.47,-366 166.47,-372 166.47,-372 166.47,-384 166.47,-384 166.47,-390 160.47,-396 154.47,-396"/>
<text xml:space="preserve" text-anchor="middle" x="104.84" y="-373.8" font-family="Times,serif" font-size="14.00">VariableDeclarator</text>
</g>
<!-- 1&#45;&gt;2 -->
<g id="edge2" class="edge">
<title>1&#45;&gt;2</title>
<path fill="none" stroke="black" d="M168.07,-431.7C157.88,-423.2 145.41,-412.81 134.25,-403.51"/>
<polygon fill="black" stroke="black" points="136.74,-401.03 126.82,-397.32 132.26,-406.41 136.74,-401.03"/>
</g>
<!-- 3 -->
<g id="node4" class="node">
<title>3</title>
<path fill="none" stroke="black" d="M111.67,-324C111.67,-324 12,-324 12,-324 6,-324 0,-318 0,-312 0,-312 0,-300 0,-300 0,-294 6,-288 12,-288 12,-288 111.67,-288 111.67,-288 117.67,-288 123.67,-294 123.67,-300 123.67,-300 123.67,-312 123.67,-312 123.67,-318 117.67,-324 111.67,-324"/>
<text xml:space="preserve" text-anchor="middle" x="61.84" y="-301.8" font-family="Times,serif" font-size="14.00">Identifier (numero)</text>
</g>
<!-- 2&#45;&gt;3 -->
<g id="edge3" class="edge">
<title>2&#45;&gt;3</title>
<path fill="none" stroke="black" d="M94.21,-359.7C89.42,-351.9 83.65,-342.51 78.32,-333.83"/>
<polygon fill="black" stroke="black" points="81.35,-332.08 73.14,-325.39 75.39,-335.75 81.35,-332.08"/>
</g>
<!-- 5 -->
<g id="node6" class="node">
<title>5</title>
<path fill="none" stroke="black" d="M359.3,-396C359.3,-396 238.37,-396 238.37,-396 232.37,-396 226.37,-390 226.37,-384 226.37,-384 226.37,-372 226.37,-372 226.37,-366 232.37,-360 238.37,-360 238.37,-360 359.3,-360 359.3,-360 365.3,-360 371.3,-366 371.3,-372 371.3,-372 371.3,-384 371.3,-384 371.3,-390 365.3,-396 359.3,-396"/>
<text xml:space="preserve" text-anchor="middle" x="298.84" y="-373.8" font-family="Times,serif" font-size="14.00">BinaryExpression (&lt;=)</text>
</g>
<!-- 4&#45;&gt;5 -->
<g id="edge5" class="edge">
<title>4&#45;&gt;5</title>
<path fill="none" stroke="black" d="M327.44,-431.7C323.26,-423.98 318.22,-414.71 313.55,-406.11"/>
<polygon fill="black" stroke="black" points="316.69,-404.55 308.84,-397.43 310.54,-407.89 316.69,-404.55"/>
</g>
<!-- 8 -->
<g id="node9" class="node">
<title>8</title>
<path fill="none" stroke="black" d="M482.55,-396C482.55,-396 401.12,-396 401.12,-396 395.12,-396 389.12,-390 389.12,-384 389.12,-384 389.12,-372 389.12,-372 389.12,-366 395.12,-360 401.12,-360 401.12,-360 482.55,-360 482.55,-360 488.55,-360 494.55,-366 494.55,-372 494.55,-372 494.55,-384 494.55,-384 494.55,-390 488.55,-396 482.55,-396"/>
<text xml:space="preserve" text-anchor="middle" x="441.84" y="-373.8" font-family="Times,serif" font-size="14.00">BlockStatement</text>
</g>
<!-- 4&#45;&gt;8 -->
<g id="edge8" class="edge">
<title>4&#45;&gt;8</title>
<path fill="none" stroke="black" d="M363.06,-431.52C376.19,-422.76 392.27,-412.04 406.47,-402.58"/>
<polygon fill="black" stroke="black" points="408.31,-405.56 414.69,-397.1 404.42,-399.73 408.31,-405.56"/>
</g>
<!-- 6 -->
<g id="node7" class="node">
<title>6</title>
<path fill="none" stroke="black" d="M253.67,-324C253.67,-324 154,-324 154,-324 148,-324 142,-318 142,-312 142,-312 142,-300 142,-300 142,-294 148,-288 154,-288 154,-288 253.67,-288 253.67,-288 259.67,-288 265.67,-294 265.67,-300 265.67,-300 265.67,-312 265.67,-312 265.67,-318 259.67,-324 253.67,-324"/>
<text xml:space="preserve" text-anchor="middle" x="203.84" y="-301.8" font-family="Times,serif" font-size="14.00">Identifier (numero)</text>
</g>
<!-- 5&#45;&gt;6 -->
<g id="edge6" class="edge">
<title>5&#45;&gt;6</title>
<path fill="none" stroke="black" d="M275.35,-359.7C263.59,-351.03 249.17,-340.4 236.36,-330.96"/>
<polygon fill="black" stroke="black" points="238.72,-328.36 228.6,-325.24 234.57,-333.99 238.72,-328.36"/>
</g>
<!-- 7 -->
<g id="node8" class="node">
<title>7</title>
<path fill="none" stroke="black" d="M344.4,-324C344.4,-324 295.27,-324 295.27,-324 289.27,-324 283.27,-318 283.27,-312 283.27,-312 283.27,-300 283.27,-300 283.27,-294 289.27,-288 295.27,-288 295.27,-288 344.4,-288 344.4,-288 350.4,-288 356.4,-294 356.4,-300 356.4,-300 356.4,-312 356.4,-312 356.4,-318 350.4,-324 344.4,-324"/>
<text xml:space="preserve" text-anchor="middle" x="319.84" y="-301.8" font-family="Times,serif" font-size="14.00">Literal (0)</text>
</g>
<!-- 5&#45;&gt;7 -->
<g id="edge7" class="edge">
<title>5&#45;&gt;7</title>
<path fill="none" stroke="black" d="M304.03,-359.7C306.27,-352.24 308.94,-343.32 311.45,-334.97"/>
<polygon fill="black" stroke="black" points="314.75,-336.14 314.27,-325.55 308.04,-334.13 314.75,-336.14"/>
</g>
<!-- 9 -->
<g id="node10" class="node">
<title>9</title>
<path fill="none" stroke="black" d="M496.94,-324C496.94,-324 386.74,-324 386.74,-324 380.74,-324 374.74,-318 374.74,-312 374.74,-312 374.74,-300 374.74,-300 374.74,-294 380.74,-288 386.74,-288 386.74,-288 496.94,-288 496.94,-288 502.94,-288 508.94,-294 508.94,-300 508.94,-300 508.94,-312 508.94,-312 508.94,-318 502.94,-324 496.94,-324"/>
<text xml:space="preserve" text-anchor="middle" x="441.84" y="-301.8" font-family="Times,serif" font-size="14.00">ExpressionStatement</text>
</g>
<!-- 8&#45;&gt;9 -->
<g id="edge9" class="edge">
<title>8&#45;&gt;9</title>
<path fill="none" stroke="black" d="M441.84,-359.7C441.84,-352.41 441.84,-343.73 441.84,-335.54"/>
<polygon fill="black" stroke="black" points="445.34,-335.62 441.84,-325.62 438.34,-335.62 445.34,-335.62"/>
</g>
<!-- 10 -->
<g id="node11" class="node">
<title>10</title>
<path fill="none" stroke="black" d="M512.75,-252C512.75,-252 370.92,-252 370.92,-252 364.92,-252 358.92,-246 358.92,-240 358.92,-240 358.92,-228 358.92,-228 358.92,-222 364.92,-216 370.92,-216 370.92,-216 512.75,-216 512.75,-216 518.75,-216 524.75,-222 524.75,-228 524.75,-228 524.75,-240 524.75,-240 524.75,-246 518.75,-252 512.75,-252"/>
<text xml:space="preserve" text-anchor="middle" x="441.84" y="-229.8" font-family="Times,serif" font-size="14.00">AssignmentExpression (=)</text>
</g>
<!-- 9&#45;&gt;10 -->
<g id="edge10" class="edge">
<title>9&#45;&gt;10</title>
<path fill="none" stroke="black" d="M441.84,-287.7C441.84,-280.41 441.84,-271.73 441.84,-263.54"/>
<polygon fill="black" stroke="black" points="445.34,-263.62 441.84,-253.62 438.34,-263.62 445.34,-263.62"/>
</g>
<!-- 11 -->
<g id="node12" class="node">
<title>11</title>
<path fill="none" stroke="black" d="M426.67,-180C426.67,-180 327,-180 327,-180 321,-180 315,-174 315,-168 315,-168 315,-156 315,-156 315,-150 321,-144 327,-144 327,-144 426.67,-144 426.67,-144 432.67,-144 438.67,-150 438.67,-156 438.67,-156 438.67,-168 438.67,-168 438.67,-174 432.67,-180 426.67,-180"/>
<text xml:space="preserve" text-anchor="middle" x="376.84" y="-157.8" font-family="Times,serif" font-size="14.00">Identifier (numero)</text>
</g>
<!-- 10&#45;&gt;11 -->
<g id="edge11" class="edge">
<title>10&#45;&gt;11</title>
<path fill="none" stroke="black" d="M425.77,-215.7C418.13,-207.47 408.86,-197.48 400.44,-188.42"/>
<polygon fill="black" stroke="black" points="403.12,-186.16 393.75,-181.21 397.99,-190.92 403.12,-186.16"/>
</g>
<!-- 12 -->
<g id="node13" class="node">
<title>12</title>
<path fill="none" stroke="black" d="M546.61,-180C546.61,-180 469.06,-180 469.06,-180 463.06,-180 457.06,-174 457.06,-168 457.06,-168 457.06,-156 457.06,-156 457.06,-150 463.06,-144 469.06,-144 469.06,-144 546.61,-144 546.61,-144 552.61,-144 558.61,-150 558.61,-156 558.61,-156 558.61,-168 558.61,-168 558.61,-174 552.61,-180 546.61,-180"/>
<text xml:space="preserve" text-anchor="middle" x="507.84" y="-157.8" font-family="Times,serif" font-size="14.00">CallExpression</text>
</g>
<!-- 10&#45;&gt;12 -->
<g id="edge12" class="edge">
<title>10&#45;&gt;12</title>
<path fill="none" stroke="black" d="M458.15,-215.7C465.9,-207.47 475.32,-197.48 483.87,-188.42"/>
<polygon fill="black" stroke="black" points="486.36,-190.88 490.67,-181.21 481.26,-186.08 486.36,-190.88"/>
</g>
<!-- 13 -->
<g id="node14" class="node">
<title>13</title>
<path fill="none" stroke="black" d="M493.23,-108C493.23,-108 390.44,-108 390.44,-108 384.44,-108 378.44,-102 378.44,-96 378.44,-96 378.44,-84 378.44,-84 378.44,-78 384.44,-72 390.44,-72 390.44,-72 493.23,-72 493.23,-72 499.23,-72 505.23,-78 505.23,-84 505.23,-84 505.23,-96 505.23,-96 505.23,-102 499.23,-108 493.23,-108"/>
<text xml:space="preserve" text-anchor="middle" x="441.84" y="-85.8" font-family="Times,serif" font-size="14.00">Identifier (Number)</text>
</g>
<!-- 12&#45;&gt;13 -->
<g id="edge13" class="edge">
<title>12&#45;&gt;13</title>
<path fill="none" stroke="black" d="M491.52,-143.7C483.77,-135.47 474.35,-125.48 465.8,-116.42"/>
<polygon fill="black" stroke="black" points="468.41,-114.08 459,-109.21 463.32,-118.88 468.41,-114.08"/>
</g>
<!-- 14 -->
<g id="node15" class="node">
<title>14</title>
<path fill="none" stroke="black" d="M612.61,-108C612.61,-108 535.06,-108 535.06,-108 529.06,-108 523.06,-102 523.06,-96 523.06,-96 523.06,-84 523.06,-84 523.06,-78 529.06,-72 535.06,-72 535.06,-72 612.61,-72 612.61,-72 618.61,-72 624.61,-78 624.61,-84 624.61,-84 624.61,-96 624.61,-96 624.61,-102 618.61,-108 612.61,-108"/>
<text xml:space="preserve" text-anchor="middle" x="573.84" y="-85.8" font-family="Times,serif" font-size="14.00">CallExpression</text>
</g>
<!-- 12&#45;&gt;14 -->
<g id="edge14" class="edge">
<title>12&#45;&gt;14</title>
<path fill="none" stroke="black" d="M524.15,-143.7C531.9,-135.47 541.32,-125.48 549.87,-116.42"/>
<polygon fill="black" stroke="black" points="552.36,-118.88 556.67,-109.21 547.26,-114.08 552.36,-118.88"/>
</g>
<!-- 15 -->
<g id="node16" class="node">
<title>15</title>
<path fill="none" stroke="black" d="M527.51,-36C527.51,-36 430.16,-36 430.16,-36 424.16,-36 418.16,-30 418.16,-24 418.16,-24 418.16,-12 418.16,-12 418.16,-6 424.16,0 430.16,0 430.16,0 527.51,0 527.51,0 533.51,0 539.51,-6 539.51,-12 539.51,-12 539.51,-24 539.51,-24 539.51,-30 533.51,-36 527.51,-36"/>
<text xml:space="preserve" text-anchor="middle" x="478.84" y="-13.8" font-family="Times,serif" font-size="14.00">Identifier (prompt)</text>
</g>
<!-- 14&#45;&gt;15 -->
<g id="edge15" class="edge">
<title>14&#45;&gt;15</title>
<path fill="none" stroke="black" d="M550.35,-71.7C538.59,-63.03 524.17,-52.4 511.36,-42.96"/>
<polygon fill="black" stroke="black" points="513.72,-40.36 503.6,-37.24 509.57,-45.99 513.72,-40.36"/>
</g>
<!-- 16 -->
<g id="node17" class="node">
<title>16</title>
<path fill="none" stroke="black" d="M766.48,-36C766.48,-36 569.19,-36 569.19,-36 563.19,-36 557.19,-30 557.19,-24 557.19,-24 557.19,-12 557.19,-12 557.19,-6 563.19,0 569.19,0 569.19,0 766.48,0 766.48,0 772.48,0 778.48,-6 778.48,-12 778.48,-12 778.48,-24 778.48,-24 778.48,-30 772.48,-36 766.48,-36"/>
<text xml:space="preserve" text-anchor="middle" x="667.84" y="-13.8" font-family="Times,serif" font-size="14.00">Literal (Digite um numero positivo:)</text>
</g>
<!-- 14&#45;&gt;16 -->
<g id="edge16" class="edge">
<title>14&#45;&gt;16</title>
<path fill="none" stroke="black" d="M597.07,-71.7C608.71,-63.03 622.98,-52.4 635.66,-42.96"/>
<polygon fill="black" stroke="black" points="637.4,-46.03 643.33,-37.25 633.22,-40.42 637.4,-46.03"/>
</g>
<!-- 18 -->
<g id="node19" class="node">
<title>18</title>
<path fill="none" stroke="black" d="M638.61,-396C638.61,-396 561.06,-396 561.06,-396 555.06,-396 549.06,-390 549.06,-384 549.06,-384 549.06,-372 549.06,-372 549.06,-366 555.06,-360 561.06,-360 561.06,-360 638.61,-360 638.61,-360 644.61,-360 650.61,-366 650.61,-372 650.61,-372 650.61,-384 650.61,-384 650.61,-390 644.61,-396 638.61,-396"/>
<text xml:space="preserve" text-anchor="middle" x="599.84" y="-373.8" font-family="Times,serif" font-size="14.00">CallExpression</text>
</g>
<!-- 17&#45;&gt;18 -->
<g id="edge18" class="edge">
<title>17&#45;&gt;18</title>
<path fill="none" stroke="black" d="M570.48,-431.7C574.77,-423.98 579.94,-414.71 584.73,-406.11"/>
<polygon fill="black" stroke="black" points="587.76,-407.87 589.57,-397.43 581.65,-404.46 587.76,-407.87"/>
</g>
<!-- 19 -->
<g id="node20" class="node">
<title>19</title>
<path fill="none" stroke="black" d="M660.37,-324C660.37,-324 539.31,-324 539.31,-324 533.31,-324 527.31,-318 527.31,-312 527.31,-312 527.31,-300 527.31,-300 527.31,-294 533.31,-288 539.31,-288 539.31,-288 660.37,-288 660.37,-288 666.37,-288 672.37,-294 672.37,-300 672.37,-300 672.37,-312 672.37,-312 672.37,-318 666.37,-324 660.37,-324"/>
<text xml:space="preserve" text-anchor="middle" x="599.84" y="-301.8" font-family="Times,serif" font-size="14.00">Identifier (console.log)</text>
</g>
<!-- 18&#45;&gt;19 -->
<g id="edge19" class="edge">
<title>18&#45;&gt;19</title>
<path fill="none" stroke="black" d="M599.84,-359.7C599.84,-352.41 599.84,-343.73 599.84,-335.54"/>
<polygon fill="black" stroke="black" points="603.34,-335.62 599.84,-325.62 596.34,-335.62 603.34,-335.62"/>
</g>
<!-- 20 -->
<g id="node21" class="node">
<title>20</title>
<path fill="none" stroke="black" d="M815.35,-324C815.35,-324 702.32,-324 702.32,-324 696.32,-324 690.32,-318 690.32,-312 690.32,-312 690.32,-300 690.32,-300 690.32,-294 696.32,-288 702.32,-288 702.32,-288 815.35,-288 815.35,-288 821.35,-288 827.35,-294 827.35,-300 827.35,-300 827.35,-312 827.35,-312 827.35,-318 821.35,-324 815.35,-324"/>
<text xml:space="preserve" text-anchor="middle" x="758.84" y="-301.8" font-family="Times,serif" font-size="14.00">BinaryExpression (+)</text>
</g>
<!-- 18&#45;&gt;20 -->
<g id="edge20" class="edge">
<title>18&#45;&gt;20</title>
<path fill="none" stroke="black" d="M639.55,-359.52C660.59,-350.25 686.64,-338.78 709.03,-328.93"/>
<polygon fill="black" stroke="black" points="710.23,-332.22 717.97,-324.99 707.41,-325.82 710.23,-332.22"/>
</g>
<!-- 21 -->
<g id="node22" class="node">
<title>21</title>
<path fill="none" stroke="black" d="M757.18,-252C757.18,-252 622.5,-252 622.5,-252 616.5,-252 610.5,-246 610.5,-240 610.5,-240 610.5,-228 610.5,-228 610.5,-222 616.5,-216 622.5,-216 622.5,-216 757.18,-216 757.18,-216 763.18,-216 769.18,-222 769.18,-228 769.18,-228 769.18,-240 769.18,-240 769.18,-246 763.18,-252 757.18,-252"/>
<text xml:space="preserve" text-anchor="middle" x="689.84" y="-229.8" font-family="Times,serif" font-size="14.00">Literal (Número válido: )</text>
</g>
<!-- 20&#45;&gt;21 -->
<g id="edge21" class="edge">
<title>20&#45;&gt;21</title>
<path fill="none" stroke="black" d="M741.78,-287.7C733.59,-279.39 723.62,-269.28 714.62,-260.14"/>
<polygon fill="black" stroke="black" points="717.27,-257.85 707.76,-253.18 712.29,-262.76 717.27,-257.85"/>
</g>
<!-- 22 -->
<g id="node23" class="node">
<title>22</title>
<path fill="none" stroke="black" d="M898.67,-252C898.67,-252 799,-252 799,-252 793,-252 787,-246 787,-240 787,-240 787,-228 787,-228 787,-222 793,-216 799,-216 799,-216 898.67,-216 898.67,-216 904.67,-216 910.67,-222 910.67,-228 910.67,-228 910.67,-240 910.67,-240 910.67,-246 904.67,-252 898.67,-252"/>
<text xml:space="preserve" text-anchor="middle" x="848.84" y="-229.8" font-family="Times,serif" font-size="14.00">Identifier (numero)</text>
</g>
<!-- 20&#45;&gt;22 -->
<g id="edge22" class="edge">
<title>20&#45;&gt;22</title>
<path fill="none" stroke="black" d="M781.08,-287.7C792.12,-279.11 805.63,-268.61 817.67,-259.24"/>
<polygon fill="black" stroke="black" points="819.59,-262.18 825.34,-253.28 815.3,-256.65 819.59,-262.18"/>
</g>
</g>
</svg>
