<?xml version="1.0" encoding="UTF-8" standalone="no"?>
<!DOCTYPE svg PUBLIC "-//W3C//DTD SVG 1.1//EN"
 "http://www.w3.org/Graphics/SVG/1.1/DTD/svg11.dtd">
<!-- Generated by graphviz version 14.0.2 (0)
 -->
<!-- Title: AST Pages: 1 -->
<svg width="976pt" height="476pt"
 viewBox="0.00 0.00 976.00 476.00" xmlns="http://www.w3.org/2000/svg" xmlns:xlink="http://www.w3.org/1999/xlink">
<g id="graph0" class="graph" transform="scale(1 1) rotate(0) translate(4 472)">
<title>AST</title>
<polygon fill="white" stroke="none" points="-4,4 -4,-472 971.89,-472 971.89,4 -4,4"/>
<!-- 0 -->
<g id="node1" class="node">
<title>0</title>
<path fill="none" stroke="black" d="M494.51,-468C494.51,-468 454.29,-468 454.29,-468 448.29,-468 442.29,-462 442.29,-456 442.29,-456 442.29,-444 442.29,-444 442.29,-438 448.29,-432 454.29,-432 454.29,-432 494.51,-432 494.51,-432 500.51,-432 506.51,-438 506.51,-444 506.51,-444 506.51,-456 506.51,-456 506.51,-462 500.51,-468 494.51,-468"/>
<text xml:space="preserve" text-anchor="middle" x="474.4" y="-445.8" font-family="Times,serif" font-size="14.00">Program</text>
</g>
<!-- 1 -->
<g id="node2" class="node">
<title>1</title>
<path fill="none" stroke="black" d="M443.12,-396C443.12,-396 375.68,-396 375.68,-396 369.68,-396 363.68,-390 363.68,-384 363.68,-384 363.68,-372 363.68,-372 363.68,-366 369.68,-360 375.68,-360 375.68,-360 443.12,-360 443.12,-360 449.12,-360 455.12,-366 455.12,-372 455.12,-372 455.12,-384 455.12,-384 455.12,-390 449.12,-396 443.12,-396"/>
<text xml:space="preserve" text-anchor="middle" x="409.4" y="-373.8" font-family="Times,serif" font-size="14.00">ForStatement</text>
</g>
<!-- 0&#45;&gt;1 -->
<g id="edge1" class="edge">
<title>0&#45;&gt;1</title>
<path fill="none" stroke="black" d="M458.33,-431.7C450.7,-423.47 441.42,-413.48 433,-404.42"/>
<polygon fill="black" stroke="black" points="435.68,-402.16 426.31,-397.21 430.55,-406.92 435.68,-402.16"/>
</g>
<!-- 18 -->
<g id="node19" class="node">
<title>18</title>
<path fill="none" stroke="black" d="M672.5,-396C672.5,-396 562.3,-396 562.3,-396 556.3,-396 550.3,-390 550.3,-384 550.3,-384 550.3,-372 550.3,-372 550.3,-366 556.3,-360 562.3,-360 562.3,-360 672.5,-360 672.5,-360 678.5,-360 684.5,-366 684.5,-372 684.5,-372 684.5,-384 684.5,-384 684.5,-390 678.5,-396 672.5,-396"/>
<text xml:space="preserve" text-anchor="middle" x="617.4" y="-373.8" font-family="Times,serif" font-size="14.00">ExpressionStatement</text>
</g>
<!-- 0&#45;&gt;18 -->
<g id="edge18" class="edge">
<title>0&#45;&gt;18</title>
<path fill="none" stroke="black" d="M506.85,-433.12C525.95,-423.76 550.42,-411.79 571.48,-401.48"/>
<polygon fill="black" stroke="black" points="573.02,-404.62 580.46,-397.08 569.94,-398.34 573.02,-404.62"/>
</g>
<!-- 2 -->
<g id="node3" class="node">
<title>2</title>
<path fill="none" stroke="black" d="M143.14,-324C143.14,-324 37.65,-324 37.65,-324 31.65,-324 25.65,-318 25.65,-312 25.65,-312 25.65,-300 25.65,-300 25.65,-294 31.65,-288 37.65,-288 37.65,-288 143.14,-288 143.14,-288 149.14,-288 155.14,-294 155.14,-300 155.14,-300 155.14,-312 155.14,-312 155.14,-318 149.14,-324 143.14,-324"/>
<text xml:space="preserve" text-anchor="middle" x="90.4" y="-301.8" font-family="Times,serif" font-size="14.00">VariableDeclaration</text>
</g>
<!-- 1&#45;&gt;2 -->
<g id="edge2" class="edge">
<title>1&#45;&gt;2</title>
<path fill="none" stroke="black" d="M363.3,-367.21C316.34,-357.2 241.1,-341.04 166.38,-324.43"/>
<polygon fill="black" stroke="black" points="167.36,-321.06 156.84,-322.3 165.84,-327.89 167.36,-321.06"/>
</g>
<!-- 6 -->
<g id="node7" class="node">
<title>6</title>
<path fill="none" stroke="black" d="M305.86,-324C305.86,-324 184.93,-324 184.93,-324 178.93,-324 172.93,-318 172.93,-312 172.93,-312 172.93,-300 172.93,-300 172.93,-294 178.93,-288 184.93,-288 184.93,-288 305.86,-288 305.86,-288 311.86,-288 317.86,-294 317.86,-300 317.86,-300 317.86,-312 317.86,-312 317.86,-318 311.86,-324 305.86,-324"/>
<text xml:space="preserve" text-anchor="middle" x="245.4" y="-301.8" font-family="Times,serif" font-size="14.00">BinaryExpression (&lt;=)</text>
</g>
<!-- 1&#45;&gt;6 -->
<g id="edge6" class="edge">
<title>1&#45;&gt;6</title>
<path fill="none" stroke="black" d="M368.44,-359.52C346.63,-350.21 319.62,-338.68 296.46,-328.79"/>
<polygon fill="black" stroke="black" points="298.08,-325.68 287.51,-324.98 295.34,-332.12 298.08,-325.68"/>
</g>
<!-- 9 -->
<g id="node10" class="node">
<title>9</title>
<path fill="none" stroke="black" d="M471.03,-324C471.03,-324 347.77,-324 347.77,-324 341.77,-324 335.77,-318 335.77,-312 335.77,-312 335.77,-300 335.77,-300 335.77,-294 341.77,-288 347.77,-288 347.77,-288 471.03,-288 471.03,-288 477.03,-288 483.03,-294 483.03,-300 483.03,-300 483.03,-312 483.03,-312 483.03,-318 477.03,-324 471.03,-324"/>
<text xml:space="preserve" text-anchor="middle" x="409.4" y="-301.8" font-family="Times,serif" font-size="14.00">UpdateExpression (++)</text>
</g>
<!-- 1&#45;&gt;9 -->
<g id="edge9" class="edge">
<title>1&#45;&gt;9</title>
<path fill="none" stroke="black" d="M409.4,-359.7C409.4,-352.41 409.4,-343.73 409.4,-335.54"/>
<polygon fill="black" stroke="black" points="412.9,-335.62 409.4,-325.62 405.9,-335.62 412.9,-335.62"/>
</g>
<!-- 11 -->
<g id="node12" class="node">
<title>11</title>
<path fill="none" stroke="black" d="M594.11,-324C594.11,-324 512.68,-324 512.68,-324 506.68,-324 500.68,-318 500.68,-312 500.68,-312 500.68,-300 500.68,-300 500.68,-294 506.68,-288 512.68,-288 512.68,-288 594.11,-288 594.11,-288 600.11,-288 606.11,-294 606.11,-300 606.11,-300 606.11,-312 606.11,-312 606.11,-318 600.11,-324 594.11,-324"/>
<text xml:space="preserve" text-anchor="middle" x="553.4" y="-301.8" font-family="Times,serif" font-size="14.00">BlockStatement</text>
</g>
<!-- 1&#45;&gt;11 -->
<g id="edge11" class="edge">
<title>1&#45;&gt;11</title>
<path fill="none" stroke="black" d="M445.36,-359.52C464.23,-350.34 487.55,-339.01 507.69,-329.22"/>
<polygon fill="black" stroke="black" points="509.07,-332.44 516.53,-324.92 506.01,-326.15 509.07,-332.44"/>
</g>
<!-- 3 -->
<g id="node4" class="node">
<title>3</title>
<path fill="none" stroke="black" d="M140.03,-252C140.03,-252 40.77,-252 40.77,-252 34.77,-252 28.77,-246 28.77,-240 28.77,-240 28.77,-228 28.77,-228 28.77,-222 34.77,-216 40.77,-216 40.77,-216 140.03,-216 140.03,-216 146.03,-216 152.03,-222 152.03,-228 152.03,-228 152.03,-240 152.03,-240 152.03,-246 146.03,-252 140.03,-252"/>
<text xml:space="preserve" text-anchor="middle" x="90.4" y="-229.8" font-family="Times,serif" font-size="14.00">VariableDeclarator</text>
</g>
<!-- 2&#45;&gt;3 -->
<g id="edge3" class="edge">
<title>2&#45;&gt;3</title>
<path fill="none" stroke="black" d="M90.4,-287.7C90.4,-280.41 90.4,-271.73 90.4,-263.54"/>
<polygon fill="black" stroke="black" points="93.9,-263.62 90.4,-253.62 86.9,-263.62 93.9,-263.62"/>
</g>
<!-- 4 -->
<g id="node5" class="node">
<title>4</title>
<path fill="none" stroke="black" d="M72.8,-180C72.8,-180 12,-180 12,-180 6,-180 0,-174 0,-168 0,-168 0,-156 0,-156 0,-150 6,-144 12,-144 12,-144 72.8,-144 72.8,-144 78.8,-144 84.8,-150 84.8,-156 84.8,-156 84.8,-168 84.8,-168 84.8,-174 78.8,-180 72.8,-180"/>
<text xml:space="preserve" text-anchor="middle" x="42.4" y="-157.8" font-family="Times,serif" font-size="14.00">Identifier (i)</text>
</g>
<!-- 3&#45;&gt;4 -->
<g id="edge4" class="edge">
<title>3&#45;&gt;4</title>
<path fill="none" stroke="black" d="M78.53,-215.7C73.13,-207.81 66.61,-198.3 60.6,-189.55"/>
<polygon fill="black" stroke="black" points="63.52,-187.62 54.98,-181.35 57.75,-191.58 63.52,-187.62"/>
</g>
<!-- 5 -->
<g id="node6" class="node">
<title>5</title>
<path fill="none" stroke="black" d="M163.97,-180C163.97,-180 114.83,-180 114.83,-180 108.83,-180 102.83,-174 102.83,-168 102.83,-168 102.83,-156 102.83,-156 102.83,-150 108.83,-144 114.83,-144 114.83,-144 163.97,-144 163.97,-144 169.97,-144 175.97,-150 175.97,-156 175.97,-156 175.97,-168 175.97,-168 175.97,-174 169.97,-180 163.97,-180"/>
<text xml:space="preserve" text-anchor="middle" x="139.4" y="-157.8" font-family="Times,serif" font-size="14.00">Literal (1)</text>
</g>
<!-- 3&#45;&gt;5 -->
<g id="edge5" class="edge">
<title>3&#45;&gt;5</title>
<path fill="none" stroke="black" d="M102.51,-215.7C108.09,-207.73 114.83,-198.1 121.01,-189.26"/>
<polygon fill="black" stroke="black" points="123.69,-191.54 126.56,-181.34 117.96,-187.53 123.69,-191.54"/>
</g>
<!-- 7 -->
<g id="node8" class="node">
<title>7</title>
<path fill="none" stroke="black" d="M244.8,-252C244.8,-252 184,-252 184,-252 178,-252 172,-246 172,-240 172,-240 172,-228 172,-228 172,-222 178,-216 184,-216 184,-216 244.8,-216 244.8,-216 250.8,-216 256.8,-222 256.8,-228 256.8,-228 256.8,-240 256.8,-240 256.8,-246 250.8,-252 244.8,-252"/>
<text xml:space="preserve" text-anchor="middle" x="214.4" y="-229.8" font-family="Times,serif" font-size="14.00">Identifier (i)</text>
</g>
<!-- 6&#45;&gt;7 -->
<g id="edge7" class="edge">
<title>6&#45;&gt;7</title>
<path fill="none" stroke="black" d="M237.74,-287.7C234.36,-280.07 230.3,-270.92 226.53,-262.4"/>
<polygon fill="black" stroke="black" points="229.84,-261.21 222.59,-253.49 223.44,-264.05 229.84,-261.21"/>
</g>
<!-- 8 -->
<g id="node9" class="node">
<title>8</title>
<path fill="none" stroke="black" d="M335.97,-252C335.97,-252 286.83,-252 286.83,-252 280.83,-252 274.83,-246 274.83,-240 274.83,-240 274.83,-228 274.83,-228 274.83,-222 280.83,-216 286.83,-216 286.83,-216 335.97,-216 335.97,-216 341.97,-216 347.97,-222 347.97,-228 347.97,-228 347.97,-240 347.97,-240 347.97,-246 341.97,-252 335.97,-252"/>
<text xml:space="preserve" text-anchor="middle" x="311.4" y="-229.8" font-family="Times,serif" font-size="14.00">Literal (3)</text>
</g>
<!-- 6&#45;&gt;8 -->
<g id="edge8" class="edge">
<title>6&#45;&gt;8</title>
<path fill="none" stroke="black" d="M261.71,-287.7C269.47,-279.47 278.89,-269.48 287.43,-260.42"/>
<polygon fill="black" stroke="black" points="289.92,-262.88 294.23,-253.21 284.83,-258.08 289.92,-262.88"/>
</g>
<!-- 10 -->
<g id="node11" class="node">
<title>10</title>
<path fill="none" stroke="black" d="M439.8,-252C439.8,-252 379,-252 379,-252 373,-252 367,-246 367,-240 367,-240 367,-228 367,-228 367,-222 373,-216 379,-216 379,-216 439.8,-216 439.8,-216 445.8,-216 451.8,-222 451.8,-228 451.8,-228 451.8,-240 451.8,-240 451.8,-246 445.8,-252 439.8,-252"/>
<text xml:space="preserve" text-anchor="middle" x="409.4" y="-229.8" font-family="Times,serif" font-size="14.00">Identifier (i)</text>
</g>
<!-- 9&#45;&gt;10 -->
<g id="edge10" class="edge">
<title>9&#45;&gt;10</title>
<path fill="none" stroke="black" d="M409.4,-287.7C409.4,-280.41 409.4,-271.73 409.4,-263.54"/>
<polygon fill="black" stroke="black" points="412.9,-263.62 409.4,-253.62 405.9,-263.62 412.9,-263.62"/>
</g>
<!-- 12 -->
<g id="node13" class="node">
<title>12</title>
<path fill="none" stroke="black" d="M599.5,-252C599.5,-252 489.3,-252 489.3,-252 483.3,-252 477.3,-246 477.3,-240 477.3,-240 477.3,-228 477.3,-228 477.3,-222 483.3,-216 489.3,-216 489.3,-216 599.5,-216 599.5,-216 605.5,-216 611.5,-222 611.5,-228 611.5,-228 611.5,-240 611.5,-240 611.5,-246 605.5,-252 599.5,-252"/>
<text xml:space="preserve" text-anchor="middle" x="544.4" y="-229.8" font-family="Times,serif" font-size="14.00">ExpressionStatement</text>
</g>
<!-- 11&#45;&gt;12 -->
<g id="edge12" class="edge">
<title>11&#45;&gt;12</title>
<path fill="none" stroke="black" d="M551.17,-287.7C550.23,-280.32 549.09,-271.52 548.03,-263.25"/>
<polygon fill="black" stroke="black" points="551.54,-263.08 546.79,-253.61 544.59,-263.97 551.54,-263.08"/>
</g>
<!-- 13 -->
<g id="node14" class="node">
<title>13</title>
<path fill="none" stroke="black" d="M583.17,-180C583.17,-180 505.63,-180 505.63,-180 499.63,-180 493.63,-174 493.63,-168 493.63,-168 493.63,-156 493.63,-156 493.63,-150 499.63,-144 505.63,-144 505.63,-144 583.17,-144 583.17,-144 589.17,-144 595.17,-150 595.17,-156 595.17,-156 595.17,-168 595.17,-168 595.17,-174 589.17,-180 583.17,-180"/>
<text xml:space="preserve" text-anchor="middle" x="544.4" y="-157.8" font-family="Times,serif" font-size="14.00">CallExpression</text>
</g>
<!-- 12&#45;&gt;13 -->
<g id="edge13" class="edge">
<title>12&#45;&gt;13</title>
<path fill="none" stroke="black" d="M544.4,-215.7C544.4,-208.41 544.4,-199.73 544.4,-191.54"/>
<polygon fill="black" stroke="black" points="547.9,-191.62 544.4,-181.62 540.9,-191.62 547.9,-191.62"/>
</g>
<!-- 14 -->
<g id="node15" class="node">
<title>14</title>
<path fill="none" stroke="black" d="M524.93,-108C524.93,-108 403.87,-108 403.87,-108 397.87,-108 391.87,-102 391.87,-96 391.87,-96 391.87,-84 391.87,-84 391.87,-78 397.87,-72 403.87,-72 403.87,-72 524.93,-72 524.93,-72 530.93,-72 536.93,-78 536.93,-84 536.93,-84 536.93,-96 536.93,-96 536.93,-102 530.93,-108 524.93,-108"/>
<text xml:space="preserve" text-anchor="middle" x="464.4" y="-85.8" font-family="Times,serif" font-size="14.00">Identifier (console.log)</text>
</g>
<!-- 13&#45;&gt;14 -->
<g id="edge14" class="edge">
<title>13&#45;&gt;14</title>
<path fill="none" stroke="black" d="M524.62,-143.7C515.01,-135.28 503.28,-125.02 492.73,-115.79"/>
<polygon fill="black" stroke="black" points="495.19,-113.29 485.36,-109.34 490.58,-118.56 495.19,-113.29"/>
</g>
<!-- 15 -->
<g id="node16" class="node">
<title>15</title>
<path fill="none" stroke="black" d="M679.92,-108C679.92,-108 566.88,-108 566.88,-108 560.88,-108 554.88,-102 554.88,-96 554.88,-96 554.88,-84 554.88,-84 554.88,-78 560.88,-72 566.88,-72 566.88,-72 679.92,-72 679.92,-72 685.92,-72 691.92,-78 691.92,-84 691.92,-84 691.92,-96 691.92,-96 691.92,-102 685.92,-108 679.92,-108"/>
<text xml:space="preserve" text-anchor="middle" x="623.4" y="-85.8" font-family="Times,serif" font-size="14.00">BinaryExpression (+)</text>
</g>
<!-- 13&#45;&gt;15 -->
<g id="edge15" class="edge">
<title>13&#45;&gt;15</title>
<path fill="none" stroke="black" d="M563.93,-143.7C573.42,-135.28 585.01,-125.02 595.42,-115.79"/>
<polygon fill="black" stroke="black" points="597.52,-118.6 602.69,-109.35 592.88,-113.36 597.52,-118.6"/>
</g>
<!-- 16 -->
<g id="node17" class="node">
<title>16</title>
<path fill="none" stroke="black" d="M625.07,-36C625.07,-36 471.73,-36 471.73,-36 465.73,-36 459.73,-30 459.73,-24 459.73,-24 459.73,-12 459.73,-12 459.73,-6 465.73,0 471.73,0 471.73,0 625.07,0 625.07,0 631.07,0 637.07,-6 637.07,-12 637.07,-12 637.07,-24 637.07,-24 637.07,-30 631.07,-36 625.07,-36"/>
<text xml:space="preserve" text-anchor="middle" x="548.4" y="-13.8" font-family="Times,serif" font-size="14.00">Literal (Repetição número: )</text>
</g>
<!-- 15&#45;&gt;16 -->
<g id="edge16" class="edge">
<title>15&#45;&gt;16</title>
<path fill="none" stroke="black" d="M604.86,-71.7C595.93,-63.37 585.07,-53.22 575.26,-44.07"/>
<polygon fill="black" stroke="black" points="577.79,-41.64 568.09,-37.38 573.01,-46.76 577.79,-41.64"/>
</g>
<!-- 17 -->
<g id="node18" class="node">
<title>17</title>
<path fill="none" stroke="black" d="M727.8,-36C727.8,-36 667,-36 667,-36 661,-36 655,-30 655,-24 655,-24 655,-12 655,-12 655,-6 661,0 667,0 667,0 727.8,0 727.8,0 733.8,0 739.8,-6 739.8,-12 739.8,-12 739.8,-24 739.8,-24 739.8,-30 733.8,-36 727.8,-36"/>
<text xml:space="preserve" text-anchor="middle" x="697.4" y="-13.8" font-family="Times,serif" font-size="14.00">Identifier (i)</text>
</g>
<!-- 15&#45;&gt;17 -->
<g id="edge17" class="edge">
<title>15&#45;&gt;17</title>
<path fill="none" stroke="black" d="M641.69,-71.7C650.5,-63.37 661.22,-53.22 670.9,-44.07"/>
<polygon fill="black" stroke="black" points="673.1,-46.8 677.96,-37.39 668.29,-41.72 673.1,-46.8"/>
</g>
<!-- 19 -->
<g id="node20" class="node">
<title>19</title>
<path fill="none" stroke="black" d="M741.17,-324C741.17,-324 663.63,-324 663.63,-324 657.63,-324 651.63,-318 651.63,-312 651.63,-312 651.63,-300 651.63,-300 651.63,-294 657.63,-288 663.63,-288 663.63,-288 741.17,-288 741.17,-288 747.17,-288 753.17,-294 753.17,-300 753.17,-300 753.17,-312 753.17,-312 753.17,-318 747.17,-324 741.17,-324"/>
<text xml:space="preserve" text-anchor="middle" x="702.4" y="-301.8" font-family="Times,serif" font-size="14.00">CallExpression</text>
</g>
<!-- 18&#45;&gt;19 -->
<g id="edge19" class="edge">
<title>18&#45;&gt;19</title>
<path fill="none" stroke="black" d="M638.41,-359.7C648.73,-351.2 661.34,-340.81 672.63,-331.51"/>
<polygon fill="black" stroke="black" points="674.67,-334.37 680.17,-325.31 670.22,-328.96 674.67,-334.37"/>
</g>
<!-- 20 -->
<g id="node21" class="node">
<title>20</title>
<path fill="none" stroke="black" d="M762.93,-252C762.93,-252 641.87,-252 641.87,-252 635.87,-252 629.87,-246 629.87,-240 629.87,-240 629.87,-228 629.87,-228 629.87,-222 635.87,-216 641.87,-216 641.87,-216 762.93,-216 762.93,-216 768.93,-216 774.93,-222 774.93,-228 774.93,-228 774.93,-240 774.93,-240 774.93,-246 768.93,-252 762.93,-252"/>
<text xml:space="preserve" text-anchor="middle" x="702.4" y="-229.8" font-family="Times,serif" font-size="14.00">Identifier (console.log)</text>
</g>
<!-- 19&#45;&gt;20 -->
<g id="edge20" class="edge">
<title>19&#45;&gt;20</title>
<path fill="none" stroke="black" d="M702.4,-287.7C702.4,-280.41 702.4,-271.73 702.4,-263.54"/>
<polygon fill="black" stroke="black" points="705.9,-263.62 702.4,-253.62 698.9,-263.62 705.9,-263.62"/>
</g>
<!-- 21 -->
<g id="node22" class="node">
<title>21</title>
<path fill="none" stroke="black" d="M955.89,-252C955.89,-252 804.91,-252 804.91,-252 798.91,-252 792.91,-246 792.91,-240 792.91,-240 792.91,-228 792.91,-228 792.91,-222 798.91,-216 804.91,-216 804.91,-216 955.89,-216 955.89,-216 961.89,-216 967.89,-222 967.89,-228 967.89,-228 967.89,-240 967.89,-240 967.89,-246 961.89,-252 955.89,-252"/>
<text xml:space="preserve" text-anchor="middle" x="880.4" y="-229.8" font-family="Times,serif" font-size="14.00">Literal (Loop for finalizado)</text>
</g>
<!-- 19&#45;&gt;21 -->
<g id="edge21" class="edge">
<title>19&#45;&gt;21</title>
<path fill="none" stroke="black" d="M746.86,-287.52C770.73,-278.13 800.37,-266.47 825.66,-256.53"/>
<polygon fill="black" stroke="black" points="826.77,-259.85 834.79,-252.94 824.2,-253.34 826.77,-259.85"/>
</g>
</g>
</svg>
