<?xml version="1.0" encoding="UTF-8" standalone="no"?>
<!DOCTYPE svg PUBLIC "-//W3C//DTD SVG 1.1//EN"
 "http://www.w3.org/Graphics/SVG/1.1/DTD/svg11.dtd">
<!-- Generated by graphviz version 14.0.2 (0)
 -->
<!-- Title: AST Pages: 1 -->
<svg width="814pt" height="260pt"
 viewBox="0.00 0.00 814.00 260.00" xmlns="http://www.w3.org/2000/svg" xmlns:xlink="http://www.w3.org/1999/xlink">
<g id="graph0" class="graph" transform="scale(1 1) rotate(0) translate(4 256)">
<title>AST</title>
<polygon fill="white" stroke="none" points="-4,4 -4,-256 810.39,-256 810.39,4 -4,4"/>
<!-- 0 -->
<g id="node1" class="node">
<title>0</title>
<path fill="none" stroke="black" d="M336.67,-252C336.67,-252 296.45,-252 296.45,-252 290.45,-252 284.45,-246 284.45,-240 284.45,-240 284.45,-228 284.45,-228 284.45,-222 290.45,-216 296.45,-216 296.45,-216 336.67,-216 336.67,-216 342.67,-216 348.67,-222 348.67,-228 348.67,-228 348.67,-240 348.67,-240 348.67,-246 342.67,-252 336.67,-252"/>
<text xml:space="preserve" text-anchor="middle" x="316.56" y="-229.8" font-family="Times,serif" font-size="14.00">Program</text>
</g>
<!-- 1 -->
<g id="node2" class="node">
<title>1</title>
<path fill="none" stroke="black" d="M203.31,-180C203.31,-180 97.82,-180 97.82,-180 91.82,-180 85.82,-174 85.82,-168 85.82,-168 85.82,-156 85.82,-156 85.82,-150 91.82,-144 97.82,-144 97.82,-144 203.31,-144 203.31,-144 209.31,-144 215.31,-150 215.31,-156 215.31,-156 215.31,-168 215.31,-168 215.31,-174 209.31,-180 203.31,-180"/>
<text xml:space="preserve" text-anchor="middle" x="150.56" y="-157.8" font-family="Times,serif" font-size="14.00">VariableDeclaration</text>
</g>
<!-- 0&#45;&gt;1 -->
<g id="edge1" class="edge">
<title>0&#45;&gt;1</title>
<path fill="none" stroke="black" d="M284.16,-219.34C260.92,-209.54 229.12,-196.13 202.38,-184.85"/>
<polygon fill="black" stroke="black" points="204,-181.73 193.42,-181.07 201.28,-188.18 204,-181.73"/>
</g>
<!-- 5 -->
<g id="node6" class="node">
<title>5</title>
<path fill="none" stroke="black" d="M369.31,-180C369.31,-180 263.82,-180 263.82,-180 257.82,-180 251.82,-174 251.82,-168 251.82,-168 251.82,-156 251.82,-156 251.82,-150 257.82,-144 263.82,-144 263.82,-144 369.31,-144 369.31,-144 375.31,-144 381.31,-150 381.31,-156 381.31,-156 381.31,-168 381.31,-168 381.31,-174 375.31,-180 369.31,-180"/>
<text xml:space="preserve" text-anchor="middle" x="316.56" y="-157.8" font-family="Times,serif" font-size="14.00">VariableDeclaration</text>
</g>
<!-- 0&#45;&gt;5 -->
<g id="edge5" class="edge">
<title>0&#45;&gt;5</title>
<path fill="none" stroke="black" d="M316.56,-215.7C316.56,-208.41 316.56,-199.73 316.56,-191.54"/>
<polygon fill="black" stroke="black" points="320.06,-191.62 316.56,-181.62 313.06,-191.62 320.06,-191.62"/>
</g>
<!-- 9 -->
<g id="node10" class="node">
<title>9</title>
<path fill="none" stroke="black" d="M530.66,-180C530.66,-180 420.46,-180 420.46,-180 414.46,-180 408.46,-174 408.46,-168 408.46,-168 408.46,-156 408.46,-156 408.46,-150 414.46,-144 420.46,-144 420.46,-144 530.66,-144 530.66,-144 536.66,-144 542.66,-150 542.66,-156 542.66,-156 542.66,-168 542.66,-168 542.66,-174 536.66,-180 530.66,-180"/>
<text xml:space="preserve" text-anchor="middle" x="475.56" y="-157.8" font-family="Times,serif" font-size="14.00">ExpressionStatement</text>
</g>
<!-- 0&#45;&gt;9 -->
<g id="edge9" class="edge">
<title>0&#45;&gt;9</title>
<path fill="none" stroke="black" d="M349.12,-218.67C371.14,-208.97 400.65,-195.98 425.62,-184.99"/>
<polygon fill="black" stroke="black" points="426.88,-188.26 434.62,-181.02 424.06,-181.85 426.88,-188.26"/>
</g>
<!-- 2 -->
<g id="node3" class="node">
<title>2</title>
<path fill="none" stroke="black" d="M195.19,-108C195.19,-108 95.93,-108 95.93,-108 89.93,-108 83.93,-102 83.93,-96 83.93,-96 83.93,-84 83.93,-84 83.93,-78 89.93,-72 95.93,-72 95.93,-72 195.19,-72 195.19,-72 201.19,-72 207.19,-78 207.19,-84 207.19,-84 207.19,-96 207.19,-96 207.19,-102 201.19,-108 195.19,-108"/>
<text xml:space="preserve" text-anchor="middle" x="145.56" y="-85.8" font-family="Times,serif" font-size="14.00">VariableDeclarator</text>
</g>
<!-- 1&#45;&gt;2 -->
<g id="edge2" class="edge">
<title>1&#45;&gt;2</title>
<path fill="none" stroke="black" d="M149.32,-143.7C148.8,-136.41 148.18,-127.73 147.6,-119.54"/>
<polygon fill="black" stroke="black" points="151.09,-119.34 146.89,-109.61 144.11,-119.84 151.09,-119.34"/>
</g>
<!-- 3 -->
<g id="node4" class="node">
<title>3</title>
<path fill="none" stroke="black" d="M75.12,-36C75.12,-36 12,-36 12,-36 6,-36 0,-30 0,-24 0,-24 0,-12 0,-12 0,-6 6,0 12,0 12,0 75.12,0 75.12,0 81.12,0 87.12,-6 87.12,-12 87.12,-12 87.12,-24 87.12,-24 87.12,-30 81.12,-36 75.12,-36"/>
<text xml:space="preserve" text-anchor="middle" x="43.56" y="-13.8" font-family="Times,serif" font-size="14.00">Identifier (a)</text>
</g>
<!-- 2&#45;&gt;3 -->
<g id="edge3" class="edge">
<title>2&#45;&gt;3</title>
<path fill="none" stroke="black" d="M120.08,-71.52C107.33,-62.76 91.71,-52.04 77.91,-42.58"/>
<polygon fill="black" stroke="black" points="80.19,-39.89 69.96,-37.12 76.22,-45.66 80.19,-39.89"/>
</g>
<!-- 4 -->
<g id="node5" class="node">
<title>4</title>
<path fill="none" stroke="black" d="M173.63,-36C173.63,-36 117.49,-36 117.49,-36 111.49,-36 105.49,-30 105.49,-24 105.49,-24 105.49,-12 105.49,-12 105.49,-6 111.49,0 117.49,0 117.49,0 173.63,0 173.63,0 179.63,0 185.63,-6 185.63,-12 185.63,-12 185.63,-24 185.63,-24 185.63,-30 179.63,-36 173.63,-36"/>
<text xml:space="preserve" text-anchor="middle" x="145.56" y="-13.8" font-family="Times,serif" font-size="14.00">Literal (10)</text>
</g>
<!-- 2&#45;&gt;4 -->
<g id="edge4" class="edge">
<title>2&#45;&gt;4</title>
<path fill="none" stroke="black" d="M145.56,-71.7C145.56,-64.41 145.56,-55.73 145.56,-47.54"/>
<polygon fill="black" stroke="black" points="149.06,-47.62 145.56,-37.62 142.06,-47.62 149.06,-47.62"/>
</g>
<!-- 6 -->
<g id="node7" class="node">
<title>6</title>
<path fill="none" stroke="black" d="M366.19,-108C366.19,-108 266.93,-108 266.93,-108 260.93,-108 254.93,-102 254.93,-96 254.93,-96 254.93,-84 254.93,-84 254.93,-78 260.93,-72 266.93,-72 266.93,-72 366.19,-72 366.19,-72 372.19,-72 378.19,-78 378.19,-84 378.19,-84 378.19,-96 378.19,-96 378.19,-102 372.19,-108 366.19,-108"/>
<text xml:space="preserve" text-anchor="middle" x="316.56" y="-85.8" font-family="Times,serif" font-size="14.00">VariableDeclarator</text>
</g>
<!-- 5&#45;&gt;6 -->
<g id="edge6" class="edge">
<title>5&#45;&gt;6</title>
<path fill="none" stroke="black" d="M316.56,-143.7C316.56,-136.41 316.56,-127.73 316.56,-119.54"/>
<polygon fill="black" stroke="black" points="320.06,-119.62 316.56,-109.62 313.06,-119.62 320.06,-119.62"/>
</g>
<!-- 7 -->
<g id="node8" class="node">
<title>7</title>
<path fill="none" stroke="black" d="M279.51,-36C279.51,-36 215.61,-36 215.61,-36 209.61,-36 203.61,-30 203.61,-24 203.61,-24 203.61,-12 203.61,-12 203.61,-6 209.61,0 215.61,0 215.61,0 279.51,0 279.51,0 285.51,0 291.51,-6 291.51,-12 291.51,-12 291.51,-24 291.51,-24 291.51,-30 285.51,-36 279.51,-36"/>
<text xml:space="preserve" text-anchor="middle" x="247.56" y="-13.8" font-family="Times,serif" font-size="14.00">Identifier (b)</text>
</g>
<!-- 6&#45;&gt;7 -->
<g id="edge7" class="edge">
<title>6&#45;&gt;7</title>
<path fill="none" stroke="black" d="M299.5,-71.7C291.32,-63.39 281.35,-53.28 272.34,-44.14"/>
<polygon fill="black" stroke="black" points="275,-41.85 265.48,-37.18 270.01,-46.76 275,-41.85"/>
</g>
<!-- 8 -->
<g id="node9" class="node">
<title>8</title>
<path fill="none" stroke="black" d="M377.63,-36C377.63,-36 321.49,-36 321.49,-36 315.49,-36 309.49,-30 309.49,-24 309.49,-24 309.49,-12 309.49,-12 309.49,-6 315.49,0 321.49,0 321.49,0 377.63,0 377.63,0 383.63,0 389.63,-6 389.63,-12 389.63,-12 389.63,-24 389.63,-24 389.63,-30 383.63,-36 377.63,-36"/>
<text xml:space="preserve" text-anchor="middle" x="349.56" y="-13.8" font-family="Times,serif" font-size="14.00">Literal (20)</text>
</g>
<!-- 6&#45;&gt;8 -->
<g id="edge8" class="edge">
<title>6&#45;&gt;8</title>
<path fill="none" stroke="black" d="M324.72,-71.7C328.31,-64.07 332.63,-54.92 336.65,-46.4"/>
<polygon fill="black" stroke="black" points="339.75,-48.01 340.85,-37.47 333.42,-45.03 339.75,-48.01"/>
</g>
<!-- 10 -->
<g id="node11" class="node">
<title>10</title>
<path fill="none" stroke="black" d="M519.33,-108C519.33,-108 441.79,-108 441.79,-108 435.79,-108 429.79,-102 429.79,-96 429.79,-96 429.79,-84 429.79,-84 429.79,-78 435.79,-72 441.79,-72 441.79,-72 519.33,-72 519.33,-72 525.33,-72 531.33,-78 531.33,-84 531.33,-84 531.33,-96 531.33,-96 531.33,-102 525.33,-108 519.33,-108"/>
<text xml:space="preserve" text-anchor="middle" x="480.56" y="-85.8" font-family="Times,serif" font-size="14.00">CallExpression</text>
</g>
<!-- 9&#45;&gt;10 -->
<g id="edge10" class="edge">
<title>9&#45;&gt;10</title>
<path fill="none" stroke="black" d="M476.8,-143.7C477.32,-136.41 477.94,-127.73 478.52,-119.54"/>
<polygon fill="black" stroke="black" points="482.01,-119.84 479.23,-109.61 475.03,-119.34 482.01,-119.84"/>
</g>
<!-- 11 -->
<g id="node12" class="node">
<title>11</title>
<path fill="none" stroke="black" d="M541.09,-36C541.09,-36 420.03,-36 420.03,-36 414.03,-36 408.03,-30 408.03,-24 408.03,-24 408.03,-12 408.03,-12 408.03,-6 414.03,0 420.03,0 420.03,0 541.09,0 541.09,0 547.09,0 553.09,-6 553.09,-12 553.09,-12 553.09,-24 553.09,-24 553.09,-30 547.09,-36 541.09,-36"/>
<text xml:space="preserve" text-anchor="middle" x="480.56" y="-13.8" font-family="Times,serif" font-size="14.00">Identifier (console.log)</text>
</g>
<!-- 10&#45;&gt;11 -->
<g id="edge11" class="edge">
<title>10&#45;&gt;11</title>
<path fill="none" stroke="black" d="M480.56,-71.7C480.56,-64.41 480.56,-55.73 480.56,-47.54"/>
<polygon fill="black" stroke="black" points="484.06,-47.62 480.56,-37.62 477.06,-47.62 484.06,-47.62"/>
</g>
<!-- 12 -->
<g id="node13" class="node">
<title>12</title>
<path fill="none" stroke="black" d="M794.39,-36C794.39,-36 582.73,-36 582.73,-36 576.73,-36 570.73,-30 570.73,-24 570.73,-24 570.73,-12 570.73,-12 570.73,-6 576.73,0 582.73,0 582.73,0 794.39,0 794.39,0 800.39,0 806.39,-6 806.39,-12 806.39,-12 806.39,-24 806.39,-24 806.39,-30 800.39,-36 794.39,-36"/>
<text xml:space="preserve" text-anchor="middle" x="688.56" y="-13.8" font-family="Times,serif" font-size="14.00">Literal (Funciona sem ponto e vírgula)</text>
</g>
<!-- 10&#45;&gt;12 -->
<g id="edge12" class="edge">
<title>10&#45;&gt;12</title>
<path fill="none" stroke="black" d="M531.71,-71.79C560.21,-62.2 595.91,-50.18 626.06,-40.03"/>
<polygon fill="black" stroke="black" points="627.09,-43.38 635.45,-36.87 624.86,-36.75 627.09,-43.38"/>
</g>
</g>
</svg>
