<?xml version="1.0" encoding="UTF-8" standalone="no"?>
<!DOCTYPE svg PUBLIC "-//W3C//DTD SVG 1.1//EN"
 "http://www.w3.org/Graphics/SVG/1.1/DTD/svg11.dtd">
<!-- Generated by graphviz version 14.0.2 (0)
 -->
<!-- Title: AST Pages: 1 -->
<svg width="797pt" height="620pt"
 viewBox="0.00 0.00 797.00 620.00" xmlns="http://www.w3.org/2000/svg" xmlns:xlink="http://www.w3.org/1999/xlink">
<g id="graph0" class="graph" transform="scale(1 1) rotate(0) translate(4 616)">
<title>AST</title>
<polygon fill="white" stroke="none" points="-4,4 -4,-616 792.8,-616 792.8,4 -4,4"/>
<!-- 0 -->
<g id="node1" class="node">
<title>0</title>
<path fill="none" stroke="black" d="M325.51,-612C325.51,-612 285.29,-612 285.29,-612 279.29,-612 273.29,-606 273.29,-600 273.29,-600 273.29,-588 273.29,-588 273.29,-582 279.29,-576 285.29,-576 285.29,-576 325.51,-576 325.51,-576 331.51,-576 337.51,-582 337.51,-588 337.51,-588 337.51,-600 337.51,-600 337.51,-606 331.51,-612 325.51,-612"/>
<text xml:space="preserve" text-anchor="middle" x="305.4" y="-589.8" font-family="Times,serif" font-size="14.00">Program</text>
</g>
<!-- 1 -->
<g id="node2" class="node">
<title>1</title>
<path fill="none" stroke="black" d="M205.14,-540C205.14,-540 99.65,-540 99.65,-540 93.65,-540 87.65,-534 87.65,-528 87.65,-528 87.65,-516 87.65,-516 87.65,-510 93.65,-504 99.65,-504 99.65,-504 205.14,-504 205.14,-504 211.14,-504 217.14,-510 217.14,-516 217.14,-516 217.14,-528 217.14,-528 217.14,-534 211.14,-540 205.14,-540"/>
<text xml:space="preserve" text-anchor="middle" x="152.4" y="-517.8" font-family="Times,serif" font-size="14.00">VariableDeclaration</text>
</g>
<!-- 0&#45;&gt;1 -->
<g id="edge1" class="edge">
<title>0&#45;&gt;1</title>
<path fill="none" stroke="black" d="M272.95,-578.15C251.94,-568.54 224.2,-555.85 200.63,-545.07"/>
<polygon fill="black" stroke="black" points="202.4,-542.03 191.85,-541.05 199.48,-548.39 202.4,-542.03"/>
</g>
<!-- 5 -->
<g id="node6" class="node">
<title>5</title>
<path fill="none" stroke="black" d="M358.14,-540C358.14,-540 252.65,-540 252.65,-540 246.65,-540 240.65,-534 240.65,-528 240.65,-528 240.65,-516 240.65,-516 240.65,-510 246.65,-504 252.65,-504 252.65,-504 358.14,-504 358.14,-504 364.14,-504 370.14,-510 370.14,-516 370.14,-516 370.14,-528 370.14,-528 370.14,-534 364.14,-540 358.14,-540"/>
<text xml:space="preserve" text-anchor="middle" x="305.4" y="-517.8" font-family="Times,serif" font-size="14.00">VariableDeclaration</text>
</g>
<!-- 0&#45;&gt;5 -->
<g id="edge5" class="edge">
<title>0&#45;&gt;5</title>
<path fill="none" stroke="black" d="M305.4,-575.7C305.4,-568.41 305.4,-559.73 305.4,-551.54"/>
<polygon fill="black" stroke="black" points="308.9,-551.62 305.4,-541.62 301.9,-551.62 308.9,-551.62"/>
</g>
<!-- 9 -->
<g id="node10" class="node">
<title>9</title>
<path fill="none" stroke="black" d="M485.5,-540C485.5,-540 403.3,-540 403.3,-540 397.3,-540 391.3,-534 391.3,-528 391.3,-528 391.3,-516 391.3,-516 391.3,-510 397.3,-504 403.3,-504 403.3,-504 485.5,-504 485.5,-504 491.5,-504 497.5,-510 497.5,-516 497.5,-516 497.5,-528 497.5,-528 497.5,-534 491.5,-540 485.5,-540"/>
<text xml:space="preserve" text-anchor="middle" x="444.4" y="-517.8" font-family="Times,serif" font-size="14.00">WhileStatement</text>
</g>
<!-- 0&#45;&gt;9 -->
<g id="edge9" class="edge">
<title>0&#45;&gt;9</title>
<path fill="none" stroke="black" d="M337.99,-576.59C356.44,-567.3 379.78,-555.54 399.89,-545.41"/>
<polygon fill="black" stroke="black" points="401.36,-548.59 408.72,-540.97 398.22,-542.34 401.36,-548.59"/>
</g>
<!-- 2 -->
<g id="node3" class="node">
<title>2</title>
<path fill="none" stroke="black" d="M189.03,-468C189.03,-468 89.77,-468 89.77,-468 83.77,-468 77.77,-462 77.77,-456 77.77,-456 77.77,-444 77.77,-444 77.77,-438 83.77,-432 89.77,-432 89.77,-432 189.03,-432 189.03,-432 195.03,-432 201.03,-438 201.03,-444 201.03,-444 201.03,-456 201.03,-456 201.03,-462 195.03,-468 189.03,-468"/>
<text xml:space="preserve" text-anchor="middle" x="139.4" y="-445.8" font-family="Times,serif" font-size="14.00">VariableDeclarator</text>
</g>
<!-- 1&#45;&gt;2 -->
<g id="edge2" class="edge">
<title>1&#45;&gt;2</title>
<path fill="none" stroke="black" d="M149.18,-503.7C147.82,-496.32 146.18,-487.52 144.64,-479.25"/>
<polygon fill="black" stroke="black" points="148.12,-478.79 142.85,-469.59 141.24,-480.06 148.12,-478.79"/>
</g>
<!-- 3 -->
<g id="node4" class="node">
<title>3</title>
<path fill="none" stroke="black" d="M72.8,-396C72.8,-396 12,-396 12,-396 6,-396 0,-390 0,-384 0,-384 0,-372 0,-372 0,-366 6,-360 12,-360 12,-360 72.8,-360 72.8,-360 78.8,-360 84.8,-366 84.8,-372 84.8,-372 84.8,-384 84.8,-384 84.8,-390 78.8,-396 72.8,-396"/>
<text xml:space="preserve" text-anchor="middle" x="42.4" y="-373.8" font-family="Times,serif" font-size="14.00">Identifier (i)</text>
</g>
<!-- 2&#45;&gt;3 -->
<g id="edge3" class="edge">
<title>2&#45;&gt;3</title>
<path fill="none" stroke="black" d="M115.42,-431.7C103.41,-423.03 88.68,-412.4 75.6,-402.96"/>
<polygon fill="black" stroke="black" points="77.82,-400.25 67.66,-397.23 73.72,-405.92 77.82,-400.25"/>
</g>
<!-- 4 -->
<g id="node5" class="node">
<title>4</title>
<path fill="none" stroke="black" d="M163.97,-396C163.97,-396 114.83,-396 114.83,-396 108.83,-396 102.83,-390 102.83,-384 102.83,-384 102.83,-372 102.83,-372 102.83,-366 108.83,-360 114.83,-360 114.83,-360 163.97,-360 163.97,-360 169.97,-360 175.97,-366 175.97,-372 175.97,-372 175.97,-384 175.97,-384 175.97,-390 169.97,-396 163.97,-396"/>
<text xml:space="preserve" text-anchor="middle" x="139.4" y="-373.8" font-family="Times,serif" font-size="14.00">Literal (0)</text>
</g>
<!-- 2&#45;&gt;4 -->
<g id="edge4" class="edge">
<title>2&#45;&gt;4</title>
<path fill="none" stroke="black" d="M139.4,-431.7C139.4,-424.41 139.4,-415.73 139.4,-407.54"/>
<polygon fill="black" stroke="black" points="142.9,-407.62 139.4,-397.62 135.9,-407.62 142.9,-407.62"/>
</g>
<!-- 6 -->
<g id="node7" class="node">
<title>6</title>
<path fill="none" stroke="black" d="M355.03,-468C355.03,-468 255.77,-468 255.77,-468 249.77,-468 243.77,-462 243.77,-456 243.77,-456 243.77,-444 243.77,-444 243.77,-438 249.77,-432 255.77,-432 255.77,-432 355.03,-432 355.03,-432 361.03,-432 367.03,-438 367.03,-444 367.03,-444 367.03,-456 367.03,-456 367.03,-462 361.03,-468 355.03,-468"/>
<text xml:space="preserve" text-anchor="middle" x="305.4" y="-445.8" font-family="Times,serif" font-size="14.00">VariableDeclarator</text>
</g>
<!-- 5&#45;&gt;6 -->
<g id="edge6" class="edge">
<title>5&#45;&gt;6</title>
<path fill="none" stroke="black" d="M305.4,-503.7C305.4,-496.41 305.4,-487.73 305.4,-479.54"/>
<polygon fill="black" stroke="black" points="308.9,-479.62 305.4,-469.62 301.9,-479.62 308.9,-479.62"/>
</g>
<!-- 7 -->
<g id="node8" class="node">
<title>7</title>
<path fill="none" stroke="black" d="M286.9,-396C286.9,-396 205.89,-396 205.89,-396 199.89,-396 193.89,-390 193.89,-384 193.89,-384 193.89,-372 193.89,-372 193.89,-366 199.89,-360 205.89,-360 205.89,-360 286.9,-360 286.9,-360 292.9,-360 298.9,-366 298.9,-372 298.9,-372 298.9,-384 298.9,-384 298.9,-390 292.9,-396 286.9,-396"/>
<text xml:space="preserve" text-anchor="middle" x="246.4" y="-373.8" font-family="Times,serif" font-size="14.00">Identifier (max)</text>
</g>
<!-- 6&#45;&gt;7 -->
<g id="edge7" class="edge">
<title>6&#45;&gt;7</title>
<path fill="none" stroke="black" d="M290.81,-431.7C283.96,-423.56 275.64,-413.69 268.06,-404.7"/>
<polygon fill="black" stroke="black" points="270.91,-402.65 261.79,-397.26 265.56,-407.16 270.91,-402.65"/>
</g>
<!-- 8 -->
<g id="node9" class="node">
<title>8</title>
<path fill="none" stroke="black" d="M377.97,-396C377.97,-396 328.83,-396 328.83,-396 322.83,-396 316.83,-390 316.83,-384 316.83,-384 316.83,-372 316.83,-372 316.83,-366 322.83,-360 328.83,-360 328.83,-360 377.97,-360 377.97,-360 383.97,-360 389.97,-366 389.97,-372 389.97,-372 389.97,-384 389.97,-384 389.97,-390 383.97,-396 377.97,-396"/>
<text xml:space="preserve" text-anchor="middle" x="353.4" y="-373.8" font-family="Times,serif" font-size="14.00">Literal (5)</text>
</g>
<!-- 6&#45;&gt;8 -->
<g id="edge8" class="edge">
<title>6&#45;&gt;8</title>
<path fill="none" stroke="black" d="M317.26,-431.7C322.67,-423.81 329.19,-414.3 335.2,-405.55"/>
<polygon fill="black" stroke="black" points="338.05,-407.58 340.81,-397.35 332.27,-403.62 338.05,-407.58"/>
</g>
<!-- 10 -->
<g id="node11" class="node">
<title>10</title>
<path fill="none" stroke="black" d="M487.11,-468C487.11,-468 405.68,-468 405.68,-468 399.68,-468 393.68,-462 393.68,-456 393.68,-456 393.68,-444 393.68,-444 393.68,-438 399.68,-432 405.68,-432 405.68,-432 487.11,-432 487.11,-432 493.11,-432 499.11,-438 499.11,-444 499.11,-444 499.11,-456 499.11,-456 499.11,-462 493.11,-468 487.11,-468"/>
<text xml:space="preserve" text-anchor="middle" x="446.4" y="-445.8" font-family="Times,serif" font-size="14.00">BlockStatement</text>
</g>
<!-- 9&#45;&gt;10 -->
<g id="edge10" class="edge">
<title>9&#45;&gt;10</title>
<path fill="none" stroke="black" d="M444.89,-503.7C445.1,-496.41 445.35,-487.73 445.58,-479.54"/>
<polygon fill="black" stroke="black" points="449.08,-479.71 445.87,-469.62 442.08,-479.51 449.08,-479.71"/>
</g>
<!-- 11 -->
<g id="node12" class="node">
<title>11</title>
<path fill="none" stroke="black" d="M477.05,-396C477.05,-396 419.74,-396 419.74,-396 413.74,-396 407.74,-390 407.74,-384 407.74,-384 407.74,-372 407.74,-372 407.74,-366 413.74,-360 419.74,-360 419.74,-360 477.05,-360 477.05,-360 483.05,-360 489.05,-366 489.05,-372 489.05,-372 489.05,-384 489.05,-384 489.05,-390 483.05,-396 477.05,-396"/>
<text xml:space="preserve" text-anchor="middle" x="448.4" y="-373.8" font-family="Times,serif" font-size="14.00">IfStatement</text>
</g>
<!-- 10&#45;&gt;11 -->
<g id="edge11" class="edge">
<title>10&#45;&gt;11</title>
<path fill="none" stroke="black" d="M446.89,-431.7C447.1,-424.41 447.35,-415.73 447.58,-407.54"/>
<polygon fill="black" stroke="black" points="451.08,-407.71 447.87,-397.62 444.08,-407.51 451.08,-407.71"/>
</g>
<!-- 12 -->
<g id="node13" class="node">
<title>12</title>
<path fill="none" stroke="black" d="M424.11,-324C424.11,-324 342.68,-324 342.68,-324 336.68,-324 330.68,-318 330.68,-312 330.68,-312 330.68,-300 330.68,-300 330.68,-294 336.68,-288 342.68,-288 342.68,-288 424.11,-288 424.11,-288 430.11,-288 436.11,-294 436.11,-300 436.11,-300 436.11,-312 436.11,-312 436.11,-318 430.11,-324 424.11,-324"/>
<text xml:space="preserve" text-anchor="middle" x="383.4" y="-301.8" font-family="Times,serif" font-size="14.00">BlockStatement</text>
</g>
<!-- 11&#45;&gt;12 -->
<g id="edge12" class="edge">
<title>11&#45;&gt;12</title>
<path fill="none" stroke="black" d="M432.33,-359.7C424.7,-351.47 415.42,-341.48 407,-332.42"/>
<polygon fill="black" stroke="black" points="409.68,-330.16 400.31,-325.21 404.55,-334.92 409.68,-330.16"/>
</g>
<!-- 17 -->
<g id="node18" class="node">
<title>17</title>
<path fill="none" stroke="black" d="M554.11,-324C554.11,-324 472.68,-324 472.68,-324 466.68,-324 460.68,-318 460.68,-312 460.68,-312 460.68,-300 460.68,-300 460.68,-294 466.68,-288 472.68,-288 472.68,-288 554.11,-288 554.11,-288 560.11,-288 566.11,-294 566.11,-300 566.11,-300 566.11,-312 566.11,-312 566.11,-318 560.11,-324 554.11,-324"/>
<text xml:space="preserve" text-anchor="middle" x="513.4" y="-301.8" font-family="Times,serif" font-size="14.00">BlockStatement</text>
</g>
<!-- 11&#45;&gt;17 -->
<g id="edge17" class="edge">
<title>11&#45;&gt;17</title>
<path fill="none" stroke="black" d="M464.47,-359.7C472.1,-351.47 481.38,-341.48 489.79,-332.42"/>
<polygon fill="black" stroke="black" points="492.25,-334.92 496.49,-325.21 487.12,-330.16 492.25,-334.92"/>
</g>
<!-- 13 -->
<g id="node14" class="node">
<title>13</title>
<path fill="none" stroke="black" d="M424.5,-252C424.5,-252 314.3,-252 314.3,-252 308.3,-252 302.3,-246 302.3,-240 302.3,-240 302.3,-228 302.3,-228 302.3,-222 308.3,-216 314.3,-216 314.3,-216 424.5,-216 424.5,-216 430.5,-216 436.5,-222 436.5,-228 436.5,-228 436.5,-240 436.5,-240 436.5,-246 430.5,-252 424.5,-252"/>
<text xml:space="preserve" text-anchor="middle" x="369.4" y="-229.8" font-family="Times,serif" font-size="14.00">ExpressionStatement</text>
</g>
<!-- 12&#45;&gt;13 -->
<g id="edge13" class="edge">
<title>12&#45;&gt;13</title>
<path fill="none" stroke="black" d="M379.94,-287.7C378.46,-280.32 376.7,-271.52 375.05,-263.25"/>
<polygon fill="black" stroke="black" points="378.51,-262.71 373.12,-253.59 371.65,-264.08 378.51,-262.71"/>
</g>
<!-- 14 -->
<g id="node15" class="node">
<title>14</title>
<path fill="none" stroke="black" d="M405.17,-180C405.17,-180 327.63,-180 327.63,-180 321.63,-180 315.63,-174 315.63,-168 315.63,-168 315.63,-156 315.63,-156 315.63,-150 321.63,-144 327.63,-144 327.63,-144 405.17,-144 405.17,-144 411.17,-144 417.17,-150 417.17,-156 417.17,-156 417.17,-168 417.17,-168 417.17,-174 411.17,-180 405.17,-180"/>
<text xml:space="preserve" text-anchor="middle" x="366.4" y="-157.8" font-family="Times,serif" font-size="14.00">CallExpression</text>
</g>
<!-- 13&#45;&gt;14 -->
<g id="edge14" class="edge">
<title>13&#45;&gt;14</title>
<path fill="none" stroke="black" d="M368.66,-215.7C368.34,-208.41 367.97,-199.73 367.62,-191.54"/>
<polygon fill="black" stroke="black" points="371.12,-191.46 367.2,-181.62 364.13,-191.76 371.12,-191.46"/>
</g>
<!-- 15 -->
<g id="node16" class="node">
<title>15</title>
<path fill="none" stroke="black" d="M265.93,-108C265.93,-108 144.87,-108 144.87,-108 138.87,-108 132.87,-102 132.87,-96 132.87,-96 132.87,-84 132.87,-84 132.87,-78 138.87,-72 144.87,-72 144.87,-72 265.93,-72 265.93,-72 271.93,-72 277.93,-78 277.93,-84 277.93,-84 277.93,-96 277.93,-96 277.93,-102 271.93,-108 265.93,-108"/>
<text xml:space="preserve" text-anchor="middle" x="205.4" y="-85.8" font-family="Times,serif" font-size="14.00">Identifier (console.log)</text>
</g>
<!-- 14&#45;&gt;15 -->
<g id="edge15" class="edge">
<title>14&#45;&gt;15</title>
<path fill="none" stroke="black" d="M326.19,-143.52C304.88,-134.25 278.5,-122.78 255.83,-112.93"/>
<polygon fill="black" stroke="black" points="257.33,-109.76 246.76,-108.99 254.54,-116.18 257.33,-109.76"/>
</g>
<!-- 16 -->
<g id="node17" class="node">
<title>16</title>
<path fill="none" stroke="black" d="M425.18,-108C425.18,-108 307.62,-108 307.62,-108 301.62,-108 295.62,-102 295.62,-96 295.62,-96 295.62,-84 295.62,-84 295.62,-78 301.62,-72 307.62,-72 307.62,-72 425.18,-72 425.18,-72 431.18,-72 437.18,-78 437.18,-84 437.18,-84 437.18,-96 437.18,-96 437.18,-102 431.18,-108 425.18,-108"/>
<text xml:space="preserve" text-anchor="middle" x="366.4" y="-85.8" font-family="Times,serif" font-size="14.00">Literal (Encontrei o 2)</text>
</g>
<!-- 14&#45;&gt;16 -->
<g id="edge16" class="edge">
<title>14&#45;&gt;16</title>
<path fill="none" stroke="black" d="M366.4,-143.7C366.4,-136.41 366.4,-127.73 366.4,-119.54"/>
<polygon fill="black" stroke="black" points="369.9,-119.62 366.4,-109.62 362.9,-119.62 369.9,-119.62"/>
</g>
<!-- 18 -->
<g id="node19" class="node">
<title>18</title>
<path fill="none" stroke="black" d="M580.5,-252C580.5,-252 470.3,-252 470.3,-252 464.3,-252 458.3,-246 458.3,-240 458.3,-240 458.3,-228 458.3,-228 458.3,-222 464.3,-216 470.3,-216 470.3,-216 580.5,-216 580.5,-216 586.5,-216 592.5,-222 592.5,-228 592.5,-228 592.5,-240 592.5,-240 592.5,-246 586.5,-252 580.5,-252"/>
<text xml:space="preserve" text-anchor="middle" x="525.4" y="-229.8" font-family="Times,serif" font-size="14.00">ExpressionStatement</text>
</g>
<!-- 17&#45;&gt;18 -->
<g id="edge18" class="edge">
<title>17&#45;&gt;18</title>
<path fill="none" stroke="black" d="M516.36,-287.7C517.63,-280.32 519.14,-271.52 520.56,-263.25"/>
<polygon fill="black" stroke="black" points="523.97,-264.04 522.21,-253.6 517.07,-262.86 523.97,-264.04"/>
</g>
<!-- 19 -->
<g id="node20" class="node">
<title>19</title>
<path fill="none" stroke="black" d="M566.17,-180C566.17,-180 488.63,-180 488.63,-180 482.63,-180 476.63,-174 476.63,-168 476.63,-168 476.63,-156 476.63,-156 476.63,-150 482.63,-144 488.63,-144 488.63,-144 566.17,-144 566.17,-144 572.17,-144 578.17,-150 578.17,-156 578.17,-156 578.17,-168 578.17,-168 578.17,-174 572.17,-180 566.17,-180"/>
<text xml:space="preserve" text-anchor="middle" x="527.4" y="-157.8" font-family="Times,serif" font-size="14.00">CallExpression</text>
</g>
<!-- 18&#45;&gt;19 -->
<g id="edge19" class="edge">
<title>18&#45;&gt;19</title>
<path fill="none" stroke="black" d="M525.89,-215.7C526.1,-208.41 526.35,-199.73 526.58,-191.54"/>
<polygon fill="black" stroke="black" points="530.08,-191.71 526.87,-181.62 523.08,-191.51 530.08,-191.71"/>
</g>
<!-- 20 -->
<g id="node21" class="node">
<title>20</title>
<path fill="none" stroke="black" d="M587.93,-108C587.93,-108 466.87,-108 466.87,-108 460.87,-108 454.87,-102 454.87,-96 454.87,-96 454.87,-84 454.87,-84 454.87,-78 460.87,-72 466.87,-72 466.87,-72 587.93,-72 587.93,-72 593.93,-72 599.93,-78 599.93,-84 599.93,-84 599.93,-96 599.93,-96 599.93,-102 593.93,-108 587.93,-108"/>
<text xml:space="preserve" text-anchor="middle" x="527.4" y="-85.8" font-family="Times,serif" font-size="14.00">Identifier (console.log)</text>
</g>
<!-- 19&#45;&gt;20 -->
<g id="edge20" class="edge">
<title>19&#45;&gt;20</title>
<path fill="none" stroke="black" d="M527.4,-143.7C527.4,-136.41 527.4,-127.73 527.4,-119.54"/>
<polygon fill="black" stroke="black" points="530.9,-119.62 527.4,-109.62 523.9,-119.62 530.9,-119.62"/>
</g>
<!-- 21 -->
<g id="node22" class="node">
<title>21</title>
<path fill="none" stroke="black" d="M742.92,-108C742.92,-108 629.88,-108 629.88,-108 623.88,-108 617.88,-102 617.88,-96 617.88,-96 617.88,-84 617.88,-84 617.88,-78 623.88,-72 629.88,-72 629.88,-72 742.92,-72 742.92,-72 748.92,-72 754.92,-78 754.92,-84 754.92,-84 754.92,-96 754.92,-96 754.92,-102 748.92,-108 742.92,-108"/>
<text xml:space="preserve" text-anchor="middle" x="686.4" y="-85.8" font-family="Times,serif" font-size="14.00">BinaryExpression (+)</text>
</g>
<!-- 19&#45;&gt;21 -->
<g id="edge21" class="edge">
<title>19&#45;&gt;21</title>
<path fill="none" stroke="black" d="M567.11,-143.52C588.15,-134.25 614.21,-122.78 636.59,-112.93"/>
<polygon fill="black" stroke="black" points="637.79,-116.22 645.53,-108.99 634.97,-109.82 637.79,-116.22"/>
</g>
<!-- 22 -->
<g id="node23" class="node">
<title>22</title>
<path fill="none" stroke="black" d="M674.48,-36C674.48,-36 578.32,-36 578.32,-36 572.32,-36 566.32,-30 566.32,-24 566.32,-24 566.32,-12 566.32,-12 566.32,-6 572.32,0 578.32,0 578.32,0 674.48,0 674.48,0 680.48,0 686.48,-6 686.48,-12 686.48,-12 686.48,-24 686.48,-24 686.48,-30 680.48,-36 674.48,-36"/>
<text xml:space="preserve" text-anchor="middle" x="626.4" y="-13.8" font-family="Times,serif" font-size="14.00">Literal (Iteração: )</text>
</g>
<!-- 21&#45;&gt;22 -->
<g id="edge22" class="edge">
<title>21&#45;&gt;22</title>
<path fill="none" stroke="black" d="M671.57,-71.7C664.59,-63.56 656.13,-53.69 648.43,-44.7"/>
<polygon fill="black" stroke="black" points="651.21,-42.57 642.04,-37.25 645.89,-47.12 651.21,-42.57"/>
</g>
<!-- 23 -->
<g id="node24" class="node">
<title>23</title>
<path fill="none" stroke="black" d="M776.8,-36C776.8,-36 716,-36 716,-36 710,-36 704,-30 704,-24 704,-24 704,-12 704,-12 704,-6 710,0 716,0 716,0 776.8,0 776.8,0 782.8,0 788.8,-6 788.8,-12 788.8,-12 788.8,-24 788.8,-24 788.8,-30 782.8,-36 776.8,-36"/>
<text xml:space="preserve" text-anchor="middle" x="746.4" y="-13.8" font-family="Times,serif" font-size="14.00">Identifier (i)</text>
</g>
<!-- 21&#45;&gt;23 -->
<g id="edge23" class="edge">
<title>21&#45;&gt;23</title>
<path fill="none" stroke="black" d="M701.23,-71.7C708.21,-63.56 716.66,-53.69 724.37,-44.7"/>
<polygon fill="black" stroke="black" points="726.9,-47.12 730.75,-37.25 721.59,-42.57 726.9,-47.12"/>
</g>
</g>
</svg>
