<?xml version="1.0" encoding="UTF-8" standalone="no"?>
<!DOCTYPE svg PUBLIC "-//W3C//DTD SVG 1.1//EN"
 "http://www.w3.org/Graphics/SVG/1.1/DTD/svg11.dtd">
<!-- Generated by graphviz version 14.0.2 (0)
 -->
<!-- Title: AST Pages: 1 -->
<svg width="753pt" height="692pt"
 viewBox="0.00 0.00 753.00 692.00" xmlns="http://www.w3.org/2000/svg" xmlns:xlink="http://www.w3.org/1999/xlink">
<g id="graph0" class="graph" transform="scale(1 1) rotate(0) translate(4 688)">
<title>AST</title>
<polygon fill="white" stroke="none" points="-4,4 -4,-688 748.8,-688 748.8,4 -4,4"/>
<!-- 0 -->
<g id="node1" class="node">
<title>0</title>
<path fill="none" stroke="black" d="M325.51,-684C325.51,-684 285.29,-684 285.29,-684 279.29,-684 273.29,-678 273.29,-672 273.29,-672 273.29,-660 273.29,-660 273.29,-654 279.29,-648 285.29,-648 285.29,-648 325.51,-648 325.51,-648 331.51,-648 337.51,-654 337.51,-660 337.51,-660 337.51,-672 337.51,-672 337.51,-678 331.51,-684 325.51,-684"/>
<text xml:space="preserve" text-anchor="middle" x="305.4" y="-661.8" font-family="Times,serif" font-size="14.00">Program</text>
</g>
<!-- 1 -->
<g id="node2" class="node">
<title>1</title>
<path fill="none" stroke="black" d="M205.14,-612C205.14,-612 99.65,-612 99.65,-612 93.65,-612 87.65,-606 87.65,-600 87.65,-600 87.65,-588 87.65,-588 87.65,-582 93.65,-576 99.65,-576 99.65,-576 205.14,-576 205.14,-576 211.14,-576 217.14,-582 217.14,-588 217.14,-588 217.14,-600 217.14,-600 217.14,-606 211.14,-612 205.14,-612"/>
<text xml:space="preserve" text-anchor="middle" x="152.4" y="-589.8" font-family="Times,serif" font-size="14.00">VariableDeclaration</text>
</g>
<!-- 0&#45;&gt;1 -->
<g id="edge1" class="edge">
<title>0&#45;&gt;1</title>
<path fill="none" stroke="black" d="M272.95,-650.15C251.94,-640.54 224.2,-627.85 200.63,-617.07"/>
<polygon fill="black" stroke="black" points="202.4,-614.03 191.85,-613.05 199.48,-620.39 202.4,-614.03"/>
</g>
<!-- 5 -->
<g id="node6" class="node">
<title>5</title>
<path fill="none" stroke="black" d="M358.14,-612C358.14,-612 252.65,-612 252.65,-612 246.65,-612 240.65,-606 240.65,-600 240.65,-600 240.65,-588 240.65,-588 240.65,-582 246.65,-576 252.65,-576 252.65,-576 358.14,-576 358.14,-576 364.14,-576 370.14,-582 370.14,-588 370.14,-588 370.14,-600 370.14,-600 370.14,-606 364.14,-612 358.14,-612"/>
<text xml:space="preserve" text-anchor="middle" x="305.4" y="-589.8" font-family="Times,serif" font-size="14.00">VariableDeclaration</text>
</g>
<!-- 0&#45;&gt;5 -->
<g id="edge5" class="edge">
<title>0&#45;&gt;5</title>
<path fill="none" stroke="black" d="M305.4,-647.7C305.4,-640.41 305.4,-631.73 305.4,-623.54"/>
<polygon fill="black" stroke="black" points="308.9,-623.62 305.4,-613.62 301.9,-623.62 308.9,-623.62"/>
</g>
<!-- 9 -->
<g id="node10" class="node">
<title>9</title>
<path fill="none" stroke="black" d="M485.5,-612C485.5,-612 403.3,-612 403.3,-612 397.3,-612 391.3,-606 391.3,-600 391.3,-600 391.3,-588 391.3,-588 391.3,-582 397.3,-576 403.3,-576 403.3,-576 485.5,-576 485.5,-576 491.5,-576 497.5,-582 497.5,-588 497.5,-588 497.5,-600 497.5,-600 497.5,-606 491.5,-612 485.5,-612"/>
<text xml:space="preserve" text-anchor="middle" x="444.4" y="-589.8" font-family="Times,serif" font-size="14.00">WhileStatement</text>
</g>
<!-- 0&#45;&gt;9 -->
<g id="edge9" class="edge">
<title>0&#45;&gt;9</title>
<path fill="none" stroke="black" d="M337.99,-648.59C356.44,-639.3 379.78,-627.54 399.89,-617.41"/>
<polygon fill="black" stroke="black" points="401.36,-620.59 408.72,-612.97 398.22,-614.34 401.36,-620.59"/>
</g>
<!-- 2 -->
<g id="node3" class="node">
<title>2</title>
<path fill="none" stroke="black" d="M189.03,-540C189.03,-540 89.77,-540 89.77,-540 83.77,-540 77.77,-534 77.77,-528 77.77,-528 77.77,-516 77.77,-516 77.77,-510 83.77,-504 89.77,-504 89.77,-504 189.03,-504 189.03,-504 195.03,-504 201.03,-510 201.03,-516 201.03,-516 201.03,-528 201.03,-528 201.03,-534 195.03,-540 189.03,-540"/>
<text xml:space="preserve" text-anchor="middle" x="139.4" y="-517.8" font-family="Times,serif" font-size="14.00">VariableDeclarator</text>
</g>
<!-- 1&#45;&gt;2 -->
<g id="edge2" class="edge">
<title>1&#45;&gt;2</title>
<path fill="none" stroke="black" d="M149.18,-575.7C147.82,-568.32 146.18,-559.52 144.64,-551.25"/>
<polygon fill="black" stroke="black" points="148.12,-550.79 142.85,-541.59 141.24,-552.06 148.12,-550.79"/>
</g>
<!-- 3 -->
<g id="node4" class="node">
<title>3</title>
<path fill="none" stroke="black" d="M72.8,-468C72.8,-468 12,-468 12,-468 6,-468 0,-462 0,-456 0,-456 0,-444 0,-444 0,-438 6,-432 12,-432 12,-432 72.8,-432 72.8,-432 78.8,-432 84.8,-438 84.8,-444 84.8,-444 84.8,-456 84.8,-456 84.8,-462 78.8,-468 72.8,-468"/>
<text xml:space="preserve" text-anchor="middle" x="42.4" y="-445.8" font-family="Times,serif" font-size="14.00">Identifier (i)</text>
</g>
<!-- 2&#45;&gt;3 -->
<g id="edge3" class="edge">
<title>2&#45;&gt;3</title>
<path fill="none" stroke="black" d="M115.42,-503.7C103.41,-495.03 88.68,-484.4 75.6,-474.96"/>
<polygon fill="black" stroke="black" points="77.82,-472.25 67.66,-469.23 73.72,-477.92 77.82,-472.25"/>
</g>
<!-- 4 -->
<g id="node5" class="node">
<title>4</title>
<path fill="none" stroke="black" d="M163.97,-468C163.97,-468 114.83,-468 114.83,-468 108.83,-468 102.83,-462 102.83,-456 102.83,-456 102.83,-444 102.83,-444 102.83,-438 108.83,-432 114.83,-432 114.83,-432 163.97,-432 163.97,-432 169.97,-432 175.97,-438 175.97,-444 175.97,-444 175.97,-456 175.97,-456 175.97,-462 169.97,-468 163.97,-468"/>
<text xml:space="preserve" text-anchor="middle" x="139.4" y="-445.8" font-family="Times,serif" font-size="14.00">Literal (0)</text>
</g>
<!-- 2&#45;&gt;4 -->
<g id="edge4" class="edge">
<title>2&#45;&gt;4</title>
<path fill="none" stroke="black" d="M139.4,-503.7C139.4,-496.41 139.4,-487.73 139.4,-479.54"/>
<polygon fill="black" stroke="black" points="142.9,-479.62 139.4,-469.62 135.9,-479.62 142.9,-479.62"/>
</g>
<!-- 6 -->
<g id="node7" class="node">
<title>6</title>
<path fill="none" stroke="black" d="M355.03,-540C355.03,-540 255.77,-540 255.77,-540 249.77,-540 243.77,-534 243.77,-528 243.77,-528 243.77,-516 243.77,-516 243.77,-510 249.77,-504 255.77,-504 255.77,-504 355.03,-504 355.03,-504 361.03,-504 367.03,-510 367.03,-516 367.03,-516 367.03,-528 367.03,-528 367.03,-534 361.03,-540 355.03,-540"/>
<text xml:space="preserve" text-anchor="middle" x="305.4" y="-517.8" font-family="Times,serif" font-size="14.00">VariableDeclarator</text>
</g>
<!-- 5&#45;&gt;6 -->
<g id="edge6" class="edge">
<title>5&#45;&gt;6</title>
<path fill="none" stroke="black" d="M305.4,-575.7C305.4,-568.41 305.4,-559.73 305.4,-551.54"/>
<polygon fill="black" stroke="black" points="308.9,-551.62 305.4,-541.62 301.9,-551.62 308.9,-551.62"/>
</g>
<!-- 7 -->
<g id="node8" class="node">
<title>7</title>
<path fill="none" stroke="black" d="M286.9,-468C286.9,-468 205.89,-468 205.89,-468 199.89,-468 193.89,-462 193.89,-456 193.89,-456 193.89,-444 193.89,-444 193.89,-438 199.89,-432 205.89,-432 205.89,-432 286.9,-432 286.9,-432 292.9,-432 298.9,-438 298.9,-444 298.9,-444 298.9,-456 298.9,-456 298.9,-462 292.9,-468 286.9,-468"/>
<text xml:space="preserve" text-anchor="middle" x="246.4" y="-445.8" font-family="Times,serif" font-size="14.00">Identifier (max)</text>
</g>
<!-- 6&#45;&gt;7 -->
<g id="edge7" class="edge">
<title>6&#45;&gt;7</title>
<path fill="none" stroke="black" d="M290.81,-503.7C283.96,-495.56 275.64,-485.69 268.06,-476.7"/>
<polygon fill="black" stroke="black" points="270.91,-474.65 261.79,-469.26 265.56,-479.16 270.91,-474.65"/>
</g>
<!-- 8 -->
<g id="node9" class="node">
<title>8</title>
<path fill="none" stroke="black" d="M377.97,-468C377.97,-468 328.83,-468 328.83,-468 322.83,-468 316.83,-462 316.83,-456 316.83,-456 316.83,-444 316.83,-444 316.83,-438 322.83,-432 328.83,-432 328.83,-432 377.97,-432 377.97,-432 383.97,-432 389.97,-438 389.97,-444 389.97,-444 389.97,-456 389.97,-456 389.97,-462 383.97,-468 377.97,-468"/>
<text xml:space="preserve" text-anchor="middle" x="353.4" y="-445.8" font-family="Times,serif" font-size="14.00">Literal (5)</text>
</g>
<!-- 6&#45;&gt;8 -->
<g id="edge8" class="edge">
<title>6&#45;&gt;8</title>
<path fill="none" stroke="black" d="M317.26,-503.7C322.67,-495.81 329.19,-486.3 335.2,-477.55"/>
<polygon fill="black" stroke="black" points="338.05,-479.58 340.81,-469.35 332.27,-475.62 338.05,-479.58"/>
</g>
<!-- 10 -->
<g id="node11" class="node">
<title>10</title>
<path fill="none" stroke="black" d="M487.11,-540C487.11,-540 405.68,-540 405.68,-540 399.68,-540 393.68,-534 393.68,-528 393.68,-528 393.68,-516 393.68,-516 393.68,-510 399.68,-504 405.68,-504 405.68,-504 487.11,-504 487.11,-504 493.11,-504 499.11,-510 499.11,-516 499.11,-516 499.11,-528 499.11,-528 499.11,-534 493.11,-540 487.11,-540"/>
<text xml:space="preserve" text-anchor="middle" x="446.4" y="-517.8" font-family="Times,serif" font-size="14.00">BlockStatement</text>
</g>
<!-- 9&#45;&gt;10 -->
<g id="edge10" class="edge">
<title>9&#45;&gt;10</title>
<path fill="none" stroke="black" d="M444.89,-575.7C445.1,-568.41 445.35,-559.73 445.58,-551.54"/>
<polygon fill="black" stroke="black" points="449.08,-551.71 445.87,-541.62 442.08,-551.51 449.08,-551.71"/>
</g>
<!-- 11 -->
<g id="node12" class="node">
<title>11</title>
<path fill="none" stroke="black" d="M477.05,-468C477.05,-468 419.74,-468 419.74,-468 413.74,-468 407.74,-462 407.74,-456 407.74,-456 407.74,-444 407.74,-444 407.74,-438 413.74,-432 419.74,-432 419.74,-432 477.05,-432 477.05,-432 483.05,-432 489.05,-438 489.05,-444 489.05,-444 489.05,-456 489.05,-456 489.05,-462 483.05,-468 477.05,-468"/>
<text xml:space="preserve" text-anchor="middle" x="448.4" y="-445.8" font-family="Times,serif" font-size="14.00">IfStatement</text>
</g>
<!-- 10&#45;&gt;11 -->
<g id="edge11" class="edge">
<title>10&#45;&gt;11</title>
<path fill="none" stroke="black" d="M446.89,-503.7C447.1,-496.41 447.35,-487.73 447.58,-479.54"/>
<polygon fill="black" stroke="black" points="451.08,-479.71 447.87,-469.62 444.08,-479.51 451.08,-479.71"/>
</g>
<!-- 12 -->
<g id="node13" class="node">
<title>12</title>
<path fill="none" stroke="black" d="M424.11,-396C424.11,-396 342.68,-396 342.68,-396 336.68,-396 330.68,-390 330.68,-384 330.68,-384 330.68,-372 330.68,-372 330.68,-366 336.68,-360 342.68,-360 342.68,-360 424.11,-360 424.11,-360 430.11,-360 436.11,-366 436.11,-372 436.11,-372 436.11,-384 436.11,-384 436.11,-390 430.11,-396 424.11,-396"/>
<text xml:space="preserve" text-anchor="middle" x="383.4" y="-373.8" font-family="Times,serif" font-size="14.00">BlockStatement</text>
</g>
<!-- 11&#45;&gt;12 -->
<g id="edge12" class="edge">
<title>11&#45;&gt;12</title>
<path fill="none" stroke="black" d="M432.33,-431.7C424.7,-423.47 415.42,-413.48 407,-404.42"/>
<polygon fill="black" stroke="black" points="409.68,-402.16 400.31,-397.21 404.55,-406.92 409.68,-402.16"/>
</g>
<!-- 18 -->
<g id="node19" class="node">
<title>18</title>
<path fill="none" stroke="black" d="M554.11,-396C554.11,-396 472.68,-396 472.68,-396 466.68,-396 460.68,-390 460.68,-384 460.68,-384 460.68,-372 460.68,-372 460.68,-366 466.68,-360 472.68,-360 472.68,-360 554.11,-360 554.11,-360 560.11,-360 566.11,-366 566.11,-372 566.11,-372 566.11,-384 566.11,-384 566.11,-390 560.11,-396 554.11,-396"/>
<text xml:space="preserve" text-anchor="middle" x="513.4" y="-373.8" font-family="Times,serif" font-size="14.00">BlockStatement</text>
</g>
<!-- 11&#45;&gt;18 -->
<g id="edge18" class="edge">
<title>11&#45;&gt;18</title>
<path fill="none" stroke="black" d="M464.47,-431.7C472.1,-423.47 481.38,-413.48 489.79,-404.42"/>
<polygon fill="black" stroke="black" points="492.25,-406.92 496.49,-397.21 487.12,-402.16 492.25,-406.92"/>
</g>
<!-- 13 -->
<g id="node14" class="node">
<title>13</title>
<path fill="none" stroke="black" d="M424.5,-324C424.5,-324 314.3,-324 314.3,-324 308.3,-324 302.3,-318 302.3,-312 302.3,-312 302.3,-300 302.3,-300 302.3,-294 308.3,-288 314.3,-288 314.3,-288 424.5,-288 424.5,-288 430.5,-288 436.5,-294 436.5,-300 436.5,-300 436.5,-312 436.5,-312 436.5,-318 430.5,-324 424.5,-324"/>
<text xml:space="preserve" text-anchor="middle" x="369.4" y="-301.8" font-family="Times,serif" font-size="14.00">ExpressionStatement</text>
</g>
<!-- 12&#45;&gt;13 -->
<g id="edge13" class="edge">
<title>12&#45;&gt;13</title>
<path fill="none" stroke="black" d="M379.94,-359.7C378.46,-352.32 376.7,-343.52 375.05,-335.25"/>
<polygon fill="black" stroke="black" points="378.51,-334.71 373.12,-325.59 371.65,-336.08 378.51,-334.71"/>
</g>
<!-- 14 -->
<g id="node15" class="node">
<title>14</title>
<path fill="none" stroke="black" d="M408.17,-252C408.17,-252 330.63,-252 330.63,-252 324.63,-252 318.63,-246 318.63,-240 318.63,-240 318.63,-228 318.63,-228 318.63,-222 324.63,-216 330.63,-216 330.63,-216 408.17,-216 408.17,-216 414.17,-216 420.17,-222 420.17,-228 420.17,-228 420.17,-240 420.17,-240 420.17,-246 414.17,-252 408.17,-252"/>
<text xml:space="preserve" text-anchor="middle" x="369.4" y="-229.8" font-family="Times,serif" font-size="14.00">CallExpression</text>
</g>
<!-- 13&#45;&gt;14 -->
<g id="edge14" class="edge">
<title>13&#45;&gt;14</title>
<path fill="none" stroke="black" d="M369.4,-287.7C369.4,-280.41 369.4,-271.73 369.4,-263.54"/>
<polygon fill="black" stroke="black" points="372.9,-263.62 369.4,-253.62 365.9,-263.62 372.9,-263.62"/>
</g>
<!-- 15 -->
<g id="node16" class="node">
<title>15</title>
<path fill="none" stroke="black" d="M309.93,-180C309.93,-180 188.87,-180 188.87,-180 182.87,-180 176.87,-174 176.87,-168 176.87,-168 176.87,-156 176.87,-156 176.87,-150 182.87,-144 188.87,-144 188.87,-144 309.93,-144 309.93,-144 315.93,-144 321.93,-150 321.93,-156 321.93,-156 321.93,-168 321.93,-168 321.93,-174 315.93,-180 309.93,-180"/>
<text xml:space="preserve" text-anchor="middle" x="249.4" y="-157.8" font-family="Times,serif" font-size="14.00">Identifier (console.log)</text>
</g>
<!-- 14&#45;&gt;15 -->
<g id="edge15" class="edge">
<title>14&#45;&gt;15</title>
<path fill="none" stroke="black" d="M339.43,-215.52C324.13,-206.6 305.34,-195.63 288.88,-186.03"/>
<polygon fill="black" stroke="black" points="290.7,-183.04 280.3,-181.02 287.17,-189.09 290.7,-183.04"/>
</g>
<!-- 16 -->
<g id="node17" class="node">
<title>16</title>
<path fill="none" stroke="black" d="M400.39,-180C400.39,-180 352.41,-180 352.41,-180 346.41,-180 340.41,-174 340.41,-168 340.41,-168 340.41,-156 340.41,-156 340.41,-150 346.41,-144 352.41,-144 352.41,-144 400.39,-144 400.39,-144 406.39,-144 412.39,-150 412.39,-156 412.39,-156 412.39,-168 412.39,-168 412.39,-174 406.39,-180 400.39,-180"/>
<text xml:space="preserve" text-anchor="middle" x="376.4" y="-157.8" font-family="Times,serif" font-size="14.00">undefined</text>
</g>
<!-- 14&#45;&gt;16 -->
<g id="edge16" class="edge">
<title>14&#45;&gt;16</title>
<path fill="none" stroke="black" d="M371.13,-215.7C371.86,-208.41 372.73,-199.73 373.54,-191.54"/>
<polygon fill="black" stroke="black" points="377.02,-191.91 374.54,-181.61 370.06,-191.21 377.02,-191.91"/>
</g>
<!-- 17 -->
<g id="node18" class="node">
<title>17</title>
<path fill="none" stroke="black" d="M435.18,-108C435.18,-108 317.62,-108 317.62,-108 311.62,-108 305.62,-102 305.62,-96 305.62,-96 305.62,-84 305.62,-84 305.62,-78 311.62,-72 317.62,-72 317.62,-72 435.18,-72 435.18,-72 441.18,-72 447.18,-78 447.18,-84 447.18,-84 447.18,-96 447.18,-96 447.18,-102 441.18,-108 435.18,-108"/>
<text xml:space="preserve" text-anchor="middle" x="376.4" y="-85.8" font-family="Times,serif" font-size="14.00">Literal (Encontrei o 2)</text>
</g>
<!-- 16&#45;&gt;17 -->
<g id="edge17" class="edge">
<title>16&#45;&gt;17</title>
<path fill="none" stroke="black" d="M376.4,-143.7C376.4,-136.41 376.4,-127.73 376.4,-119.54"/>
<polygon fill="black" stroke="black" points="379.9,-119.62 376.4,-109.62 372.9,-119.62 379.9,-119.62"/>
</g>
<!-- 19 -->
<g id="node20" class="node">
<title>19</title>
<path fill="none" stroke="black" d="M576.5,-324C576.5,-324 466.3,-324 466.3,-324 460.3,-324 454.3,-318 454.3,-312 454.3,-312 454.3,-300 454.3,-300 454.3,-294 460.3,-288 466.3,-288 466.3,-288 576.5,-288 576.5,-288 582.5,-288 588.5,-294 588.5,-300 588.5,-300 588.5,-312 588.5,-312 588.5,-318 582.5,-324 576.5,-324"/>
<text xml:space="preserve" text-anchor="middle" x="521.4" y="-301.8" font-family="Times,serif" font-size="14.00">ExpressionStatement</text>
</g>
<!-- 18&#45;&gt;19 -->
<g id="edge19" class="edge">
<title>18&#45;&gt;19</title>
<path fill="none" stroke="black" d="M515.38,-359.7C516.21,-352.41 517.2,-343.73 518.14,-335.54"/>
<polygon fill="black" stroke="black" points="521.61,-335.94 519.27,-325.61 514.66,-335.15 521.61,-335.94"/>
</g>
<!-- 20 -->
<g id="node21" class="node">
<title>20</title>
<path fill="none" stroke="black" d="M560.17,-252C560.17,-252 482.63,-252 482.63,-252 476.63,-252 470.63,-246 470.63,-240 470.63,-240 470.63,-228 470.63,-228 470.63,-222 476.63,-216 482.63,-216 482.63,-216 560.17,-216 560.17,-216 566.17,-216 572.17,-222 572.17,-228 572.17,-228 572.17,-240 572.17,-240 572.17,-246 566.17,-252 560.17,-252"/>
<text xml:space="preserve" text-anchor="middle" x="521.4" y="-229.8" font-family="Times,serif" font-size="14.00">CallExpression</text>
</g>
<!-- 19&#45;&gt;20 -->
<g id="edge20" class="edge">
<title>19&#45;&gt;20</title>
<path fill="none" stroke="black" d="M521.4,-287.7C521.4,-280.41 521.4,-271.73 521.4,-263.54"/>
<polygon fill="black" stroke="black" points="524.9,-263.62 521.4,-253.62 517.9,-263.62 524.9,-263.62"/>
</g>
<!-- 21 -->
<g id="node22" class="node">
<title>21</title>
<path fill="none" stroke="black" d="M575.93,-180C575.93,-180 454.87,-180 454.87,-180 448.87,-180 442.87,-174 442.87,-168 442.87,-168 442.87,-156 442.87,-156 442.87,-150 448.87,-144 454.87,-144 454.87,-144 575.93,-144 575.93,-144 581.93,-144 587.93,-150 587.93,-156 587.93,-156 587.93,-168 587.93,-168 587.93,-174 581.93,-180 575.93,-180"/>
<text xml:space="preserve" text-anchor="middle" x="515.4" y="-157.8" font-family="Times,serif" font-size="14.00">Identifier (console.log)</text>
</g>
<!-- 20&#45;&gt;21 -->
<g id="edge21" class="edge">
<title>20&#45;&gt;21</title>
<path fill="none" stroke="black" d="M519.92,-215.7C519.29,-208.41 518.55,-199.73 517.84,-191.54"/>
<polygon fill="black" stroke="black" points="521.34,-191.28 516.99,-181.61 514.36,-191.87 521.34,-191.28"/>
</g>
<!-- 22 -->
<g id="node23" class="node">
<title>22</title>
<path fill="none" stroke="black" d="M666.39,-180C666.39,-180 618.41,-180 618.41,-180 612.41,-180 606.41,-174 606.41,-168 606.41,-168 606.41,-156 606.41,-156 606.41,-150 612.41,-144 618.41,-144 618.41,-144 666.39,-144 666.39,-144 672.39,-144 678.39,-150 678.39,-156 678.39,-156 678.39,-168 678.39,-168 678.39,-174 672.39,-180 666.39,-180"/>
<text xml:space="preserve" text-anchor="middle" x="642.4" y="-157.8" font-family="Times,serif" font-size="14.00">undefined</text>
</g>
<!-- 20&#45;&gt;22 -->
<g id="edge22" class="edge">
<title>20&#45;&gt;22</title>
<path fill="none" stroke="black" d="M551.62,-215.52C567.18,-206.51 586.35,-195.42 603.06,-185.76"/>
<polygon fill="black" stroke="black" points="604.35,-189.06 611.25,-181.02 600.84,-183 604.35,-189.06"/>
</g>
<!-- 23 -->
<g id="node24" class="node">
<title>23</title>
<path fill="none" stroke="black" d="M698.92,-108C698.92,-108 585.88,-108 585.88,-108 579.88,-108 573.88,-102 573.88,-96 573.88,-96 573.88,-84 573.88,-84 573.88,-78 579.88,-72 585.88,-72 585.88,-72 698.92,-72 698.92,-72 704.92,-72 710.92,-78 710.92,-84 710.92,-84 710.92,-96 710.92,-96 710.92,-102 704.92,-108 698.92,-108"/>
<text xml:space="preserve" text-anchor="middle" x="642.4" y="-85.8" font-family="Times,serif" font-size="14.00">BinaryExpression (+)</text>
</g>
<!-- 22&#45;&gt;23 -->
<g id="edge23" class="edge">
<title>22&#45;&gt;23</title>
<path fill="none" stroke="black" d="M642.4,-143.7C642.4,-136.41 642.4,-127.73 642.4,-119.54"/>
<polygon fill="black" stroke="black" points="645.9,-119.62 642.4,-109.62 638.9,-119.62 645.9,-119.62"/>
</g>
<!-- 24 -->
<g id="node25" class="node">
<title>24</title>
<path fill="none" stroke="black" d="M630.48,-36C630.48,-36 534.32,-36 534.32,-36 528.32,-36 522.32,-30 522.32,-24 522.32,-24 522.32,-12 522.32,-12 522.32,-6 528.32,0 534.32,0 534.32,0 630.48,0 630.48,0 636.48,0 642.48,-6 642.48,-12 642.48,-12 642.48,-24 642.48,-24 642.48,-30 636.48,-36 630.48,-36"/>
<text xml:space="preserve" text-anchor="middle" x="582.4" y="-13.8" font-family="Times,serif" font-size="14.00">Literal (Iteração: )</text>
</g>
<!-- 23&#45;&gt;24 -->
<g id="edge24" class="edge">
<title>23&#45;&gt;24</title>
<path fill="none" stroke="black" d="M627.57,-71.7C620.59,-63.56 612.13,-53.69 604.43,-44.7"/>
<polygon fill="black" stroke="black" points="607.21,-42.57 598.04,-37.25 601.89,-47.12 607.21,-42.57"/>
</g>
<!-- 25 -->
<g id="node26" class="node">
<title>25</title>
<path fill="none" stroke="black" d="M732.8,-36C732.8,-36 672,-36 672,-36 666,-36 660,-30 660,-24 660,-24 660,-12 660,-12 660,-6 666,0 672,0 672,0 732.8,0 732.8,0 738.8,0 744.8,-6 744.8,-12 744.8,-12 744.8,-24 744.8,-24 744.8,-30 738.8,-36 732.8,-36"/>
<text xml:space="preserve" text-anchor="middle" x="702.4" y="-13.8" font-family="Times,serif" font-size="14.00">Identifier (i)</text>
</g>
<!-- 23&#45;&gt;25 -->
<g id="edge25" class="edge">
<title>23&#45;&gt;25</title>
<path fill="none" stroke="black" d="M657.23,-71.7C664.21,-63.56 672.66,-53.69 680.37,-44.7"/>
<polygon fill="black" stroke="black" points="682.9,-47.12 686.75,-37.25 677.59,-42.57 682.9,-47.12"/>
</g>
</g>
</svg>
