<?xml version="1.0" encoding="UTF-8" standalone="no"?>
<!DOCTYPE svg PUBLIC "-//W3C//DTD SVG 1.1//EN"
 "http://www.w3.org/Graphics/SVG/1.1/DTD/svg11.dtd">
<!-- Generated by graphviz version 14.0.2 (0)
 -->
<!-- Title: AST Pages: 1 -->
<svg width="1162pt" height="332pt"
 viewBox="0.00 0.00 1162.00 332.00" xmlns="http://www.w3.org/2000/svg" xmlns:xlink="http://www.w3.org/1999/xlink">
<g id="graph0" class="graph" transform="scale(1 1) rotate(0) translate(4 328)">
<title>AST</title>
<polygon fill="white" stroke="none" points="-4,4 -4,-328 1157.67,-328 1157.67,4 -4,4"/>
<!-- 0 -->
<g id="node1" class="node">
<title>0</title>
<path fill="none" stroke="black" d="M430.67,-324C430.67,-324 390.45,-324 390.45,-324 384.45,-324 378.45,-318 378.45,-312 378.45,-312 378.45,-300 378.45,-300 378.45,-294 384.45,-288 390.45,-288 390.45,-288 430.67,-288 430.67,-288 436.67,-288 442.67,-294 442.67,-300 442.67,-300 442.67,-312 442.67,-312 442.67,-318 436.67,-324 430.67,-324"/>
<text xml:space="preserve" text-anchor="middle" x="410.56" y="-301.8" font-family="Times,serif" font-size="14.00">Program</text>
</g>
<!-- 1 -->
<g id="node2" class="node">
<title>1</title>
<path fill="none" stroke="black" d="M226.31,-252C226.31,-252 120.82,-252 120.82,-252 114.82,-252 108.82,-246 108.82,-240 108.82,-240 108.82,-228 108.82,-228 108.82,-222 114.82,-216 120.82,-216 120.82,-216 226.31,-216 226.31,-216 232.31,-216 238.31,-222 238.31,-228 238.31,-228 238.31,-240 238.31,-240 238.31,-246 232.31,-252 226.31,-252"/>
<text xml:space="preserve" text-anchor="middle" x="173.56" y="-229.8" font-family="Times,serif" font-size="14.00">VariableDeclaration</text>
</g>
<!-- 0&#45;&gt;1 -->
<g id="edge1" class="edge">
<title>0&#45;&gt;1</title>
<path fill="none" stroke="black" d="M378.1,-295.41C343.55,-285.21 287.83,-268.75 243.27,-255.59"/>
<polygon fill="black" stroke="black" points="244.52,-252.31 233.94,-252.83 242.54,-259.02 244.52,-252.31"/>
</g>
<!-- 5 -->
<g id="node6" class="node">
<title>5</title>
<path fill="none" stroke="black" d="M390.31,-252C390.31,-252 284.82,-252 284.82,-252 278.82,-252 272.82,-246 272.82,-240 272.82,-240 272.82,-228 272.82,-228 272.82,-222 278.82,-216 284.82,-216 284.82,-216 390.31,-216 390.31,-216 396.31,-216 402.31,-222 402.31,-228 402.31,-228 402.31,-240 402.31,-240 402.31,-246 396.31,-252 390.31,-252"/>
<text xml:space="preserve" text-anchor="middle" x="337.56" y="-229.8" font-family="Times,serif" font-size="14.00">VariableDeclaration</text>
</g>
<!-- 0&#45;&gt;5 -->
<g id="edge5" class="edge">
<title>0&#45;&gt;5</title>
<path fill="none" stroke="black" d="M392.52,-287.7C383.83,-279.37 373.25,-269.22 363.7,-260.07"/>
<polygon fill="black" stroke="black" points="366.38,-257.79 356.74,-253.39 361.54,-262.84 366.38,-257.79"/>
</g>
<!-- 9 -->
<g id="node10" class="node">
<title>9</title>
<path fill="none" stroke="black" d="M537.31,-252C537.31,-252 431.82,-252 431.82,-252 425.82,-252 419.82,-246 419.82,-240 419.82,-240 419.82,-228 419.82,-228 419.82,-222 425.82,-216 431.82,-216 431.82,-216 537.31,-216 537.31,-216 543.31,-216 549.31,-222 549.31,-228 549.31,-228 549.31,-240 549.31,-240 549.31,-246 543.31,-252 537.31,-252"/>
<text xml:space="preserve" text-anchor="middle" x="484.56" y="-229.8" font-family="Times,serif" font-size="14.00">VariableDeclaration</text>
</g>
<!-- 0&#45;&gt;9 -->
<g id="edge9" class="edge">
<title>0&#45;&gt;9</title>
<path fill="none" stroke="black" d="M428.85,-287.7C437.66,-279.37 448.38,-269.22 458.06,-260.07"/>
<polygon fill="black" stroke="black" points="460.26,-262.8 465.12,-253.39 455.45,-257.72 460.26,-262.8"/>
</g>
<!-- 15 -->
<g id="node16" class="node">
<title>15</title>
<path fill="none" stroke="black" d="M765.66,-252C765.66,-252 655.46,-252 655.46,-252 649.46,-252 643.46,-246 643.46,-240 643.46,-240 643.46,-228 643.46,-228 643.46,-222 649.46,-216 655.46,-216 655.46,-216 765.66,-216 765.66,-216 771.66,-216 777.66,-222 777.66,-228 777.66,-228 777.66,-240 777.66,-240 777.66,-246 771.66,-252 765.66,-252"/>
<text xml:space="preserve" text-anchor="middle" x="710.56" y="-229.8" font-family="Times,serif" font-size="14.00">ExpressionStatement</text>
</g>
<!-- 0&#45;&gt;15 -->
<g id="edge15" class="edge">
<title>0&#45;&gt;15</title>
<path fill="none" stroke="black" d="M442.95,-297.44C487.9,-286.95 570.62,-267.65 632.23,-253.28"/>
<polygon fill="black" stroke="black" points="632.68,-256.77 641.62,-251.09 631.08,-249.95 632.68,-256.77"/>
</g>
<!-- 2 -->
<g id="node3" class="node">
<title>2</title>
<path fill="none" stroke="black" d="M195.19,-180C195.19,-180 95.93,-180 95.93,-180 89.93,-180 83.93,-174 83.93,-168 83.93,-168 83.93,-156 83.93,-156 83.93,-150 89.93,-144 95.93,-144 95.93,-144 195.19,-144 195.19,-144 201.19,-144 207.19,-150 207.19,-156 207.19,-156 207.19,-168 207.19,-168 207.19,-174 201.19,-180 195.19,-180"/>
<text xml:space="preserve" text-anchor="middle" x="145.56" y="-157.8" font-family="Times,serif" font-size="14.00">VariableDeclarator</text>
</g>
<!-- 1&#45;&gt;2 -->
<g id="edge2" class="edge">
<title>1&#45;&gt;2</title>
<path fill="none" stroke="black" d="M166.64,-215.7C163.62,-208.15 160.01,-199.12 156.63,-190.68"/>
<polygon fill="black" stroke="black" points="159.93,-189.49 152.96,-181.51 153.43,-192.09 159.93,-189.49"/>
</g>
<!-- 3 -->
<g id="node4" class="node">
<title>3</title>
<path fill="none" stroke="black" d="M75.12,-108C75.12,-108 12,-108 12,-108 6,-108 0,-102 0,-96 0,-96 0,-84 0,-84 0,-78 6,-72 12,-72 12,-72 75.12,-72 75.12,-72 81.12,-72 87.12,-78 87.12,-84 87.12,-84 87.12,-96 87.12,-96 87.12,-102 81.12,-108 75.12,-108"/>
<text xml:space="preserve" text-anchor="middle" x="43.56" y="-85.8" font-family="Times,serif" font-size="14.00">Identifier (a)</text>
</g>
<!-- 2&#45;&gt;3 -->
<g id="edge3" class="edge">
<title>2&#45;&gt;3</title>
<path fill="none" stroke="black" d="M120.08,-143.52C107.33,-134.76 91.71,-124.04 77.91,-114.58"/>
<polygon fill="black" stroke="black" points="80.19,-111.89 69.96,-109.12 76.22,-117.66 80.19,-111.89"/>
</g>
<!-- 4 -->
<g id="node5" class="node">
<title>4</title>
<path fill="none" stroke="black" d="M173.63,-108C173.63,-108 117.49,-108 117.49,-108 111.49,-108 105.49,-102 105.49,-96 105.49,-96 105.49,-84 105.49,-84 105.49,-78 111.49,-72 117.49,-72 117.49,-72 173.63,-72 173.63,-72 179.63,-72 185.63,-78 185.63,-84 185.63,-84 185.63,-96 185.63,-96 185.63,-102 179.63,-108 173.63,-108"/>
<text xml:space="preserve" text-anchor="middle" x="145.56" y="-85.8" font-family="Times,serif" font-size="14.00">Literal (10)</text>
</g>
<!-- 2&#45;&gt;4 -->
<g id="edge4" class="edge">
<title>2&#45;&gt;4</title>
<path fill="none" stroke="black" d="M145.56,-143.7C145.56,-136.41 145.56,-127.73 145.56,-119.54"/>
<polygon fill="black" stroke="black" points="149.06,-119.62 145.56,-109.62 142.06,-119.62 149.06,-119.62"/>
</g>
<!-- 6 -->
<g id="node7" class="node">
<title>6</title>
<path fill="none" stroke="black" d="M387.19,-180C387.19,-180 287.93,-180 287.93,-180 281.93,-180 275.93,-174 275.93,-168 275.93,-168 275.93,-156 275.93,-156 275.93,-150 281.93,-144 287.93,-144 287.93,-144 387.19,-144 387.19,-144 393.19,-144 399.19,-150 399.19,-156 399.19,-156 399.19,-168 399.19,-168 399.19,-174 393.19,-180 387.19,-180"/>
<text xml:space="preserve" text-anchor="middle" x="337.56" y="-157.8" font-family="Times,serif" font-size="14.00">VariableDeclarator</text>
</g>
<!-- 5&#45;&gt;6 -->
<g id="edge6" class="edge">
<title>5&#45;&gt;6</title>
<path fill="none" stroke="black" d="M337.56,-215.7C337.56,-208.41 337.56,-199.73 337.56,-191.54"/>
<polygon fill="black" stroke="black" points="341.06,-191.62 337.56,-181.62 334.06,-191.62 341.06,-191.62"/>
</g>
<!-- 7 -->
<g id="node8" class="node">
<title>7</title>
<path fill="none" stroke="black" d="M279.51,-108C279.51,-108 215.61,-108 215.61,-108 209.61,-108 203.61,-102 203.61,-96 203.61,-96 203.61,-84 203.61,-84 203.61,-78 209.61,-72 215.61,-72 215.61,-72 279.51,-72 279.51,-72 285.51,-72 291.51,-78 291.51,-84 291.51,-84 291.51,-96 291.51,-96 291.51,-102 285.51,-108 279.51,-108"/>
<text xml:space="preserve" text-anchor="middle" x="247.56" y="-85.8" font-family="Times,serif" font-size="14.00">Identifier (b)</text>
</g>
<!-- 6&#45;&gt;7 -->
<g id="edge7" class="edge">
<title>6&#45;&gt;7</title>
<path fill="none" stroke="black" d="M315.31,-143.7C304.28,-135.11 290.77,-124.61 278.72,-115.24"/>
<polygon fill="black" stroke="black" points="281.1,-112.65 271.06,-109.28 276.8,-118.18 281.1,-112.65"/>
</g>
<!-- 8 -->
<g id="node9" class="node">
<title>8</title>
<path fill="none" stroke="black" d="M377.63,-108C377.63,-108 321.49,-108 321.49,-108 315.49,-108 309.49,-102 309.49,-96 309.49,-96 309.49,-84 309.49,-84 309.49,-78 315.49,-72 321.49,-72 321.49,-72 377.63,-72 377.63,-72 383.63,-72 389.63,-78 389.63,-84 389.63,-84 389.63,-96 389.63,-96 389.63,-102 383.63,-108 377.63,-108"/>
<text xml:space="preserve" text-anchor="middle" x="349.56" y="-85.8" font-family="Times,serif" font-size="14.00">Literal (20)</text>
</g>
<!-- 6&#45;&gt;8 -->
<g id="edge8" class="edge">
<title>6&#45;&gt;8</title>
<path fill="none" stroke="black" d="M340.53,-143.7C341.79,-136.32 343.3,-127.52 344.72,-119.25"/>
<polygon fill="black" stroke="black" points="348.13,-120.04 346.37,-109.6 341.23,-118.86 348.13,-120.04"/>
</g>
<!-- 10 -->
<g id="node11" class="node">
<title>10</title>
<path fill="none" stroke="black" d="M534.19,-180C534.19,-180 434.93,-180 434.93,-180 428.93,-180 422.93,-174 422.93,-168 422.93,-168 422.93,-156 422.93,-156 422.93,-150 428.93,-144 434.93,-144 434.93,-144 534.19,-144 534.19,-144 540.19,-144 546.19,-150 546.19,-156 546.19,-156 546.19,-168 546.19,-168 546.19,-174 540.19,-180 534.19,-180"/>
<text xml:space="preserve" text-anchor="middle" x="484.56" y="-157.8" font-family="Times,serif" font-size="14.00">VariableDeclarator</text>
</g>
<!-- 9&#45;&gt;10 -->
<g id="edge10" class="edge">
<title>9&#45;&gt;10</title>
<path fill="none" stroke="black" d="M484.56,-215.7C484.56,-208.41 484.56,-199.73 484.56,-191.54"/>
<polygon fill="black" stroke="black" points="488.06,-191.62 484.56,-181.62 481.06,-191.62 488.06,-191.62"/>
</g>
<!-- 11 -->
<g id="node12" class="node">
<title>11</title>
<path fill="none" stroke="black" d="M527.67,-108C527.67,-108 419.45,-108 419.45,-108 413.45,-108 407.45,-102 407.45,-96 407.45,-96 407.45,-84 407.45,-84 407.45,-78 413.45,-72 419.45,-72 419.45,-72 527.67,-72 527.67,-72 533.67,-72 539.67,-78 539.67,-84 539.67,-84 539.67,-96 539.67,-96 539.67,-102 533.67,-108 527.67,-108"/>
<text xml:space="preserve" text-anchor="middle" x="473.56" y="-85.8" font-family="Times,serif" font-size="14.00">Identifier (resultado)</text>
</g>
<!-- 10&#45;&gt;11 -->
<g id="edge11" class="edge">
<title>10&#45;&gt;11</title>
<path fill="none" stroke="black" d="M481.84,-143.7C480.68,-136.32 479.3,-127.52 478,-119.25"/>
<polygon fill="black" stroke="black" points="481.49,-118.93 476.48,-109.6 474.58,-120.02 481.49,-118.93"/>
</g>
<!-- 12 -->
<g id="node13" class="node">
<title>12</title>
<path fill="none" stroke="black" d="M683.08,-108C683.08,-108 570.04,-108 570.04,-108 564.04,-108 558.04,-102 558.04,-96 558.04,-96 558.04,-84 558.04,-84 558.04,-78 564.04,-72 570.04,-72 570.04,-72 683.08,-72 683.08,-72 689.08,-72 695.08,-78 695.08,-84 695.08,-84 695.08,-96 695.08,-96 695.08,-102 689.08,-108 683.08,-108"/>
<text xml:space="preserve" text-anchor="middle" x="626.56" y="-85.8" font-family="Times,serif" font-size="14.00">BinaryExpression (+)</text>
</g>
<!-- 10&#45;&gt;12 -->
<g id="edge12" class="edge">
<title>10&#45;&gt;12</title>
<path fill="none" stroke="black" d="M520.03,-143.52C538.63,-134.34 561.63,-123.01 581.49,-113.22"/>
<polygon fill="black" stroke="black" points="582.77,-116.49 590.19,-108.93 579.67,-110.21 582.77,-116.49"/>
</g>
<!-- 13 -->
<g id="node14" class="node">
<title>13</title>
<path fill="none" stroke="black" d="M591.12,-36C591.12,-36 528,-36 528,-36 522,-36 516,-30 516,-24 516,-24 516,-12 516,-12 516,-6 522,0 528,0 528,0 591.12,0 591.12,0 597.12,0 603.12,-6 603.12,-12 603.12,-12 603.12,-24 603.12,-24 603.12,-30 597.12,-36 591.12,-36"/>
<text xml:space="preserve" text-anchor="middle" x="559.56" y="-13.8" font-family="Times,serif" font-size="14.00">Identifier (a)</text>
</g>
<!-- 12&#45;&gt;13 -->
<g id="edge13" class="edge">
<title>12&#45;&gt;13</title>
<path fill="none" stroke="black" d="M610,-71.7C602.13,-63.47 592.57,-53.48 583.89,-44.42"/>
<polygon fill="black" stroke="black" points="586.42,-42 576.98,-37.2 581.36,-46.84 586.42,-42"/>
</g>
<!-- 14 -->
<g id="node15" class="node">
<title>14</title>
<path fill="none" stroke="black" d="M697.51,-36C697.51,-36 633.61,-36 633.61,-36 627.61,-36 621.61,-30 621.61,-24 621.61,-24 621.61,-12 621.61,-12 621.61,-6 627.61,0 633.61,0 633.61,0 697.51,0 697.51,0 703.51,0 709.51,-6 709.51,-12 709.51,-12 709.51,-24 709.51,-24 709.51,-30 703.51,-36 697.51,-36"/>
<text xml:space="preserve" text-anchor="middle" x="665.56" y="-13.8" font-family="Times,serif" font-size="14.00">Identifier (b)</text>
</g>
<!-- 12&#45;&gt;14 -->
<g id="edge14" class="edge">
<title>12&#45;&gt;14</title>
<path fill="none" stroke="black" d="M636.2,-71.7C640.5,-63.98 645.66,-54.71 650.46,-46.11"/>
<polygon fill="black" stroke="black" points="653.48,-47.87 655.29,-37.43 647.37,-44.46 653.48,-47.87"/>
</g>
<!-- 16 -->
<g id="node17" class="node">
<title>16</title>
<path fill="none" stroke="black" d="M824.33,-180C824.33,-180 746.79,-180 746.79,-180 740.79,-180 734.79,-174 734.79,-168 734.79,-168 734.79,-156 734.79,-156 734.79,-150 740.79,-144 746.79,-144 746.79,-144 824.33,-144 824.33,-144 830.33,-144 836.33,-150 836.33,-156 836.33,-156 836.33,-168 836.33,-168 836.33,-174 830.33,-180 824.33,-180"/>
<text xml:space="preserve" text-anchor="middle" x="785.56" y="-157.8" font-family="Times,serif" font-size="14.00">CallExpression</text>
</g>
<!-- 15&#45;&gt;16 -->
<g id="edge16" class="edge">
<title>15&#45;&gt;16</title>
<path fill="none" stroke="black" d="M729.1,-215.7C738.02,-207.37 748.89,-197.22 758.7,-188.07"/>
<polygon fill="black" stroke="black" points="760.95,-190.76 765.87,-181.38 756.17,-185.64 760.95,-190.76"/>
</g>
<!-- 17 -->
<g id="node18" class="node">
<title>17</title>
<path fill="none" stroke="black" d="M846.09,-108C846.09,-108 725.03,-108 725.03,-108 719.03,-108 713.03,-102 713.03,-96 713.03,-96 713.03,-84 713.03,-84 713.03,-78 719.03,-72 725.03,-72 725.03,-72 846.09,-72 846.09,-72 852.09,-72 858.09,-78 858.09,-84 858.09,-84 858.09,-96 858.09,-96 858.09,-102 852.09,-108 846.09,-108"/>
<text xml:space="preserve" text-anchor="middle" x="785.56" y="-85.8" font-family="Times,serif" font-size="14.00">Identifier (console.log)</text>
</g>
<!-- 16&#45;&gt;17 -->
<g id="edge17" class="edge">
<title>16&#45;&gt;17</title>
<path fill="none" stroke="black" d="M785.56,-143.7C785.56,-136.41 785.56,-127.73 785.56,-119.54"/>
<polygon fill="black" stroke="black" points="789.06,-119.62 785.56,-109.62 782.06,-119.62 789.06,-119.62"/>
</g>
<!-- 18 -->
<g id="node19" class="node">
<title>18</title>
<path fill="none" stroke="black" d="M1001.08,-108C1001.08,-108 888.04,-108 888.04,-108 882.04,-108 876.04,-102 876.04,-96 876.04,-96 876.04,-84 876.04,-84 876.04,-78 882.04,-72 888.04,-72 888.04,-72 1001.08,-72 1001.08,-72 1007.08,-72 1013.08,-78 1013.08,-84 1013.08,-84 1013.08,-96 1013.08,-96 1013.08,-102 1007.08,-108 1001.08,-108"/>
<text xml:space="preserve" text-anchor="middle" x="944.56" y="-85.8" font-family="Times,serif" font-size="14.00">BinaryExpression (+)</text>
</g>
<!-- 16&#45;&gt;18 -->
<g id="edge18" class="edge">
<title>16&#45;&gt;18</title>
<path fill="none" stroke="black" d="M825.27,-143.52C846.32,-134.25 872.37,-122.78 894.75,-112.93"/>
<polygon fill="black" stroke="black" points="895.95,-116.22 903.69,-108.99 893.13,-109.82 895.95,-116.22"/>
</g>
<!-- 19 -->
<g id="node20" class="node">
<title>19</title>
<path fill="none" stroke="black" d="M991.92,-36C991.92,-36 817.2,-36 817.2,-36 811.2,-36 805.2,-30 805.2,-24 805.2,-24 805.2,-12 805.2,-12 805.2,-6 811.2,0 817.2,0 817.2,0 991.92,0 991.92,0 997.92,0 1003.92,-6 1003.92,-12 1003.92,-12 1003.92,-24 1003.92,-24 1003.92,-30 997.92,-36 991.92,-36"/>
<text xml:space="preserve" text-anchor="middle" x="904.56" y="-13.8" font-family="Times,serif" font-size="14.00">Literal (O resultado da soma é: )</text>
</g>
<!-- 18&#45;&gt;19 -->
<g id="edge19" class="edge">
<title>18&#45;&gt;19</title>
<path fill="none" stroke="black" d="M934.67,-71.7C930.22,-63.9 924.85,-54.51 919.89,-45.83"/>
<polygon fill="black" stroke="black" points="923.09,-44.36 915.09,-37.42 917.01,-47.84 923.09,-44.36"/>
</g>
<!-- 20 -->
<g id="node21" class="node">
<title>20</title>
<path fill="none" stroke="black" d="M1141.67,-36C1141.67,-36 1033.45,-36 1033.45,-36 1027.45,-36 1021.45,-30 1021.45,-24 1021.45,-24 1021.45,-12 1021.45,-12 1021.45,-6 1027.45,0 1033.45,0 1033.45,0 1141.67,0 1141.67,0 1147.67,0 1153.67,-6 1153.67,-12 1153.67,-12 1153.67,-24 1153.67,-24 1153.67,-30 1147.67,-36 1141.67,-36"/>
<text xml:space="preserve" text-anchor="middle" x="1087.56" y="-13.8" font-family="Times,serif" font-size="14.00">Identifier (resultado)</text>
</g>
<!-- 18&#45;&gt;20 -->
<g id="edge20" class="edge">
<title>18&#45;&gt;20</title>
<path fill="none" stroke="black" d="M980.28,-71.52C999.02,-62.34 1022.17,-51.01 1042.17,-41.22"/>
<polygon fill="black" stroke="black" points="1043.5,-44.47 1050.94,-36.93 1040.42,-38.18 1043.5,-44.47"/>
</g>
</g>
</svg>
