<?xml version="1.0" encoding="UTF-8" standalone="no"?>
<!DOCTYPE svg PUBLIC "-//W3C//DTD SVG 1.1//EN"
 "http://www.w3.org/Graphics/SVG/1.1/DTD/svg11.dtd">
<!-- Generated by graphviz version 14.0.2 (0)
 -->
<!-- Title: AST Pages: 1 -->
<svg width="1026pt" height="620pt"
 viewBox="0.00 0.00 1026.00 620.00" xmlns="http://www.w3.org/2000/svg" xmlns:xlink="http://www.w3.org/1999/xlink">
<g id="graph0" class="graph" transform="scale(1 1) rotate(0) translate(4 616)">
<title>AST</title>
<polygon fill="white" stroke="none" points="-4,4 -4,-616 1021.8,-616 1021.8,4 -4,4"/>
<!-- 0 -->
<g id="node1" class="node">
<title>0</title>
<path fill="none" stroke="black" d="M345.51,-612C345.51,-612 305.29,-612 305.29,-612 299.29,-612 293.29,-606 293.29,-600 293.29,-600 293.29,-588 293.29,-588 293.29,-582 299.29,-576 305.29,-576 305.29,-576 345.51,-576 345.51,-576 351.51,-576 357.51,-582 357.51,-588 357.51,-588 357.51,-600 357.51,-600 357.51,-606 351.51,-612 345.51,-612"/>
<text xml:space="preserve" text-anchor="middle" x="325.4" y="-589.8" font-family="Times,serif" font-size="14.00">Program</text>
</g>
<!-- 1 -->
<g id="node2" class="node">
<title>1</title>
<path fill="none" stroke="black" d="M223.14,-540C223.14,-540 117.65,-540 117.65,-540 111.65,-540 105.65,-534 105.65,-528 105.65,-528 105.65,-516 105.65,-516 105.65,-510 111.65,-504 117.65,-504 117.65,-504 223.14,-504 223.14,-504 229.14,-504 235.14,-510 235.14,-516 235.14,-516 235.14,-528 235.14,-528 235.14,-534 229.14,-540 223.14,-540"/>
<text xml:space="preserve" text-anchor="middle" x="170.4" y="-517.8" font-family="Times,serif" font-size="14.00">VariableDeclaration</text>
</g>
<!-- 0&#45;&gt;1 -->
<g id="edge1" class="edge">
<title>0&#45;&gt;1</title>
<path fill="none" stroke="black" d="M292.91,-578.33C271.56,-568.69 243.25,-555.9 219.22,-545.05"/>
<polygon fill="black" stroke="black" points="220.81,-541.92 210.25,-541 217.92,-548.3 220.81,-541.92"/>
</g>
<!-- 5 -->
<g id="node6" class="node">
<title>5</title>
<path fill="none" stroke="black" d="M378.14,-540C378.14,-540 272.65,-540 272.65,-540 266.65,-540 260.65,-534 260.65,-528 260.65,-528 260.65,-516 260.65,-516 260.65,-510 266.65,-504 272.65,-504 272.65,-504 378.14,-504 378.14,-504 384.14,-504 390.14,-510 390.14,-516 390.14,-516 390.14,-528 390.14,-528 390.14,-534 384.14,-540 378.14,-540"/>
<text xml:space="preserve" text-anchor="middle" x="325.4" y="-517.8" font-family="Times,serif" font-size="14.00">VariableDeclaration</text>
</g>
<!-- 0&#45;&gt;5 -->
<g id="edge5" class="edge">
<title>0&#45;&gt;5</title>
<path fill="none" stroke="black" d="M325.4,-575.7C325.4,-568.41 325.4,-559.73 325.4,-551.54"/>
<polygon fill="black" stroke="black" points="328.9,-551.62 325.4,-541.62 321.9,-551.62 328.9,-551.62"/>
</g>
<!-- 9 -->
<g id="node10" class="node">
<title>9</title>
<path fill="none" stroke="black" d="M518.5,-540C518.5,-540 436.3,-540 436.3,-540 430.3,-540 424.3,-534 424.3,-528 424.3,-528 424.3,-516 424.3,-516 424.3,-510 430.3,-504 436.3,-504 436.3,-504 518.5,-504 518.5,-504 524.5,-504 530.5,-510 530.5,-516 530.5,-516 530.5,-528 530.5,-528 530.5,-534 524.5,-540 518.5,-540"/>
<text xml:space="preserve" text-anchor="middle" x="477.4" y="-517.8" font-family="Times,serif" font-size="14.00">WhileStatement</text>
</g>
<!-- 0&#45;&gt;9 -->
<g id="edge9" class="edge">
<title>0&#45;&gt;9</title>
<path fill="none" stroke="black" d="M357.63,-578.15C378.42,-568.58 405.82,-555.96 429.17,-545.21"/>
<polygon fill="black" stroke="black" points="430.58,-548.41 438.2,-541.05 427.65,-542.06 430.58,-548.41"/>
</g>
<!-- 2 -->
<g id="node3" class="node">
<title>2</title>
<path fill="none" stroke="black" d="M189.03,-468C189.03,-468 89.77,-468 89.77,-468 83.77,-468 77.77,-462 77.77,-456 77.77,-456 77.77,-444 77.77,-444 77.77,-438 83.77,-432 89.77,-432 89.77,-432 189.03,-432 189.03,-432 195.03,-432 201.03,-438 201.03,-444 201.03,-444 201.03,-456 201.03,-456 201.03,-462 195.03,-468 189.03,-468"/>
<text xml:space="preserve" text-anchor="middle" x="139.4" y="-445.8" font-family="Times,serif" font-size="14.00">VariableDeclarator</text>
</g>
<!-- 1&#45;&gt;2 -->
<g id="edge2" class="edge">
<title>1&#45;&gt;2</title>
<path fill="none" stroke="black" d="M162.74,-503.7C159.36,-496.07 155.3,-486.92 151.53,-478.4"/>
<polygon fill="black" stroke="black" points="154.84,-477.21 147.59,-469.49 148.44,-480.05 154.84,-477.21"/>
</g>
<!-- 3 -->
<g id="node4" class="node">
<title>3</title>
<path fill="none" stroke="black" d="M72.8,-396C72.8,-396 12,-396 12,-396 6,-396 0,-390 0,-384 0,-384 0,-372 0,-372 0,-366 6,-360 12,-360 12,-360 72.8,-360 72.8,-360 78.8,-360 84.8,-366 84.8,-372 84.8,-372 84.8,-384 84.8,-384 84.8,-390 78.8,-396 72.8,-396"/>
<text xml:space="preserve" text-anchor="middle" x="42.4" y="-373.8" font-family="Times,serif" font-size="14.00">Identifier (i)</text>
</g>
<!-- 2&#45;&gt;3 -->
<g id="edge3" class="edge">
<title>2&#45;&gt;3</title>
<path fill="none" stroke="black" d="M115.42,-431.7C103.41,-423.03 88.68,-412.4 75.6,-402.96"/>
<polygon fill="black" stroke="black" points="77.82,-400.25 67.66,-397.23 73.72,-405.92 77.82,-400.25"/>
</g>
<!-- 4 -->
<g id="node5" class="node">
<title>4</title>
<path fill="none" stroke="black" d="M163.97,-396C163.97,-396 114.83,-396 114.83,-396 108.83,-396 102.83,-390 102.83,-384 102.83,-384 102.83,-372 102.83,-372 102.83,-366 108.83,-360 114.83,-360 114.83,-360 163.97,-360 163.97,-360 169.97,-360 175.97,-366 175.97,-372 175.97,-372 175.97,-384 175.97,-384 175.97,-390 169.97,-396 163.97,-396"/>
<text xml:space="preserve" text-anchor="middle" x="139.4" y="-373.8" font-family="Times,serif" font-size="14.00">Literal (0)</text>
</g>
<!-- 2&#45;&gt;4 -->
<g id="edge4" class="edge">
<title>2&#45;&gt;4</title>
<path fill="none" stroke="black" d="M139.4,-431.7C139.4,-424.41 139.4,-415.73 139.4,-407.54"/>
<polygon fill="black" stroke="black" points="142.9,-407.62 139.4,-397.62 135.9,-407.62 142.9,-407.62"/>
</g>
<!-- 6 -->
<g id="node7" class="node">
<title>6</title>
<path fill="none" stroke="black" d="M375.03,-468C375.03,-468 275.77,-468 275.77,-468 269.77,-468 263.77,-462 263.77,-456 263.77,-456 263.77,-444 263.77,-444 263.77,-438 269.77,-432 275.77,-432 275.77,-432 375.03,-432 375.03,-432 381.03,-432 387.03,-438 387.03,-444 387.03,-444 387.03,-456 387.03,-456 387.03,-462 381.03,-468 375.03,-468"/>
<text xml:space="preserve" text-anchor="middle" x="325.4" y="-445.8" font-family="Times,serif" font-size="14.00">VariableDeclarator</text>
</g>
<!-- 5&#45;&gt;6 -->
<g id="edge6" class="edge">
<title>5&#45;&gt;6</title>
<path fill="none" stroke="black" d="M325.4,-503.7C325.4,-496.41 325.4,-487.73 325.4,-479.54"/>
<polygon fill="black" stroke="black" points="328.9,-479.62 325.4,-469.62 321.9,-479.62 328.9,-479.62"/>
</g>
<!-- 7 -->
<g id="node8" class="node">
<title>7</title>
<path fill="none" stroke="black" d="M286.9,-396C286.9,-396 205.89,-396 205.89,-396 199.89,-396 193.89,-390 193.89,-384 193.89,-384 193.89,-372 193.89,-372 193.89,-366 199.89,-360 205.89,-360 205.89,-360 286.9,-360 286.9,-360 292.9,-360 298.9,-366 298.9,-372 298.9,-372 298.9,-384 298.9,-384 298.9,-390 292.9,-396 286.9,-396"/>
<text xml:space="preserve" text-anchor="middle" x="246.4" y="-373.8" font-family="Times,serif" font-size="14.00">Identifier (max)</text>
</g>
<!-- 6&#45;&gt;7 -->
<g id="edge7" class="edge">
<title>6&#45;&gt;7</title>
<path fill="none" stroke="black" d="M305.87,-431.7C296.38,-423.28 284.79,-413.02 274.38,-403.79"/>
<polygon fill="black" stroke="black" points="276.91,-401.36 267.11,-397.35 272.27,-406.6 276.91,-401.36"/>
</g>
<!-- 8 -->
<g id="node9" class="node">
<title>8</title>
<path fill="none" stroke="black" d="M377.97,-396C377.97,-396 328.83,-396 328.83,-396 322.83,-396 316.83,-390 316.83,-384 316.83,-384 316.83,-372 316.83,-372 316.83,-366 322.83,-360 328.83,-360 328.83,-360 377.97,-360 377.97,-360 383.97,-360 389.97,-366 389.97,-372 389.97,-372 389.97,-384 389.97,-384 389.97,-390 383.97,-396 377.97,-396"/>
<text xml:space="preserve" text-anchor="middle" x="353.4" y="-373.8" font-family="Times,serif" font-size="14.00">Literal (5)</text>
</g>
<!-- 6&#45;&gt;8 -->
<g id="edge8" class="edge">
<title>6&#45;&gt;8</title>
<path fill="none" stroke="black" d="M332.32,-431.7C335.34,-424.15 338.95,-415.12 342.33,-406.68"/>
<polygon fill="black" stroke="black" points="345.53,-408.09 345.99,-397.51 339.03,-405.49 345.53,-408.09"/>
</g>
<!-- 10 -->
<g id="node11" class="node">
<title>10</title>
<path fill="none" stroke="black" d="M533.92,-468C533.92,-468 420.88,-468 420.88,-468 414.88,-468 408.88,-462 408.88,-456 408.88,-456 408.88,-444 408.88,-444 408.88,-438 414.88,-432 420.88,-432 420.88,-432 533.92,-432 533.92,-432 539.92,-432 545.92,-438 545.92,-444 545.92,-444 545.92,-456 545.92,-456 545.92,-462 539.92,-468 533.92,-468"/>
<text xml:space="preserve" text-anchor="middle" x="477.4" y="-445.8" font-family="Times,serif" font-size="14.00">BinaryExpression (&lt;)</text>
</g>
<!-- 9&#45;&gt;10 -->
<g id="edge10" class="edge">
<title>9&#45;&gt;10</title>
<path fill="none" stroke="black" d="M477.4,-503.7C477.4,-496.41 477.4,-487.73 477.4,-479.54"/>
<polygon fill="black" stroke="black" points="480.9,-479.62 477.4,-469.62 473.9,-479.62 480.9,-479.62"/>
</g>
<!-- 13 -->
<g id="node14" class="node">
<title>13</title>
<path fill="none" stroke="black" d="M715.11,-468C715.11,-468 633.68,-468 633.68,-468 627.68,-468 621.68,-462 621.68,-456 621.68,-456 621.68,-444 621.68,-444 621.68,-438 627.68,-432 633.68,-432 633.68,-432 715.11,-432 715.11,-432 721.11,-432 727.11,-438 727.11,-444 727.11,-444 727.11,-456 727.11,-456 727.11,-462 721.11,-468 715.11,-468"/>
<text xml:space="preserve" text-anchor="middle" x="674.4" y="-445.8" font-family="Times,serif" font-size="14.00">BlockStatement</text>
</g>
<!-- 9&#45;&gt;13 -->
<g id="edge13" class="edge">
<title>9&#45;&gt;13</title>
<path fill="none" stroke="black" d="M526.6,-503.52C553.38,-494 586.71,-482.16 614.94,-472.13"/>
<polygon fill="black" stroke="black" points="615.8,-475.53 624.06,-468.89 613.46,-468.94 615.8,-475.53"/>
</g>
<!-- 11 -->
<g id="node12" class="node">
<title>11</title>
<path fill="none" stroke="black" d="M480.8,-396C480.8,-396 420,-396 420,-396 414,-396 408,-390 408,-384 408,-384 408,-372 408,-372 408,-366 414,-360 420,-360 420,-360 480.8,-360 480.8,-360 486.8,-360 492.8,-366 492.8,-372 492.8,-372 492.8,-384 492.8,-384 492.8,-390 486.8,-396 480.8,-396"/>
<text xml:space="preserve" text-anchor="middle" x="450.4" y="-373.8" font-family="Times,serif" font-size="14.00">Identifier (i)</text>
</g>
<!-- 10&#45;&gt;11 -->
<g id="edge11" class="edge">
<title>10&#45;&gt;11</title>
<path fill="none" stroke="black" d="M470.72,-431.7C467.81,-424.15 464.33,-415.12 461.08,-406.68"/>
<polygon fill="black" stroke="black" points="464.4,-405.59 457.54,-397.52 457.87,-408.11 464.4,-405.59"/>
</g>
<!-- 12 -->
<g id="node13" class="node">
<title>12</title>
<path fill="none" stroke="black" d="M603.9,-396C603.9,-396 522.89,-396 522.89,-396 516.89,-396 510.89,-390 510.89,-384 510.89,-384 510.89,-372 510.89,-372 510.89,-366 516.89,-360 522.89,-360 522.89,-360 603.9,-360 603.9,-360 609.9,-360 615.9,-366 615.9,-372 615.9,-372 615.9,-384 615.9,-384 615.9,-390 609.9,-396 603.9,-396"/>
<text xml:space="preserve" text-anchor="middle" x="563.4" y="-373.8" font-family="Times,serif" font-size="14.00">Identifier (max)</text>
</g>
<!-- 10&#45;&gt;12 -->
<g id="edge12" class="edge">
<title>10&#45;&gt;12</title>
<path fill="none" stroke="black" d="M498.66,-431.7C509.1,-423.2 521.86,-412.81 533.28,-403.51"/>
<polygon fill="black" stroke="black" points="535.37,-406.33 540.91,-397.3 530.95,-400.9 535.37,-406.33"/>
</g>
<!-- 14 -->
<g id="node15" class="node">
<title>14</title>
<path fill="none" stroke="black" d="M703.05,-396C703.05,-396 645.74,-396 645.74,-396 639.74,-396 633.74,-390 633.74,-384 633.74,-384 633.74,-372 633.74,-372 633.74,-366 639.74,-360 645.74,-360 645.74,-360 703.05,-360 703.05,-360 709.05,-360 715.05,-366 715.05,-372 715.05,-372 715.05,-384 715.05,-384 715.05,-390 709.05,-396 703.05,-396"/>
<text xml:space="preserve" text-anchor="middle" x="674.4" y="-373.8" font-family="Times,serif" font-size="14.00">IfStatement</text>
</g>
<!-- 13&#45;&gt;14 -->
<g id="edge14" class="edge">
<title>13&#45;&gt;14</title>
<path fill="none" stroke="black" d="M674.4,-431.7C674.4,-424.41 674.4,-415.73 674.4,-407.54"/>
<polygon fill="black" stroke="black" points="677.9,-407.62 674.4,-397.62 670.9,-407.62 677.9,-407.62"/>
</g>
<!-- 30 -->
<g id="node31" class="node">
<title>30</title>
<path fill="none" stroke="black" d="M925.5,-396C925.5,-396 815.3,-396 815.3,-396 809.3,-396 803.3,-390 803.3,-384 803.3,-384 803.3,-372 803.3,-372 803.3,-366 809.3,-360 815.3,-360 815.3,-360 925.5,-360 925.5,-360 931.5,-360 937.5,-366 937.5,-372 937.5,-372 937.5,-384 937.5,-384 937.5,-390 931.5,-396 925.5,-396"/>
<text xml:space="preserve" text-anchor="middle" x="870.4" y="-373.8" font-family="Times,serif" font-size="14.00">ExpressionStatement</text>
</g>
<!-- 13&#45;&gt;30 -->
<g id="edge30" class="edge">
<title>13&#45;&gt;30</title>
<path fill="none" stroke="black" d="M723.35,-431.52C750,-422 783.16,-410.16 811.24,-400.13"/>
<polygon fill="black" stroke="black" points="812.06,-403.55 820.3,-396.89 809.71,-396.96 812.06,-403.55"/>
</g>
<!-- 15 -->
<g id="node16" class="node">
<title>15</title>
<path fill="none" stroke="black" d="M529.86,-324C529.86,-324 408.93,-324 408.93,-324 402.93,-324 396.93,-318 396.93,-312 396.93,-312 396.93,-300 396.93,-300 396.93,-294 402.93,-288 408.93,-288 408.93,-288 529.86,-288 529.86,-288 535.86,-288 541.86,-294 541.86,-300 541.86,-300 541.86,-312 541.86,-312 541.86,-318 535.86,-324 529.86,-324"/>
<text xml:space="preserve" text-anchor="middle" x="469.4" y="-301.8" font-family="Times,serif" font-size="14.00">BinaryExpression (==)</text>
</g>
<!-- 14&#45;&gt;15 -->
<g id="edge15" class="edge">
<title>14&#45;&gt;15</title>
<path fill="none" stroke="black" d="M633.5,-362.79C630.76,-361.84 628.04,-360.91 625.4,-360 594.57,-349.42 560.28,-337.75 531.72,-328.07"/>
<polygon fill="black" stroke="black" points="533.1,-324.84 522.51,-324.95 530.85,-331.47 533.1,-324.84"/>
</g>
<!-- 18 -->
<g id="node19" class="node">
<title>18</title>
<path fill="none" stroke="black" d="M653.11,-324C653.11,-324 571.68,-324 571.68,-324 565.68,-324 559.68,-318 559.68,-312 559.68,-312 559.68,-300 559.68,-300 559.68,-294 565.68,-288 571.68,-288 571.68,-288 653.11,-288 653.11,-288 659.11,-288 665.11,-294 665.11,-300 665.11,-300 665.11,-312 665.11,-312 665.11,-318 659.11,-324 653.11,-324"/>
<text xml:space="preserve" text-anchor="middle" x="612.4" y="-301.8" font-family="Times,serif" font-size="14.00">BlockStatement</text>
</g>
<!-- 14&#45;&gt;18 -->
<g id="edge18" class="edge">
<title>14&#45;&gt;18</title>
<path fill="none" stroke="black" d="M659.07,-359.7C651.86,-351.56 643.12,-341.69 635.16,-332.7"/>
<polygon fill="black" stroke="black" points="637.8,-330.4 628.55,-325.24 632.56,-335.04 637.8,-330.4"/>
</g>
<!-- 23 -->
<g id="node24" class="node">
<title>23</title>
<path fill="none" stroke="black" d="M776.11,-324C776.11,-324 694.68,-324 694.68,-324 688.68,-324 682.68,-318 682.68,-312 682.68,-312 682.68,-300 682.68,-300 682.68,-294 688.68,-288 694.68,-288 694.68,-288 776.11,-288 776.11,-288 782.11,-288 788.11,-294 788.11,-300 788.11,-300 788.11,-312 788.11,-312 788.11,-318 782.11,-324 776.11,-324"/>
<text xml:space="preserve" text-anchor="middle" x="735.4" y="-301.8" font-family="Times,serif" font-size="14.00">BlockStatement</text>
</g>
<!-- 14&#45;&gt;23 -->
<g id="edge23" class="edge">
<title>14&#45;&gt;23</title>
<path fill="none" stroke="black" d="M689.48,-359.7C696.57,-351.56 705.17,-341.69 713,-332.7"/>
<polygon fill="black" stroke="black" points="715.57,-335.08 719.5,-325.25 710.29,-330.49 715.57,-335.08"/>
</g>
<!-- 16 -->
<g id="node17" class="node">
<title>16</title>
<path fill="none" stroke="black" d="M408.8,-252C408.8,-252 348,-252 348,-252 342,-252 336,-246 336,-240 336,-240 336,-228 336,-228 336,-222 342,-216 348,-216 348,-216 408.8,-216 408.8,-216 414.8,-216 420.8,-222 420.8,-228 420.8,-228 420.8,-240 420.8,-240 420.8,-246 414.8,-252 408.8,-252"/>
<text xml:space="preserve" text-anchor="middle" x="378.4" y="-229.8" font-family="Times,serif" font-size="14.00">Identifier (i)</text>
</g>
<!-- 15&#45;&gt;16 -->
<g id="edge16" class="edge">
<title>15&#45;&gt;16</title>
<path fill="none" stroke="black" d="M446.9,-287.7C435.75,-279.11 422.09,-268.61 409.91,-259.24"/>
<polygon fill="black" stroke="black" points="412.21,-256.59 402.15,-253.27 407.94,-262.14 412.21,-256.59"/>
</g>
<!-- 17 -->
<g id="node18" class="node">
<title>17</title>
<path fill="none" stroke="black" d="M499.97,-252C499.97,-252 450.83,-252 450.83,-252 444.83,-252 438.83,-246 438.83,-240 438.83,-240 438.83,-228 438.83,-228 438.83,-222 444.83,-216 450.83,-216 450.83,-216 499.97,-216 499.97,-216 505.97,-216 511.97,-222 511.97,-228 511.97,-228 511.97,-240 511.97,-240 511.97,-246 505.97,-252 499.97,-252"/>
<text xml:space="preserve" text-anchor="middle" x="475.4" y="-229.8" font-family="Times,serif" font-size="14.00">Literal (2)</text>
</g>
<!-- 15&#45;&gt;17 -->
<g id="edge17" class="edge">
<title>15&#45;&gt;17</title>
<path fill="none" stroke="black" d="M470.88,-287.7C471.51,-280.41 472.25,-271.73 472.95,-263.54"/>
<polygon fill="black" stroke="black" points="476.44,-263.87 473.8,-253.61 469.46,-263.28 476.44,-263.87"/>
</g>
<!-- 19 -->
<g id="node20" class="node">
<title>19</title>
<path fill="none" stroke="black" d="M652.5,-252C652.5,-252 542.3,-252 542.3,-252 536.3,-252 530.3,-246 530.3,-240 530.3,-240 530.3,-228 530.3,-228 530.3,-222 536.3,-216 542.3,-216 542.3,-216 652.5,-216 652.5,-216 658.5,-216 664.5,-222 664.5,-228 664.5,-228 664.5,-240 664.5,-240 664.5,-246 658.5,-252 652.5,-252"/>
<text xml:space="preserve" text-anchor="middle" x="597.4" y="-229.8" font-family="Times,serif" font-size="14.00">ExpressionStatement</text>
</g>
<!-- 18&#45;&gt;19 -->
<g id="edge19" class="edge">
<title>18&#45;&gt;19</title>
<path fill="none" stroke="black" d="M608.69,-287.7C607.11,-280.32 605.23,-271.52 603.45,-263.25"/>
<polygon fill="black" stroke="black" points="606.9,-262.63 601.38,-253.58 600.05,-264.1 606.9,-262.63"/>
</g>
<!-- 20 -->
<g id="node21" class="node">
<title>20</title>
<path fill="none" stroke="black" d="M634.17,-180C634.17,-180 556.63,-180 556.63,-180 550.63,-180 544.63,-174 544.63,-168 544.63,-168 544.63,-156 544.63,-156 544.63,-150 550.63,-144 556.63,-144 556.63,-144 634.17,-144 634.17,-144 640.17,-144 646.17,-150 646.17,-156 646.17,-156 646.17,-168 646.17,-168 646.17,-174 640.17,-180 634.17,-180"/>
<text xml:space="preserve" text-anchor="middle" x="595.4" y="-157.8" font-family="Times,serif" font-size="14.00">CallExpression</text>
</g>
<!-- 19&#45;&gt;20 -->
<g id="edge20" class="edge">
<title>19&#45;&gt;20</title>
<path fill="none" stroke="black" d="M596.9,-215.7C596.7,-208.41 596.45,-199.73 596.21,-191.54"/>
<polygon fill="black" stroke="black" points="599.71,-191.51 595.93,-181.62 592.72,-191.71 599.71,-191.51"/>
</g>
<!-- 21 -->
<g id="node22" class="node">
<title>21</title>
<path fill="none" stroke="black" d="M494.93,-108C494.93,-108 373.87,-108 373.87,-108 367.87,-108 361.87,-102 361.87,-96 361.87,-96 361.87,-84 361.87,-84 361.87,-78 367.87,-72 373.87,-72 373.87,-72 494.93,-72 494.93,-72 500.93,-72 506.93,-78 506.93,-84 506.93,-84 506.93,-96 506.93,-96 506.93,-102 500.93,-108 494.93,-108"/>
<text xml:space="preserve" text-anchor="middle" x="434.4" y="-85.8" font-family="Times,serif" font-size="14.00">Identifier (console.log)</text>
</g>
<!-- 20&#45;&gt;21 -->
<g id="edge21" class="edge">
<title>20&#45;&gt;21</title>
<path fill="none" stroke="black" d="M555.19,-143.52C533.88,-134.25 507.5,-122.78 484.83,-112.93"/>
<polygon fill="black" stroke="black" points="486.33,-109.76 475.76,-108.99 483.54,-116.18 486.33,-109.76"/>
</g>
<!-- 22 -->
<g id="node23" class="node">
<title>22</title>
<path fill="none" stroke="black" d="M654.18,-108C654.18,-108 536.62,-108 536.62,-108 530.62,-108 524.62,-102 524.62,-96 524.62,-96 524.62,-84 524.62,-84 524.62,-78 530.62,-72 536.62,-72 536.62,-72 654.18,-72 654.18,-72 660.18,-72 666.18,-78 666.18,-84 666.18,-84 666.18,-96 666.18,-96 666.18,-102 660.18,-108 654.18,-108"/>
<text xml:space="preserve" text-anchor="middle" x="595.4" y="-85.8" font-family="Times,serif" font-size="14.00">Literal (Encontrei o 2)</text>
</g>
<!-- 20&#45;&gt;22 -->
<g id="edge22" class="edge">
<title>20&#45;&gt;22</title>
<path fill="none" stroke="black" d="M595.4,-143.7C595.4,-136.41 595.4,-127.73 595.4,-119.54"/>
<polygon fill="black" stroke="black" points="598.9,-119.62 595.4,-109.62 591.9,-119.62 598.9,-119.62"/>
</g>
<!-- 24 -->
<g id="node25" class="node">
<title>24</title>
<path fill="none" stroke="black" d="M807.5,-252C807.5,-252 697.3,-252 697.3,-252 691.3,-252 685.3,-246 685.3,-240 685.3,-240 685.3,-228 685.3,-228 685.3,-222 691.3,-216 697.3,-216 697.3,-216 807.5,-216 807.5,-216 813.5,-216 819.5,-222 819.5,-228 819.5,-228 819.5,-240 819.5,-240 819.5,-246 813.5,-252 807.5,-252"/>
<text xml:space="preserve" text-anchor="middle" x="752.4" y="-229.8" font-family="Times,serif" font-size="14.00">ExpressionStatement</text>
</g>
<!-- 23&#45;&gt;24 -->
<g id="edge24" class="edge">
<title>23&#45;&gt;24</title>
<path fill="none" stroke="black" d="M739.6,-287.7C741.39,-280.32 743.53,-271.52 745.54,-263.25"/>
<polygon fill="black" stroke="black" points="748.93,-264.12 747.89,-253.58 742.13,-262.47 748.93,-264.12"/>
</g>
<!-- 25 -->
<g id="node26" class="node">
<title>25</title>
<path fill="none" stroke="black" d="M795.17,-180C795.17,-180 717.63,-180 717.63,-180 711.63,-180 705.63,-174 705.63,-168 705.63,-168 705.63,-156 705.63,-156 705.63,-150 711.63,-144 717.63,-144 717.63,-144 795.17,-144 795.17,-144 801.17,-144 807.17,-150 807.17,-156 807.17,-156 807.17,-168 807.17,-168 807.17,-174 801.17,-180 795.17,-180"/>
<text xml:space="preserve" text-anchor="middle" x="756.4" y="-157.8" font-family="Times,serif" font-size="14.00">CallExpression</text>
</g>
<!-- 24&#45;&gt;25 -->
<g id="edge25" class="edge">
<title>24&#45;&gt;25</title>
<path fill="none" stroke="black" d="M753.39,-215.7C753.8,-208.41 754.3,-199.73 754.77,-191.54"/>
<polygon fill="black" stroke="black" points="758.26,-191.8 755.33,-181.62 751.27,-191.4 758.26,-191.8"/>
</g>
<!-- 26 -->
<g id="node27" class="node">
<title>26</title>
<path fill="none" stroke="black" d="M816.93,-108C816.93,-108 695.87,-108 695.87,-108 689.87,-108 683.87,-102 683.87,-96 683.87,-96 683.87,-84 683.87,-84 683.87,-78 689.87,-72 695.87,-72 695.87,-72 816.93,-72 816.93,-72 822.93,-72 828.93,-78 828.93,-84 828.93,-84 828.93,-96 828.93,-96 828.93,-102 822.93,-108 816.93,-108"/>
<text xml:space="preserve" text-anchor="middle" x="756.4" y="-85.8" font-family="Times,serif" font-size="14.00">Identifier (console.log)</text>
</g>
<!-- 25&#45;&gt;26 -->
<g id="edge26" class="edge">
<title>25&#45;&gt;26</title>
<path fill="none" stroke="black" d="M756.4,-143.7C756.4,-136.41 756.4,-127.73 756.4,-119.54"/>
<polygon fill="black" stroke="black" points="759.9,-119.62 756.4,-109.62 752.9,-119.62 759.9,-119.62"/>
</g>
<!-- 27 -->
<g id="node28" class="node">
<title>27</title>
<path fill="none" stroke="black" d="M971.92,-108C971.92,-108 858.88,-108 858.88,-108 852.88,-108 846.88,-102 846.88,-96 846.88,-96 846.88,-84 846.88,-84 846.88,-78 852.88,-72 858.88,-72 858.88,-72 971.92,-72 971.92,-72 977.92,-72 983.92,-78 983.92,-84 983.92,-84 983.92,-96 983.92,-96 983.92,-102 977.92,-108 971.92,-108"/>
<text xml:space="preserve" text-anchor="middle" x="915.4" y="-85.8" font-family="Times,serif" font-size="14.00">BinaryExpression (+)</text>
</g>
<!-- 25&#45;&gt;27 -->
<g id="edge27" class="edge">
<title>25&#45;&gt;27</title>
<path fill="none" stroke="black" d="M796.11,-143.52C817.15,-134.25 843.21,-122.78 865.59,-112.93"/>
<polygon fill="black" stroke="black" points="866.79,-116.22 874.53,-108.99 863.97,-109.82 866.79,-116.22"/>
</g>
<!-- 28 -->
<g id="node29" class="node">
<title>28</title>
<path fill="none" stroke="black" d="M903.48,-36C903.48,-36 807.32,-36 807.32,-36 801.32,-36 795.32,-30 795.32,-24 795.32,-24 795.32,-12 795.32,-12 795.32,-6 801.32,0 807.32,0 807.32,0 903.48,0 903.48,0 909.48,0 915.48,-6 915.48,-12 915.48,-12 915.48,-24 915.48,-24 915.48,-30 909.48,-36 903.48,-36"/>
<text xml:space="preserve" text-anchor="middle" x="855.4" y="-13.8" font-family="Times,serif" font-size="14.00">Literal (Iteração: )</text>
</g>
<!-- 27&#45;&gt;28 -->
<g id="edge28" class="edge">
<title>27&#45;&gt;28</title>
<path fill="none" stroke="black" d="M900.57,-71.7C893.59,-63.56 885.13,-53.69 877.43,-44.7"/>
<polygon fill="black" stroke="black" points="880.21,-42.57 871.04,-37.25 874.89,-47.12 880.21,-42.57"/>
</g>
<!-- 29 -->
<g id="node30" class="node">
<title>29</title>
<path fill="none" stroke="black" d="M1005.8,-36C1005.8,-36 945,-36 945,-36 939,-36 933,-30 933,-24 933,-24 933,-12 933,-12 933,-6 939,0 945,0 945,0 1005.8,0 1005.8,0 1011.8,0 1017.8,-6 1017.8,-12 1017.8,-12 1017.8,-24 1017.8,-24 1017.8,-30 1011.8,-36 1005.8,-36"/>
<text xml:space="preserve" text-anchor="middle" x="975.4" y="-13.8" font-family="Times,serif" font-size="14.00">Identifier (i)</text>
</g>
<!-- 27&#45;&gt;29 -->
<g id="edge29" class="edge">
<title>27&#45;&gt;29</title>
<path fill="none" stroke="black" d="M930.23,-71.7C937.21,-63.56 945.66,-53.69 953.37,-44.7"/>
<polygon fill="black" stroke="black" points="955.9,-47.12 959.75,-37.25 950.59,-42.57 955.9,-47.12"/>
</g>
<!-- 31 -->
<g id="node32" class="node">
<title>31</title>
<path fill="none" stroke="black" d="M941.03,-324C941.03,-324 817.77,-324 817.77,-324 811.77,-324 805.77,-318 805.77,-312 805.77,-312 805.77,-300 805.77,-300 805.77,-294 811.77,-288 817.77,-288 817.77,-288 941.03,-288 941.03,-288 947.03,-288 953.03,-294 953.03,-300 953.03,-300 953.03,-312 953.03,-312 953.03,-318 947.03,-324 941.03,-324"/>
<text xml:space="preserve" text-anchor="middle" x="879.4" y="-301.8" font-family="Times,serif" font-size="14.00">UpdateExpression (++)</text>
</g>
<!-- 30&#45;&gt;31 -->
<g id="edge31" class="edge">
<title>30&#45;&gt;31</title>
<path fill="none" stroke="black" d="M872.62,-359.7C873.57,-352.32 874.7,-343.52 875.77,-335.25"/>
<polygon fill="black" stroke="black" points="879.2,-335.97 877.01,-325.61 872.26,-335.08 879.2,-335.97"/>
</g>
<!-- 32 -->
<g id="node33" class="node">
<title>32</title>
<path fill="none" stroke="black" d="M909.8,-252C909.8,-252 849,-252 849,-252 843,-252 837,-246 837,-240 837,-240 837,-228 837,-228 837,-222 843,-216 849,-216 849,-216 909.8,-216 909.8,-216 915.8,-216 921.8,-222 921.8,-228 921.8,-228 921.8,-240 921.8,-240 921.8,-246 915.8,-252 909.8,-252"/>
<text xml:space="preserve" text-anchor="middle" x="879.4" y="-229.8" font-family="Times,serif" font-size="14.00">Identifier (i)</text>
</g>
<!-- 31&#45;&gt;32 -->
<g id="edge32" class="edge">
<title>31&#45;&gt;32</title>
<path fill="none" stroke="black" d="M879.4,-287.7C879.4,-280.41 879.4,-271.73 879.4,-263.54"/>
<polygon fill="black" stroke="black" points="882.9,-263.62 879.4,-253.62 875.9,-263.62 882.9,-263.62"/>
</g>
</g>
</svg>
