<?xml version="1.0" encoding="UTF-8" standalone="no"?>
<!DOCTYPE svg PUBLIC "-//W3C//DTD SVG 1.1//EN"
 "http://www.w3.org/Graphics/SVG/1.1/DTD/svg11.dtd">
<!-- Generated by graphviz version 14.0.2 (0)
 -->
<!-- Title: AST Pages: 1 -->
<svg width="1704pt" height="332pt"
 viewBox="0.00 0.00 1704.00 332.00" xmlns="http://www.w3.org/2000/svg" xmlns:xlink="http://www.w3.org/1999/xlink">
<g id="graph0" class="graph" transform="scale(1 1) rotate(0) translate(4 328)">
<title>AST</title>
<polygon fill="white" stroke="none" points="-4,4 -4,-328 1699.79,-328 1699.79,4 -4,4"/>
<!-- 0 -->
<g id="node1" class="node">
<title>0</title>
<path fill="none" stroke="black" d="M705.67,-324C705.67,-324 665.45,-324 665.45,-324 659.45,-324 653.45,-318 653.45,-312 653.45,-312 653.45,-300 653.45,-300 653.45,-294 659.45,-288 665.45,-288 665.45,-288 705.67,-288 705.67,-288 711.67,-288 717.67,-294 717.67,-300 717.67,-300 717.67,-312 717.67,-312 717.67,-318 711.67,-324 705.67,-324"/>
<text xml:space="preserve" text-anchor="middle" x="685.56" y="-301.8" font-family="Times,serif" font-size="14.00">Program</text>
</g>
<!-- 1 -->
<g id="node2" class="node">
<title>1</title>
<path fill="none" stroke="black" d="M242.31,-252C242.31,-252 136.82,-252 136.82,-252 130.82,-252 124.82,-246 124.82,-240 124.82,-240 124.82,-228 124.82,-228 124.82,-222 130.82,-216 136.82,-216 136.82,-216 242.31,-216 242.31,-216 248.31,-216 254.31,-222 254.31,-228 254.31,-228 254.31,-240 254.31,-240 254.31,-246 248.31,-252 242.31,-252"/>
<text xml:space="preserve" text-anchor="middle" x="189.56" y="-229.8" font-family="Times,serif" font-size="14.00">VariableDeclaration</text>
</g>
<!-- 0&#45;&gt;1 -->
<g id="edge1" class="edge">
<title>0&#45;&gt;1</title>
<path fill="none" stroke="black" d="M653.02,-300.41C575.06,-289.41 375.95,-261.31 265.77,-245.76"/>
<polygon fill="black" stroke="black" points="266.31,-242.3 255.92,-244.37 265.33,-249.23 266.31,-242.3"/>
</g>
<!-- 5 -->
<g id="node6" class="node">
<title>5</title>
<path fill="none" stroke="black" d="M471.31,-252C471.31,-252 365.82,-252 365.82,-252 359.82,-252 353.82,-246 353.82,-240 353.82,-240 353.82,-228 353.82,-228 353.82,-222 359.82,-216 365.82,-216 365.82,-216 471.31,-216 471.31,-216 477.31,-216 483.31,-222 483.31,-228 483.31,-228 483.31,-240 483.31,-240 483.31,-246 477.31,-252 471.31,-252"/>
<text xml:space="preserve" text-anchor="middle" x="418.56" y="-229.8" font-family="Times,serif" font-size="14.00">VariableDeclaration</text>
</g>
<!-- 0&#45;&gt;5 -->
<g id="edge5" class="edge">
<title>0&#45;&gt;5</title>
<path fill="none" stroke="black" d="M653.09,-296.49C613.97,-286.23 546.98,-268.67 494.59,-254.93"/>
<polygon fill="black" stroke="black" points="495.67,-251.6 485.11,-252.45 493.89,-258.37 495.67,-251.6"/>
</g>
<!-- 9 -->
<g id="node10" class="node">
<title>9</title>
<path fill="none" stroke="black" d="M659.31,-252C659.31,-252 553.82,-252 553.82,-252 547.82,-252 541.82,-246 541.82,-240 541.82,-240 541.82,-228 541.82,-228 541.82,-222 547.82,-216 553.82,-216 553.82,-216 659.31,-216 659.31,-216 665.31,-216 671.31,-222 671.31,-228 671.31,-228 671.31,-240 671.31,-240 671.31,-246 665.31,-252 659.31,-252"/>
<text xml:space="preserve" text-anchor="middle" x="606.56" y="-229.8" font-family="Times,serif" font-size="14.00">VariableDeclaration</text>
</g>
<!-- 0&#45;&gt;9 -->
<g id="edge9" class="edge">
<title>0&#45;&gt;9</title>
<path fill="none" stroke="black" d="M666.03,-287.7C656.54,-279.28 644.95,-269.02 634.54,-259.79"/>
<polygon fill="black" stroke="black" points="637.08,-257.36 627.27,-253.35 632.43,-262.6 637.08,-257.36"/>
</g>
<!-- 15 -->
<g id="node16" class="node">
<title>15</title>
<path fill="none" stroke="black" d="M814.66,-252C814.66,-252 704.46,-252 704.46,-252 698.46,-252 692.46,-246 692.46,-240 692.46,-240 692.46,-228 692.46,-228 692.46,-222 698.46,-216 704.46,-216 704.46,-216 814.66,-216 814.66,-216 820.66,-216 826.66,-222 826.66,-228 826.66,-228 826.66,-240 826.66,-240 826.66,-246 820.66,-252 814.66,-252"/>
<text xml:space="preserve" text-anchor="middle" x="759.56" y="-229.8" font-family="Times,serif" font-size="14.00">ExpressionStatement</text>
</g>
<!-- 0&#45;&gt;15 -->
<g id="edge15" class="edge">
<title>0&#45;&gt;15</title>
<path fill="none" stroke="black" d="M703.85,-287.7C712.66,-279.37 723.38,-269.22 733.06,-260.07"/>
<polygon fill="black" stroke="black" points="735.26,-262.8 740.12,-253.39 730.45,-257.72 735.26,-262.8"/>
</g>
<!-- 21 -->
<g id="node22" class="node">
<title>21</title>
<path fill="none" stroke="black" d="M1051.66,-252C1051.66,-252 941.46,-252 941.46,-252 935.46,-252 929.46,-246 929.46,-240 929.46,-240 929.46,-228 929.46,-228 929.46,-222 935.46,-216 941.46,-216 941.46,-216 1051.66,-216 1051.66,-216 1057.66,-216 1063.66,-222 1063.66,-228 1063.66,-228 1063.66,-240 1063.66,-240 1063.66,-246 1057.66,-252 1051.66,-252"/>
<text xml:space="preserve" text-anchor="middle" x="996.56" y="-229.8" font-family="Times,serif" font-size="14.00">ExpressionStatement</text>
</g>
<!-- 0&#45;&gt;21 -->
<g id="edge21" class="edge">
<title>0&#45;&gt;21</title>
<path fill="none" stroke="black" d="M717.96,-297.71C764.95,-287.13 853.45,-267.21 918.13,-252.65"/>
<polygon fill="black" stroke="black" points="918.64,-256.13 927.63,-250.51 917.11,-249.3 918.64,-256.13"/>
</g>
<!-- 27 -->
<g id="node28" class="node">
<title>27</title>
<path fill="none" stroke="black" d="M1329.66,-252C1329.66,-252 1219.46,-252 1219.46,-252 1213.46,-252 1207.46,-246 1207.46,-240 1207.46,-240 1207.46,-228 1207.46,-228 1207.46,-222 1213.46,-216 1219.46,-216 1219.46,-216 1329.66,-216 1329.66,-216 1335.66,-216 1341.66,-222 1341.66,-228 1341.66,-228 1341.66,-240 1341.66,-240 1341.66,-246 1335.66,-252 1329.66,-252"/>
<text xml:space="preserve" text-anchor="middle" x="1274.56" y="-229.8" font-family="Times,serif" font-size="14.00">ExpressionStatement</text>
</g>
<!-- 0&#45;&gt;27 -->
<g id="edge27" class="edge">
<title>0&#45;&gt;27</title>
<path fill="none" stroke="black" d="M718.07,-301.14C808.64,-290.37 1065.75,-259.82 1196.36,-244.29"/>
<polygon fill="black" stroke="black" points="1196.43,-247.81 1205.94,-243.15 1195.6,-240.86 1196.43,-247.81"/>
</g>
<!-- 2 -->
<g id="node3" class="node">
<title>2</title>
<path fill="none" stroke="black" d="M195.19,-180C195.19,-180 95.93,-180 95.93,-180 89.93,-180 83.93,-174 83.93,-168 83.93,-168 83.93,-156 83.93,-156 83.93,-150 89.93,-144 95.93,-144 95.93,-144 195.19,-144 195.19,-144 201.19,-144 207.19,-150 207.19,-156 207.19,-156 207.19,-168 207.19,-168 207.19,-174 201.19,-180 195.19,-180"/>
<text xml:space="preserve" text-anchor="middle" x="145.56" y="-157.8" font-family="Times,serif" font-size="14.00">VariableDeclarator</text>
</g>
<!-- 1&#45;&gt;2 -->
<g id="edge2" class="edge">
<title>1&#45;&gt;2</title>
<path fill="none" stroke="black" d="M178.68,-215.7C173.78,-207.9 167.88,-198.51 162.42,-189.83"/>
<polygon fill="black" stroke="black" points="165.4,-187.99 157.12,-181.39 159.48,-191.71 165.4,-187.99"/>
</g>
<!-- 3 -->
<g id="node4" class="node">
<title>3</title>
<path fill="none" stroke="black" d="M75.12,-108C75.12,-108 12,-108 12,-108 6,-108 0,-102 0,-96 0,-96 0,-84 0,-84 0,-78 6,-72 12,-72 12,-72 75.12,-72 75.12,-72 81.12,-72 87.12,-78 87.12,-84 87.12,-84 87.12,-96 87.12,-96 87.12,-102 81.12,-108 75.12,-108"/>
<text xml:space="preserve" text-anchor="middle" x="43.56" y="-85.8" font-family="Times,serif" font-size="14.00">Identifier (a)</text>
</g>
<!-- 2&#45;&gt;3 -->
<g id="edge3" class="edge">
<title>2&#45;&gt;3</title>
<path fill="none" stroke="black" d="M120.08,-143.52C107.33,-134.76 91.71,-124.04 77.91,-114.58"/>
<polygon fill="black" stroke="black" points="80.19,-111.89 69.96,-109.12 76.22,-117.66 80.19,-111.89"/>
</g>
<!-- 4 -->
<g id="node5" class="node">
<title>4</title>
<path fill="none" stroke="black" d="M173.63,-108C173.63,-108 117.49,-108 117.49,-108 111.49,-108 105.49,-102 105.49,-96 105.49,-96 105.49,-84 105.49,-84 105.49,-78 111.49,-72 117.49,-72 117.49,-72 173.63,-72 173.63,-72 179.63,-72 185.63,-78 185.63,-84 185.63,-84 185.63,-96 185.63,-96 185.63,-102 179.63,-108 173.63,-108"/>
<text xml:space="preserve" text-anchor="middle" x="145.56" y="-85.8" font-family="Times,serif" font-size="14.00">Literal (10)</text>
</g>
<!-- 2&#45;&gt;4 -->
<g id="edge4" class="edge">
<title>2&#45;&gt;4</title>
<path fill="none" stroke="black" d="M145.56,-143.7C145.56,-136.41 145.56,-127.73 145.56,-119.54"/>
<polygon fill="black" stroke="black" points="149.06,-119.62 145.56,-109.62 142.06,-119.62 149.06,-119.62"/>
</g>
<!-- 6 -->
<g id="node7" class="node">
<title>6</title>
<path fill="none" stroke="black" d="M399.19,-180C399.19,-180 299.93,-180 299.93,-180 293.93,-180 287.93,-174 287.93,-168 287.93,-168 287.93,-156 287.93,-156 287.93,-150 293.93,-144 299.93,-144 299.93,-144 399.19,-144 399.19,-144 405.19,-144 411.19,-150 411.19,-156 411.19,-156 411.19,-168 411.19,-168 411.19,-174 405.19,-180 399.19,-180"/>
<text xml:space="preserve" text-anchor="middle" x="349.56" y="-157.8" font-family="Times,serif" font-size="14.00">VariableDeclarator</text>
</g>
<!-- 5&#45;&gt;6 -->
<g id="edge6" class="edge">
<title>5&#45;&gt;6</title>
<path fill="none" stroke="black" d="M401.5,-215.7C393.32,-207.39 383.35,-197.28 374.34,-188.14"/>
<polygon fill="black" stroke="black" points="377,-185.85 367.48,-181.18 372.01,-190.76 377,-185.85"/>
</g>
<!-- 7 -->
<g id="node8" class="node">
<title>7</title>
<path fill="none" stroke="black" d="M279.51,-108C279.51,-108 215.61,-108 215.61,-108 209.61,-108 203.61,-102 203.61,-96 203.61,-96 203.61,-84 203.61,-84 203.61,-78 209.61,-72 215.61,-72 215.61,-72 279.51,-72 279.51,-72 285.51,-72 291.51,-78 291.51,-84 291.51,-84 291.51,-96 291.51,-96 291.51,-102 285.51,-108 279.51,-108"/>
<text xml:space="preserve" text-anchor="middle" x="247.56" y="-85.8" font-family="Times,serif" font-size="14.00">Identifier (b)</text>
</g>
<!-- 6&#45;&gt;7 -->
<g id="edge7" class="edge">
<title>6&#45;&gt;7</title>
<path fill="none" stroke="black" d="M324.08,-143.52C311.33,-134.76 295.71,-124.04 281.91,-114.58"/>
<polygon fill="black" stroke="black" points="284.19,-111.89 273.96,-109.12 280.22,-117.66 284.19,-111.89"/>
</g>
<!-- 8 -->
<g id="node9" class="node">
<title>8</title>
<path fill="none" stroke="black" d="M377.63,-108C377.63,-108 321.49,-108 321.49,-108 315.49,-108 309.49,-102 309.49,-96 309.49,-96 309.49,-84 309.49,-84 309.49,-78 315.49,-72 321.49,-72 321.49,-72 377.63,-72 377.63,-72 383.63,-72 389.63,-78 389.63,-84 389.63,-84 389.63,-96 389.63,-96 389.63,-102 383.63,-108 377.63,-108"/>
<text xml:space="preserve" text-anchor="middle" x="349.56" y="-85.8" font-family="Times,serif" font-size="14.00">Literal (20)</text>
</g>
<!-- 6&#45;&gt;8 -->
<g id="edge8" class="edge">
<title>6&#45;&gt;8</title>
<path fill="none" stroke="black" d="M349.56,-143.7C349.56,-136.41 349.56,-127.73 349.56,-119.54"/>
<polygon fill="black" stroke="black" points="353.06,-119.62 349.56,-109.62 346.06,-119.62 353.06,-119.62"/>
</g>
<!-- 10 -->
<g id="node11" class="node">
<title>10</title>
<path fill="none" stroke="black" d="M654.19,-180C654.19,-180 554.93,-180 554.93,-180 548.93,-180 542.93,-174 542.93,-168 542.93,-168 542.93,-156 542.93,-156 542.93,-150 548.93,-144 554.93,-144 554.93,-144 654.19,-144 654.19,-144 660.19,-144 666.19,-150 666.19,-156 666.19,-156 666.19,-168 666.19,-168 666.19,-174 660.19,-180 654.19,-180"/>
<text xml:space="preserve" text-anchor="middle" x="604.56" y="-157.8" font-family="Times,serif" font-size="14.00">VariableDeclarator</text>
</g>
<!-- 9&#45;&gt;10 -->
<g id="edge10" class="edge">
<title>9&#45;&gt;10</title>
<path fill="none" stroke="black" d="M606.07,-215.7C605.86,-208.41 605.61,-199.73 605.38,-191.54"/>
<polygon fill="black" stroke="black" points="608.88,-191.51 605.09,-181.62 601.88,-191.71 608.88,-191.51"/>
</g>
<!-- 11 -->
<g id="node12" class="node">
<title>11</title>
<path fill="none" stroke="black" d="M505.79,-108C505.79,-108 419.33,-108 419.33,-108 413.33,-108 407.33,-102 407.33,-96 407.33,-96 407.33,-84 407.33,-84 407.33,-78 413.33,-72 419.33,-72 419.33,-72 505.79,-72 505.79,-72 511.79,-72 517.79,-78 517.79,-84 517.79,-84 517.79,-96 517.79,-96 517.79,-102 511.79,-108 505.79,-108"/>
<text xml:space="preserve" text-anchor="middle" x="462.56" y="-85.8" font-family="Times,serif" font-size="14.00">Identifier (soma)</text>
</g>
<!-- 10&#45;&gt;11 -->
<g id="edge11" class="edge">
<title>10&#45;&gt;11</title>
<path fill="none" stroke="black" d="M569.09,-143.52C550.49,-134.34 527.49,-123.01 507.63,-113.22"/>
<polygon fill="black" stroke="black" points="509.45,-110.21 498.93,-108.93 506.35,-116.49 509.45,-110.21"/>
</g>
<!-- 12 -->
<g id="node13" class="node">
<title>12</title>
<path fill="none" stroke="black" d="M661.08,-108C661.08,-108 548.04,-108 548.04,-108 542.04,-108 536.04,-102 536.04,-96 536.04,-96 536.04,-84 536.04,-84 536.04,-78 542.04,-72 548.04,-72 548.04,-72 661.08,-72 661.08,-72 667.08,-72 673.08,-78 673.08,-84 673.08,-84 673.08,-96 673.08,-96 673.08,-102 667.08,-108 661.08,-108"/>
<text xml:space="preserve" text-anchor="middle" x="604.56" y="-85.8" font-family="Times,serif" font-size="14.00">BinaryExpression (+)</text>
</g>
<!-- 10&#45;&gt;12 -->
<g id="edge12" class="edge">
<title>10&#45;&gt;12</title>
<path fill="none" stroke="black" d="M604.56,-143.7C604.56,-136.41 604.56,-127.73 604.56,-119.54"/>
<polygon fill="black" stroke="black" points="608.06,-119.62 604.56,-109.62 601.06,-119.62 608.06,-119.62"/>
</g>
<!-- 13 -->
<g id="node14" class="node">
<title>13</title>
<path fill="none" stroke="black" d="M557.12,-36C557.12,-36 494,-36 494,-36 488,-36 482,-30 482,-24 482,-24 482,-12 482,-12 482,-6 488,0 494,0 494,0 557.12,0 557.12,0 563.12,0 569.12,-6 569.12,-12 569.12,-12 569.12,-24 569.12,-24 569.12,-30 563.12,-36 557.12,-36"/>
<text xml:space="preserve" text-anchor="middle" x="525.56" y="-13.8" font-family="Times,serif" font-size="14.00">Identifier (a)</text>
</g>
<!-- 12&#45;&gt;13 -->
<g id="edge13" class="edge">
<title>12&#45;&gt;13</title>
<path fill="none" stroke="black" d="M585.03,-71.7C575.54,-63.28 563.95,-53.02 553.54,-43.79"/>
<polygon fill="black" stroke="black" points="556.08,-41.36 546.27,-37.35 551.43,-46.6 556.08,-41.36"/>
</g>
<!-- 14 -->
<g id="node15" class="node">
<title>14</title>
<path fill="none" stroke="black" d="M663.51,-36C663.51,-36 599.61,-36 599.61,-36 593.61,-36 587.61,-30 587.61,-24 587.61,-24 587.61,-12 587.61,-12 587.61,-6 593.61,0 599.61,0 599.61,0 663.51,0 663.51,0 669.51,0 675.51,-6 675.51,-12 675.51,-12 675.51,-24 675.51,-24 675.51,-30 669.51,-36 663.51,-36"/>
<text xml:space="preserve" text-anchor="middle" x="631.56" y="-13.8" font-family="Times,serif" font-size="14.00">Identifier (b)</text>
</g>
<!-- 12&#45;&gt;14 -->
<g id="edge14" class="edge">
<title>12&#45;&gt;14</title>
<path fill="none" stroke="black" d="M611.23,-71.7C614.14,-64.15 617.63,-55.12 620.88,-46.68"/>
<polygon fill="black" stroke="black" points="624.09,-48.11 624.42,-37.52 617.55,-45.59 624.09,-48.11"/>
</g>
<!-- 16 -->
<g id="node17" class="node">
<title>16</title>
<path fill="none" stroke="black" d="M802.33,-180C802.33,-180 724.79,-180 724.79,-180 718.79,-180 712.79,-174 712.79,-168 712.79,-168 712.79,-156 712.79,-156 712.79,-150 718.79,-144 724.79,-144 724.79,-144 802.33,-144 802.33,-144 808.33,-144 814.33,-150 814.33,-156 814.33,-156 814.33,-168 814.33,-168 814.33,-174 808.33,-180 802.33,-180"/>
<text xml:space="preserve" text-anchor="middle" x="763.56" y="-157.8" font-family="Times,serif" font-size="14.00">CallExpression</text>
</g>
<!-- 15&#45;&gt;16 -->
<g id="edge16" class="edge">
<title>15&#45;&gt;16</title>
<path fill="none" stroke="black" d="M760.55,-215.7C760.97,-208.41 761.46,-199.73 761.93,-191.54"/>
<polygon fill="black" stroke="black" points="765.42,-191.8 762.5,-181.62 758.43,-191.4 765.42,-191.8"/>
</g>
<!-- 17 -->
<g id="node18" class="node">
<title>17</title>
<path fill="none" stroke="black" d="M824.09,-108C824.09,-108 703.03,-108 703.03,-108 697.03,-108 691.03,-102 691.03,-96 691.03,-96 691.03,-84 691.03,-84 691.03,-78 697.03,-72 703.03,-72 703.03,-72 824.09,-72 824.09,-72 830.09,-72 836.09,-78 836.09,-84 836.09,-84 836.09,-96 836.09,-96 836.09,-102 830.09,-108 824.09,-108"/>
<text xml:space="preserve" text-anchor="middle" x="763.56" y="-85.8" font-family="Times,serif" font-size="14.00">Identifier (console.log)</text>
</g>
<!-- 16&#45;&gt;17 -->
<g id="edge17" class="edge">
<title>16&#45;&gt;17</title>
<path fill="none" stroke="black" d="M763.56,-143.7C763.56,-136.41 763.56,-127.73 763.56,-119.54"/>
<polygon fill="black" stroke="black" points="767.06,-119.62 763.56,-109.62 760.06,-119.62 767.06,-119.62"/>
</g>
<!-- 18 -->
<g id="node19" class="node">
<title>18</title>
<path fill="none" stroke="black" d="M979.08,-108C979.08,-108 866.04,-108 866.04,-108 860.04,-108 854.04,-102 854.04,-96 854.04,-96 854.04,-84 854.04,-84 854.04,-78 860.04,-72 866.04,-72 866.04,-72 979.08,-72 979.08,-72 985.08,-72 991.08,-78 991.08,-84 991.08,-84 991.08,-96 991.08,-96 991.08,-102 985.08,-108 979.08,-108"/>
<text xml:space="preserve" text-anchor="middle" x="922.56" y="-85.8" font-family="Times,serif" font-size="14.00">BinaryExpression (+)</text>
</g>
<!-- 16&#45;&gt;18 -->
<g id="edge18" class="edge">
<title>16&#45;&gt;18</title>
<path fill="none" stroke="black" d="M803.27,-143.52C824.32,-134.25 850.37,-122.78 872.75,-112.93"/>
<polygon fill="black" stroke="black" points="873.95,-116.22 881.69,-108.99 871.13,-109.82 873.95,-116.22"/>
</g>
<!-- 19 -->
<g id="node20" class="node">
<title>19</title>
<path fill="none" stroke="black" d="M867.5,-36C867.5,-36 733.62,-36 733.62,-36 727.62,-36 721.62,-30 721.62,-24 721.62,-24 721.62,-12 721.62,-12 721.62,-6 727.62,0 733.62,0 733.62,0 867.5,0 867.5,0 873.5,0 879.5,-6 879.5,-12 879.5,-12 879.5,-24 879.5,-24 879.5,-30 873.5,-36 867.5,-36"/>
<text xml:space="preserve" text-anchor="middle" x="800.56" y="-13.8" font-family="Times,serif" font-size="14.00">Literal (O valor de &#39;a&#39; é: )</text>
</g>
<!-- 18&#45;&gt;19 -->
<g id="edge19" class="edge">
<title>18&#45;&gt;19</title>
<path fill="none" stroke="black" d="M892.09,-71.52C876.4,-62.51 857.07,-51.42 840.23,-41.76"/>
<polygon fill="black" stroke="black" points="842.37,-38.95 831.96,-37.01 838.89,-45.03 842.37,-38.95"/>
</g>
<!-- 20 -->
<g id="node21" class="node">
<title>20</title>
<path fill="none" stroke="black" d="M972.12,-36C972.12,-36 909,-36 909,-36 903,-36 897,-30 897,-24 897,-24 897,-12 897,-12 897,-6 903,0 909,0 909,0 972.12,0 972.12,0 978.12,0 984.12,-6 984.12,-12 984.12,-12 984.12,-24 984.12,-24 984.12,-30 978.12,-36 972.12,-36"/>
<text xml:space="preserve" text-anchor="middle" x="940.56" y="-13.8" font-family="Times,serif" font-size="14.00">Identifier (a)</text>
</g>
<!-- 18&#45;&gt;20 -->
<g id="edge20" class="edge">
<title>18&#45;&gt;20</title>
<path fill="none" stroke="black" d="M927.01,-71.7C928.91,-64.32 931.17,-55.52 933.3,-47.25"/>
<polygon fill="black" stroke="black" points="936.68,-48.13 935.79,-37.57 929.91,-46.38 936.68,-48.13"/>
</g>
<!-- 22 -->
<g id="node23" class="node">
<title>22</title>
<path fill="none" stroke="black" d="M1120.33,-180C1120.33,-180 1042.79,-180 1042.79,-180 1036.79,-180 1030.79,-174 1030.79,-168 1030.79,-168 1030.79,-156 1030.79,-156 1030.79,-150 1036.79,-144 1042.79,-144 1042.79,-144 1120.33,-144 1120.33,-144 1126.33,-144 1132.33,-150 1132.33,-156 1132.33,-156 1132.33,-168 1132.33,-168 1132.33,-174 1126.33,-180 1120.33,-180"/>
<text xml:space="preserve" text-anchor="middle" x="1081.56" y="-157.8" font-family="Times,serif" font-size="14.00">CallExpression</text>
</g>
<!-- 21&#45;&gt;22 -->
<g id="edge22" class="edge">
<title>21&#45;&gt;22</title>
<path fill="none" stroke="black" d="M1017.57,-215.7C1027.89,-207.2 1040.5,-196.81 1051.79,-187.51"/>
<polygon fill="black" stroke="black" points="1053.83,-190.37 1059.33,-181.31 1049.38,-184.96 1053.83,-190.37"/>
</g>
<!-- 23 -->
<g id="node24" class="node">
<title>23</title>
<path fill="none" stroke="black" d="M1142.09,-108C1142.09,-108 1021.03,-108 1021.03,-108 1015.03,-108 1009.03,-102 1009.03,-96 1009.03,-96 1009.03,-84 1009.03,-84 1009.03,-78 1015.03,-72 1021.03,-72 1021.03,-72 1142.09,-72 1142.09,-72 1148.09,-72 1154.09,-78 1154.09,-84 1154.09,-84 1154.09,-96 1154.09,-96 1154.09,-102 1148.09,-108 1142.09,-108"/>
<text xml:space="preserve" text-anchor="middle" x="1081.56" y="-85.8" font-family="Times,serif" font-size="14.00">Identifier (console.log)</text>
</g>
<!-- 22&#45;&gt;23 -->
<g id="edge23" class="edge">
<title>22&#45;&gt;23</title>
<path fill="none" stroke="black" d="M1081.56,-143.7C1081.56,-136.41 1081.56,-127.73 1081.56,-119.54"/>
<polygon fill="black" stroke="black" points="1085.06,-119.62 1081.56,-109.62 1078.06,-119.62 1085.06,-119.62"/>
</g>
<!-- 24 -->
<g id="node25" class="node">
<title>24</title>
<path fill="none" stroke="black" d="M1297.08,-108C1297.08,-108 1184.04,-108 1184.04,-108 1178.04,-108 1172.04,-102 1172.04,-96 1172.04,-96 1172.04,-84 1172.04,-84 1172.04,-78 1178.04,-72 1184.04,-72 1184.04,-72 1297.08,-72 1297.08,-72 1303.08,-72 1309.08,-78 1309.08,-84 1309.08,-84 1309.08,-96 1309.08,-96 1309.08,-102 1303.08,-108 1297.08,-108"/>
<text xml:space="preserve" text-anchor="middle" x="1240.56" y="-85.8" font-family="Times,serif" font-size="14.00">BinaryExpression (+)</text>
</g>
<!-- 22&#45;&gt;24 -->
<g id="edge24" class="edge">
<title>22&#45;&gt;24</title>
<path fill="none" stroke="black" d="M1121.27,-143.52C1142.32,-134.25 1168.37,-122.78 1190.75,-112.93"/>
<polygon fill="black" stroke="black" points="1191.95,-116.22 1199.69,-108.99 1189.13,-109.82 1191.95,-116.22"/>
</g>
<!-- 25 -->
<g id="node26" class="node">
<title>25</title>
<path fill="none" stroke="black" d="M1208.89,-36C1208.89,-36 1074.23,-36 1074.23,-36 1068.23,-36 1062.23,-30 1062.23,-24 1062.23,-24 1062.23,-12 1062.23,-12 1062.23,-6 1068.23,0 1074.23,0 1074.23,0 1208.89,0 1208.89,0 1214.89,0 1220.89,-6 1220.89,-12 1220.89,-12 1220.89,-24 1220.89,-24 1220.89,-30 1214.89,-36 1208.89,-36"/>
<text xml:space="preserve" text-anchor="middle" x="1141.56" y="-13.8" font-family="Times,serif" font-size="14.00">Literal (O valor de &#39;b&#39; é: )</text>
</g>
<!-- 24&#45;&gt;25 -->
<g id="edge25" class="edge">
<title>24&#45;&gt;25</title>
<path fill="none" stroke="black" d="M1215.83,-71.52C1203.58,-62.85 1188.59,-52.25 1175.29,-42.85"/>
<polygon fill="black" stroke="black" points="1177.39,-40.05 1167.21,-37.13 1173.35,-45.77 1177.39,-40.05"/>
</g>
<!-- 26 -->
<g id="node27" class="node">
<title>26</title>
<path fill="none" stroke="black" d="M1314.51,-36C1314.51,-36 1250.61,-36 1250.61,-36 1244.61,-36 1238.61,-30 1238.61,-24 1238.61,-24 1238.61,-12 1238.61,-12 1238.61,-6 1244.61,0 1250.61,0 1250.61,0 1314.51,0 1314.51,0 1320.51,0 1326.51,-6 1326.51,-12 1326.51,-12 1326.51,-24 1326.51,-24 1326.51,-30 1320.51,-36 1314.51,-36"/>
<text xml:space="preserve" text-anchor="middle" x="1282.56" y="-13.8" font-family="Times,serif" font-size="14.00">Identifier (b)</text>
</g>
<!-- 24&#45;&gt;26 -->
<g id="edge26" class="edge">
<title>24&#45;&gt;26</title>
<path fill="none" stroke="black" d="M1250.94,-71.7C1255.62,-63.9 1261.26,-54.51 1266.46,-45.83"/>
<polygon fill="black" stroke="black" points="1269.38,-47.78 1271.52,-37.4 1263.37,-44.18 1269.38,-47.78"/>
</g>
<!-- 28 -->
<g id="node29" class="node">
<title>28</title>
<path fill="none" stroke="black" d="M1438.33,-180C1438.33,-180 1360.79,-180 1360.79,-180 1354.79,-180 1348.79,-174 1348.79,-168 1348.79,-168 1348.79,-156 1348.79,-156 1348.79,-150 1354.79,-144 1360.79,-144 1360.79,-144 1438.33,-144 1438.33,-144 1444.33,-144 1450.33,-150 1450.33,-156 1450.33,-156 1450.33,-168 1450.33,-168 1450.33,-174 1444.33,-180 1438.33,-180"/>
<text xml:space="preserve" text-anchor="middle" x="1399.56" y="-157.8" font-family="Times,serif" font-size="14.00">CallExpression</text>
</g>
<!-- 27&#45;&gt;28 -->
<g id="edge28" class="edge">
<title>27&#45;&gt;28</title>
<path fill="none" stroke="black" d="M1305.78,-215.52C1321.86,-206.51 1341.66,-195.42 1358.92,-185.76"/>
<polygon fill="black" stroke="black" points="1360.4,-188.94 1367.42,-181 1356.98,-182.83 1360.4,-188.94"/>
</g>
<!-- 29 -->
<g id="node30" class="node">
<title>29</title>
<path fill="none" stroke="black" d="M1460.09,-108C1460.09,-108 1339.03,-108 1339.03,-108 1333.03,-108 1327.03,-102 1327.03,-96 1327.03,-96 1327.03,-84 1327.03,-84 1327.03,-78 1333.03,-72 1339.03,-72 1339.03,-72 1460.09,-72 1460.09,-72 1466.09,-72 1472.09,-78 1472.09,-84 1472.09,-84 1472.09,-96 1472.09,-96 1472.09,-102 1466.09,-108 1460.09,-108"/>
<text xml:space="preserve" text-anchor="middle" x="1399.56" y="-85.8" font-family="Times,serif" font-size="14.00">Identifier (console.log)</text>
</g>
<!-- 28&#45;&gt;29 -->
<g id="edge29" class="edge">
<title>28&#45;&gt;29</title>
<path fill="none" stroke="black" d="M1399.56,-143.7C1399.56,-136.41 1399.56,-127.73 1399.56,-119.54"/>
<polygon fill="black" stroke="black" points="1403.06,-119.62 1399.56,-109.62 1396.06,-119.62 1403.06,-119.62"/>
</g>
<!-- 30 -->
<g id="node31" class="node">
<title>30</title>
<path fill="none" stroke="black" d="M1615.08,-108C1615.08,-108 1502.04,-108 1502.04,-108 1496.04,-108 1490.04,-102 1490.04,-96 1490.04,-96 1490.04,-84 1490.04,-84 1490.04,-78 1496.04,-72 1502.04,-72 1502.04,-72 1615.08,-72 1615.08,-72 1621.08,-72 1627.08,-78 1627.08,-84 1627.08,-84 1627.08,-96 1627.08,-96 1627.08,-102 1621.08,-108 1615.08,-108"/>
<text xml:space="preserve" text-anchor="middle" x="1558.56" y="-85.8" font-family="Times,serif" font-size="14.00">BinaryExpression (+)</text>
</g>
<!-- 28&#45;&gt;30 -->
<g id="edge30" class="edge">
<title>28&#45;&gt;30</title>
<path fill="none" stroke="black" d="M1439.27,-143.52C1460.32,-134.25 1486.37,-122.78 1508.75,-112.93"/>
<polygon fill="black" stroke="black" points="1509.95,-116.22 1517.69,-108.99 1507.13,-109.82 1509.95,-116.22"/>
</g>
<!-- 31 -->
<g id="node32" class="node">
<title>31</title>
<path fill="none" stroke="black" d="M1554.84,-36C1554.84,-36 1398.28,-36 1398.28,-36 1392.28,-36 1386.28,-30 1386.28,-24 1386.28,-24 1386.28,-12 1386.28,-12 1386.28,-6 1392.28,0 1398.28,0 1398.28,0 1554.84,0 1554.84,0 1560.84,0 1566.84,-6 1566.84,-12 1566.84,-12 1566.84,-24 1566.84,-24 1566.84,-30 1560.84,-36 1554.84,-36"/>
<text xml:space="preserve" text-anchor="middle" x="1476.56" y="-13.8" font-family="Times,serif" font-size="14.00">Literal (A soma de &#39;a + b&#39; é: )</text>
</g>
<!-- 30&#45;&gt;31 -->
<g id="edge31" class="edge">
<title>30&#45;&gt;31</title>
<path fill="none" stroke="black" d="M1538.29,-71.7C1528.43,-63.28 1516.41,-53.02 1505.6,-43.79"/>
<polygon fill="black" stroke="black" points="1507.91,-41.16 1498.03,-37.33 1503.37,-46.48 1507.91,-41.16"/>
</g>
<!-- 32 -->
<g id="node33" class="node">
<title>32</title>
<path fill="none" stroke="black" d="M1683.79,-36C1683.79,-36 1597.33,-36 1597.33,-36 1591.33,-36 1585.33,-30 1585.33,-24 1585.33,-24 1585.33,-12 1585.33,-12 1585.33,-6 1591.33,0 1597.33,0 1597.33,0 1683.79,0 1683.79,0 1689.79,0 1695.79,-6 1695.79,-12 1695.79,-12 1695.79,-24 1695.79,-24 1695.79,-30 1689.79,-36 1683.79,-36"/>
<text xml:space="preserve" text-anchor="middle" x="1640.56" y="-13.8" font-family="Times,serif" font-size="14.00">Identifier (soma)</text>
</g>
<!-- 30&#45;&gt;32 -->
<g id="edge32" class="edge">
<title>30&#45;&gt;32</title>
<path fill="none" stroke="black" d="M1578.83,-71.7C1588.69,-63.28 1600.71,-53.02 1611.52,-43.79"/>
<polygon fill="black" stroke="black" points="1613.76,-46.48 1619.09,-37.33 1609.21,-41.16 1613.76,-46.48"/>
</g>
</g>
</svg>
