<?xml version="1.0" encoding="UTF-8" standalone="no"?>
<!DOCTYPE svg PUBLIC "-//W3C//DTD SVG 1.1//EN"
 "http://www.w3.org/Graphics/SVG/1.1/DTD/svg11.dtd">
<!-- Generated by graphviz version 14.0.2 (0)
 -->
<!-- Title: AST Pages: 1 -->
<svg width="1316pt" height="476pt"
 viewBox="0.00 0.00 1316.00 476.00" xmlns="http://www.w3.org/2000/svg" xmlns:xlink="http://www.w3.org/1999/xlink">
<g id="graph0" class="graph" transform="scale(1 1) rotate(0) translate(4 472)">
<title>AST</title>
<polygon fill="white" stroke="none" points="-4,4 -4,-472 1312.24,-472 1312.24,4 -4,4"/>
<!-- 0 -->
<g id="node1" class="node">
<title>0</title>
<path fill="none" stroke="black" d="M558.78,-468C558.78,-468 518.57,-468 518.57,-468 512.57,-468 506.57,-462 506.57,-456 506.57,-456 506.57,-444 506.57,-444 506.57,-438 512.57,-432 518.57,-432 518.57,-432 558.78,-432 558.78,-432 564.78,-432 570.78,-438 570.78,-444 570.78,-444 570.78,-456 570.78,-456 570.78,-462 564.78,-468 558.78,-468"/>
<text xml:space="preserve" text-anchor="middle" x="538.67" y="-445.8" font-family="Times,serif" font-size="14.00">Program</text>
</g>
<!-- 1 -->
<g id="node2" class="node">
<title>1</title>
<path fill="none" stroke="black" d="M323.42,-396C323.42,-396 217.93,-396 217.93,-396 211.93,-396 205.93,-390 205.93,-384 205.93,-384 205.93,-372 205.93,-372 205.93,-366 211.93,-360 217.93,-360 217.93,-360 323.42,-360 323.42,-360 329.42,-360 335.42,-366 335.42,-372 335.42,-372 335.42,-384 335.42,-384 335.42,-390 329.42,-396 323.42,-396"/>
<text xml:space="preserve" text-anchor="middle" x="270.67" y="-373.8" font-family="Times,serif" font-size="14.00">VariableDeclaration</text>
</g>
<!-- 0&#45;&gt;1 -->
<g id="edge1" class="edge">
<title>0&#45;&gt;1</title>
<path fill="none" stroke="black" d="M506.08,-440.49C466.75,-430.21 399.35,-412.61 346.72,-398.86"/>
<polygon fill="black" stroke="black" points="347.76,-395.52 337.2,-396.38 345.99,-402.29 347.76,-395.52"/>
</g>
<!-- 7 -->
<g id="node8" class="node">
<title>7</title>
<path fill="none" stroke="black" d="M516.42,-396C516.42,-396 410.93,-396 410.93,-396 404.93,-396 398.93,-390 398.93,-384 398.93,-384 398.93,-372 398.93,-372 398.93,-366 404.93,-360 410.93,-360 410.93,-360 516.42,-360 516.42,-360 522.42,-360 528.42,-366 528.42,-372 528.42,-372 528.42,-384 528.42,-384 528.42,-390 522.42,-396 516.42,-396"/>
<text xml:space="preserve" text-anchor="middle" x="463.67" y="-373.8" font-family="Times,serif" font-size="14.00">VariableDeclaration</text>
</g>
<!-- 0&#45;&gt;7 -->
<g id="edge7" class="edge">
<title>0&#45;&gt;7</title>
<path fill="none" stroke="black" d="M520.13,-431.7C511.21,-423.37 500.34,-413.22 490.53,-404.07"/>
<polygon fill="black" stroke="black" points="493.07,-401.64 483.37,-397.38 488.29,-406.76 493.07,-401.64"/>
</g>
<!-- 13 -->
<g id="node14" class="node">
<title>13</title>
<path fill="none" stroke="black" d="M668.77,-396C668.77,-396 558.57,-396 558.57,-396 552.57,-396 546.57,-390 546.57,-384 546.57,-384 546.57,-372 546.57,-372 546.57,-366 552.57,-360 558.57,-360 558.57,-360 668.77,-360 668.77,-360 674.77,-360 680.77,-366 680.77,-372 680.77,-372 680.77,-384 680.77,-384 680.77,-390 674.77,-396 668.77,-396"/>
<text xml:space="preserve" text-anchor="middle" x="613.67" y="-373.8" font-family="Times,serif" font-size="14.00">ExpressionStatement</text>
</g>
<!-- 0&#45;&gt;13 -->
<g id="edge13" class="edge">
<title>0&#45;&gt;13</title>
<path fill="none" stroke="black" d="M557.21,-431.7C566.14,-423.37 577.01,-413.22 586.82,-404.07"/>
<polygon fill="black" stroke="black" points="589.06,-406.76 593.98,-397.38 584.28,-401.64 589.06,-406.76"/>
</g>
<!-- 21 -->
<g id="node22" class="node">
<title>21</title>
<path fill="none" stroke="black" d="M899.77,-396C899.77,-396 789.57,-396 789.57,-396 783.57,-396 777.57,-390 777.57,-384 777.57,-384 777.57,-372 777.57,-372 777.57,-366 783.57,-360 789.57,-360 789.57,-360 899.77,-360 899.77,-360 905.77,-360 911.77,-366 911.77,-372 911.77,-372 911.77,-384 911.77,-384 911.77,-390 905.77,-396 899.77,-396"/>
<text xml:space="preserve" text-anchor="middle" x="844.67" y="-373.8" font-family="Times,serif" font-size="14.00">ExpressionStatement</text>
</g>
<!-- 0&#45;&gt;21 -->
<g id="edge21" class="edge">
<title>0&#45;&gt;21</title>
<path fill="none" stroke="black" d="M571.13,-441.58C617.13,-431.05 702.71,-411.48 765.95,-397.01"/>
<polygon fill="black" stroke="black" points="766.64,-400.44 775.61,-394.8 765.08,-393.62 766.64,-400.44"/>
</g>
<!-- 2 -->
<g id="node3" class="node">
<title>2</title>
<path fill="none" stroke="black" d="M270.31,-324C270.31,-324 171.04,-324 171.04,-324 165.04,-324 159.04,-318 159.04,-312 159.04,-312 159.04,-300 159.04,-300 159.04,-294 165.04,-288 171.04,-288 171.04,-288 270.31,-288 270.31,-288 276.31,-288 282.31,-294 282.31,-300 282.31,-300 282.31,-312 282.31,-312 282.31,-318 276.31,-324 270.31,-324"/>
<text xml:space="preserve" text-anchor="middle" x="220.67" y="-301.8" font-family="Times,serif" font-size="14.00">VariableDeclarator</text>
</g>
<!-- 1&#45;&gt;2 -->
<g id="edge2" class="edge">
<title>1&#45;&gt;2</title>
<path fill="none" stroke="black" d="M258.31,-359.7C252.62,-351.73 245.75,-342.1 239.43,-333.26"/>
<polygon fill="black" stroke="black" points="242.43,-331.44 233.77,-325.34 236.74,-335.51 242.43,-331.44"/>
</g>
<!-- 3 -->
<g id="node4" class="node">
<title>3</title>
<path fill="none" stroke="black" d="M139.68,-252C139.68,-252 51.67,-252 51.67,-252 45.67,-252 39.67,-246 39.67,-240 39.67,-240 39.67,-228 39.67,-228 39.67,-222 45.67,-216 51.67,-216 51.67,-216 139.68,-216 139.68,-216 145.68,-216 151.68,-222 151.68,-228 151.68,-228 151.68,-240 151.68,-240 151.68,-246 145.68,-252 139.68,-252"/>
<text xml:space="preserve" text-anchor="middle" x="95.67" y="-229.8" font-family="Times,serif" font-size="14.00">Identifier (nome)</text>
</g>
<!-- 2&#45;&gt;3 -->
<g id="edge3" class="edge">
<title>2&#45;&gt;3</title>
<path fill="none" stroke="black" d="M189.45,-287.52C173.37,-278.51 153.57,-267.42 136.32,-257.76"/>
<polygon fill="black" stroke="black" points="138.25,-254.83 127.82,-253 134.83,-260.94 138.25,-254.83"/>
</g>
<!-- 4 -->
<g id="node5" class="node">
<title>4</title>
<path fill="none" stroke="black" d="M259.45,-252C259.45,-252 181.9,-252 181.9,-252 175.9,-252 169.9,-246 169.9,-240 169.9,-240 169.9,-228 169.9,-228 169.9,-222 175.9,-216 181.9,-216 181.9,-216 259.45,-216 259.45,-216 265.45,-216 271.45,-222 271.45,-228 271.45,-228 271.45,-240 271.45,-240 271.45,-246 265.45,-252 259.45,-252"/>
<text xml:space="preserve" text-anchor="middle" x="220.67" y="-229.8" font-family="Times,serif" font-size="14.00">CallExpression</text>
</g>
<!-- 2&#45;&gt;4 -->
<g id="edge4" class="edge">
<title>2&#45;&gt;4</title>
<path fill="none" stroke="black" d="M220.67,-287.7C220.67,-280.41 220.67,-271.73 220.67,-263.54"/>
<polygon fill="black" stroke="black" points="224.17,-263.62 220.67,-253.62 217.17,-263.62 224.17,-263.62"/>
</g>
<!-- 5 -->
<g id="node6" class="node">
<title>5</title>
<path fill="none" stroke="black" d="M109.35,-180C109.35,-180 12,-180 12,-180 6,-180 0,-174 0,-168 0,-168 0,-156 0,-156 0,-150 6,-144 12,-144 12,-144 109.35,-144 109.35,-144 115.35,-144 121.35,-150 121.35,-156 121.35,-156 121.35,-168 121.35,-168 121.35,-174 115.35,-180 109.35,-180"/>
<text xml:space="preserve" text-anchor="middle" x="60.67" y="-157.8" font-family="Times,serif" font-size="14.00">Identifier (prompt)</text>
</g>
<!-- 4&#45;&gt;5 -->
<g id="edge5" class="edge">
<title>4&#45;&gt;5</title>
<path fill="none" stroke="black" d="M180.71,-215.52C159.54,-206.25 133.32,-194.78 110.79,-184.93"/>
<polygon fill="black" stroke="black" points="112.36,-181.79 101.79,-180.99 109.55,-188.2 112.36,-181.79"/>
</g>
<!-- 6 -->
<g id="node7" class="node">
<title>6</title>
<path fill="none" stroke="black" d="M304.34,-180C304.34,-180 151.01,-180 151.01,-180 145.01,-180 139.01,-174 139.01,-168 139.01,-168 139.01,-156 139.01,-156 139.01,-150 145.01,-144 151.01,-144 151.01,-144 304.34,-144 304.34,-144 310.34,-144 316.34,-150 316.34,-156 316.34,-156 316.34,-168 316.34,-168 316.34,-174 310.34,-180 304.34,-180"/>
<text xml:space="preserve" text-anchor="middle" x="227.67" y="-157.8" font-family="Times,serif" font-size="14.00">Literal (Qual é o seu nome?)</text>
</g>
<!-- 4&#45;&gt;6 -->
<g id="edge6" class="edge">
<title>4&#45;&gt;6</title>
<path fill="none" stroke="black" d="M222.4,-215.7C223.13,-208.41 224,-199.73 224.82,-191.54"/>
<polygon fill="black" stroke="black" points="228.3,-191.91 225.81,-181.61 221.34,-191.21 228.3,-191.91"/>
</g>
<!-- 8 -->
<g id="node9" class="node">
<title>8</title>
<path fill="none" stroke="black" d="M513.31,-324C513.31,-324 414.04,-324 414.04,-324 408.04,-324 402.04,-318 402.04,-312 402.04,-312 402.04,-300 402.04,-300 402.04,-294 408.04,-288 414.04,-288 414.04,-288 513.31,-288 513.31,-288 519.31,-288 525.31,-294 525.31,-300 525.31,-300 525.31,-312 525.31,-312 525.31,-318 519.31,-324 513.31,-324"/>
<text xml:space="preserve" text-anchor="middle" x="463.67" y="-301.8" font-family="Times,serif" font-size="14.00">VariableDeclarator</text>
</g>
<!-- 7&#45;&gt;8 -->
<g id="edge8" class="edge">
<title>7&#45;&gt;8</title>
<path fill="none" stroke="black" d="M463.67,-359.7C463.67,-352.41 463.67,-343.73 463.67,-335.54"/>
<polygon fill="black" stroke="black" points="467.17,-335.62 463.67,-325.62 460.17,-335.62 467.17,-335.62"/>
</g>
<!-- 9 -->
<g id="node10" class="node">
<title>9</title>
<path fill="none" stroke="black" d="M388.29,-252C388.29,-252 301.06,-252 301.06,-252 295.06,-252 289.06,-246 289.06,-240 289.06,-240 289.06,-228 289.06,-228 289.06,-222 295.06,-216 301.06,-216 301.06,-216 388.29,-216 388.29,-216 394.29,-216 400.29,-222 400.29,-228 400.29,-228 400.29,-240 400.29,-240 400.29,-246 394.29,-252 388.29,-252"/>
<text xml:space="preserve" text-anchor="middle" x="344.67" y="-229.8" font-family="Times,serif" font-size="14.00">Identifier (idade)</text>
</g>
<!-- 8&#45;&gt;9 -->
<g id="edge9" class="edge">
<title>8&#45;&gt;9</title>
<path fill="none" stroke="black" d="M433.95,-287.52C418.79,-278.6 400.15,-267.63 383.83,-258.03"/>
<polygon fill="black" stroke="black" points="385.72,-255.08 375.32,-253.03 382.17,-261.11 385.72,-255.08"/>
</g>
<!-- 10 -->
<g id="node11" class="node">
<title>10</title>
<path fill="none" stroke="black" d="M507.45,-252C507.45,-252 429.9,-252 429.9,-252 423.9,-252 417.9,-246 417.9,-240 417.9,-240 417.9,-228 417.9,-228 417.9,-222 423.9,-216 429.9,-216 429.9,-216 507.45,-216 507.45,-216 513.45,-216 519.45,-222 519.45,-228 519.45,-228 519.45,-240 519.45,-240 519.45,-246 513.45,-252 507.45,-252"/>
<text xml:space="preserve" text-anchor="middle" x="468.67" y="-229.8" font-family="Times,serif" font-size="14.00">CallExpression</text>
</g>
<!-- 8&#45;&gt;10 -->
<g id="edge10" class="edge">
<title>8&#45;&gt;10</title>
<path fill="none" stroke="black" d="M464.91,-287.7C465.43,-280.41 466.05,-271.73 466.64,-263.54"/>
<polygon fill="black" stroke="black" points="470.12,-263.84 467.34,-253.61 463.14,-263.34 470.12,-263.84"/>
</g>
<!-- 11 -->
<g id="node12" class="node">
<title>11</title>
<path fill="none" stroke="black" d="M468.35,-180C468.35,-180 371,-180 371,-180 365,-180 359,-174 359,-168 359,-168 359,-156 359,-156 359,-150 365,-144 371,-144 371,-144 468.35,-144 468.35,-144 474.35,-144 480.35,-150 480.35,-156 480.35,-156 480.35,-168 480.35,-168 480.35,-174 474.35,-180 468.35,-180"/>
<text xml:space="preserve" text-anchor="middle" x="419.67" y="-157.8" font-family="Times,serif" font-size="14.00">Identifier (prompt)</text>
</g>
<!-- 10&#45;&gt;11 -->
<g id="edge11" class="edge">
<title>10&#45;&gt;11</title>
<path fill="none" stroke="black" d="M456.56,-215.7C450.98,-207.73 444.24,-198.1 438.06,-189.26"/>
<polygon fill="black" stroke="black" points="441.12,-187.53 432.52,-181.34 435.38,-191.54 441.12,-187.53"/>
</g>
<!-- 12 -->
<g id="node13" class="node">
<title>12</title>
<path fill="none" stroke="black" d="M651.3,-180C651.3,-180 510.05,-180 510.05,-180 504.05,-180 498.05,-174 498.05,-168 498.05,-168 498.05,-156 498.05,-156 498.05,-150 504.05,-144 510.05,-144 510.05,-144 651.3,-144 651.3,-144 657.3,-144 663.3,-150 663.3,-156 663.3,-156 663.3,-168 663.3,-168 663.3,-174 657.3,-180 651.3,-180"/>
<text xml:space="preserve" text-anchor="middle" x="580.67" y="-157.8" font-family="Times,serif" font-size="14.00">Literal (Qual a sua idade?)</text>
</g>
<!-- 10&#45;&gt;12 -->
<g id="edge12" class="edge">
<title>10&#45;&gt;12</title>
<path fill="none" stroke="black" d="M496.65,-215.52C510.79,-206.68 528.13,-195.84 543.39,-186.3"/>
<polygon fill="black" stroke="black" points="545.15,-189.33 551.77,-181.06 541.44,-183.39 545.15,-189.33"/>
</g>
<!-- 14 -->
<g id="node15" class="node">
<title>14</title>
<path fill="none" stroke="black" d="M652.45,-324C652.45,-324 574.9,-324 574.9,-324 568.9,-324 562.9,-318 562.9,-312 562.9,-312 562.9,-300 562.9,-300 562.9,-294 568.9,-288 574.9,-288 574.9,-288 652.45,-288 652.45,-288 658.45,-288 664.45,-294 664.45,-300 664.45,-300 664.45,-312 664.45,-312 664.45,-318 658.45,-324 652.45,-324"/>
<text xml:space="preserve" text-anchor="middle" x="613.67" y="-301.8" font-family="Times,serif" font-size="14.00">CallExpression</text>
</g>
<!-- 13&#45;&gt;14 -->
<g id="edge14" class="edge">
<title>13&#45;&gt;14</title>
<path fill="none" stroke="black" d="M613.67,-359.7C613.67,-352.41 613.67,-343.73 613.67,-335.54"/>
<polygon fill="black" stroke="black" points="617.17,-335.62 613.67,-325.62 610.17,-335.62 617.17,-335.62"/>
</g>
<!-- 15 -->
<g id="node16" class="node">
<title>15</title>
<path fill="none" stroke="black" d="M670.21,-252C670.21,-252 549.14,-252 549.14,-252 543.14,-252 537.14,-246 537.14,-240 537.14,-240 537.14,-228 537.14,-228 537.14,-222 543.14,-216 549.14,-216 549.14,-216 670.21,-216 670.21,-216 676.21,-216 682.21,-222 682.21,-228 682.21,-228 682.21,-240 682.21,-240 682.21,-246 676.21,-252 670.21,-252"/>
<text xml:space="preserve" text-anchor="middle" x="609.67" y="-229.8" font-family="Times,serif" font-size="14.00">Identifier (console.log)</text>
</g>
<!-- 14&#45;&gt;15 -->
<g id="edge15" class="edge">
<title>14&#45;&gt;15</title>
<path fill="none" stroke="black" d="M612.69,-287.7C612.27,-280.41 611.77,-271.73 611.3,-263.54"/>
<polygon fill="black" stroke="black" points="614.8,-263.4 610.74,-253.62 607.81,-263.8 614.8,-263.4"/>
</g>
<!-- 16 -->
<g id="node17" class="node">
<title>16</title>
<path fill="none" stroke="black" d="M825.19,-252C825.19,-252 712.16,-252 712.16,-252 706.16,-252 700.16,-246 700.16,-240 700.16,-240 700.16,-228 700.16,-228 700.16,-222 706.16,-216 712.16,-216 712.16,-216 825.19,-216 825.19,-216 831.19,-216 837.19,-222 837.19,-228 837.19,-228 837.19,-240 837.19,-240 837.19,-246 831.19,-252 825.19,-252"/>
<text xml:space="preserve" text-anchor="middle" x="768.67" y="-229.8" font-family="Times,serif" font-size="14.00">BinaryExpression (+)</text>
</g>
<!-- 14&#45;&gt;16 -->
<g id="edge16" class="edge">
<title>14&#45;&gt;16</title>
<path fill="none" stroke="black" d="M652.39,-287.52C672.81,-278.29 698.07,-266.89 719.82,-257.06"/>
<polygon fill="black" stroke="black" points="721.13,-260.31 728.81,-253 718.25,-253.93 721.13,-260.31"/>
</g>
<!-- 17 -->
<g id="node18" class="node">
<title>17</title>
<path fill="none" stroke="black" d="M819.19,-180C819.19,-180 706.16,-180 706.16,-180 700.16,-180 694.16,-174 694.16,-168 694.16,-168 694.16,-156 694.16,-156 694.16,-150 700.16,-144 706.16,-144 706.16,-144 819.19,-144 819.19,-144 825.19,-144 831.19,-150 831.19,-156 831.19,-156 831.19,-168 831.19,-168 831.19,-174 825.19,-180 819.19,-180"/>
<text xml:space="preserve" text-anchor="middle" x="762.67" y="-157.8" font-family="Times,serif" font-size="14.00">BinaryExpression (+)</text>
</g>
<!-- 16&#45;&gt;17 -->
<g id="edge17" class="edge">
<title>16&#45;&gt;17</title>
<path fill="none" stroke="black" d="M767.19,-215.7C766.57,-208.41 765.82,-199.73 765.12,-191.54"/>
<polygon fill="black" stroke="black" points="768.61,-191.28 764.27,-181.61 761.64,-191.87 768.61,-191.28"/>
</g>
<!-- 20 -->
<g id="node21" class="node">
<title>20</title>
<path fill="none" stroke="black" d="M908.07,-180C908.07,-180 861.28,-180 861.28,-180 855.28,-180 849.28,-174 849.28,-168 849.28,-168 849.28,-156 849.28,-156 849.28,-150 855.28,-144 861.28,-144 861.28,-144 908.07,-144 908.07,-144 914.07,-144 920.07,-150 920.07,-156 920.07,-156 920.07,-168 920.07,-168 920.07,-174 914.07,-180 908.07,-180"/>
<text xml:space="preserve" text-anchor="middle" x="884.67" y="-157.8" font-family="Times,serif" font-size="14.00">Literal (!)</text>
</g>
<!-- 16&#45;&gt;20 -->
<g id="edge20" class="edge">
<title>16&#45;&gt;20</title>
<path fill="none" stroke="black" d="M797.65,-215.52C812.43,-206.6 830.6,-195.63 846.51,-186.03"/>
<polygon fill="black" stroke="black" points="848.02,-189.21 854.78,-181.04 844.4,-183.21 848.02,-189.21"/>
</g>
<!-- 18 -->
<g id="node19" class="node">
<title>18</title>
<path fill="none" stroke="black" d="M694.74,-108C694.74,-108 624.61,-108 624.61,-108 618.61,-108 612.61,-102 612.61,-96 612.61,-96 612.61,-84 612.61,-84 612.61,-78 618.61,-72 624.61,-72 624.61,-72 694.74,-72 694.74,-72 700.74,-72 706.74,-78 706.74,-84 706.74,-84 706.74,-96 706.74,-96 706.74,-102 700.74,-108 694.74,-108"/>
<text xml:space="preserve" text-anchor="middle" x="659.67" y="-85.8" font-family="Times,serif" font-size="14.00">Literal (Olá, )</text>
</g>
<!-- 17&#45;&gt;18 -->
<g id="edge18" class="edge">
<title>17&#45;&gt;18</title>
<path fill="none" stroke="black" d="M736.95,-143.52C724.07,-134.76 708.3,-124.04 694.36,-114.58"/>
<polygon fill="black" stroke="black" points="696.56,-111.84 686.32,-109.11 692.63,-117.63 696.56,-111.84"/>
</g>
<!-- 19 -->
<g id="node20" class="node">
<title>19</title>
<path fill="none" stroke="black" d="M824.68,-108C824.68,-108 736.67,-108 736.67,-108 730.67,-108 724.67,-102 724.67,-96 724.67,-96 724.67,-84 724.67,-84 724.67,-78 730.67,-72 736.67,-72 736.67,-72 824.68,-72 824.68,-72 830.68,-72 836.68,-78 836.68,-84 836.68,-84 836.68,-96 836.68,-96 836.68,-102 830.68,-108 824.68,-108"/>
<text xml:space="preserve" text-anchor="middle" x="780.67" y="-85.8" font-family="Times,serif" font-size="14.00">Identifier (nome)</text>
</g>
<!-- 17&#45;&gt;19 -->
<g id="edge19" class="edge">
<title>17&#45;&gt;19</title>
<path fill="none" stroke="black" d="M767.12,-143.7C769.02,-136.32 771.28,-127.52 773.41,-119.25"/>
<polygon fill="black" stroke="black" points="776.8,-120.13 775.9,-109.57 770.02,-118.38 776.8,-120.13"/>
</g>
<!-- 22 -->
<g id="node23" class="node">
<title>22</title>
<path fill="none" stroke="black" d="M966.45,-324C966.45,-324 888.9,-324 888.9,-324 882.9,-324 876.9,-318 876.9,-312 876.9,-312 876.9,-300 876.9,-300 876.9,-294 882.9,-288 888.9,-288 888.9,-288 966.45,-288 966.45,-288 972.45,-288 978.45,-294 978.45,-300 978.45,-300 978.45,-312 978.45,-312 978.45,-318 972.45,-324 966.45,-324"/>
<text xml:space="preserve" text-anchor="middle" x="927.67" y="-301.8" font-family="Times,serif" font-size="14.00">CallExpression</text>
</g>
<!-- 21&#45;&gt;22 -->
<g id="edge22" class="edge">
<title>21&#45;&gt;22</title>
<path fill="none" stroke="black" d="M865.19,-359.7C875.27,-351.2 887.58,-340.81 898.61,-331.51"/>
<polygon fill="black" stroke="black" points="900.56,-334.45 905.95,-325.32 896.05,-329.09 900.56,-334.45"/>
</g>
<!-- 23 -->
<g id="node24" class="node">
<title>23</title>
<path fill="none" stroke="black" d="M988.21,-252C988.21,-252 867.14,-252 867.14,-252 861.14,-252 855.14,-246 855.14,-240 855.14,-240 855.14,-228 855.14,-228 855.14,-222 861.14,-216 867.14,-216 867.14,-216 988.21,-216 988.21,-216 994.21,-216 1000.21,-222 1000.21,-228 1000.21,-228 1000.21,-240 1000.21,-240 1000.21,-246 994.21,-252 988.21,-252"/>
<text xml:space="preserve" text-anchor="middle" x="927.67" y="-229.8" font-family="Times,serif" font-size="14.00">Identifier (console.log)</text>
</g>
<!-- 22&#45;&gt;23 -->
<g id="edge23" class="edge">
<title>22&#45;&gt;23</title>
<path fill="none" stroke="black" d="M927.67,-287.7C927.67,-280.41 927.67,-271.73 927.67,-263.54"/>
<polygon fill="black" stroke="black" points="931.17,-263.62 927.67,-253.62 924.17,-263.62 931.17,-263.62"/>
</g>
<!-- 24 -->
<g id="node25" class="node">
<title>24</title>
<path fill="none" stroke="black" d="M1143.19,-252C1143.19,-252 1030.16,-252 1030.16,-252 1024.16,-252 1018.16,-246 1018.16,-240 1018.16,-240 1018.16,-228 1018.16,-228 1018.16,-222 1024.16,-216 1030.16,-216 1030.16,-216 1143.19,-216 1143.19,-216 1149.19,-216 1155.19,-222 1155.19,-228 1155.19,-228 1155.19,-240 1155.19,-240 1155.19,-246 1149.19,-252 1143.19,-252"/>
<text xml:space="preserve" text-anchor="middle" x="1086.67" y="-229.8" font-family="Times,serif" font-size="14.00">BinaryExpression (+)</text>
</g>
<!-- 22&#45;&gt;24 -->
<g id="edge24" class="edge">
<title>22&#45;&gt;24</title>
<path fill="none" stroke="black" d="M967.39,-287.52C988.43,-278.25 1014.48,-266.78 1036.87,-256.93"/>
<polygon fill="black" stroke="black" points="1038.07,-260.22 1045.81,-252.99 1035.25,-253.82 1038.07,-260.22"/>
</g>
<!-- 25 -->
<g id="node26" class="node">
<title>25</title>
<path fill="none" stroke="black" d="M1108.19,-180C1108.19,-180 995.16,-180 995.16,-180 989.16,-180 983.16,-174 983.16,-168 983.16,-168 983.16,-156 983.16,-156 983.16,-150 989.16,-144 995.16,-144 995.16,-144 1108.19,-144 1108.19,-144 1114.19,-144 1120.19,-150 1120.19,-156 1120.19,-156 1120.19,-168 1120.19,-168 1120.19,-174 1114.19,-180 1108.19,-180"/>
<text xml:space="preserve" text-anchor="middle" x="1051.67" y="-157.8" font-family="Times,serif" font-size="14.00">BinaryExpression (+)</text>
</g>
<!-- 24&#45;&gt;25 -->
<g id="edge25" class="edge">
<title>24&#45;&gt;25</title>
<path fill="none" stroke="black" d="M1078.02,-215.7C1074.21,-208.07 1069.63,-198.92 1065.37,-190.4"/>
<polygon fill="black" stroke="black" points="1068.51,-188.84 1060.9,-181.46 1062.25,-191.97 1068.51,-188.84"/>
</g>
<!-- 30 -->
<g id="node31" class="node">
<title>30</title>
<path fill="none" stroke="black" d="M1225.07,-180C1225.07,-180 1150.28,-180 1150.28,-180 1144.28,-180 1138.28,-174 1138.28,-168 1138.28,-168 1138.28,-156 1138.28,-156 1138.28,-150 1144.28,-144 1150.28,-144 1150.28,-144 1225.07,-144 1225.07,-144 1231.07,-144 1237.07,-150 1237.07,-156 1237.07,-156 1237.07,-168 1237.07,-168 1237.07,-174 1231.07,-180 1225.07,-180"/>
<text xml:space="preserve" text-anchor="middle" x="1187.67" y="-157.8" font-family="Times,serif" font-size="14.00">Literal ( anos.)</text>
</g>
<!-- 24&#45;&gt;30 -->
<g id="edge30" class="edge">
<title>24&#45;&gt;30</title>
<path fill="none" stroke="black" d="M1111.9,-215.52C1124.53,-206.76 1140,-196.04 1153.66,-186.58"/>
<polygon fill="black" stroke="black" points="1155.3,-189.7 1161.53,-181.12 1151.31,-183.94 1155.3,-189.7"/>
</g>
<!-- 26 -->
<g id="node27" class="node">
<title>26</title>
<path fill="none" stroke="black" d="M1117.95,-108C1117.95,-108 937.4,-108 937.4,-108 931.4,-108 925.4,-102 925.4,-96 925.4,-96 925.4,-84 925.4,-84 925.4,-78 931.4,-72 937.4,-72 937.4,-72 1117.95,-72 1117.95,-72 1123.95,-72 1129.95,-78 1129.95,-84 1129.95,-84 1129.95,-96 1129.95,-96 1129.95,-102 1123.95,-108 1117.95,-108"/>
<text xml:space="preserve" text-anchor="middle" x="1027.67" y="-85.8" font-family="Times,serif" font-size="14.00">Literal (Ano que vem, você terá )</text>
</g>
<!-- 25&#45;&gt;26 -->
<g id="edge26" class="edge">
<title>25&#45;&gt;26</title>
<path fill="none" stroke="black" d="M1045.74,-143.7C1043.18,-136.24 1040.13,-127.32 1037.26,-118.97"/>
<polygon fill="black" stroke="black" points="1040.58,-117.86 1034.03,-109.54 1033.96,-120.13 1040.58,-117.86"/>
</g>
<!-- 27 -->
<g id="node28" class="node">
<title>27</title>
<path fill="none" stroke="black" d="M1273.19,-108C1273.19,-108 1160.16,-108 1160.16,-108 1154.16,-108 1148.16,-102 1148.16,-96 1148.16,-96 1148.16,-84 1148.16,-84 1148.16,-78 1154.16,-72 1160.16,-72 1160.16,-72 1273.19,-72 1273.19,-72 1279.19,-72 1285.19,-78 1285.19,-84 1285.19,-84 1285.19,-96 1285.19,-96 1285.19,-102 1279.19,-108 1273.19,-108"/>
<text xml:space="preserve" text-anchor="middle" x="1216.67" y="-85.8" font-family="Times,serif" font-size="14.00">BinaryExpression (+)</text>
</g>
<!-- 25&#45;&gt;27 -->
<g id="edge27" class="edge">
<title>25&#45;&gt;27</title>
<path fill="none" stroke="black" d="M1092.89,-143.52C1114.82,-134.21 1142,-122.68 1165.3,-112.79"/>
<polygon fill="black" stroke="black" points="1166.47,-116.1 1174.31,-108.97 1163.74,-109.66 1166.47,-116.1"/>
</g>
<!-- 28 -->
<g id="node29" class="node">
<title>28</title>
<path fill="none" stroke="black" d="M1205.29,-36C1205.29,-36 1118.06,-36 1118.06,-36 1112.06,-36 1106.06,-30 1106.06,-24 1106.06,-24 1106.06,-12 1106.06,-12 1106.06,-6 1112.06,0 1118.06,0 1118.06,0 1205.29,0 1205.29,0 1211.29,0 1217.29,-6 1217.29,-12 1217.29,-12 1217.29,-24 1217.29,-24 1217.29,-30 1211.29,-36 1205.29,-36"/>
<text xml:space="preserve" text-anchor="middle" x="1161.67" y="-13.8" font-family="Times,serif" font-size="14.00">Identifier (idade)</text>
</g>
<!-- 27&#45;&gt;28 -->
<g id="edge28" class="edge">
<title>27&#45;&gt;28</title>
<path fill="none" stroke="black" d="M1203.08,-71.7C1196.75,-63.64 1189.09,-53.89 1182.09,-44.98"/>
<polygon fill="black" stroke="black" points="1184.98,-43 1176.05,-37.29 1179.47,-47.32 1184.98,-43"/>
</g>
<!-- 29 -->
<g id="node30" class="node">
<title>29</title>
<path fill="none" stroke="black" d="M1296.24,-36C1296.24,-36 1247.11,-36 1247.11,-36 1241.11,-36 1235.11,-30 1235.11,-24 1235.11,-24 1235.11,-12 1235.11,-12 1235.11,-6 1241.11,0 1247.11,0 1247.11,0 1296.24,0 1296.24,0 1302.24,0 1308.24,-6 1308.24,-12 1308.24,-12 1308.24,-24 1308.24,-24 1308.24,-30 1302.24,-36 1296.24,-36"/>
<text xml:space="preserve" text-anchor="middle" x="1271.67" y="-13.8" font-family="Times,serif" font-size="14.00">Literal (1)</text>
</g>
<!-- 27&#45;&gt;29 -->
<g id="edge29" class="edge">
<title>27&#45;&gt;29</title>
<path fill="none" stroke="black" d="M1230.27,-71.7C1236.6,-63.64 1244.26,-53.89 1251.26,-44.98"/>
<polygon fill="black" stroke="black" points="1253.87,-47.32 1257.3,-37.29 1248.37,-43 1253.87,-47.32"/>
</g>
</g>
</svg>
