<?xml version="1.0" encoding="UTF-8" standalone="no"?>
<!DOCTYPE svg PUBLIC "-//W3C//DTD SVG 1.1//EN"
 "http://www.w3.org/Graphics/SVG/1.1/DTD/svg11.dtd">
<!-- Generated by graphviz version 14.0.2 (0)
 -->
<!-- Title: AST Pages: 1 -->
<svg width="2708pt" height="764pt"
 viewBox="0.00 0.00 2708.00 764.00" xmlns="http://www.w3.org/2000/svg" xmlns:xlink="http://www.w3.org/1999/xlink">
<g id="graph0" class="graph" transform="scale(1 1) rotate(0) translate(4 760)">
<title>AST</title>
<polygon fill="white" stroke="none" points="-4,4 -4,-760 2704.24,-760 2704.24,4 -4,4"/>
<!-- 0 -->
<g id="node1" class="node">
<title>0</title>
<path fill="none" stroke="black" d="M413.78,-756C413.78,-756 373.57,-756 373.57,-756 367.57,-756 361.57,-750 361.57,-744 361.57,-744 361.57,-732 361.57,-732 361.57,-726 367.57,-720 373.57,-720 373.57,-720 413.78,-720 413.78,-720 419.78,-720 425.78,-726 425.78,-732 425.78,-732 425.78,-744 425.78,-744 425.78,-750 419.78,-756 413.78,-756"/>
<text xml:space="preserve" text-anchor="middle" x="393.67" y="-733.8" font-family="Times,serif" font-size="14.00">Program</text>
</g>
<!-- 1 -->
<g id="node2" class="node">
<title>1</title>
<path fill="none" stroke="black" d="M385.42,-684C385.42,-684 279.93,-684 279.93,-684 273.93,-684 267.93,-678 267.93,-672 267.93,-672 267.93,-660 267.93,-660 267.93,-654 273.93,-648 279.93,-648 279.93,-648 385.42,-648 385.42,-648 391.42,-648 397.42,-654 397.42,-660 397.42,-660 397.42,-672 397.42,-672 397.42,-678 391.42,-684 385.42,-684"/>
<text xml:space="preserve" text-anchor="middle" x="332.67" y="-661.8" font-family="Times,serif" font-size="14.00">VariableDeclaration</text>
</g>
<!-- 0&#45;&gt;1 -->
<g id="edge1" class="edge">
<title>0&#45;&gt;1</title>
<path fill="none" stroke="black" d="M378.6,-719.7C371.5,-711.56 362.9,-701.69 355.07,-692.7"/>
<polygon fill="black" stroke="black" points="357.78,-690.49 348.57,-685.25 352.51,-695.08 357.78,-690.49"/>
</g>
<!-- 9 -->
<g id="node10" class="node">
<title>9</title>
<path fill="none" stroke="black" d="M534.33,-684C534.33,-684 477.02,-684 477.02,-684 471.02,-684 465.02,-678 465.02,-672 465.02,-672 465.02,-660 465.02,-660 465.02,-654 471.02,-648 477.02,-648 477.02,-648 534.33,-648 534.33,-648 540.33,-648 546.33,-654 546.33,-660 546.33,-660 546.33,-672 546.33,-672 546.33,-678 540.33,-684 534.33,-684"/>
<text xml:space="preserve" text-anchor="middle" x="505.67" y="-661.8" font-family="Times,serif" font-size="14.00">IfStatement</text>
</g>
<!-- 0&#45;&gt;9 -->
<g id="edge9" class="edge">
<title>0&#45;&gt;9</title>
<path fill="none" stroke="black" d="M421.65,-719.52C435.79,-710.68 453.13,-699.84 468.39,-690.3"/>
<polygon fill="black" stroke="black" points="470.15,-693.33 476.77,-685.06 466.44,-687.39 470.15,-693.33"/>
</g>
<!-- 2 -->
<g id="node3" class="node">
<title>2</title>
<path fill="none" stroke="black" d="M277.31,-612C277.31,-612 178.04,-612 178.04,-612 172.04,-612 166.04,-606 166.04,-600 166.04,-600 166.04,-588 166.04,-588 166.04,-582 172.04,-576 178.04,-576 178.04,-576 277.31,-576 277.31,-576 283.31,-576 289.31,-582 289.31,-588 289.31,-588 289.31,-600 289.31,-600 289.31,-606 283.31,-612 277.31,-612"/>
<text xml:space="preserve" text-anchor="middle" x="227.67" y="-589.8" font-family="Times,serif" font-size="14.00">VariableDeclarator</text>
</g>
<!-- 1&#45;&gt;2 -->
<g id="edge2" class="edge">
<title>1&#45;&gt;2</title>
<path fill="none" stroke="black" d="M306.45,-647.52C293.32,-638.76 277.24,-628.04 263.04,-618.58"/>
<polygon fill="black" stroke="black" points="265.09,-615.73 254.82,-613.1 261.2,-621.56 265.09,-615.73"/>
</g>
<!-- 3 -->
<g id="node4" class="node">
<title>3</title>
<path fill="none" stroke="black" d="M146.63,-540C146.63,-540 82.72,-540 82.72,-540 76.72,-540 70.72,-534 70.72,-528 70.72,-528 70.72,-516 70.72,-516 70.72,-510 76.72,-504 82.72,-504 82.72,-504 146.63,-504 146.63,-504 152.63,-504 158.63,-510 158.63,-516 158.63,-516 158.63,-528 158.63,-528 158.63,-534 152.63,-540 146.63,-540"/>
<text xml:space="preserve" text-anchor="middle" x="114.67" y="-517.8" font-family="Times,serif" font-size="14.00">Identifier (n)</text>
</g>
<!-- 2&#45;&gt;3 -->
<g id="edge3" class="edge">
<title>2&#45;&gt;3</title>
<path fill="none" stroke="black" d="M199.45,-575.52C185.19,-566.68 167.68,-555.84 152.29,-546.3"/>
<polygon fill="black" stroke="black" points="154.17,-543.35 143.82,-541.06 150.48,-549.3 154.17,-543.35"/>
</g>
<!-- 4 -->
<g id="node5" class="node">
<title>4</title>
<path fill="none" stroke="black" d="M266.45,-540C266.45,-540 188.9,-540 188.9,-540 182.9,-540 176.9,-534 176.9,-528 176.9,-528 176.9,-516 176.9,-516 176.9,-510 182.9,-504 188.9,-504 188.9,-504 266.45,-504 266.45,-504 272.45,-504 278.45,-510 278.45,-516 278.45,-516 278.45,-528 278.45,-528 278.45,-534 272.45,-540 266.45,-540"/>
<text xml:space="preserve" text-anchor="middle" x="227.67" y="-517.8" font-family="Times,serif" font-size="14.00">CallExpression</text>
</g>
<!-- 2&#45;&gt;4 -->
<g id="edge4" class="edge">
<title>2&#45;&gt;4</title>
<path fill="none" stroke="black" d="M227.67,-575.7C227.67,-568.41 227.67,-559.73 227.67,-551.54"/>
<polygon fill="black" stroke="black" points="231.17,-551.62 227.67,-541.62 224.17,-551.62 231.17,-551.62"/>
</g>
<!-- 5 -->
<g id="node6" class="node">
<title>5</title>
<path fill="none" stroke="black" d="M147.07,-468C147.07,-468 44.28,-468 44.28,-468 38.28,-468 32.28,-462 32.28,-456 32.28,-456 32.28,-444 32.28,-444 32.28,-438 38.28,-432 44.28,-432 44.28,-432 147.07,-432 147.07,-432 153.07,-432 159.07,-438 159.07,-444 159.07,-444 159.07,-456 159.07,-456 159.07,-462 153.07,-468 147.07,-468"/>
<text xml:space="preserve" text-anchor="middle" x="95.67" y="-445.8" font-family="Times,serif" font-size="14.00">Identifier (Number)</text>
</g>
<!-- 4&#45;&gt;5 -->
<g id="edge5" class="edge">
<title>4&#45;&gt;5</title>
<path fill="none" stroke="black" d="M194.71,-503.52C177.65,-494.47 156.62,-483.32 138.34,-473.62"/>
<polygon fill="black" stroke="black" points="140.03,-470.56 129.56,-468.97 136.75,-476.75 140.03,-470.56"/>
</g>
<!-- 6 -->
<g id="node7" class="node">
<title>6</title>
<path fill="none" stroke="black" d="M266.45,-468C266.45,-468 188.9,-468 188.9,-468 182.9,-468 176.9,-462 176.9,-456 176.9,-456 176.9,-444 176.9,-444 176.9,-438 182.9,-432 188.9,-432 188.9,-432 266.45,-432 266.45,-432 272.45,-432 278.45,-438 278.45,-444 278.45,-444 278.45,-456 278.45,-456 278.45,-462 272.45,-468 266.45,-468"/>
<text xml:space="preserve" text-anchor="middle" x="227.67" y="-445.8" font-family="Times,serif" font-size="14.00">CallExpression</text>
</g>
<!-- 4&#45;&gt;6 -->
<g id="edge6" class="edge">
<title>4&#45;&gt;6</title>
<path fill="none" stroke="black" d="M227.67,-503.7C227.67,-496.41 227.67,-487.73 227.67,-479.54"/>
<polygon fill="black" stroke="black" points="231.17,-479.62 227.67,-469.62 224.17,-479.62 231.17,-479.62"/>
</g>
<!-- 7 -->
<g id="node8" class="node">
<title>7</title>
<path fill="none" stroke="black" d="M109.35,-396C109.35,-396 12,-396 12,-396 6,-396 0,-390 0,-384 0,-384 0,-372 0,-372 0,-366 6,-360 12,-360 12,-360 109.35,-360 109.35,-360 115.35,-360 121.35,-366 121.35,-372 121.35,-372 121.35,-384 121.35,-384 121.35,-390 115.35,-396 109.35,-396"/>
<text xml:space="preserve" text-anchor="middle" x="60.67" y="-373.8" font-family="Times,serif" font-size="14.00">Identifier (prompt)</text>
</g>
<!-- 6&#45;&gt;7 -->
<g id="edge7" class="edge">
<title>6&#45;&gt;7</title>
<path fill="none" stroke="black" d="M185.96,-431.52C163.76,-422.21 136.25,-410.68 112.67,-400.79"/>
<polygon fill="black" stroke="black" points="114.11,-397.6 103.54,-396.97 111.41,-404.06 114.11,-397.6"/>
</g>
<!-- 8 -->
<g id="node9" class="node">
<title>8</title>
<path fill="none" stroke="black" d="M303.76,-396C303.76,-396 151.59,-396 151.59,-396 145.59,-396 139.59,-390 139.59,-384 139.59,-384 139.59,-372 139.59,-372 139.59,-366 145.59,-360 151.59,-360 151.59,-360 303.76,-360 303.76,-360 309.76,-360 315.76,-366 315.76,-372 315.76,-372 315.76,-384 315.76,-384 315.76,-390 309.76,-396 303.76,-396"/>
<text xml:space="preserve" text-anchor="middle" x="227.67" y="-373.8" font-family="Times,serif" font-size="14.00">Literal (Digite um numero: )</text>
</g>
<!-- 6&#45;&gt;8 -->
<g id="edge8" class="edge">
<title>6&#45;&gt;8</title>
<path fill="none" stroke="black" d="M227.67,-431.7C227.67,-424.41 227.67,-415.73 227.67,-407.54"/>
<polygon fill="black" stroke="black" points="231.17,-407.62 227.67,-397.62 224.17,-407.62 231.17,-407.62"/>
</g>
<!-- 10 -->
<g id="node11" class="node">
<title>10</title>
<path fill="none" stroke="black" d="M493.19,-612C493.19,-612 380.16,-612 380.16,-612 374.16,-612 368.16,-606 368.16,-600 368.16,-600 368.16,-588 368.16,-588 368.16,-582 374.16,-576 380.16,-576 380.16,-576 493.19,-576 493.19,-576 499.19,-576 505.19,-582 505.19,-588 505.19,-588 505.19,-600 505.19,-600 505.19,-606 499.19,-612 493.19,-612"/>
<text xml:space="preserve" text-anchor="middle" x="436.67" y="-589.8" font-family="Times,serif" font-size="14.00">BinaryExpression (&lt;)</text>
</g>
<!-- 9&#45;&gt;10 -->
<g id="edge10" class="edge">
<title>9&#45;&gt;10</title>
<path fill="none" stroke="black" d="M488.62,-647.7C480.43,-639.39 470.46,-629.28 461.46,-620.14"/>
<polygon fill="black" stroke="black" points="464.11,-617.85 454.6,-613.18 459.12,-622.76 464.11,-617.85"/>
</g>
<!-- 13 -->
<g id="node14" class="node">
<title>13</title>
<path fill="none" stroke="black" d="M616.39,-612C616.39,-612 534.96,-612 534.96,-612 528.96,-612 522.96,-606 522.96,-600 522.96,-600 522.96,-588 522.96,-588 522.96,-582 528.96,-576 534.96,-576 534.96,-576 616.39,-576 616.39,-576 622.39,-576 628.39,-582 628.39,-588 628.39,-588 628.39,-600 628.39,-600 628.39,-606 622.39,-612 616.39,-612"/>
<text xml:space="preserve" text-anchor="middle" x="575.67" y="-589.8" font-family="Times,serif" font-size="14.00">BlockStatement</text>
</g>
<!-- 9&#45;&gt;13 -->
<g id="edge13" class="edge">
<title>9&#45;&gt;13</title>
<path fill="none" stroke="black" d="M522.98,-647.7C531.28,-639.39 541.4,-629.28 550.53,-620.14"/>
<polygon fill="black" stroke="black" points="552.9,-622.72 557.5,-613.17 547.95,-617.77 552.9,-622.72"/>
</g>
<!-- 18 -->
<g id="node19" class="node">
<title>18</title>
<path fill="none" stroke="black" d="M806.39,-612C806.39,-612 724.96,-612 724.96,-612 718.96,-612 712.96,-606 712.96,-600 712.96,-600 712.96,-588 712.96,-588 712.96,-582 718.96,-576 724.96,-576 724.96,-576 806.39,-576 806.39,-576 812.39,-576 818.39,-582 818.39,-588 818.39,-588 818.39,-600 818.39,-600 818.39,-606 812.39,-612 806.39,-612"/>
<text xml:space="preserve" text-anchor="middle" x="765.67" y="-589.8" font-family="Times,serif" font-size="14.00">BlockStatement</text>
</g>
<!-- 9&#45;&gt;18 -->
<g id="edge18" class="edge">
<title>9&#45;&gt;18</title>
<path fill="none" stroke="black" d="M546.59,-653.99C588.24,-642.77 653.42,-625.22 701.87,-612.18"/>
<polygon fill="black" stroke="black" points="702.66,-615.59 711.41,-609.61 700.84,-608.83 702.66,-615.59"/>
</g>
<!-- 11 -->
<g id="node12" class="node">
<title>11</title>
<path fill="none" stroke="black" d="M379.63,-540C379.63,-540 315.72,-540 315.72,-540 309.72,-540 303.72,-534 303.72,-528 303.72,-528 303.72,-516 303.72,-516 303.72,-510 309.72,-504 315.72,-504 315.72,-504 379.63,-504 379.63,-504 385.63,-504 391.63,-510 391.63,-516 391.63,-516 391.63,-528 391.63,-528 391.63,-534 385.63,-540 379.63,-540"/>
<text xml:space="preserve" text-anchor="middle" x="347.67" y="-517.8" font-family="Times,serif" font-size="14.00">Identifier (n)</text>
</g>
<!-- 10&#45;&gt;11 -->
<g id="edge11" class="edge">
<title>10&#45;&gt;11</title>
<path fill="none" stroke="black" d="M414.67,-575.7C403.76,-567.11 390.4,-556.61 378.49,-547.24"/>
<polygon fill="black" stroke="black" points="380.94,-544.71 370.92,-541.28 376.62,-550.22 380.94,-544.71"/>
</g>
<!-- 12 -->
<g id="node13" class="node">
<title>12</title>
<path fill="none" stroke="black" d="M471.24,-540C471.24,-540 422.11,-540 422.11,-540 416.11,-540 410.11,-534 410.11,-528 410.11,-528 410.11,-516 410.11,-516 410.11,-510 416.11,-504 422.11,-504 422.11,-504 471.24,-504 471.24,-504 477.24,-504 483.24,-510 483.24,-516 483.24,-516 483.24,-528 483.24,-528 483.24,-534 477.24,-540 471.24,-540"/>
<text xml:space="preserve" text-anchor="middle" x="446.67" y="-517.8" font-family="Times,serif" font-size="14.00">Literal (1)</text>
</g>
<!-- 10&#45;&gt;12 -->
<g id="edge12" class="edge">
<title>10&#45;&gt;12</title>
<path fill="none" stroke="black" d="M439.15,-575.7C440.2,-568.32 441.46,-559.52 442.64,-551.25"/>
<polygon fill="black" stroke="black" points="446.07,-552 444.02,-541.6 439.14,-551.01 446.07,-552"/>
</g>
<!-- 14 -->
<g id="node15" class="node">
<title>14</title>
<path fill="none" stroke="black" d="M630.77,-540C630.77,-540 520.57,-540 520.57,-540 514.57,-540 508.57,-534 508.57,-528 508.57,-528 508.57,-516 508.57,-516 508.57,-510 514.57,-504 520.57,-504 520.57,-504 630.77,-504 630.77,-504 636.77,-504 642.77,-510 642.77,-516 642.77,-516 642.77,-528 642.77,-528 642.77,-534 636.77,-540 630.77,-540"/>
<text xml:space="preserve" text-anchor="middle" x="575.67" y="-517.8" font-family="Times,serif" font-size="14.00">ExpressionStatement</text>
</g>
<!-- 13&#45;&gt;14 -->
<g id="edge14" class="edge">
<title>13&#45;&gt;14</title>
<path fill="none" stroke="black" d="M575.67,-575.7C575.67,-568.41 575.67,-559.73 575.67,-551.54"/>
<polygon fill="black" stroke="black" points="579.17,-551.62 575.67,-541.62 572.17,-551.62 579.17,-551.62"/>
</g>
<!-- 15 -->
<g id="node16" class="node">
<title>15</title>
<path fill="none" stroke="black" d="M614.45,-468C614.45,-468 536.9,-468 536.9,-468 530.9,-468 524.9,-462 524.9,-456 524.9,-456 524.9,-444 524.9,-444 524.9,-438 530.9,-432 536.9,-432 536.9,-432 614.45,-432 614.45,-432 620.45,-432 626.45,-438 626.45,-444 626.45,-444 626.45,-456 626.45,-456 626.45,-462 620.45,-468 614.45,-468"/>
<text xml:space="preserve" text-anchor="middle" x="575.67" y="-445.8" font-family="Times,serif" font-size="14.00">CallExpression</text>
</g>
<!-- 14&#45;&gt;15 -->
<g id="edge15" class="edge">
<title>14&#45;&gt;15</title>
<path fill="none" stroke="black" d="M575.67,-503.7C575.67,-496.41 575.67,-487.73 575.67,-479.54"/>
<polygon fill="black" stroke="black" points="579.17,-479.62 575.67,-469.62 572.17,-479.62 579.17,-479.62"/>
</g>
<!-- 16 -->
<g id="node17" class="node">
<title>16</title>
<path fill="none" stroke="black" d="M467.21,-396C467.21,-396 346.14,-396 346.14,-396 340.14,-396 334.14,-390 334.14,-384 334.14,-384 334.14,-372 334.14,-372 334.14,-366 340.14,-360 346.14,-360 346.14,-360 467.21,-360 467.21,-360 473.21,-360 479.21,-366 479.21,-372 479.21,-372 479.21,-384 479.21,-384 479.21,-390 473.21,-396 467.21,-396"/>
<text xml:space="preserve" text-anchor="middle" x="406.67" y="-373.8" font-family="Times,serif" font-size="14.00">Identifier (console.log)</text>
</g>
<!-- 15&#45;&gt;16 -->
<g id="edge16" class="edge">
<title>15&#45;&gt;16</title>
<path fill="none" stroke="black" d="M533.46,-431.52C510.9,-422.17 482.9,-410.57 458.97,-400.66"/>
<polygon fill="black" stroke="black" points="460.62,-397.55 450.04,-396.96 457.94,-404.02 460.62,-397.55"/>
</g>
<!-- 17 -->
<g id="node18" class="node">
<title>17</title>
<path fill="none" stroke="black" d="M670.15,-396C670.15,-396 509.2,-396 509.2,-396 503.2,-396 497.2,-390 497.2,-384 497.2,-384 497.2,-372 497.2,-372 497.2,-366 503.2,-360 509.2,-360 509.2,-360 670.15,-360 670.15,-360 676.15,-360 682.15,-366 682.15,-372 682.15,-372 682.15,-384 682.15,-384 682.15,-390 676.15,-396 670.15,-396"/>
<text xml:space="preserve" text-anchor="middle" x="589.67" y="-373.8" font-family="Times,serif" font-size="14.00">Literal (Erro: n deve ser &gt;= 1)</text>
</g>
<!-- 15&#45;&gt;17 -->
<g id="edge17" class="edge">
<title>15&#45;&gt;17</title>
<path fill="none" stroke="black" d="M579.13,-431.7C580.61,-424.32 582.37,-415.52 584.02,-407.25"/>
<polygon fill="black" stroke="black" points="587.43,-408.08 585.96,-397.59 580.56,-406.71 587.43,-408.08"/>
</g>
<!-- 19 -->
<g id="node20" class="node">
<title>19</title>
<path fill="none" stroke="black" d="M818.42,-540C818.42,-540 712.93,-540 712.93,-540 706.93,-540 700.93,-534 700.93,-528 700.93,-528 700.93,-516 700.93,-516 700.93,-510 706.93,-504 712.93,-504 712.93,-504 818.42,-504 818.42,-504 824.42,-504 830.42,-510 830.42,-516 830.42,-516 830.42,-528 830.42,-528 830.42,-534 824.42,-540 818.42,-540"/>
<text xml:space="preserve" text-anchor="middle" x="765.67" y="-517.8" font-family="Times,serif" font-size="14.00">VariableDeclaration</text>
</g>
<!-- 18&#45;&gt;19 -->
<g id="edge19" class="edge">
<title>18&#45;&gt;19</title>
<path fill="none" stroke="black" d="M765.67,-575.7C765.67,-568.41 765.67,-559.73 765.67,-551.54"/>
<polygon fill="black" stroke="black" points="769.17,-551.62 765.67,-541.62 762.17,-551.62 769.17,-551.62"/>
</g>
<!-- 23 -->
<g id="node24" class="node">
<title>23</title>
<path fill="none" stroke="black" d="M1029.77,-540C1029.77,-540 947.58,-540 947.58,-540 941.58,-540 935.58,-534 935.58,-528 935.58,-528 935.58,-516 935.58,-516 935.58,-510 941.58,-504 947.58,-504 947.58,-504 1029.77,-504 1029.77,-504 1035.77,-504 1041.77,-510 1041.77,-516 1041.77,-516 1041.77,-528 1041.77,-528 1041.77,-534 1035.77,-540 1029.77,-540"/>
<text xml:space="preserve" text-anchor="middle" x="988.67" y="-517.8" font-family="Times,serif" font-size="14.00">WhileStatement</text>
</g>
<!-- 18&#45;&gt;23 -->
<g id="edge23" class="edge">
<title>18&#45;&gt;23</title>
<path fill="none" stroke="black" d="M818.81,-576.32C850.54,-566.36 891.06,-553.64 924.57,-543.12"/>
<polygon fill="black" stroke="black" points="925.24,-546.58 933.73,-540.25 923.14,-539.9 925.24,-546.58"/>
</g>
<!-- 20 -->
<g id="node21" class="node">
<title>20</title>
<path fill="none" stroke="black" d="M815.31,-468C815.31,-468 716.04,-468 716.04,-468 710.04,-468 704.04,-462 704.04,-456 704.04,-456 704.04,-444 704.04,-444 704.04,-438 710.04,-432 716.04,-432 716.04,-432 815.31,-432 815.31,-432 821.31,-432 827.31,-438 827.31,-444 827.31,-444 827.31,-456 827.31,-456 827.31,-462 821.31,-468 815.31,-468"/>
<text xml:space="preserve" text-anchor="middle" x="765.67" y="-445.8" font-family="Times,serif" font-size="14.00">VariableDeclarator</text>
</g>
<!-- 19&#45;&gt;20 -->
<g id="edge20" class="edge">
<title>19&#45;&gt;20</title>
<path fill="none" stroke="black" d="M765.67,-503.7C765.67,-496.41 765.67,-487.73 765.67,-479.54"/>
<polygon fill="black" stroke="black" points="769.17,-479.62 765.67,-469.62 762.17,-479.62 769.17,-479.62"/>
</g>
<!-- 21 -->
<g id="node22" class="node">
<title>21</title>
<path fill="none" stroke="black" d="M773.07,-396C773.07,-396 712.28,-396 712.28,-396 706.28,-396 700.28,-390 700.28,-384 700.28,-384 700.28,-372 700.28,-372 700.28,-366 706.28,-360 712.28,-360 712.28,-360 773.07,-360 773.07,-360 779.07,-360 785.07,-366 785.07,-372 785.07,-372 785.07,-384 785.07,-384 785.07,-390 779.07,-396 773.07,-396"/>
<text xml:space="preserve" text-anchor="middle" x="742.67" y="-373.8" font-family="Times,serif" font-size="14.00">Identifier (i)</text>
</g>
<!-- 20&#45;&gt;21 -->
<g id="edge21" class="edge">
<title>20&#45;&gt;21</title>
<path fill="none" stroke="black" d="M759.99,-431.7C757.54,-424.24 754.61,-415.32 751.86,-406.97"/>
<polygon fill="black" stroke="black" points="755.21,-405.95 748.77,-397.54 748.56,-408.14 755.21,-405.95"/>
</g>
<!-- 22 -->
<g id="node23" class="node">
<title>22</title>
<path fill="none" stroke="black" d="M864.24,-396C864.24,-396 815.11,-396 815.11,-396 809.11,-396 803.11,-390 803.11,-384 803.11,-384 803.11,-372 803.11,-372 803.11,-366 809.11,-360 815.11,-360 815.11,-360 864.24,-360 864.24,-360 870.24,-360 876.24,-366 876.24,-372 876.24,-372 876.24,-384 876.24,-384 876.24,-390 870.24,-396 864.24,-396"/>
<text xml:space="preserve" text-anchor="middle" x="839.67" y="-373.8" font-family="Times,serif" font-size="14.00">Literal (0)</text>
</g>
<!-- 20&#45;&gt;22 -->
<g id="edge22" class="edge">
<title>20&#45;&gt;22</title>
<path fill="none" stroke="black" d="M783.97,-431.7C792.77,-423.37 803.5,-413.22 813.17,-404.07"/>
<polygon fill="black" stroke="black" points="815.38,-406.8 820.24,-397.39 810.57,-401.72 815.38,-406.8"/>
</g>
<!-- 24 -->
<g id="node25" class="node">
<title>24</title>
<path fill="none" stroke="black" d="M1045.19,-468C1045.19,-468 932.16,-468 932.16,-468 926.16,-468 920.16,-462 920.16,-456 920.16,-456 920.16,-444 920.16,-444 920.16,-438 926.16,-432 932.16,-432 932.16,-432 1045.19,-432 1045.19,-432 1051.19,-432 1057.19,-438 1057.19,-444 1057.19,-444 1057.19,-456 1057.19,-456 1057.19,-462 1051.19,-468 1045.19,-468"/>
<text xml:space="preserve" text-anchor="middle" x="988.67" y="-445.8" font-family="Times,serif" font-size="14.00">BinaryExpression (&lt;)</text>
</g>
<!-- 23&#45;&gt;24 -->
<g id="edge24" class="edge">
<title>23&#45;&gt;24</title>
<path fill="none" stroke="black" d="M988.67,-503.7C988.67,-496.41 988.67,-487.73 988.67,-479.54"/>
<polygon fill="black" stroke="black" points="992.17,-479.62 988.67,-469.62 985.17,-479.62 992.17,-479.62"/>
</g>
<!-- 27 -->
<g id="node28" class="node">
<title>27</title>
<path fill="none" stroke="black" d="M1423.39,-468C1423.39,-468 1341.96,-468 1341.96,-468 1335.96,-468 1329.96,-462 1329.96,-456 1329.96,-456 1329.96,-444 1329.96,-444 1329.96,-438 1335.96,-432 1341.96,-432 1341.96,-432 1423.39,-432 1423.39,-432 1429.39,-432 1435.39,-438 1435.39,-444 1435.39,-444 1435.39,-456 1435.39,-456 1435.39,-462 1429.39,-468 1423.39,-468"/>
<text xml:space="preserve" text-anchor="middle" x="1382.67" y="-445.8" font-family="Times,serif" font-size="14.00">BlockStatement</text>
</g>
<!-- 23&#45;&gt;27 -->
<g id="edge27" class="edge">
<title>23&#45;&gt;27</title>
<path fill="none" stroke="black" d="M1042.22,-511.49C1114.12,-498.71 1241.68,-476.05 1318.59,-462.39"/>
<polygon fill="black" stroke="black" points="1318.84,-465.9 1328.07,-460.7 1317.61,-459 1318.84,-465.9"/>
</g>
<!-- 25 -->
<g id="node26" class="node">
<title>25</title>
<path fill="none" stroke="black" d="M967.07,-396C967.07,-396 906.28,-396 906.28,-396 900.28,-396 894.28,-390 894.28,-384 894.28,-384 894.28,-372 894.28,-372 894.28,-366 900.28,-360 906.28,-360 906.28,-360 967.07,-360 967.07,-360 973.07,-360 979.07,-366 979.07,-372 979.07,-372 979.07,-384 979.07,-384 979.07,-390 973.07,-396 967.07,-396"/>
<text xml:space="preserve" text-anchor="middle" x="936.67" y="-373.8" font-family="Times,serif" font-size="14.00">Identifier (i)</text>
</g>
<!-- 24&#45;&gt;25 -->
<g id="edge25" class="edge">
<title>24&#45;&gt;25</title>
<path fill="none" stroke="black" d="M975.82,-431.7C969.9,-423.73 962.75,-414.1 956.18,-405.26"/>
<polygon fill="black" stroke="black" points="959.06,-403.26 950.28,-397.32 953.44,-407.43 959.06,-403.26"/>
</g>
<!-- 26 -->
<g id="node27" class="node">
<title>26</title>
<path fill="none" stroke="black" d="M1072.63,-396C1072.63,-396 1008.72,-396 1008.72,-396 1002.72,-396 996.72,-390 996.72,-384 996.72,-384 996.72,-372 996.72,-372 996.72,-366 1002.72,-360 1008.72,-360 1008.72,-360 1072.63,-360 1072.63,-360 1078.63,-360 1084.63,-366 1084.63,-372 1084.63,-372 1084.63,-384 1084.63,-384 1084.63,-390 1078.63,-396 1072.63,-396"/>
<text xml:space="preserve" text-anchor="middle" x="1040.67" y="-373.8" font-family="Times,serif" font-size="14.00">Identifier (n)</text>
</g>
<!-- 24&#45;&gt;26 -->
<g id="edge26" class="edge">
<title>24&#45;&gt;26</title>
<path fill="none" stroke="black" d="M1001.53,-431.7C1007.45,-423.73 1014.6,-414.1 1021.16,-405.26"/>
<polygon fill="black" stroke="black" points="1023.91,-407.43 1027.07,-397.32 1018.29,-403.26 1023.91,-407.43"/>
</g>
<!-- 28 -->
<g id="node29" class="node">
<title>28</title>
<path fill="none" stroke="black" d="M1220.42,-396C1220.42,-396 1114.93,-396 1114.93,-396 1108.93,-396 1102.93,-390 1102.93,-384 1102.93,-384 1102.93,-372 1102.93,-372 1102.93,-366 1108.93,-360 1114.93,-360 1114.93,-360 1220.42,-360 1220.42,-360 1226.42,-360 1232.42,-366 1232.42,-372 1232.42,-372 1232.42,-384 1232.42,-384 1232.42,-390 1226.42,-396 1220.42,-396"/>
<text xml:space="preserve" text-anchor="middle" x="1167.67" y="-373.8" font-family="Times,serif" font-size="14.00">VariableDeclaration</text>
</g>
<!-- 27&#45;&gt;28 -->
<g id="edge28" class="edge">
<title>27&#45;&gt;28</title>
<path fill="none" stroke="black" d="M1329.53,-431.7C1300.05,-422.1 1263.17,-410.09 1232.07,-399.97"/>
<polygon fill="black" stroke="black" points="1233.36,-396.71 1222.77,-396.94 1231.19,-403.36 1233.36,-396.71"/>
</g>
<!-- 32 -->
<g id="node33" class="node">
<title>32</title>
<path fill="none" stroke="black" d="M1367.42,-396C1367.42,-396 1261.93,-396 1261.93,-396 1255.93,-396 1249.93,-390 1249.93,-384 1249.93,-384 1249.93,-372 1249.93,-372 1249.93,-366 1255.93,-360 1261.93,-360 1261.93,-360 1367.42,-360 1367.42,-360 1373.42,-360 1379.42,-366 1379.42,-372 1379.42,-372 1379.42,-384 1379.42,-384 1379.42,-390 1373.42,-396 1367.42,-396"/>
<text xml:space="preserve" text-anchor="middle" x="1314.67" y="-373.8" font-family="Times,serif" font-size="14.00">VariableDeclaration</text>
</g>
<!-- 27&#45;&gt;32 -->
<g id="edge32" class="edge">
<title>27&#45;&gt;32</title>
<path fill="none" stroke="black" d="M1365.87,-431.7C1357.8,-423.39 1347.97,-413.28 1339.1,-404.14"/>
<polygon fill="black" stroke="black" points="1341.82,-401.92 1332.34,-397.19 1336.8,-406.8 1341.82,-401.92"/>
</g>
<!-- 36 -->
<g id="node37" class="node">
<title>36</title>
<path fill="none" stroke="black" d="M1491.77,-396C1491.77,-396 1409.58,-396 1409.58,-396 1403.58,-396 1397.58,-390 1397.58,-384 1397.58,-384 1397.58,-372 1397.58,-372 1397.58,-366 1403.58,-360 1409.58,-360 1409.58,-360 1491.77,-360 1491.77,-360 1497.77,-360 1503.77,-366 1503.77,-372 1503.77,-372 1503.77,-384 1503.77,-384 1503.77,-390 1497.77,-396 1491.77,-396"/>
<text xml:space="preserve" text-anchor="middle" x="1450.67" y="-373.8" font-family="Times,serif" font-size="14.00">WhileStatement</text>
</g>
<!-- 27&#45;&gt;36 -->
<g id="edge36" class="edge">
<title>27&#45;&gt;36</title>
<path fill="none" stroke="black" d="M1399.48,-431.7C1407.55,-423.39 1417.38,-413.28 1426.25,-404.14"/>
<polygon fill="black" stroke="black" points="1428.55,-406.8 1433,-397.19 1423.53,-401.92 1428.55,-406.8"/>
</g>
<!-- 77 -->
<g id="node78" class="node">
<title>77</title>
<path fill="none" stroke="black" d="M2090.77,-396C2090.77,-396 1980.57,-396 1980.57,-396 1974.57,-396 1968.57,-390 1968.57,-384 1968.57,-384 1968.57,-372 1968.57,-372 1968.57,-366 1974.57,-360 1980.57,-360 1980.57,-360 2090.77,-360 2090.77,-360 2096.77,-360 2102.77,-366 2102.77,-372 2102.77,-372 2102.77,-384 2102.77,-384 2102.77,-390 2096.77,-396 2090.77,-396"/>
<text xml:space="preserve" text-anchor="middle" x="2035.67" y="-373.8" font-family="Times,serif" font-size="14.00">ExpressionStatement</text>
</g>
<!-- 27&#45;&gt;77 -->
<g id="edge77" class="edge">
<title>27&#45;&gt;77</title>
<path fill="none" stroke="black" d="M1435.84,-443.3C1550.56,-431 1821.88,-401.92 1956.74,-387.46"/>
<polygon fill="black" stroke="black" points="1957.11,-390.94 1966.68,-386.4 1956.36,-383.98 1957.11,-390.94"/>
</g>
<!-- 81 -->
<g id="node82" class="node">
<title>81</title>
<path fill="none" stroke="black" d="M2392.77,-396C2392.77,-396 2282.57,-396 2282.57,-396 2276.57,-396 2270.57,-390 2270.57,-384 2270.57,-384 2270.57,-372 2270.57,-372 2270.57,-366 2276.57,-360 2282.57,-360 2282.57,-360 2392.77,-360 2392.77,-360 2398.77,-360 2404.77,-366 2404.77,-372 2404.77,-372 2404.77,-384 2404.77,-384 2404.77,-390 2398.77,-396 2392.77,-396"/>
<text xml:space="preserve" text-anchor="middle" x="2337.67" y="-373.8" font-family="Times,serif" font-size="14.00">ExpressionStatement</text>
</g>
<!-- 27&#45;&gt;81 -->
<g id="edge81" class="edge">
<title>27&#45;&gt;81</title>
<path fill="none" stroke="black" d="M1435.73,-445.19C1556,-436.54 1858.57,-414.72 2111.67,-396 2160.66,-392.38 2215.62,-388.24 2259.07,-384.96"/>
<polygon fill="black" stroke="black" points="2259.22,-388.46 2268.92,-384.22 2258.69,-381.48 2259.22,-388.46"/>
</g>
<!-- 29 -->
<g id="node30" class="node">
<title>29</title>
<path fill="none" stroke="black" d="M870.31,-324C870.31,-324 771.04,-324 771.04,-324 765.04,-324 759.04,-318 759.04,-312 759.04,-312 759.04,-300 759.04,-300 759.04,-294 765.04,-288 771.04,-288 771.04,-288 870.31,-288 870.31,-288 876.31,-288 882.31,-294 882.31,-300 882.31,-300 882.31,-312 882.31,-312 882.31,-318 876.31,-324 870.31,-324"/>
<text xml:space="preserve" text-anchor="middle" x="820.67" y="-301.8" font-family="Times,serif" font-size="14.00">VariableDeclarator</text>
</g>
<!-- 28&#45;&gt;29 -->
<g id="edge29" class="edge">
<title>28&#45;&gt;29</title>
<path fill="none" stroke="black" d="M1102.73,-361.95C1099.67,-361.28 1096.64,-360.63 1093.67,-360 1026.07,-345.68 948.71,-330.8 893.65,-320.47"/>
<polygon fill="black" stroke="black" points="894.56,-317.08 884.09,-318.68 893.27,-323.96 894.56,-317.08"/>
</g>
<!-- 30 -->
<g id="node31" class="node">
<title>30</title>
<path fill="none" stroke="black" d="M754.07,-252C754.07,-252 693.28,-252 693.28,-252 687.28,-252 681.28,-246 681.28,-240 681.28,-240 681.28,-228 681.28,-228 681.28,-222 687.28,-216 693.28,-216 693.28,-216 754.07,-216 754.07,-216 760.07,-216 766.07,-222 766.07,-228 766.07,-228 766.07,-240 766.07,-240 766.07,-246 760.07,-252 754.07,-252"/>
<text xml:space="preserve" text-anchor="middle" x="723.67" y="-229.8" font-family="Times,serif" font-size="14.00">Identifier (j)</text>
</g>
<!-- 29&#45;&gt;30 -->
<g id="edge30" class="edge">
<title>29&#45;&gt;30</title>
<path fill="none" stroke="black" d="M796.7,-287.7C784.69,-279.03 769.96,-268.4 756.88,-258.96"/>
<polygon fill="black" stroke="black" points="759.1,-256.25 748.94,-253.23 755,-261.92 759.1,-256.25"/>
</g>
<!-- 31 -->
<g id="node32" class="node">
<title>31</title>
<path fill="none" stroke="black" d="M845.24,-252C845.24,-252 796.11,-252 796.11,-252 790.11,-252 784.11,-246 784.11,-240 784.11,-240 784.11,-228 784.11,-228 784.11,-222 790.11,-216 796.11,-216 796.11,-216 845.24,-216 845.24,-216 851.24,-216 857.24,-222 857.24,-228 857.24,-228 857.24,-240 857.24,-240 857.24,-246 851.24,-252 845.24,-252"/>
<text xml:space="preserve" text-anchor="middle" x="820.67" y="-229.8" font-family="Times,serif" font-size="14.00">Literal (0)</text>
</g>
<!-- 29&#45;&gt;31 -->
<g id="edge31" class="edge">
<title>29&#45;&gt;31</title>
<path fill="none" stroke="black" d="M820.67,-287.7C820.67,-280.41 820.67,-271.73 820.67,-263.54"/>
<polygon fill="black" stroke="black" points="824.17,-263.62 820.67,-253.62 817.17,-263.62 824.17,-263.62"/>
</g>
<!-- 33 -->
<g id="node34" class="node">
<title>33</title>
<path fill="none" stroke="black" d="M1088.31,-324C1088.31,-324 989.04,-324 989.04,-324 983.04,-324 977.04,-318 977.04,-312 977.04,-312 977.04,-300 977.04,-300 977.04,-294 983.04,-288 989.04,-288 989.04,-288 1088.31,-288 1088.31,-288 1094.31,-288 1100.31,-294 1100.31,-300 1100.31,-300 1100.31,-312 1100.31,-312 1100.31,-318 1094.31,-324 1088.31,-324"/>
<text xml:space="preserve" text-anchor="middle" x="1038.67" y="-301.8" font-family="Times,serif" font-size="14.00">VariableDeclarator</text>
</g>
<!-- 32&#45;&gt;33 -->
<g id="edge33" class="edge">
<title>32&#45;&gt;33</title>
<path fill="none" stroke="black" d="M1249.62,-360.5C1208.13,-349.98 1154.29,-336.32 1111.39,-325.44"/>
<polygon fill="black" stroke="black" points="1112.47,-322.11 1101.92,-323.04 1110.75,-328.89 1112.47,-322.11"/>
</g>
<!-- 34 -->
<g id="node35" class="node">
<title>34</title>
<path fill="none" stroke="black" d="M972.51,-252C972.51,-252 886.84,-252 886.84,-252 880.84,-252 874.84,-246 874.84,-240 874.84,-240 874.84,-228 874.84,-228 874.84,-222 880.84,-216 886.84,-216 886.84,-216 972.51,-216 972.51,-216 978.51,-216 984.51,-222 984.51,-228 984.51,-228 984.51,-240 984.51,-240 984.51,-246 978.51,-252 972.51,-252"/>
<text xml:space="preserve" text-anchor="middle" x="929.67" y="-229.8" font-family="Times,serif" font-size="14.00">Identifier (valor)</text>
</g>
<!-- 33&#45;&gt;34 -->
<g id="edge34" class="edge">
<title>33&#45;&gt;34</title>
<path fill="none" stroke="black" d="M1011.45,-287.52C997.69,-278.68 980.81,-267.84 965.96,-258.3"/>
<polygon fill="black" stroke="black" points="968.13,-255.54 957.83,-253.08 964.35,-261.43 968.13,-255.54"/>
</g>
<!-- 35 -->
<g id="node36" class="node">
<title>35</title>
<path fill="none" stroke="black" d="M1063.24,-252C1063.24,-252 1014.11,-252 1014.11,-252 1008.11,-252 1002.11,-246 1002.11,-240 1002.11,-240 1002.11,-228 1002.11,-228 1002.11,-222 1008.11,-216 1014.11,-216 1014.11,-216 1063.24,-216 1063.24,-216 1069.24,-216 1075.24,-222 1075.24,-228 1075.24,-228 1075.24,-240 1075.24,-240 1075.24,-246 1069.24,-252 1063.24,-252"/>
<text xml:space="preserve" text-anchor="middle" x="1038.67" y="-229.8" font-family="Times,serif" font-size="14.00">Literal (1)</text>
</g>
<!-- 33&#45;&gt;35 -->
<g id="edge35" class="edge">
<title>33&#45;&gt;35</title>
<path fill="none" stroke="black" d="M1038.67,-287.7C1038.67,-280.41 1038.67,-271.73 1038.67,-263.54"/>
<polygon fill="black" stroke="black" points="1042.17,-263.62 1038.67,-253.62 1035.17,-263.62 1042.17,-263.62"/>
</g>
<!-- 37 -->
<g id="node38" class="node">
<title>37</title>
<path fill="none" stroke="black" d="M1299.14,-324C1299.14,-324 1178.21,-324 1178.21,-324 1172.21,-324 1166.21,-318 1166.21,-312 1166.21,-312 1166.21,-300 1166.21,-300 1166.21,-294 1172.21,-288 1178.21,-288 1178.21,-288 1299.14,-288 1299.14,-288 1305.14,-288 1311.14,-294 1311.14,-300 1311.14,-300 1311.14,-312 1311.14,-312 1311.14,-318 1305.14,-324 1299.14,-324"/>
<text xml:space="preserve" text-anchor="middle" x="1238.67" y="-301.8" font-family="Times,serif" font-size="14.00">BinaryExpression (&lt;=)</text>
</g>
<!-- 36&#45;&gt;37 -->
<g id="edge37" class="edge">
<title>36&#45;&gt;37</title>
<path fill="none" stroke="black" d="M1397.72,-359.52C1368.65,-349.92 1332.41,-337.95 1301.86,-327.86"/>
<polygon fill="black" stroke="black" points="1303.35,-324.67 1292.75,-324.86 1301.15,-331.32 1303.35,-324.67"/>
</g>
<!-- 40 -->
<g id="node41" class="node">
<title>40</title>
<path fill="none" stroke="black" d="M1703.39,-324C1703.39,-324 1621.96,-324 1621.96,-324 1615.96,-324 1609.96,-318 1609.96,-312 1609.96,-312 1609.96,-300 1609.96,-300 1609.96,-294 1615.96,-288 1621.96,-288 1621.96,-288 1703.39,-288 1703.39,-288 1709.39,-288 1715.39,-294 1715.39,-300 1715.39,-300 1715.39,-312 1715.39,-312 1715.39,-318 1709.39,-324 1703.39,-324"/>
<text xml:space="preserve" text-anchor="middle" x="1662.67" y="-301.8" font-family="Times,serif" font-size="14.00">BlockStatement</text>
</g>
<!-- 36&#45;&gt;40 -->
<g id="edge40" class="edge">
<title>36&#45;&gt;40</title>
<path fill="none" stroke="black" d="M1503.62,-359.52C1532.7,-349.92 1568.94,-337.95 1599.49,-327.86"/>
<polygon fill="black" stroke="black" points="1600.2,-331.32 1608.6,-324.86 1598,-324.67 1600.2,-331.32"/>
</g>
<!-- 38 -->
<g id="node39" class="node">
<title>38</title>
<path fill="none" stroke="black" d="M1166.07,-252C1166.07,-252 1105.28,-252 1105.28,-252 1099.28,-252 1093.28,-246 1093.28,-240 1093.28,-240 1093.28,-228 1093.28,-228 1093.28,-222 1099.28,-216 1105.28,-216 1105.28,-216 1166.07,-216 1166.07,-216 1172.07,-216 1178.07,-222 1178.07,-228 1178.07,-228 1178.07,-240 1178.07,-240 1178.07,-246 1172.07,-252 1166.07,-252"/>
<text xml:space="preserve" text-anchor="middle" x="1135.67" y="-229.8" font-family="Times,serif" font-size="14.00">Identifier (j)</text>
</g>
<!-- 37&#45;&gt;38 -->
<g id="edge38" class="edge">
<title>37&#45;&gt;38</title>
<path fill="none" stroke="black" d="M1212.95,-287.52C1200.07,-278.76 1184.3,-268.04 1170.36,-258.58"/>
<polygon fill="black" stroke="black" points="1172.56,-255.84 1162.32,-253.11 1168.63,-261.63 1172.56,-255.84"/>
</g>
<!-- 39 -->
<g id="node40" class="node">
<title>39</title>
<path fill="none" stroke="black" d="M1269.07,-252C1269.07,-252 1208.28,-252 1208.28,-252 1202.28,-252 1196.28,-246 1196.28,-240 1196.28,-240 1196.28,-228 1196.28,-228 1196.28,-222 1202.28,-216 1208.28,-216 1208.28,-216 1269.07,-216 1269.07,-216 1275.07,-216 1281.07,-222 1281.07,-228 1281.07,-228 1281.07,-240 1281.07,-240 1281.07,-246 1275.07,-252 1269.07,-252"/>
<text xml:space="preserve" text-anchor="middle" x="1238.67" y="-229.8" font-family="Times,serif" font-size="14.00">Identifier (i)</text>
</g>
<!-- 37&#45;&gt;39 -->
<g id="edge39" class="edge">
<title>37&#45;&gt;39</title>
<path fill="none" stroke="black" d="M1238.67,-287.7C1238.67,-280.41 1238.67,-271.73 1238.67,-263.54"/>
<polygon fill="black" stroke="black" points="1242.17,-263.62 1238.67,-253.62 1235.17,-263.62 1242.17,-263.62"/>
</g>
<!-- 41 -->
<g id="node42" class="node">
<title>41</title>
<path fill="none" stroke="black" d="M1420.77,-252C1420.77,-252 1310.57,-252 1310.57,-252 1304.57,-252 1298.57,-246 1298.57,-240 1298.57,-240 1298.57,-228 1298.57,-228 1298.57,-222 1304.57,-216 1310.57,-216 1310.57,-216 1420.77,-216 1420.77,-216 1426.77,-216 1432.77,-222 1432.77,-228 1432.77,-228 1432.77,-240 1432.77,-240 1432.77,-246 1426.77,-252 1420.77,-252"/>
<text xml:space="preserve" text-anchor="middle" x="1365.67" y="-229.8" font-family="Times,serif" font-size="14.00">ExpressionStatement</text>
</g>
<!-- 40&#45;&gt;41 -->
<g id="edge41" class="edge">
<title>40&#45;&gt;41</title>
<path fill="none" stroke="black" d="M1609.58,-292.49C1563.55,-281.64 1496.31,-265.79 1444.08,-253.48"/>
<polygon fill="black" stroke="black" points="1445.19,-250.14 1434.65,-251.26 1443.58,-256.96 1445.19,-250.14"/>
</g>
<!-- 47 -->
<g id="node48" class="node">
<title>47</title>
<path fill="none" stroke="black" d="M1568.42,-252C1568.42,-252 1462.93,-252 1462.93,-252 1456.93,-252 1450.93,-246 1450.93,-240 1450.93,-240 1450.93,-228 1450.93,-228 1450.93,-222 1456.93,-216 1462.93,-216 1462.93,-216 1568.42,-216 1568.42,-216 1574.42,-216 1580.42,-222 1580.42,-228 1580.42,-228 1580.42,-240 1580.42,-240 1580.42,-246 1574.42,-252 1568.42,-252"/>
<text xml:space="preserve" text-anchor="middle" x="1515.67" y="-229.8" font-family="Times,serif" font-size="14.00">VariableDeclaration</text>
</g>
<!-- 40&#45;&gt;47 -->
<g id="edge47" class="edge">
<title>40&#45;&gt;47</title>
<path fill="none" stroke="black" d="M1625.96,-287.52C1606.77,-278.38 1583.07,-267.09 1562.57,-257.33"/>
<polygon fill="black" stroke="black" points="1564.08,-254.17 1553.54,-253.03 1561.07,-260.49 1564.08,-254.17"/>
</g>
<!-- 53 -->
<g id="node54" class="node">
<title>53</title>
<path fill="none" stroke="black" d="M1715.42,-252C1715.42,-252 1609.93,-252 1609.93,-252 1603.93,-252 1597.93,-246 1597.93,-240 1597.93,-240 1597.93,-228 1597.93,-228 1597.93,-222 1603.93,-216 1609.93,-216 1609.93,-216 1715.42,-216 1715.42,-216 1721.42,-216 1727.42,-222 1727.42,-228 1727.42,-228 1727.42,-240 1727.42,-240 1727.42,-246 1721.42,-252 1715.42,-252"/>
<text xml:space="preserve" text-anchor="middle" x="1662.67" y="-229.8" font-family="Times,serif" font-size="14.00">VariableDeclaration</text>
</g>
<!-- 40&#45;&gt;53 -->
<g id="edge53" class="edge">
<title>40&#45;&gt;53</title>
<path fill="none" stroke="black" d="M1662.67,-287.7C1662.67,-280.41 1662.67,-271.73 1662.67,-263.54"/>
<polygon fill="black" stroke="black" points="1666.17,-263.62 1662.67,-253.62 1659.17,-263.62 1666.17,-263.62"/>
</g>
<!-- 59 -->
<g id="node60" class="node">
<title>59</title>
<path fill="none" stroke="black" d="M1862.42,-252C1862.42,-252 1756.93,-252 1756.93,-252 1750.93,-252 1744.93,-246 1744.93,-240 1744.93,-240 1744.93,-228 1744.93,-228 1744.93,-222 1750.93,-216 1756.93,-216 1756.93,-216 1862.42,-216 1862.42,-216 1868.42,-216 1874.42,-222 1874.42,-228 1874.42,-228 1874.42,-240 1874.42,-240 1874.42,-246 1868.42,-252 1862.42,-252"/>
<text xml:space="preserve" text-anchor="middle" x="1809.67" y="-229.8" font-family="Times,serif" font-size="14.00">VariableDeclaration</text>
</g>
<!-- 40&#45;&gt;59 -->
<g id="edge59" class="edge">
<title>40&#45;&gt;59</title>
<path fill="none" stroke="black" d="M1699.39,-287.52C1718.58,-278.38 1742.28,-267.09 1762.78,-257.33"/>
<polygon fill="black" stroke="black" points="1764.28,-260.49 1771.81,-253.03 1761.27,-254.17 1764.28,-260.49"/>
</g>
<!-- 65 -->
<g id="node66" class="node">
<title>65</title>
<path fill="none" stroke="black" d="M2014.77,-252C2014.77,-252 1904.57,-252 1904.57,-252 1898.57,-252 1892.57,-246 1892.57,-240 1892.57,-240 1892.57,-228 1892.57,-228 1892.57,-222 1898.57,-216 1904.57,-216 1904.57,-216 2014.77,-216 2014.77,-216 2020.77,-216 2026.77,-222 2026.77,-228 2026.77,-228 2026.77,-240 2026.77,-240 2026.77,-246 2020.77,-252 2014.77,-252"/>
<text xml:space="preserve" text-anchor="middle" x="1959.67" y="-229.8" font-family="Times,serif" font-size="14.00">ExpressionStatement</text>
</g>
<!-- 40&#45;&gt;65 -->
<g id="edge65" class="edge">
<title>40&#45;&gt;65</title>
<path fill="none" stroke="black" d="M1715.77,-292.49C1761.8,-281.64 1829.04,-265.79 1881.27,-253.48"/>
<polygon fill="black" stroke="black" points="1881.77,-256.96 1890.7,-251.26 1880.16,-250.14 1881.77,-256.96"/>
</g>
<!-- 71 -->
<g id="node72" class="node">
<title>71</title>
<path fill="none" stroke="black" d="M2166.77,-252C2166.77,-252 2056.57,-252 2056.57,-252 2050.57,-252 2044.57,-246 2044.57,-240 2044.57,-240 2044.57,-228 2044.57,-228 2044.57,-222 2050.57,-216 2056.57,-216 2056.57,-216 2166.77,-216 2166.77,-216 2172.77,-216 2178.77,-222 2178.77,-228 2178.77,-228 2178.77,-240 2178.77,-240 2178.77,-246 2172.77,-252 2166.77,-252"/>
<text xml:space="preserve" text-anchor="middle" x="2111.67" y="-229.8" font-family="Times,serif" font-size="14.00">ExpressionStatement</text>
</g>
<!-- 40&#45;&gt;71 -->
<g id="edge71" class="edge">
<title>40&#45;&gt;71</title>
<path fill="none" stroke="black" d="M1715.7,-298.8C1786.02,-290.29 1914.21,-273.75 2033.08,-252.4"/>
<polygon fill="black" stroke="black" points="2033.48,-255.88 2042.7,-250.66 2032.23,-249 2033.48,-255.88"/>
</g>
<!-- 42 -->
<g id="node43" class="node">
<title>42</title>
<path fill="none" stroke="black" d="M1061.45,-180C1061.45,-180 983.9,-180 983.9,-180 977.9,-180 971.9,-174 971.9,-168 971.9,-168 971.9,-156 971.9,-156 971.9,-150 977.9,-144 983.9,-144 983.9,-144 1061.45,-144 1061.45,-144 1067.45,-144 1073.45,-150 1073.45,-156 1073.45,-156 1073.45,-168 1073.45,-168 1073.45,-174 1067.45,-180 1061.45,-180"/>
<text xml:space="preserve" text-anchor="middle" x="1022.67" y="-157.8" font-family="Times,serif" font-size="14.00">CallExpression</text>
</g>
<!-- 41&#45;&gt;42 -->
<g id="edge42" class="edge">
<title>41&#45;&gt;42</title>
<path fill="none" stroke="black" d="M1298.15,-217.81C1295.29,-217.19 1292.45,-216.59 1289.67,-216 1219.74,-201.24 1139.25,-185.42 1085.08,-174.95"/>
<polygon fill="black" stroke="black" points="1085.9,-171.54 1075.42,-173.08 1084.58,-178.41 1085.9,-171.54"/>
</g>
<!-- 43 -->
<g id="node44" class="node">
<title>43</title>
<path fill="none" stroke="black" d="M924.21,-108C924.21,-108 803.14,-108 803.14,-108 797.14,-108 791.14,-102 791.14,-96 791.14,-96 791.14,-84 791.14,-84 791.14,-78 797.14,-72 803.14,-72 803.14,-72 924.21,-72 924.21,-72 930.21,-72 936.21,-78 936.21,-84 936.21,-84 936.21,-96 936.21,-96 936.21,-102 930.21,-108 924.21,-108"/>
<text xml:space="preserve" text-anchor="middle" x="863.67" y="-85.8" font-family="Times,serif" font-size="14.00">Identifier (console.log)</text>
</g>
<!-- 42&#45;&gt;43 -->
<g id="edge43" class="edge">
<title>42&#45;&gt;43</title>
<path fill="none" stroke="black" d="M982.96,-143.52C961.92,-134.25 935.87,-122.78 913.48,-112.93"/>
<polygon fill="black" stroke="black" points="915.1,-109.82 904.54,-108.99 912.28,-116.22 915.1,-109.82"/>
</g>
<!-- 44 -->
<g id="node45" class="node">
<title>44</title>
<path fill="none" stroke="black" d="M1079.19,-108C1079.19,-108 966.16,-108 966.16,-108 960.16,-108 954.16,-102 954.16,-96 954.16,-96 954.16,-84 954.16,-84 954.16,-78 960.16,-72 966.16,-72 966.16,-72 1079.19,-72 1079.19,-72 1085.19,-72 1091.19,-78 1091.19,-84 1091.19,-84 1091.19,-96 1091.19,-96 1091.19,-102 1085.19,-108 1079.19,-108"/>
<text xml:space="preserve" text-anchor="middle" x="1022.67" y="-85.8" font-family="Times,serif" font-size="14.00">BinaryExpression (+)</text>
</g>
<!-- 42&#45;&gt;44 -->
<g id="edge44" class="edge">
<title>42&#45;&gt;44</title>
<path fill="none" stroke="black" d="M1022.67,-143.7C1022.67,-136.41 1022.67,-127.73 1022.67,-119.54"/>
<polygon fill="black" stroke="black" points="1026.17,-119.62 1022.67,-109.62 1019.17,-119.62 1026.17,-119.62"/>
</g>
<!-- 45 -->
<g id="node46" class="node">
<title>45</title>
<path fill="none" stroke="black" d="M1011.51,-36C1011.51,-36 925.84,-36 925.84,-36 919.84,-36 913.84,-30 913.84,-24 913.84,-24 913.84,-12 913.84,-12 913.84,-6 919.84,0 925.84,0 925.84,0 1011.51,0 1011.51,0 1017.51,0 1023.51,-6 1023.51,-12 1023.51,-12 1023.51,-24 1023.51,-24 1023.51,-30 1017.51,-36 1011.51,-36"/>
<text xml:space="preserve" text-anchor="middle" x="968.67" y="-13.8" font-family="Times,serif" font-size="14.00">Identifier (valor)</text>
</g>
<!-- 44&#45;&gt;45 -->
<g id="edge45" class="edge">
<title>44&#45;&gt;45</title>
<path fill="none" stroke="black" d="M1009.33,-71.7C1003.11,-63.64 995.59,-53.89 988.72,-44.98"/>
<polygon fill="black" stroke="black" points="991.67,-43.08 982.79,-37.3 986.13,-47.36 991.67,-43.08"/>
</g>
<!-- 46 -->
<g id="node47" class="node">
<title>46</title>
<path fill="none" stroke="black" d="M1099.49,-36C1099.49,-36 1053.86,-36 1053.86,-36 1047.86,-36 1041.86,-30 1041.86,-24 1041.86,-24 1041.86,-12 1041.86,-12 1041.86,-6 1047.86,0 1053.86,0 1053.86,0 1099.49,0 1099.49,0 1105.49,0 1111.49,-6 1111.49,-12 1111.49,-12 1111.49,-24 1111.49,-24 1111.49,-30 1105.49,-36 1099.49,-36"/>
<text xml:space="preserve" text-anchor="middle" x="1076.67" y="-13.8" font-family="Times,serif" font-size="14.00">Literal ( )</text>
</g>
<!-- 44&#45;&gt;46 -->
<g id="edge46" class="edge">
<title>44&#45;&gt;46</title>
<path fill="none" stroke="black" d="M1036.02,-71.7C1042.23,-63.64 1049.76,-53.89 1056.63,-44.98"/>
<polygon fill="black" stroke="black" points="1059.22,-47.36 1062.56,-37.3 1053.68,-43.08 1059.22,-47.36"/>
</g>
<!-- 48 -->
<g id="node49" class="node">
<title>48</title>
<path fill="none" stroke="black" d="M1385.31,-180C1385.31,-180 1286.04,-180 1286.04,-180 1280.04,-180 1274.04,-174 1274.04,-168 1274.04,-168 1274.04,-156 1274.04,-156 1274.04,-150 1280.04,-144 1286.04,-144 1286.04,-144 1385.31,-144 1385.31,-144 1391.31,-144 1397.31,-150 1397.31,-156 1397.31,-156 1397.31,-168 1397.31,-168 1397.31,-174 1391.31,-180 1385.31,-180"/>
<text xml:space="preserve" text-anchor="middle" x="1335.67" y="-157.8" font-family="Times,serif" font-size="14.00">VariableDeclarator</text>
</g>
<!-- 47&#45;&gt;48 -->
<g id="edge48" class="edge">
<title>47&#45;&gt;48</title>
<path fill="none" stroke="black" d="M1470.72,-215.52C1446.57,-206.13 1416.6,-194.47 1391.03,-184.53"/>
<polygon fill="black" stroke="black" points="1392.37,-181.29 1381.78,-180.93 1389.83,-187.82 1392.37,-181.29"/>
</g>
<!-- 49 -->
<g id="node50" class="node">
<title>49</title>
<path fill="none" stroke="black" d="M1238.45,-108C1238.45,-108 1120.9,-108 1120.9,-108 1114.9,-108 1108.9,-102 1108.9,-96 1108.9,-96 1108.9,-84 1108.9,-84 1108.9,-78 1114.9,-72 1120.9,-72 1120.9,-72 1238.45,-72 1238.45,-72 1244.45,-72 1250.45,-78 1250.45,-84 1250.45,-84 1250.45,-96 1250.45,-96 1250.45,-102 1244.45,-108 1238.45,-108"/>
<text xml:space="preserve" text-anchor="middle" x="1179.67" y="-85.8" font-family="Times,serif" font-size="14.00">Identifier (numerador)</text>
</g>
<!-- 48&#45;&gt;49 -->
<g id="edge49" class="edge">
<title>48&#45;&gt;49</title>
<path fill="none" stroke="black" d="M1296.71,-143.52C1276.16,-134.29 1250.74,-122.89 1228.84,-113.06"/>
<polygon fill="black" stroke="black" points="1230.35,-109.9 1219.79,-109 1227.48,-116.29 1230.35,-109.9"/>
</g>
<!-- 50 -->
<g id="node51" class="node">
<title>50</title>
<path fill="none" stroke="black" d="M1390.58,-108C1390.58,-108 1280.77,-108 1280.77,-108 1274.77,-108 1268.77,-102 1268.77,-96 1268.77,-96 1268.77,-84 1268.77,-84 1268.77,-78 1274.77,-72 1280.77,-72 1280.77,-72 1390.58,-72 1390.58,-72 1396.58,-72 1402.58,-78 1402.58,-84 1402.58,-84 1402.58,-96 1402.58,-96 1402.58,-102 1396.58,-108 1390.58,-108"/>
<text xml:space="preserve" text-anchor="middle" x="1335.67" y="-85.8" font-family="Times,serif" font-size="14.00">BinaryExpression (&#45;)</text>
</g>
<!-- 48&#45;&gt;50 -->
<g id="edge50" class="edge">
<title>48&#45;&gt;50</title>
<path fill="none" stroke="black" d="M1335.67,-143.7C1335.67,-136.41 1335.67,-127.73 1335.67,-119.54"/>
<polygon fill="black" stroke="black" points="1339.17,-119.62 1335.67,-109.62 1332.17,-119.62 1339.17,-119.62"/>
</g>
<!-- 51 -->
<g id="node52" class="node">
<title>51</title>
<path fill="none" stroke="black" d="M1315.07,-36C1315.07,-36 1254.28,-36 1254.28,-36 1248.28,-36 1242.28,-30 1242.28,-24 1242.28,-24 1242.28,-12 1242.28,-12 1242.28,-6 1248.28,0 1254.28,0 1254.28,0 1315.07,0 1315.07,0 1321.07,0 1327.07,-6 1327.07,-12 1327.07,-12 1327.07,-24 1327.07,-24 1327.07,-30 1321.07,-36 1315.07,-36"/>
<text xml:space="preserve" text-anchor="middle" x="1284.67" y="-13.8" font-family="Times,serif" font-size="14.00">Identifier (i)</text>
</g>
<!-- 50&#45;&gt;51 -->
<g id="edge51" class="edge">
<title>50&#45;&gt;51</title>
<path fill="none" stroke="black" d="M1323.07,-71.7C1317.26,-63.73 1310.25,-54.1 1303.81,-45.26"/>
<polygon fill="black" stroke="black" points="1306.74,-43.35 1298.03,-37.33 1301.09,-47.47 1306.74,-43.35"/>
</g>
<!-- 52 -->
<g id="node53" class="node">
<title>52</title>
<path fill="none" stroke="black" d="M1418.07,-36C1418.07,-36 1357.28,-36 1357.28,-36 1351.28,-36 1345.28,-30 1345.28,-24 1345.28,-24 1345.28,-12 1345.28,-12 1345.28,-6 1351.28,0 1357.28,0 1357.28,0 1418.07,0 1418.07,0 1424.07,0 1430.07,-6 1430.07,-12 1430.07,-12 1430.07,-24 1430.07,-24 1430.07,-30 1424.07,-36 1418.07,-36"/>
<text xml:space="preserve" text-anchor="middle" x="1387.67" y="-13.8" font-family="Times,serif" font-size="14.00">Identifier (j)</text>
</g>
<!-- 50&#45;&gt;52 -->
<g id="edge52" class="edge">
<title>50&#45;&gt;52</title>
<path fill="none" stroke="black" d="M1348.53,-71.7C1354.45,-63.73 1361.6,-54.1 1368.16,-45.26"/>
<polygon fill="black" stroke="black" points="1370.91,-47.43 1374.07,-37.32 1365.29,-43.26 1370.91,-47.43"/>
</g>
<!-- 54 -->
<g id="node55" class="node">
<title>54</title>
<path fill="none" stroke="black" d="M1711.31,-180C1711.31,-180 1612.04,-180 1612.04,-180 1606.04,-180 1600.04,-174 1600.04,-168 1600.04,-168 1600.04,-156 1600.04,-156 1600.04,-150 1606.04,-144 1612.04,-144 1612.04,-144 1711.31,-144 1711.31,-144 1717.31,-144 1723.31,-150 1723.31,-156 1723.31,-156 1723.31,-168 1723.31,-168 1723.31,-174 1717.31,-180 1711.31,-180"/>
<text xml:space="preserve" text-anchor="middle" x="1661.67" y="-157.8" font-family="Times,serif" font-size="14.00">VariableDeclarator</text>
</g>
<!-- 53&#45;&gt;54 -->
<g id="edge54" class="edge">
<title>53&#45;&gt;54</title>
<path fill="none" stroke="black" d="M1662.43,-215.7C1662.32,-208.41 1662.2,-199.73 1662.08,-191.54"/>
<polygon fill="black" stroke="black" points="1665.58,-191.57 1661.94,-181.62 1658.58,-191.67 1665.58,-191.57"/>
</g>
<!-- 55 -->
<g id="node56" class="node">
<title>55</title>
<path fill="none" stroke="black" d="M1563.06,-108C1563.06,-108 1432.29,-108 1432.29,-108 1426.29,-108 1420.29,-102 1420.29,-96 1420.29,-96 1420.29,-84 1420.29,-84 1420.29,-78 1426.29,-72 1432.29,-72 1432.29,-72 1563.06,-72 1563.06,-72 1569.06,-72 1575.06,-78 1575.06,-84 1575.06,-84 1575.06,-96 1575.06,-96 1575.06,-102 1569.06,-108 1563.06,-108"/>
<text xml:space="preserve" text-anchor="middle" x="1497.67" y="-85.8" font-family="Times,serif" font-size="14.00">Identifier (denominador)</text>
</g>
<!-- 54&#45;&gt;55 -->
<g id="edge55" class="edge">
<title>54&#45;&gt;55</title>
<path fill="none" stroke="black" d="M1620.71,-143.52C1598.91,-134.21 1571.89,-122.68 1548.73,-112.79"/>
<polygon fill="black" stroke="black" points="1550.36,-109.68 1539.79,-108.98 1547.61,-116.12 1550.36,-109.68"/>
</g>
<!-- 56 -->
<g id="node57" class="node">
<title>56</title>
<path fill="none" stroke="black" d="M1718.19,-108C1718.19,-108 1605.16,-108 1605.16,-108 1599.16,-108 1593.16,-102 1593.16,-96 1593.16,-96 1593.16,-84 1593.16,-84 1593.16,-78 1599.16,-72 1605.16,-72 1605.16,-72 1718.19,-72 1718.19,-72 1724.19,-72 1730.19,-78 1730.19,-84 1730.19,-84 1730.19,-96 1730.19,-96 1730.19,-102 1724.19,-108 1718.19,-108"/>
<text xml:space="preserve" text-anchor="middle" x="1661.67" y="-85.8" font-family="Times,serif" font-size="14.00">BinaryExpression (+)</text>
</g>
<!-- 54&#45;&gt;56 -->
<g id="edge56" class="edge">
<title>54&#45;&gt;56</title>
<path fill="none" stroke="black" d="M1661.67,-143.7C1661.67,-136.41 1661.67,-127.73 1661.67,-119.54"/>
<polygon fill="black" stroke="black" points="1665.17,-119.62 1661.67,-109.62 1658.17,-119.62 1665.17,-119.62"/>
</g>
<!-- 57 -->
<g id="node58" class="node">
<title>57</title>
<path fill="none" stroke="black" d="M1628.07,-36C1628.07,-36 1567.28,-36 1567.28,-36 1561.28,-36 1555.28,-30 1555.28,-24 1555.28,-24 1555.28,-12 1555.28,-12 1555.28,-6 1561.28,0 1567.28,0 1567.28,0 1628.07,0 1628.07,0 1634.07,0 1640.07,-6 1640.07,-12 1640.07,-12 1640.07,-24 1640.07,-24 1640.07,-30 1634.07,-36 1628.07,-36"/>
<text xml:space="preserve" text-anchor="middle" x="1597.67" y="-13.8" font-family="Times,serif" font-size="14.00">Identifier (j)</text>
</g>
<!-- 56&#45;&gt;57 -->
<g id="edge57" class="edge">
<title>56&#45;&gt;57</title>
<path fill="none" stroke="black" d="M1645.85,-71.7C1638.34,-63.47 1629.2,-53.48 1620.92,-44.42"/>
<polygon fill="black" stroke="black" points="1623.66,-42.24 1614.33,-37.22 1618.5,-46.96 1623.66,-42.24"/>
</g>
<!-- 58 -->
<g id="node59" class="node">
<title>58</title>
<path fill="none" stroke="black" d="M1719.24,-36C1719.24,-36 1670.11,-36 1670.11,-36 1664.11,-36 1658.11,-30 1658.11,-24 1658.11,-24 1658.11,-12 1658.11,-12 1658.11,-6 1664.11,0 1670.11,0 1670.11,0 1719.24,0 1719.24,0 1725.24,0 1731.24,-6 1731.24,-12 1731.24,-12 1731.24,-24 1731.24,-24 1731.24,-30 1725.24,-36 1719.24,-36"/>
<text xml:space="preserve" text-anchor="middle" x="1694.67" y="-13.8" font-family="Times,serif" font-size="14.00">Literal (1)</text>
</g>
<!-- 56&#45;&gt;58 -->
<g id="edge58" class="edge">
<title>56&#45;&gt;58</title>
<path fill="none" stroke="black" d="M1669.83,-71.7C1673.43,-64.07 1677.74,-54.92 1681.76,-46.4"/>
<polygon fill="black" stroke="black" points="1684.87,-48.01 1685.97,-37.47 1678.54,-45.03 1684.87,-48.01"/>
</g>
<!-- 60 -->
<g id="node61" class="node">
<title>60</title>
<path fill="none" stroke="black" d="M1860.31,-180C1860.31,-180 1761.04,-180 1761.04,-180 1755.04,-180 1749.04,-174 1749.04,-168 1749.04,-168 1749.04,-156 1749.04,-156 1749.04,-150 1755.04,-144 1761.04,-144 1761.04,-144 1860.31,-144 1860.31,-144 1866.31,-144 1872.31,-150 1872.31,-156 1872.31,-156 1872.31,-168 1872.31,-168 1872.31,-174 1866.31,-180 1860.31,-180"/>
<text xml:space="preserve" text-anchor="middle" x="1810.67" y="-157.8" font-family="Times,serif" font-size="14.00">VariableDeclarator</text>
</g>
<!-- 59&#45;&gt;60 -->
<g id="edge60" class="edge">
<title>59&#45;&gt;60</title>
<path fill="none" stroke="black" d="M1809.92,-215.7C1810.03,-208.41 1810.15,-199.73 1810.27,-191.54"/>
<polygon fill="black" stroke="black" points="1813.77,-191.67 1810.41,-181.62 1806.77,-191.57 1813.77,-191.67"/>
</g>
<!-- 61 -->
<g id="node62" class="node">
<title>61</title>
<path fill="none" stroke="black" d="M1860.9,-108C1860.9,-108 1760.44,-108 1760.44,-108 1754.44,-108 1748.44,-102 1748.44,-96 1748.44,-96 1748.44,-84 1748.44,-84 1748.44,-78 1754.44,-72 1760.44,-72 1760.44,-72 1860.9,-72 1860.9,-72 1866.9,-72 1872.9,-78 1872.9,-84 1872.9,-84 1872.9,-96 1872.9,-96 1872.9,-102 1866.9,-108 1860.9,-108"/>
<text xml:space="preserve" text-anchor="middle" x="1810.67" y="-85.8" font-family="Times,serif" font-size="14.00">Identifier (produto)</text>
</g>
<!-- 60&#45;&gt;61 -->
<g id="edge61" class="edge">
<title>60&#45;&gt;61</title>
<path fill="none" stroke="black" d="M1810.67,-143.7C1810.67,-136.41 1810.67,-127.73 1810.67,-119.54"/>
<polygon fill="black" stroke="black" points="1814.17,-119.62 1810.67,-109.62 1807.17,-119.62 1814.17,-119.62"/>
</g>
<!-- 62 -->
<g id="node63" class="node">
<title>62</title>
<path fill="none" stroke="black" d="M2014.75,-108C2014.75,-108 1902.6,-108 1902.6,-108 1896.6,-108 1890.6,-102 1890.6,-96 1890.6,-96 1890.6,-84 1890.6,-84 1890.6,-78 1896.6,-72 1902.6,-72 1902.6,-72 2014.75,-72 2014.75,-72 2020.75,-72 2026.75,-78 2026.75,-84 2026.75,-84 2026.75,-96 2026.75,-96 2026.75,-102 2020.75,-108 2014.75,-108"/>
<text xml:space="preserve" text-anchor="middle" x="1958.67" y="-85.8" font-family="Times,serif" font-size="14.00">BinaryExpression (*)</text>
</g>
<!-- 60&#45;&gt;62 -->
<g id="edge62" class="edge">
<title>60&#45;&gt;62</title>
<path fill="none" stroke="black" d="M1847.64,-143.52C1867.05,-134.34 1891.04,-122.99 1911.75,-113.2"/>
<polygon fill="black" stroke="black" points="1913.01,-116.47 1920.56,-109.03 1910.02,-110.14 1913.01,-116.47"/>
</g>
<!-- 63 -->
<g id="node64" class="node">
<title>63</title>
<path fill="none" stroke="black" d="M1868.51,-36C1868.51,-36 1782.84,-36 1782.84,-36 1776.84,-36 1770.84,-30 1770.84,-24 1770.84,-24 1770.84,-12 1770.84,-12 1770.84,-6 1776.84,0 1782.84,0 1782.84,0 1868.51,0 1868.51,0 1874.51,0 1880.51,-6 1880.51,-12 1880.51,-12 1880.51,-24 1880.51,-24 1880.51,-30 1874.51,-36 1868.51,-36"/>
<text xml:space="preserve" text-anchor="middle" x="1825.67" y="-13.8" font-family="Times,serif" font-size="14.00">Identifier (valor)</text>
</g>
<!-- 62&#45;&gt;63 -->
<g id="edge63" class="edge">
<title>62&#45;&gt;63</title>
<path fill="none" stroke="black" d="M1925.46,-71.52C1908.19,-62.43 1886.88,-51.22 1868.4,-41.49"/>
<polygon fill="black" stroke="black" points="1870.29,-38.53 1859.81,-36.97 1867.03,-44.72 1870.29,-38.53"/>
</g>
<!-- 64 -->
<g id="node65" class="node">
<title>64</title>
<path fill="none" stroke="black" d="M2028.45,-36C2028.45,-36 1910.9,-36 1910.9,-36 1904.9,-36 1898.9,-30 1898.9,-24 1898.9,-24 1898.9,-12 1898.9,-12 1898.9,-6 1904.9,0 1910.9,0 1910.9,0 2028.45,0 2028.45,0 2034.45,0 2040.45,-6 2040.45,-12 2040.45,-12 2040.45,-24 2040.45,-24 2040.45,-30 2034.45,-36 2028.45,-36"/>
<text xml:space="preserve" text-anchor="middle" x="1969.67" y="-13.8" font-family="Times,serif" font-size="14.00">Identifier (numerador)</text>
</g>
<!-- 62&#45;&gt;64 -->
<g id="edge64" class="edge">
<title>62&#45;&gt;64</title>
<path fill="none" stroke="black" d="M1961.39,-71.7C1962.55,-64.32 1963.93,-55.52 1965.24,-47.25"/>
<polygon fill="black" stroke="black" points="1968.66,-48.02 1966.75,-37.6 1961.74,-46.93 1968.66,-48.02"/>
</g>
<!-- 66 -->
<g id="node67" class="node">
<title>66</title>
<path fill="none" stroke="black" d="M2170.59,-180C2170.59,-180 2028.76,-180 2028.76,-180 2022.76,-180 2016.76,-174 2016.76,-168 2016.76,-168 2016.76,-156 2016.76,-156 2016.76,-150 2022.76,-144 2028.76,-144 2028.76,-144 2170.59,-144 2170.59,-144 2176.59,-144 2182.59,-150 2182.59,-156 2182.59,-156 2182.59,-168 2182.59,-168 2182.59,-174 2176.59,-180 2170.59,-180"/>
<text xml:space="preserve" text-anchor="middle" x="2099.67" y="-157.8" font-family="Times,serif" font-size="14.00">AssignmentExpression (=)</text>
</g>
<!-- 65&#45;&gt;66 -->
<g id="edge66" class="edge">
<title>65&#45;&gt;66</title>
<path fill="none" stroke="black" d="M1994.64,-215.52C2012.9,-206.39 2035.45,-195.11 2054.97,-185.35"/>
<polygon fill="black" stroke="black" points="2056.42,-188.54 2063.8,-180.94 2053.29,-182.28 2056.42,-188.54"/>
</g>
<!-- 67 -->
<g id="node68" class="node">
<title>67</title>
<path fill="none" stroke="black" d="M2142.51,-108C2142.51,-108 2056.84,-108 2056.84,-108 2050.84,-108 2044.84,-102 2044.84,-96 2044.84,-96 2044.84,-84 2044.84,-84 2044.84,-78 2050.84,-72 2056.84,-72 2056.84,-72 2142.51,-72 2142.51,-72 2148.51,-72 2154.51,-78 2154.51,-84 2154.51,-84 2154.51,-96 2154.51,-96 2154.51,-102 2148.51,-108 2142.51,-108"/>
<text xml:space="preserve" text-anchor="middle" x="2099.67" y="-85.8" font-family="Times,serif" font-size="14.00">Identifier (valor)</text>
</g>
<!-- 66&#45;&gt;67 -->
<g id="edge67" class="edge">
<title>66&#45;&gt;67</title>
<path fill="none" stroke="black" d="M2099.67,-143.7C2099.67,-136.41 2099.67,-127.73 2099.67,-119.54"/>
<polygon fill="black" stroke="black" points="2103.17,-119.62 2099.67,-109.62 2096.17,-119.62 2103.17,-119.62"/>
</g>
<!-- 68 -->
<g id="node69" class="node">
<title>68</title>
<path fill="none" stroke="black" d="M2293.19,-108C2293.19,-108 2184.16,-108 2184.16,-108 2178.16,-108 2172.16,-102 2172.16,-96 2172.16,-96 2172.16,-84 2172.16,-84 2172.16,-78 2178.16,-72 2184.16,-72 2184.16,-72 2293.19,-72 2293.19,-72 2299.19,-72 2305.19,-78 2305.19,-84 2305.19,-84 2305.19,-96 2305.19,-96 2305.19,-102 2299.19,-108 2293.19,-108"/>
<text xml:space="preserve" text-anchor="middle" x="2238.67" y="-85.8" font-family="Times,serif" font-size="14.00">BinaryExpression (/)</text>
</g>
<!-- 66&#45;&gt;68 -->
<g id="edge68" class="edge">
<title>66&#45;&gt;68</title>
<path fill="none" stroke="black" d="M2134.39,-143.52C2152.52,-134.39 2174.91,-123.11 2194.29,-113.35"/>
<polygon fill="black" stroke="black" points="2195.69,-116.57 2203.05,-108.94 2192.54,-110.31 2195.69,-116.57"/>
</g>
<!-- 69 -->
<g id="node70" class="node">
<title>69</title>
<path fill="none" stroke="black" d="M2214.9,-36C2214.9,-36 2114.44,-36 2114.44,-36 2108.44,-36 2102.44,-30 2102.44,-24 2102.44,-24 2102.44,-12 2102.44,-12 2102.44,-6 2108.44,0 2114.44,0 2114.44,0 2214.9,0 2214.9,0 2220.9,0 2226.9,-6 2226.9,-12 2226.9,-12 2226.9,-24 2226.9,-24 2226.9,-30 2220.9,-36 2214.9,-36"/>
<text xml:space="preserve" text-anchor="middle" x="2164.67" y="-13.8" font-family="Times,serif" font-size="14.00">Identifier (produto)</text>
</g>
<!-- 68&#45;&gt;69 -->
<g id="edge69" class="edge">
<title>68&#45;&gt;69</title>
<path fill="none" stroke="black" d="M2220.38,-71.7C2211.58,-63.37 2200.85,-53.22 2191.17,-44.07"/>
<polygon fill="black" stroke="black" points="2193.78,-41.72 2184.11,-37.39 2188.97,-46.8 2193.78,-41.72"/>
</g>
<!-- 70 -->
<g id="node71" class="node">
<title>70</title>
<path fill="none" stroke="black" d="M2388.06,-36C2388.06,-36 2257.29,-36 2257.29,-36 2251.29,-36 2245.29,-30 2245.29,-24 2245.29,-24 2245.29,-12 2245.29,-12 2245.29,-6 2251.29,0 2257.29,0 2257.29,0 2388.06,0 2388.06,0 2394.06,0 2400.06,-6 2400.06,-12 2400.06,-12 2400.06,-24 2400.06,-24 2400.06,-30 2394.06,-36 2388.06,-36"/>
<text xml:space="preserve" text-anchor="middle" x="2322.67" y="-13.8" font-family="Times,serif" font-size="14.00">Identifier (denominador)</text>
</g>
<!-- 68&#45;&gt;70 -->
<g id="edge70" class="edge">
<title>68&#45;&gt;70</title>
<path fill="none" stroke="black" d="M2259.44,-71.7C2269.64,-63.2 2282.1,-52.81 2293.26,-43.51"/>
<polygon fill="black" stroke="black" points="2295.25,-46.41 2300.7,-37.32 2290.77,-41.03 2295.25,-46.41"/>
</g>
<!-- 72 -->
<g id="node73" class="node">
<title>72</title>
<path fill="none" stroke="black" d="M2436.59,-180C2436.59,-180 2294.76,-180 2294.76,-180 2288.76,-180 2282.76,-174 2282.76,-168 2282.76,-168 2282.76,-156 2282.76,-156 2282.76,-150 2288.76,-144 2294.76,-144 2294.76,-144 2436.59,-144 2436.59,-144 2442.59,-144 2448.59,-150 2448.59,-156 2448.59,-156 2448.59,-168 2448.59,-168 2448.59,-174 2442.59,-180 2436.59,-180"/>
<text xml:space="preserve" text-anchor="middle" x="2365.67" y="-157.8" font-family="Times,serif" font-size="14.00">AssignmentExpression (=)</text>
</g>
<!-- 71&#45;&gt;72 -->
<g id="edge72" class="edge">
<title>71&#45;&gt;72</title>
<path fill="none" stroke="black" d="M2175.11,-215.52C2210.55,-205.75 2254.89,-193.53 2291.88,-183.34"/>
<polygon fill="black" stroke="black" points="2292.43,-186.81 2301.14,-180.78 2290.57,-180.07 2292.43,-186.81"/>
</g>
<!-- 73 -->
<g id="node74" class="node">
<title>73</title>
<path fill="none" stroke="black" d="M2396.07,-108C2396.07,-108 2335.28,-108 2335.28,-108 2329.28,-108 2323.28,-102 2323.28,-96 2323.28,-96 2323.28,-84 2323.28,-84 2323.28,-78 2329.28,-72 2335.28,-72 2335.28,-72 2396.07,-72 2396.07,-72 2402.07,-72 2408.07,-78 2408.07,-84 2408.07,-84 2408.07,-96 2408.07,-96 2408.07,-102 2402.07,-108 2396.07,-108"/>
<text xml:space="preserve" text-anchor="middle" x="2365.67" y="-85.8" font-family="Times,serif" font-size="14.00">Identifier (j)</text>
</g>
<!-- 72&#45;&gt;73 -->
<g id="edge73" class="edge">
<title>72&#45;&gt;73</title>
<path fill="none" stroke="black" d="M2365.67,-143.7C2365.67,-136.41 2365.67,-127.73 2365.67,-119.54"/>
<polygon fill="black" stroke="black" points="2369.17,-119.62 2365.67,-109.62 2362.17,-119.62 2369.17,-119.62"/>
</g>
<!-- 74 -->
<g id="node75" class="node">
<title>74</title>
<path fill="none" stroke="black" d="M2551.19,-108C2551.19,-108 2438.16,-108 2438.16,-108 2432.16,-108 2426.16,-102 2426.16,-96 2426.16,-96 2426.16,-84 2426.16,-84 2426.16,-78 2432.16,-72 2438.16,-72 2438.16,-72 2551.19,-72 2551.19,-72 2557.19,-72 2563.19,-78 2563.19,-84 2563.19,-84 2563.19,-96 2563.19,-96 2563.19,-102 2557.19,-108 2551.19,-108"/>
<text xml:space="preserve" text-anchor="middle" x="2494.67" y="-85.8" font-family="Times,serif" font-size="14.00">BinaryExpression (+)</text>
</g>
<!-- 72&#45;&gt;74 -->
<g id="edge74" class="edge">
<title>72&#45;&gt;74</title>
<path fill="none" stroke="black" d="M2397.89,-143.52C2414.57,-134.47 2435.11,-123.32 2452.98,-113.62"/>
<polygon fill="black" stroke="black" points="2454.42,-116.83 2461.54,-108.98 2451.08,-110.68 2454.42,-116.83"/>
</g>
<!-- 75 -->
<g id="node76" class="node">
<title>75</title>
<path fill="none" stroke="black" d="M2513.07,-36C2513.07,-36 2452.28,-36 2452.28,-36 2446.28,-36 2440.28,-30 2440.28,-24 2440.28,-24 2440.28,-12 2440.28,-12 2440.28,-6 2446.28,0 2452.28,0 2452.28,0 2513.07,0 2513.07,0 2519.07,0 2525.07,-6 2525.07,-12 2525.07,-12 2525.07,-24 2525.07,-24 2525.07,-30 2519.07,-36 2513.07,-36"/>
<text xml:space="preserve" text-anchor="middle" x="2482.67" y="-13.8" font-family="Times,serif" font-size="14.00">Identifier (j)</text>
</g>
<!-- 74&#45;&gt;75 -->
<g id="edge75" class="edge">
<title>74&#45;&gt;75</title>
<path fill="none" stroke="black" d="M2491.71,-71.7C2490.44,-64.32 2488.94,-55.52 2487.52,-47.25"/>
<polygon fill="black" stroke="black" points="2491,-46.86 2485.86,-37.6 2484.1,-48.04 2491,-46.86"/>
</g>
<!-- 76 -->
<g id="node77" class="node">
<title>76</title>
<path fill="none" stroke="black" d="M2604.24,-36C2604.24,-36 2555.11,-36 2555.11,-36 2549.11,-36 2543.11,-30 2543.11,-24 2543.11,-24 2543.11,-12 2543.11,-12 2543.11,-6 2549.11,0 2555.11,0 2555.11,0 2604.24,0 2604.24,0 2610.24,0 2616.24,-6 2616.24,-12 2616.24,-12 2616.24,-24 2616.24,-24 2616.24,-30 2610.24,-36 2604.24,-36"/>
<text xml:space="preserve" text-anchor="middle" x="2579.67" y="-13.8" font-family="Times,serif" font-size="14.00">Literal (1)</text>
</g>
<!-- 74&#45;&gt;76 -->
<g id="edge76" class="edge">
<title>74&#45;&gt;76</title>
<path fill="none" stroke="black" d="M2515.69,-71.7C2526,-63.2 2538.62,-52.81 2549.91,-43.51"/>
<polygon fill="black" stroke="black" points="2551.95,-46.37 2557.44,-37.31 2547.5,-40.96 2551.95,-46.37"/>
</g>
<!-- 78 -->
<g id="node79" class="node">
<title>78</title>
<path fill="none" stroke="black" d="M2308.45,-324C2308.45,-324 2230.9,-324 2230.9,-324 2224.9,-324 2218.9,-318 2218.9,-312 2218.9,-312 2218.9,-300 2218.9,-300 2218.9,-294 2224.9,-288 2230.9,-288 2230.9,-288 2308.45,-288 2308.45,-288 2314.45,-288 2320.45,-294 2320.45,-300 2320.45,-300 2320.45,-312 2320.45,-312 2320.45,-318 2314.45,-324 2308.45,-324"/>
<text xml:space="preserve" text-anchor="middle" x="2269.67" y="-301.8" font-family="Times,serif" font-size="14.00">CallExpression</text>
</g>
<!-- 77&#45;&gt;78 -->
<g id="edge78" class="edge">
<title>77&#45;&gt;78</title>
<path fill="none" stroke="black" d="M2094.12,-359.52C2128.84,-349.13 2172.82,-335.97 2208.08,-325.43"/>
<polygon fill="black" stroke="black" points="2208.7,-328.89 2217.27,-322.68 2206.69,-322.19 2208.7,-328.89"/>
</g>
<!-- 79 -->
<g id="node80" class="node">
<title>79</title>
<path fill="none" stroke="black" d="M2330.21,-252C2330.21,-252 2209.14,-252 2209.14,-252 2203.14,-252 2197.14,-246 2197.14,-240 2197.14,-240 2197.14,-228 2197.14,-228 2197.14,-222 2203.14,-216 2209.14,-216 2209.14,-216 2330.21,-216 2330.21,-216 2336.21,-216 2342.21,-222 2342.21,-228 2342.21,-228 2342.21,-240 2342.21,-240 2342.21,-246 2336.21,-252 2330.21,-252"/>
<text xml:space="preserve" text-anchor="middle" x="2269.67" y="-229.8" font-family="Times,serif" font-size="14.00">Identifier (console.log)</text>
</g>
<!-- 78&#45;&gt;79 -->
<g id="edge79" class="edge">
<title>78&#45;&gt;79</title>
<path fill="none" stroke="black" d="M2269.67,-287.7C2269.67,-280.41 2269.67,-271.73 2269.67,-263.54"/>
<polygon fill="black" stroke="black" points="2273.17,-263.62 2269.67,-253.62 2266.17,-263.62 2273.17,-263.62"/>
</g>
<!-- 80 -->
<g id="node81" class="node">
<title>80</title>
<path fill="none" stroke="black" d="M2414.74,-252C2414.74,-252 2372.61,-252 2372.61,-252 2366.61,-252 2360.61,-246 2360.61,-240 2360.61,-240 2360.61,-228 2360.61,-228 2360.61,-222 2366.61,-216 2372.61,-216 2372.61,-216 2414.74,-216 2414.74,-216 2420.74,-216 2426.74,-222 2426.74,-228 2426.74,-228 2426.74,-240 2426.74,-240 2426.74,-246 2420.74,-252 2414.74,-252"/>
<text xml:space="preserve" text-anchor="middle" x="2393.67" y="-229.8" font-family="Times,serif" font-size="14.00">Literal ()</text>
</g>
<!-- 78&#45;&gt;80 -->
<g id="edge80" class="edge">
<title>78&#45;&gt;80</title>
<path fill="none" stroke="black" d="M2300.64,-287.52C2316.6,-278.51 2336.24,-267.42 2353.36,-257.76"/>
<polygon fill="black" stroke="black" points="2354.79,-260.97 2361.78,-253 2351.35,-254.87 2354.79,-260.97"/>
</g>
<!-- 82 -->
<g id="node83" class="node">
<title>82</title>
<path fill="none" stroke="black" d="M2557.59,-324C2557.59,-324 2415.76,-324 2415.76,-324 2409.76,-324 2403.76,-318 2403.76,-312 2403.76,-312 2403.76,-300 2403.76,-300 2403.76,-294 2409.76,-288 2415.76,-288 2415.76,-288 2557.59,-288 2557.59,-288 2563.59,-288 2569.59,-294 2569.59,-300 2569.59,-300 2569.59,-312 2569.59,-312 2569.59,-318 2563.59,-324 2557.59,-324"/>
<text xml:space="preserve" text-anchor="middle" x="2486.67" y="-301.8" font-family="Times,serif" font-size="14.00">AssignmentExpression (=)</text>
</g>
<!-- 81&#45;&gt;82 -->
<g id="edge82" class="edge">
<title>81&#45;&gt;82</title>
<path fill="none" stroke="black" d="M2374.89,-359.52C2394.43,-350.34 2418.58,-338.99 2439.43,-329.2"/>
<polygon fill="black" stroke="black" points="2440.74,-332.45 2448.31,-325.03 2437.77,-326.11 2440.74,-332.45"/>
</g>
<!-- 83 -->
<g id="node84" class="node">
<title>83</title>
<path fill="none" stroke="black" d="M2517.07,-252C2517.07,-252 2456.28,-252 2456.28,-252 2450.28,-252 2444.28,-246 2444.28,-240 2444.28,-240 2444.28,-228 2444.28,-228 2444.28,-222 2450.28,-216 2456.28,-216 2456.28,-216 2517.07,-216 2517.07,-216 2523.07,-216 2529.07,-222 2529.07,-228 2529.07,-228 2529.07,-240 2529.07,-240 2529.07,-246 2523.07,-252 2517.07,-252"/>
<text xml:space="preserve" text-anchor="middle" x="2486.67" y="-229.8" font-family="Times,serif" font-size="14.00">Identifier (i)</text>
</g>
<!-- 82&#45;&gt;83 -->
<g id="edge83" class="edge">
<title>82&#45;&gt;83</title>
<path fill="none" stroke="black" d="M2486.67,-287.7C2486.67,-280.41 2486.67,-271.73 2486.67,-263.54"/>
<polygon fill="black" stroke="black" points="2490.17,-263.62 2486.67,-253.62 2483.17,-263.62 2490.17,-263.62"/>
</g>
<!-- 84 -->
<g id="node85" class="node">
<title>84</title>
<path fill="none" stroke="black" d="M2672.19,-252C2672.19,-252 2559.16,-252 2559.16,-252 2553.16,-252 2547.16,-246 2547.16,-240 2547.16,-240 2547.16,-228 2547.16,-228 2547.16,-222 2553.16,-216 2559.16,-216 2559.16,-216 2672.19,-216 2672.19,-216 2678.19,-216 2684.19,-222 2684.19,-228 2684.19,-228 2684.19,-240 2684.19,-240 2684.19,-246 2678.19,-252 2672.19,-252"/>
<text xml:space="preserve" text-anchor="middle" x="2615.67" y="-229.8" font-family="Times,serif" font-size="14.00">BinaryExpression (+)</text>
</g>
<!-- 82&#45;&gt;84 -->
<g id="edge84" class="edge">
<title>82&#45;&gt;84</title>
<path fill="none" stroke="black" d="M2518.89,-287.52C2535.57,-278.47 2556.11,-267.32 2573.98,-257.62"/>
<polygon fill="black" stroke="black" points="2575.42,-260.83 2582.54,-252.98 2572.08,-254.68 2575.42,-260.83"/>
</g>
<!-- 85 -->
<g id="node86" class="node">
<title>85</title>
<path fill="none" stroke="black" d="M2597.07,-180C2597.07,-180 2536.28,-180 2536.28,-180 2530.28,-180 2524.28,-174 2524.28,-168 2524.28,-168 2524.28,-156 2524.28,-156 2524.28,-150 2530.28,-144 2536.28,-144 2536.28,-144 2597.07,-144 2597.07,-144 2603.07,-144 2609.07,-150 2609.07,-156 2609.07,-156 2609.07,-168 2609.07,-168 2609.07,-174 2603.07,-180 2597.07,-180"/>
<text xml:space="preserve" text-anchor="middle" x="2566.67" y="-157.8" font-family="Times,serif" font-size="14.00">Identifier (i)</text>
</g>
<!-- 84&#45;&gt;85 -->
<g id="edge85" class="edge">
<title>84&#45;&gt;85</title>
<path fill="none" stroke="black" d="M2603.56,-215.7C2597.98,-207.73 2591.24,-198.1 2585.06,-189.26"/>
<polygon fill="black" stroke="black" points="2588.12,-187.53 2579.52,-181.34 2582.38,-191.54 2588.12,-187.53"/>
</g>
<!-- 86 -->
<g id="node87" class="node">
<title>86</title>
<path fill="none" stroke="black" d="M2688.24,-180C2688.24,-180 2639.11,-180 2639.11,-180 2633.11,-180 2627.11,-174 2627.11,-168 2627.11,-168 2627.11,-156 2627.11,-156 2627.11,-150 2633.11,-144 2639.11,-144 2639.11,-144 2688.24,-144 2688.24,-144 2694.24,-144 2700.24,-150 2700.24,-156 2700.24,-156 2700.24,-168 2700.24,-168 2700.24,-174 2694.24,-180 2688.24,-180"/>
<text xml:space="preserve" text-anchor="middle" x="2663.67" y="-157.8" font-family="Times,serif" font-size="14.00">Literal (1)</text>
</g>
<!-- 84&#45;&gt;86 -->
<g id="edge86" class="edge">
<title>84&#45;&gt;86</title>
<path fill="none" stroke="black" d="M2627.54,-215.7C2632.95,-207.81 2639.47,-198.3 2645.47,-189.55"/>
<polygon fill="black" stroke="black" points="2648.32,-191.58 2651.09,-181.35 2642.55,-187.62 2648.32,-191.58"/>
</g>
</g>
</svg>
