<?xml version="1.0" encoding="UTF-8" standalone="no"?>
<!DOCTYPE svg PUBLIC "-//W3C//DTD SVG 1.1//EN"
 "http://www.w3.org/Graphics/SVG/1.1/DTD/svg11.dtd">
<!-- Generated by graphviz version 14.0.2 (0)
 -->
<!-- Title: AST Pages: 1 -->
<svg width="2585pt" height="764pt"
 viewBox="0.00 0.00 2585.00 764.00" xmlns="http://www.w3.org/2000/svg" xmlns:xlink="http://www.w3.org/1999/xlink">
<g id="graph0" class="graph" transform="scale(1 1) rotate(0) translate(4 760)">
<title>AST</title>
<polygon fill="white" stroke="none" points="-4,4 -4,-760 2580.52,-760 2580.52,4 -4,4"/>
<!-- 0 -->
<g id="node1" class="node">
<title>0</title>
<path fill="none" stroke="black" d="M343.06,-756C343.06,-756 302.85,-756 302.85,-756 296.85,-756 290.85,-750 290.85,-744 290.85,-744 290.85,-732 290.85,-732 290.85,-726 296.85,-720 302.85,-720 302.85,-720 343.06,-720 343.06,-720 349.06,-720 355.06,-726 355.06,-732 355.06,-732 355.06,-744 355.06,-744 355.06,-750 349.06,-756 343.06,-756"/>
<text xml:space="preserve" text-anchor="middle" x="322.95" y="-733.8" font-family="Times,serif" font-size="14.00">Program</text>
</g>
<!-- 1 -->
<g id="node2" class="node">
<title>1</title>
<path fill="none" stroke="black" d="M314.7,-684C314.7,-684 209.21,-684 209.21,-684 203.21,-684 197.21,-678 197.21,-672 197.21,-672 197.21,-660 197.21,-660 197.21,-654 203.21,-648 209.21,-648 209.21,-648 314.7,-648 314.7,-648 320.7,-648 326.7,-654 326.7,-660 326.7,-660 326.7,-672 326.7,-672 326.7,-678 320.7,-684 314.7,-684"/>
<text xml:space="preserve" text-anchor="middle" x="261.95" y="-661.8" font-family="Times,serif" font-size="14.00">VariableDeclaration</text>
</g>
<!-- 0&#45;&gt;1 -->
<g id="edge1" class="edge">
<title>0&#45;&gt;1</title>
<path fill="none" stroke="black" d="M307.87,-719.7C300.78,-711.56 292.18,-701.69 284.35,-692.7"/>
<polygon fill="black" stroke="black" points="287.06,-690.49 277.85,-685.25 281.78,-695.08 287.06,-690.49"/>
</g>
<!-- 7 -->
<g id="node8" class="node">
<title>7</title>
<path fill="none" stroke="black" d="M449.61,-684C449.61,-684 392.3,-684 392.3,-684 386.3,-684 380.3,-678 380.3,-672 380.3,-672 380.3,-660 380.3,-660 380.3,-654 386.3,-648 392.3,-648 392.3,-648 449.61,-648 449.61,-648 455.61,-648 461.61,-654 461.61,-660 461.61,-660 461.61,-672 461.61,-672 461.61,-678 455.61,-684 449.61,-684"/>
<text xml:space="preserve" text-anchor="middle" x="420.95" y="-661.8" font-family="Times,serif" font-size="14.00">IfStatement</text>
</g>
<!-- 0&#45;&gt;7 -->
<g id="edge7" class="edge">
<title>0&#45;&gt;7</title>
<path fill="none" stroke="black" d="M347.43,-719.52C359.57,-710.85 374.4,-700.25 387.56,-690.85"/>
<polygon fill="black" stroke="black" points="389.45,-693.8 395.56,-685.14 385.39,-688.1 389.45,-693.8"/>
</g>
<!-- 2 -->
<g id="node3" class="node">
<title>2</title>
<path fill="none" stroke="black" d="M206.58,-612C206.58,-612 107.32,-612 107.32,-612 101.32,-612 95.32,-606 95.32,-600 95.32,-600 95.32,-588 95.32,-588 95.32,-582 101.32,-576 107.32,-576 107.32,-576 206.58,-576 206.58,-576 212.58,-576 218.58,-582 218.58,-588 218.58,-588 218.58,-600 218.58,-600 218.58,-606 212.58,-612 206.58,-612"/>
<text xml:space="preserve" text-anchor="middle" x="156.95" y="-589.8" font-family="Times,serif" font-size="14.00">VariableDeclarator</text>
</g>
<!-- 1&#45;&gt;2 -->
<g id="edge2" class="edge">
<title>1&#45;&gt;2</title>
<path fill="none" stroke="black" d="M235.73,-647.52C222.6,-638.76 206.52,-628.04 192.32,-618.58"/>
<polygon fill="black" stroke="black" points="194.37,-615.73 184.1,-613.1 190.48,-621.56 194.37,-615.73"/>
</g>
<!-- 3 -->
<g id="node4" class="node">
<title>3</title>
<path fill="none" stroke="black" d="M75.91,-540C75.91,-540 12,-540 12,-540 6,-540 0,-534 0,-528 0,-528 0,-516 0,-516 0,-510 6,-504 12,-504 12,-504 75.91,-504 75.91,-504 81.91,-504 87.91,-510 87.91,-516 87.91,-516 87.91,-528 87.91,-528 87.91,-534 81.91,-540 75.91,-540"/>
<text xml:space="preserve" text-anchor="middle" x="43.95" y="-517.8" font-family="Times,serif" font-size="14.00">Identifier (n)</text>
</g>
<!-- 2&#45;&gt;3 -->
<g id="edge3" class="edge">
<title>2&#45;&gt;3</title>
<path fill="none" stroke="black" d="M128.73,-575.52C114.47,-566.68 96.96,-555.84 81.57,-546.3"/>
<polygon fill="black" stroke="black" points="83.45,-543.35 73.1,-541.06 79.76,-549.3 83.45,-543.35"/>
</g>
<!-- 4 -->
<g id="node5" class="node">
<title>4</title>
<path fill="none" stroke="black" d="M195.73,-540C195.73,-540 118.18,-540 118.18,-540 112.18,-540 106.18,-534 106.18,-528 106.18,-528 106.18,-516 106.18,-516 106.18,-510 112.18,-504 118.18,-504 118.18,-504 195.73,-504 195.73,-504 201.73,-504 207.73,-510 207.73,-516 207.73,-516 207.73,-528 207.73,-528 207.73,-534 201.73,-540 195.73,-540"/>
<text xml:space="preserve" text-anchor="middle" x="156.95" y="-517.8" font-family="Times,serif" font-size="14.00">CallExpression</text>
</g>
<!-- 2&#45;&gt;4 -->
<g id="edge4" class="edge">
<title>2&#45;&gt;4</title>
<path fill="none" stroke="black" d="M156.95,-575.7C156.95,-568.41 156.95,-559.73 156.95,-551.54"/>
<polygon fill="black" stroke="black" points="160.45,-551.62 156.95,-541.62 153.45,-551.62 160.45,-551.62"/>
</g>
<!-- 5 -->
<g id="node6" class="node">
<title>5</title>
<path fill="none" stroke="black" d="M152.63,-468C152.63,-468 55.28,-468 55.28,-468 49.28,-468 43.28,-462 43.28,-456 43.28,-456 43.28,-444 43.28,-444 43.28,-438 49.28,-432 55.28,-432 55.28,-432 152.63,-432 152.63,-432 158.63,-432 164.63,-438 164.63,-444 164.63,-444 164.63,-456 164.63,-456 164.63,-462 158.63,-468 152.63,-468"/>
<text xml:space="preserve" text-anchor="middle" x="103.95" y="-445.8" font-family="Times,serif" font-size="14.00">Identifier (prompt)</text>
</g>
<!-- 4&#45;&gt;5 -->
<g id="edge5" class="edge">
<title>4&#45;&gt;5</title>
<path fill="none" stroke="black" d="M143.85,-503.7C137.82,-495.73 130.53,-486.1 123.84,-477.26"/>
<polygon fill="black" stroke="black" points="126.64,-475.17 117.82,-469.31 121.06,-479.4 126.64,-475.17"/>
</g>
<!-- 6 -->
<g id="node7" class="node">
<title>6</title>
<path fill="none" stroke="black" d="M347.04,-468C347.04,-468 194.87,-468 194.87,-468 188.87,-468 182.87,-462 182.87,-456 182.87,-456 182.87,-444 182.87,-444 182.87,-438 188.87,-432 194.87,-432 194.87,-432 347.04,-432 347.04,-432 353.04,-432 359.04,-438 359.04,-444 359.04,-444 359.04,-456 359.04,-456 359.04,-462 353.04,-468 347.04,-468"/>
<text xml:space="preserve" text-anchor="middle" x="270.95" y="-445.8" font-family="Times,serif" font-size="14.00">Literal (Digite um número: )</text>
</g>
<!-- 4&#45;&gt;6 -->
<g id="edge6" class="edge">
<title>4&#45;&gt;6</title>
<path fill="none" stroke="black" d="M185.43,-503.52C199.95,-494.6 217.81,-483.63 233.45,-474.03"/>
<polygon fill="black" stroke="black" points="234.86,-477.27 241.55,-469.05 231.2,-471.3 234.86,-477.27"/>
</g>
<!-- 8 -->
<g id="node9" class="node">
<title>8</title>
<path fill="none" stroke="black" d="M408.47,-612C408.47,-612 295.44,-612 295.44,-612 289.44,-612 283.44,-606 283.44,-600 283.44,-600 283.44,-588 283.44,-588 283.44,-582 289.44,-576 295.44,-576 295.44,-576 408.47,-576 408.47,-576 414.47,-576 420.47,-582 420.47,-588 420.47,-588 420.47,-600 420.47,-600 420.47,-606 414.47,-612 408.47,-612"/>
<text xml:space="preserve" text-anchor="middle" x="351.95" y="-589.8" font-family="Times,serif" font-size="14.00">BinaryExpression (&lt;)</text>
</g>
<!-- 7&#45;&gt;8 -->
<g id="edge8" class="edge">
<title>7&#45;&gt;8</title>
<path fill="none" stroke="black" d="M403.9,-647.7C395.71,-639.39 385.74,-629.28 376.74,-620.14"/>
<polygon fill="black" stroke="black" points="379.39,-617.85 369.88,-613.18 374.4,-622.76 379.39,-617.85"/>
</g>
<!-- 11 -->
<g id="node12" class="node">
<title>11</title>
<path fill="none" stroke="black" d="M531.67,-612C531.67,-612 450.24,-612 450.24,-612 444.24,-612 438.24,-606 438.24,-600 438.24,-600 438.24,-588 438.24,-588 438.24,-582 444.24,-576 450.24,-576 450.24,-576 531.67,-576 531.67,-576 537.67,-576 543.67,-582 543.67,-588 543.67,-588 543.67,-600 543.67,-600 543.67,-606 537.67,-612 531.67,-612"/>
<text xml:space="preserve" text-anchor="middle" x="490.95" y="-589.8" font-family="Times,serif" font-size="14.00">BlockStatement</text>
</g>
<!-- 7&#45;&gt;11 -->
<g id="edge11" class="edge">
<title>7&#45;&gt;11</title>
<path fill="none" stroke="black" d="M438.26,-647.7C446.56,-639.39 456.68,-629.28 465.81,-620.14"/>
<polygon fill="black" stroke="black" points="468.18,-622.72 472.78,-613.17 463.23,-617.77 468.18,-622.72"/>
</g>
<!-- 16 -->
<g id="node17" class="node">
<title>16</title>
<path fill="none" stroke="black" d="M731.67,-612C731.67,-612 650.24,-612 650.24,-612 644.24,-612 638.24,-606 638.24,-600 638.24,-600 638.24,-588 638.24,-588 638.24,-582 644.24,-576 650.24,-576 650.24,-576 731.67,-576 731.67,-576 737.67,-576 743.67,-582 743.67,-588 743.67,-588 743.67,-600 743.67,-600 743.67,-606 737.67,-612 731.67,-612"/>
<text xml:space="preserve" text-anchor="middle" x="690.95" y="-589.8" font-family="Times,serif" font-size="14.00">BlockStatement</text>
</g>
<!-- 7&#45;&gt;16 -->
<g id="edge16" class="edge">
<title>7&#45;&gt;16</title>
<path fill="none" stroke="black" d="M461.96,-654.37C505.8,-643 575.9,-624.83 627.01,-611.58"/>
<polygon fill="black" stroke="black" points="627.66,-615.02 636.46,-609.13 625.91,-608.25 627.66,-615.02"/>
</g>
<!-- 9 -->
<g id="node10" class="node">
<title>9</title>
<path fill="none" stroke="black" d="M301.91,-540C301.91,-540 238,-540 238,-540 232,-540 226,-534 226,-528 226,-528 226,-516 226,-516 226,-510 232,-504 238,-504 238,-504 301.91,-504 301.91,-504 307.91,-504 313.91,-510 313.91,-516 313.91,-516 313.91,-528 313.91,-528 313.91,-534 307.91,-540 301.91,-540"/>
<text xml:space="preserve" text-anchor="middle" x="269.95" y="-517.8" font-family="Times,serif" font-size="14.00">Identifier (n)</text>
</g>
<!-- 8&#45;&gt;9 -->
<g id="edge9" class="edge">
<title>8&#45;&gt;9</title>
<path fill="none" stroke="black" d="M331.68,-575.7C321.83,-567.28 309.8,-557.02 298.99,-547.79"/>
<polygon fill="black" stroke="black" points="301.3,-545.16 291.43,-541.33 296.76,-550.48 301.3,-545.16"/>
</g>
<!-- 10 -->
<g id="node11" class="node">
<title>10</title>
<path fill="none" stroke="black" d="M393.52,-540C393.52,-540 344.39,-540 344.39,-540 338.39,-540 332.39,-534 332.39,-528 332.39,-528 332.39,-516 332.39,-516 332.39,-510 338.39,-504 344.39,-504 344.39,-504 393.52,-504 393.52,-504 399.52,-504 405.52,-510 405.52,-516 405.52,-516 405.52,-528 405.52,-528 405.52,-534 399.52,-540 393.52,-540"/>
<text xml:space="preserve" text-anchor="middle" x="368.95" y="-517.8" font-family="Times,serif" font-size="14.00">Literal (1)</text>
</g>
<!-- 8&#45;&gt;10 -->
<g id="edge10" class="edge">
<title>8&#45;&gt;10</title>
<path fill="none" stroke="black" d="M356.16,-575.7C357.95,-568.32 360.08,-559.52 362.09,-551.25"/>
<polygon fill="black" stroke="black" points="365.48,-552.12 364.44,-541.58 358.68,-550.47 365.48,-552.12"/>
</g>
<!-- 12 -->
<g id="node13" class="node">
<title>12</title>
<path fill="none" stroke="black" d="M546.05,-540C546.05,-540 435.85,-540 435.85,-540 429.85,-540 423.85,-534 423.85,-528 423.85,-528 423.85,-516 423.85,-516 423.85,-510 429.85,-504 435.85,-504 435.85,-504 546.05,-504 546.05,-504 552.05,-504 558.05,-510 558.05,-516 558.05,-516 558.05,-528 558.05,-528 558.05,-534 552.05,-540 546.05,-540"/>
<text xml:space="preserve" text-anchor="middle" x="490.95" y="-517.8" font-family="Times,serif" font-size="14.00">ExpressionStatement</text>
</g>
<!-- 11&#45;&gt;12 -->
<g id="edge12" class="edge">
<title>11&#45;&gt;12</title>
<path fill="none" stroke="black" d="M490.95,-575.7C490.95,-568.41 490.95,-559.73 490.95,-551.54"/>
<polygon fill="black" stroke="black" points="494.45,-551.62 490.95,-541.62 487.45,-551.62 494.45,-551.62"/>
</g>
<!-- 13 -->
<g id="node14" class="node">
<title>13</title>
<path fill="none" stroke="black" d="M504.73,-468C504.73,-468 427.18,-468 427.18,-468 421.18,-468 415.18,-462 415.18,-456 415.18,-456 415.18,-444 415.18,-444 415.18,-438 421.18,-432 427.18,-432 427.18,-432 504.73,-432 504.73,-432 510.73,-432 516.73,-438 516.73,-444 516.73,-444 516.73,-456 516.73,-456 516.73,-462 510.73,-468 504.73,-468"/>
<text xml:space="preserve" text-anchor="middle" x="465.95" y="-445.8" font-family="Times,serif" font-size="14.00">CallExpression</text>
</g>
<!-- 12&#45;&gt;13 -->
<g id="edge13" class="edge">
<title>12&#45;&gt;13</title>
<path fill="none" stroke="black" d="M484.77,-503.7C482.08,-496.15 478.85,-487.12 475.84,-478.68"/>
<polygon fill="black" stroke="black" points="479.23,-477.77 472.57,-469.53 472.64,-480.12 479.23,-477.77"/>
</g>
<!-- 14 -->
<g id="node15" class="node">
<title>14</title>
<path fill="none" stroke="black" d="M343.48,-396C343.48,-396 222.42,-396 222.42,-396 216.42,-396 210.42,-390 210.42,-384 210.42,-384 210.42,-372 210.42,-372 210.42,-366 216.42,-360 222.42,-360 222.42,-360 343.48,-360 343.48,-360 349.48,-360 355.48,-366 355.48,-372 355.48,-372 355.48,-384 355.48,-384 355.48,-390 349.48,-396 343.48,-396"/>
<text xml:space="preserve" text-anchor="middle" x="282.95" y="-373.8" font-family="Times,serif" font-size="14.00">Identifier (console.log)</text>
</g>
<!-- 13&#45;&gt;14 -->
<g id="edge14" class="edge">
<title>13&#45;&gt;14</title>
<path fill="none" stroke="black" d="M420.25,-431.52C395.59,-422.08 364.95,-410.37 338.88,-400.39"/>
<polygon fill="black" stroke="black" points="340.4,-397.23 329.81,-396.92 337.9,-403.76 340.4,-397.23"/>
</g>
<!-- 15 -->
<g id="node16" class="node">
<title>15</title>
<path fill="none" stroke="black" d="M546.43,-396C546.43,-396 385.48,-396 385.48,-396 379.48,-396 373.48,-390 373.48,-384 373.48,-384 373.48,-372 373.48,-372 373.48,-366 379.48,-360 385.48,-360 385.48,-360 546.43,-360 546.43,-360 552.43,-360 558.43,-366 558.43,-372 558.43,-372 558.43,-384 558.43,-384 558.43,-390 552.43,-396 546.43,-396"/>
<text xml:space="preserve" text-anchor="middle" x="465.95" y="-373.8" font-family="Times,serif" font-size="14.00">Literal (Erro: n deve ser &gt;= 1)</text>
</g>
<!-- 13&#45;&gt;15 -->
<g id="edge15" class="edge">
<title>13&#45;&gt;15</title>
<path fill="none" stroke="black" d="M465.95,-431.7C465.95,-424.41 465.95,-415.73 465.95,-407.54"/>
<polygon fill="black" stroke="black" points="469.45,-407.62 465.95,-397.62 462.45,-407.62 469.45,-407.62"/>
</g>
<!-- 17 -->
<g id="node18" class="node">
<title>17</title>
<path fill="none" stroke="black" d="M743.7,-540C743.7,-540 638.21,-540 638.21,-540 632.21,-540 626.21,-534 626.21,-528 626.21,-528 626.21,-516 626.21,-516 626.21,-510 632.21,-504 638.21,-504 638.21,-504 743.7,-504 743.7,-504 749.7,-504 755.7,-510 755.7,-516 755.7,-516 755.7,-528 755.7,-528 755.7,-534 749.7,-540 743.7,-540"/>
<text xml:space="preserve" text-anchor="middle" x="690.95" y="-517.8" font-family="Times,serif" font-size="14.00">VariableDeclaration</text>
</g>
<!-- 16&#45;&gt;17 -->
<g id="edge17" class="edge">
<title>16&#45;&gt;17</title>
<path fill="none" stroke="black" d="M690.95,-575.7C690.95,-568.41 690.95,-559.73 690.95,-551.54"/>
<polygon fill="black" stroke="black" points="694.45,-551.62 690.95,-541.62 687.45,-551.62 694.45,-551.62"/>
</g>
<!-- 21 -->
<g id="node22" class="node">
<title>21</title>
<path fill="none" stroke="black" d="M906.05,-540C906.05,-540 823.86,-540 823.86,-540 817.86,-540 811.86,-534 811.86,-528 811.86,-528 811.86,-516 811.86,-516 811.86,-510 817.86,-504 823.86,-504 823.86,-504 906.05,-504 906.05,-504 912.05,-504 918.05,-510 918.05,-516 918.05,-516 918.05,-528 918.05,-528 918.05,-534 912.05,-540 906.05,-540"/>
<text xml:space="preserve" text-anchor="middle" x="864.95" y="-517.8" font-family="Times,serif" font-size="14.00">WhileStatement</text>
</g>
<!-- 16&#45;&gt;21 -->
<g id="edge21" class="edge">
<title>16&#45;&gt;21</title>
<path fill="none" stroke="black" d="M734.41,-575.52C757.65,-566.17 786.47,-554.57 811.11,-544.66"/>
<polygon fill="black" stroke="black" points="812.37,-547.93 820.34,-540.95 809.76,-541.43 812.37,-547.93"/>
</g>
<!-- 18 -->
<g id="node19" class="node">
<title>18</title>
<path fill="none" stroke="black" d="M740.58,-468C740.58,-468 641.32,-468 641.32,-468 635.32,-468 629.32,-462 629.32,-456 629.32,-456 629.32,-444 629.32,-444 629.32,-438 635.32,-432 641.32,-432 641.32,-432 740.58,-432 740.58,-432 746.58,-432 752.58,-438 752.58,-444 752.58,-444 752.58,-456 752.58,-456 752.58,-462 746.58,-468 740.58,-468"/>
<text xml:space="preserve" text-anchor="middle" x="690.95" y="-445.8" font-family="Times,serif" font-size="14.00">VariableDeclarator</text>
</g>
<!-- 17&#45;&gt;18 -->
<g id="edge18" class="edge">
<title>17&#45;&gt;18</title>
<path fill="none" stroke="black" d="M690.95,-503.7C690.95,-496.41 690.95,-487.73 690.95,-479.54"/>
<polygon fill="black" stroke="black" points="694.45,-479.62 690.95,-469.62 687.45,-479.62 694.45,-479.62"/>
</g>
<!-- 19 -->
<g id="node20" class="node">
<title>19</title>
<path fill="none" stroke="black" d="M649.35,-396C649.35,-396 588.56,-396 588.56,-396 582.56,-396 576.56,-390 576.56,-384 576.56,-384 576.56,-372 576.56,-372 576.56,-366 582.56,-360 588.56,-360 588.56,-360 649.35,-360 649.35,-360 655.35,-360 661.35,-366 661.35,-372 661.35,-372 661.35,-384 661.35,-384 661.35,-390 655.35,-396 649.35,-396"/>
<text xml:space="preserve" text-anchor="middle" x="618.95" y="-373.8" font-family="Times,serif" font-size="14.00">Identifier (i)</text>
</g>
<!-- 18&#45;&gt;19 -->
<g id="edge19" class="edge">
<title>18&#45;&gt;19</title>
<path fill="none" stroke="black" d="M673.16,-431.7C664.67,-423.45 654.37,-413.43 645.02,-404.35"/>
<polygon fill="black" stroke="black" points="647.49,-401.86 637.88,-397.4 642.61,-406.88 647.49,-401.86"/>
</g>
<!-- 20 -->
<g id="node21" class="node">
<title>20</title>
<path fill="none" stroke="black" d="M740.52,-396C740.52,-396 691.39,-396 691.39,-396 685.39,-396 679.39,-390 679.39,-384 679.39,-384 679.39,-372 679.39,-372 679.39,-366 685.39,-360 691.39,-360 691.39,-360 740.52,-360 740.52,-360 746.52,-360 752.52,-366 752.52,-372 752.52,-372 752.52,-384 752.52,-384 752.52,-390 746.52,-396 740.52,-396"/>
<text xml:space="preserve" text-anchor="middle" x="715.95" y="-373.8" font-family="Times,serif" font-size="14.00">Literal (0)</text>
</g>
<!-- 18&#45;&gt;20 -->
<g id="edge20" class="edge">
<title>18&#45;&gt;20</title>
<path fill="none" stroke="black" d="M697.13,-431.7C699.83,-424.15 703.05,-415.12 706.07,-406.68"/>
<polygon fill="black" stroke="black" points="709.27,-408.12 709.34,-397.53 702.68,-405.77 709.27,-408.12"/>
</g>
<!-- 22 -->
<g id="node23" class="node">
<title>22</title>
<path fill="none" stroke="black" d="M921.47,-468C921.47,-468 808.44,-468 808.44,-468 802.44,-468 796.44,-462 796.44,-456 796.44,-456 796.44,-444 796.44,-444 796.44,-438 802.44,-432 808.44,-432 808.44,-432 921.47,-432 921.47,-432 927.47,-432 933.47,-438 933.47,-444 933.47,-444 933.47,-456 933.47,-456 933.47,-462 927.47,-468 921.47,-468"/>
<text xml:space="preserve" text-anchor="middle" x="864.95" y="-445.8" font-family="Times,serif" font-size="14.00">BinaryExpression (&lt;)</text>
</g>
<!-- 21&#45;&gt;22 -->
<g id="edge22" class="edge">
<title>21&#45;&gt;22</title>
<path fill="none" stroke="black" d="M864.95,-503.7C864.95,-496.41 864.95,-487.73 864.95,-479.54"/>
<polygon fill="black" stroke="black" points="868.45,-479.62 864.95,-469.62 861.45,-479.62 868.45,-479.62"/>
</g>
<!-- 25 -->
<g id="node26" class="node">
<title>25</title>
<path fill="none" stroke="black" d="M1299.67,-468C1299.67,-468 1218.24,-468 1218.24,-468 1212.24,-468 1206.24,-462 1206.24,-456 1206.24,-456 1206.24,-444 1206.24,-444 1206.24,-438 1212.24,-432 1218.24,-432 1218.24,-432 1299.67,-432 1299.67,-432 1305.67,-432 1311.67,-438 1311.67,-444 1311.67,-444 1311.67,-456 1311.67,-456 1311.67,-462 1305.67,-468 1299.67,-468"/>
<text xml:space="preserve" text-anchor="middle" x="1258.95" y="-445.8" font-family="Times,serif" font-size="14.00">BlockStatement</text>
</g>
<!-- 21&#45;&gt;25 -->
<g id="edge25" class="edge">
<title>21&#45;&gt;25</title>
<path fill="none" stroke="black" d="M918.5,-511.49C990.39,-498.71 1117.96,-476.05 1194.87,-462.39"/>
<polygon fill="black" stroke="black" points="1195.12,-465.9 1204.35,-460.7 1193.89,-459 1195.12,-465.9"/>
</g>
<!-- 23 -->
<g id="node24" class="node">
<title>23</title>
<path fill="none" stroke="black" d="M843.35,-396C843.35,-396 782.56,-396 782.56,-396 776.56,-396 770.56,-390 770.56,-384 770.56,-384 770.56,-372 770.56,-372 770.56,-366 776.56,-360 782.56,-360 782.56,-360 843.35,-360 843.35,-360 849.35,-360 855.35,-366 855.35,-372 855.35,-372 855.35,-384 855.35,-384 855.35,-390 849.35,-396 843.35,-396"/>
<text xml:space="preserve" text-anchor="middle" x="812.95" y="-373.8" font-family="Times,serif" font-size="14.00">Identifier (i)</text>
</g>
<!-- 22&#45;&gt;23 -->
<g id="edge23" class="edge">
<title>22&#45;&gt;23</title>
<path fill="none" stroke="black" d="M852.1,-431.7C846.18,-423.73 839.03,-414.1 832.46,-405.26"/>
<polygon fill="black" stroke="black" points="835.34,-403.26 826.56,-397.32 829.72,-407.43 835.34,-403.26"/>
</g>
<!-- 24 -->
<g id="node25" class="node">
<title>24</title>
<path fill="none" stroke="black" d="M948.91,-396C948.91,-396 885,-396 885,-396 879,-396 873,-390 873,-384 873,-384 873,-372 873,-372 873,-366 879,-360 885,-360 885,-360 948.91,-360 948.91,-360 954.91,-360 960.91,-366 960.91,-372 960.91,-372 960.91,-384 960.91,-384 960.91,-390 954.91,-396 948.91,-396"/>
<text xml:space="preserve" text-anchor="middle" x="916.95" y="-373.8" font-family="Times,serif" font-size="14.00">Identifier (n)</text>
</g>
<!-- 22&#45;&gt;24 -->
<g id="edge24" class="edge">
<title>22&#45;&gt;24</title>
<path fill="none" stroke="black" d="M877.81,-431.7C883.73,-423.73 890.88,-414.1 897.44,-405.26"/>
<polygon fill="black" stroke="black" points="900.19,-407.43 903.34,-397.32 894.57,-403.26 900.19,-407.43"/>
</g>
<!-- 26 -->
<g id="node27" class="node">
<title>26</title>
<path fill="none" stroke="black" d="M1096.7,-396C1096.7,-396 991.21,-396 991.21,-396 985.21,-396 979.21,-390 979.21,-384 979.21,-384 979.21,-372 979.21,-372 979.21,-366 985.21,-360 991.21,-360 991.21,-360 1096.7,-360 1096.7,-360 1102.7,-360 1108.7,-366 1108.7,-372 1108.7,-372 1108.7,-384 1108.7,-384 1108.7,-390 1102.7,-396 1096.7,-396"/>
<text xml:space="preserve" text-anchor="middle" x="1043.95" y="-373.8" font-family="Times,serif" font-size="14.00">VariableDeclaration</text>
</g>
<!-- 25&#45;&gt;26 -->
<g id="edge26" class="edge">
<title>25&#45;&gt;26</title>
<path fill="none" stroke="black" d="M1205.81,-431.7C1176.33,-422.1 1139.45,-410.09 1108.35,-399.97"/>
<polygon fill="black" stroke="black" points="1109.64,-396.71 1099.05,-396.94 1107.47,-403.36 1109.64,-396.71"/>
</g>
<!-- 30 -->
<g id="node31" class="node">
<title>30</title>
<path fill="none" stroke="black" d="M1243.7,-396C1243.7,-396 1138.21,-396 1138.21,-396 1132.21,-396 1126.21,-390 1126.21,-384 1126.21,-384 1126.21,-372 1126.21,-372 1126.21,-366 1132.21,-360 1138.21,-360 1138.21,-360 1243.7,-360 1243.7,-360 1249.7,-360 1255.7,-366 1255.7,-372 1255.7,-372 1255.7,-384 1255.7,-384 1255.7,-390 1249.7,-396 1243.7,-396"/>
<text xml:space="preserve" text-anchor="middle" x="1190.95" y="-373.8" font-family="Times,serif" font-size="14.00">VariableDeclaration</text>
</g>
<!-- 25&#45;&gt;30 -->
<g id="edge30" class="edge">
<title>25&#45;&gt;30</title>
<path fill="none" stroke="black" d="M1242.14,-431.7C1234.07,-423.39 1224.25,-413.28 1215.38,-404.14"/>
<polygon fill="black" stroke="black" points="1218.1,-401.92 1208.62,-397.19 1213.08,-406.8 1218.1,-401.92"/>
</g>
<!-- 34 -->
<g id="node35" class="node">
<title>34</title>
<path fill="none" stroke="black" d="M1368.05,-396C1368.05,-396 1285.86,-396 1285.86,-396 1279.86,-396 1273.86,-390 1273.86,-384 1273.86,-384 1273.86,-372 1273.86,-372 1273.86,-366 1279.86,-360 1285.86,-360 1285.86,-360 1368.05,-360 1368.05,-360 1374.05,-360 1380.05,-366 1380.05,-372 1380.05,-372 1380.05,-384 1380.05,-384 1380.05,-390 1374.05,-396 1368.05,-396"/>
<text xml:space="preserve" text-anchor="middle" x="1326.95" y="-373.8" font-family="Times,serif" font-size="14.00">WhileStatement</text>
</g>
<!-- 25&#45;&gt;34 -->
<g id="edge34" class="edge">
<title>25&#45;&gt;34</title>
<path fill="none" stroke="black" d="M1275.76,-431.7C1283.83,-423.39 1293.66,-413.28 1302.53,-404.14"/>
<polygon fill="black" stroke="black" points="1304.83,-406.8 1309.28,-397.19 1299.8,-401.92 1304.83,-406.8"/>
</g>
<!-- 75 -->
<g id="node76" class="node">
<title>75</title>
<path fill="none" stroke="black" d="M1967.05,-396C1967.05,-396 1856.85,-396 1856.85,-396 1850.85,-396 1844.85,-390 1844.85,-384 1844.85,-384 1844.85,-372 1844.85,-372 1844.85,-366 1850.85,-360 1856.85,-360 1856.85,-360 1967.05,-360 1967.05,-360 1973.05,-360 1979.05,-366 1979.05,-372 1979.05,-372 1979.05,-384 1979.05,-384 1979.05,-390 1973.05,-396 1967.05,-396"/>
<text xml:space="preserve" text-anchor="middle" x="1911.95" y="-373.8" font-family="Times,serif" font-size="14.00">ExpressionStatement</text>
</g>
<!-- 25&#45;&gt;75 -->
<g id="edge75" class="edge">
<title>25&#45;&gt;75</title>
<path fill="none" stroke="black" d="M1312.11,-443.3C1426.84,-431 1698.16,-401.92 1833.02,-387.46"/>
<polygon fill="black" stroke="black" points="1833.39,-390.94 1842.96,-386.4 1832.64,-383.98 1833.39,-390.94"/>
</g>
<!-- 79 -->
<g id="node80" class="node">
<title>79</title>
<path fill="none" stroke="black" d="M2269.05,-396C2269.05,-396 2158.85,-396 2158.85,-396 2152.85,-396 2146.85,-390 2146.85,-384 2146.85,-384 2146.85,-372 2146.85,-372 2146.85,-366 2152.85,-360 2158.85,-360 2158.85,-360 2269.05,-360 2269.05,-360 2275.05,-360 2281.05,-366 2281.05,-372 2281.05,-372 2281.05,-384 2281.05,-384 2281.05,-390 2275.05,-396 2269.05,-396"/>
<text xml:space="preserve" text-anchor="middle" x="2213.95" y="-373.8" font-family="Times,serif" font-size="14.00">ExpressionStatement</text>
</g>
<!-- 25&#45;&gt;79 -->
<g id="edge79" class="edge">
<title>25&#45;&gt;79</title>
<path fill="none" stroke="black" d="M1312.01,-445.19C1432.28,-436.54 1734.85,-414.72 1987.95,-396 2036.94,-392.38 2091.9,-388.24 2135.35,-384.96"/>
<polygon fill="black" stroke="black" points="2135.49,-388.46 2145.2,-384.22 2134.97,-381.48 2135.49,-388.46"/>
</g>
<!-- 27 -->
<g id="node28" class="node">
<title>27</title>
<path fill="none" stroke="black" d="M746.58,-324C746.58,-324 647.32,-324 647.32,-324 641.32,-324 635.32,-318 635.32,-312 635.32,-312 635.32,-300 635.32,-300 635.32,-294 641.32,-288 647.32,-288 647.32,-288 746.58,-288 746.58,-288 752.58,-288 758.58,-294 758.58,-300 758.58,-300 758.58,-312 758.58,-312 758.58,-318 752.58,-324 746.58,-324"/>
<text xml:space="preserve" text-anchor="middle" x="696.95" y="-301.8" font-family="Times,serif" font-size="14.00">VariableDeclarator</text>
</g>
<!-- 26&#45;&gt;27 -->
<g id="edge27" class="edge">
<title>26&#45;&gt;27</title>
<path fill="none" stroke="black" d="M979.01,-361.95C975.95,-361.28 972.92,-360.63 969.95,-360 902.35,-345.68 824.99,-330.8 769.93,-320.47"/>
<polygon fill="black" stroke="black" points="770.84,-317.08 760.36,-318.68 769.55,-323.96 770.84,-317.08"/>
</g>
<!-- 28 -->
<g id="node29" class="node">
<title>28</title>
<path fill="none" stroke="black" d="M630.35,-252C630.35,-252 569.56,-252 569.56,-252 563.56,-252 557.56,-246 557.56,-240 557.56,-240 557.56,-228 557.56,-228 557.56,-222 563.56,-216 569.56,-216 569.56,-216 630.35,-216 630.35,-216 636.35,-216 642.35,-222 642.35,-228 642.35,-228 642.35,-240 642.35,-240 642.35,-246 636.35,-252 630.35,-252"/>
<text xml:space="preserve" text-anchor="middle" x="599.95" y="-229.8" font-family="Times,serif" font-size="14.00">Identifier (j)</text>
</g>
<!-- 27&#45;&gt;28 -->
<g id="edge28" class="edge">
<title>27&#45;&gt;28</title>
<path fill="none" stroke="black" d="M672.98,-287.7C660.97,-279.03 646.24,-268.4 633.16,-258.96"/>
<polygon fill="black" stroke="black" points="635.38,-256.25 625.22,-253.23 631.28,-261.92 635.38,-256.25"/>
</g>
<!-- 29 -->
<g id="node30" class="node">
<title>29</title>
<path fill="none" stroke="black" d="M721.52,-252C721.52,-252 672.39,-252 672.39,-252 666.39,-252 660.39,-246 660.39,-240 660.39,-240 660.39,-228 660.39,-228 660.39,-222 666.39,-216 672.39,-216 672.39,-216 721.52,-216 721.52,-216 727.52,-216 733.52,-222 733.52,-228 733.52,-228 733.52,-240 733.52,-240 733.52,-246 727.52,-252 721.52,-252"/>
<text xml:space="preserve" text-anchor="middle" x="696.95" y="-229.8" font-family="Times,serif" font-size="14.00">Literal (0)</text>
</g>
<!-- 27&#45;&gt;29 -->
<g id="edge29" class="edge">
<title>27&#45;&gt;29</title>
<path fill="none" stroke="black" d="M696.95,-287.7C696.95,-280.41 696.95,-271.73 696.95,-263.54"/>
<polygon fill="black" stroke="black" points="700.45,-263.62 696.95,-253.62 693.45,-263.62 700.45,-263.62"/>
</g>
<!-- 31 -->
<g id="node32" class="node">
<title>31</title>
<path fill="none" stroke="black" d="M964.58,-324C964.58,-324 865.32,-324 865.32,-324 859.32,-324 853.32,-318 853.32,-312 853.32,-312 853.32,-300 853.32,-300 853.32,-294 859.32,-288 865.32,-288 865.32,-288 964.58,-288 964.58,-288 970.58,-288 976.58,-294 976.58,-300 976.58,-300 976.58,-312 976.58,-312 976.58,-318 970.58,-324 964.58,-324"/>
<text xml:space="preserve" text-anchor="middle" x="914.95" y="-301.8" font-family="Times,serif" font-size="14.00">VariableDeclarator</text>
</g>
<!-- 30&#45;&gt;31 -->
<g id="edge31" class="edge">
<title>30&#45;&gt;31</title>
<path fill="none" stroke="black" d="M1125.89,-360.5C1084.4,-349.98 1030.57,-336.32 987.67,-325.44"/>
<polygon fill="black" stroke="black" points="988.75,-322.11 978.2,-323.04 987.03,-328.89 988.75,-322.11"/>
</g>
<!-- 32 -->
<g id="node33" class="node">
<title>32</title>
<path fill="none" stroke="black" d="M848.79,-252C848.79,-252 763.12,-252 763.12,-252 757.12,-252 751.12,-246 751.12,-240 751.12,-240 751.12,-228 751.12,-228 751.12,-222 757.12,-216 763.12,-216 763.12,-216 848.79,-216 848.79,-216 854.79,-216 860.79,-222 860.79,-228 860.79,-228 860.79,-240 860.79,-240 860.79,-246 854.79,-252 848.79,-252"/>
<text xml:space="preserve" text-anchor="middle" x="805.95" y="-229.8" font-family="Times,serif" font-size="14.00">Identifier (valor)</text>
</g>
<!-- 31&#45;&gt;32 -->
<g id="edge32" class="edge">
<title>31&#45;&gt;32</title>
<path fill="none" stroke="black" d="M887.73,-287.52C873.97,-278.68 857.09,-267.84 842.24,-258.3"/>
<polygon fill="black" stroke="black" points="844.41,-255.54 834.1,-253.08 840.63,-261.43 844.41,-255.54"/>
</g>
<!-- 33 -->
<g id="node34" class="node">
<title>33</title>
<path fill="none" stroke="black" d="M939.52,-252C939.52,-252 890.39,-252 890.39,-252 884.39,-252 878.39,-246 878.39,-240 878.39,-240 878.39,-228 878.39,-228 878.39,-222 884.39,-216 890.39,-216 890.39,-216 939.52,-216 939.52,-216 945.52,-216 951.52,-222 951.52,-228 951.52,-228 951.52,-240 951.52,-240 951.52,-246 945.52,-252 939.52,-252"/>
<text xml:space="preserve" text-anchor="middle" x="914.95" y="-229.8" font-family="Times,serif" font-size="14.00">Literal (1)</text>
</g>
<!-- 31&#45;&gt;33 -->
<g id="edge33" class="edge">
<title>31&#45;&gt;33</title>
<path fill="none" stroke="black" d="M914.95,-287.7C914.95,-280.41 914.95,-271.73 914.95,-263.54"/>
<polygon fill="black" stroke="black" points="918.45,-263.62 914.95,-253.62 911.45,-263.62 918.45,-263.62"/>
</g>
<!-- 35 -->
<g id="node36" class="node">
<title>35</title>
<path fill="none" stroke="black" d="M1175.42,-324C1175.42,-324 1054.49,-324 1054.49,-324 1048.49,-324 1042.49,-318 1042.49,-312 1042.49,-312 1042.49,-300 1042.49,-300 1042.49,-294 1048.49,-288 1054.49,-288 1054.49,-288 1175.42,-288 1175.42,-288 1181.42,-288 1187.42,-294 1187.42,-300 1187.42,-300 1187.42,-312 1187.42,-312 1187.42,-318 1181.42,-324 1175.42,-324"/>
<text xml:space="preserve" text-anchor="middle" x="1114.95" y="-301.8" font-family="Times,serif" font-size="14.00">BinaryExpression (&lt;=)</text>
</g>
<!-- 34&#45;&gt;35 -->
<g id="edge35" class="edge">
<title>34&#45;&gt;35</title>
<path fill="none" stroke="black" d="M1274,-359.52C1244.93,-349.92 1208.69,-337.95 1178.14,-327.86"/>
<polygon fill="black" stroke="black" points="1179.63,-324.67 1169.03,-324.86 1177.43,-331.32 1179.63,-324.67"/>
</g>
<!-- 38 -->
<g id="node39" class="node">
<title>38</title>
<path fill="none" stroke="black" d="M1579.67,-324C1579.67,-324 1498.24,-324 1498.24,-324 1492.24,-324 1486.24,-318 1486.24,-312 1486.24,-312 1486.24,-300 1486.24,-300 1486.24,-294 1492.24,-288 1498.24,-288 1498.24,-288 1579.67,-288 1579.67,-288 1585.67,-288 1591.67,-294 1591.67,-300 1591.67,-300 1591.67,-312 1591.67,-312 1591.67,-318 1585.67,-324 1579.67,-324"/>
<text xml:space="preserve" text-anchor="middle" x="1538.95" y="-301.8" font-family="Times,serif" font-size="14.00">BlockStatement</text>
</g>
<!-- 34&#45;&gt;38 -->
<g id="edge38" class="edge">
<title>34&#45;&gt;38</title>
<path fill="none" stroke="black" d="M1379.9,-359.52C1408.98,-349.92 1445.22,-337.95 1475.77,-327.86"/>
<polygon fill="black" stroke="black" points="1476.48,-331.32 1484.87,-324.86 1474.28,-324.67 1476.48,-331.32"/>
</g>
<!-- 36 -->
<g id="node37" class="node">
<title>36</title>
<path fill="none" stroke="black" d="M1042.35,-252C1042.35,-252 981.56,-252 981.56,-252 975.56,-252 969.56,-246 969.56,-240 969.56,-240 969.56,-228 969.56,-228 969.56,-222 975.56,-216 981.56,-216 981.56,-216 1042.35,-216 1042.35,-216 1048.35,-216 1054.35,-222 1054.35,-228 1054.35,-228 1054.35,-240 1054.35,-240 1054.35,-246 1048.35,-252 1042.35,-252"/>
<text xml:space="preserve" text-anchor="middle" x="1011.95" y="-229.8" font-family="Times,serif" font-size="14.00">Identifier (j)</text>
</g>
<!-- 35&#45;&gt;36 -->
<g id="edge36" class="edge">
<title>35&#45;&gt;36</title>
<path fill="none" stroke="black" d="M1089.23,-287.52C1076.35,-278.76 1060.58,-268.04 1046.64,-258.58"/>
<polygon fill="black" stroke="black" points="1048.84,-255.84 1038.6,-253.11 1044.91,-261.63 1048.84,-255.84"/>
</g>
<!-- 37 -->
<g id="node38" class="node">
<title>37</title>
<path fill="none" stroke="black" d="M1145.35,-252C1145.35,-252 1084.56,-252 1084.56,-252 1078.56,-252 1072.56,-246 1072.56,-240 1072.56,-240 1072.56,-228 1072.56,-228 1072.56,-222 1078.56,-216 1084.56,-216 1084.56,-216 1145.35,-216 1145.35,-216 1151.35,-216 1157.35,-222 1157.35,-228 1157.35,-228 1157.35,-240 1157.35,-240 1157.35,-246 1151.35,-252 1145.35,-252"/>
<text xml:space="preserve" text-anchor="middle" x="1114.95" y="-229.8" font-family="Times,serif" font-size="14.00">Identifier (i)</text>
</g>
<!-- 35&#45;&gt;37 -->
<g id="edge37" class="edge">
<title>35&#45;&gt;37</title>
<path fill="none" stroke="black" d="M1114.95,-287.7C1114.95,-280.41 1114.95,-271.73 1114.95,-263.54"/>
<polygon fill="black" stroke="black" points="1118.45,-263.62 1114.95,-253.62 1111.45,-263.62 1118.45,-263.62"/>
</g>
<!-- 39 -->
<g id="node40" class="node">
<title>39</title>
<path fill="none" stroke="black" d="M1297.05,-252C1297.05,-252 1186.85,-252 1186.85,-252 1180.85,-252 1174.85,-246 1174.85,-240 1174.85,-240 1174.85,-228 1174.85,-228 1174.85,-222 1180.85,-216 1186.85,-216 1186.85,-216 1297.05,-216 1297.05,-216 1303.05,-216 1309.05,-222 1309.05,-228 1309.05,-228 1309.05,-240 1309.05,-240 1309.05,-246 1303.05,-252 1297.05,-252"/>
<text xml:space="preserve" text-anchor="middle" x="1241.95" y="-229.8" font-family="Times,serif" font-size="14.00">ExpressionStatement</text>
</g>
<!-- 38&#45;&gt;39 -->
<g id="edge39" class="edge">
<title>38&#45;&gt;39</title>
<path fill="none" stroke="black" d="M1485.86,-292.49C1439.83,-281.64 1372.59,-265.79 1320.36,-253.48"/>
<polygon fill="black" stroke="black" points="1321.47,-250.14 1310.93,-251.26 1319.86,-256.96 1321.47,-250.14"/>
</g>
<!-- 45 -->
<g id="node46" class="node">
<title>45</title>
<path fill="none" stroke="black" d="M1444.7,-252C1444.7,-252 1339.21,-252 1339.21,-252 1333.21,-252 1327.21,-246 1327.21,-240 1327.21,-240 1327.21,-228 1327.21,-228 1327.21,-222 1333.21,-216 1339.21,-216 1339.21,-216 1444.7,-216 1444.7,-216 1450.7,-216 1456.7,-222 1456.7,-228 1456.7,-228 1456.7,-240 1456.7,-240 1456.7,-246 1450.7,-252 1444.7,-252"/>
<text xml:space="preserve" text-anchor="middle" x="1391.95" y="-229.8" font-family="Times,serif" font-size="14.00">VariableDeclaration</text>
</g>
<!-- 38&#45;&gt;45 -->
<g id="edge45" class="edge">
<title>38&#45;&gt;45</title>
<path fill="none" stroke="black" d="M1502.24,-287.52C1483.05,-278.38 1459.35,-267.09 1438.85,-257.33"/>
<polygon fill="black" stroke="black" points="1440.36,-254.17 1429.82,-253.03 1437.35,-260.49 1440.36,-254.17"/>
</g>
<!-- 51 -->
<g id="node52" class="node">
<title>51</title>
<path fill="none" stroke="black" d="M1591.7,-252C1591.7,-252 1486.21,-252 1486.21,-252 1480.21,-252 1474.21,-246 1474.21,-240 1474.21,-240 1474.21,-228 1474.21,-228 1474.21,-222 1480.21,-216 1486.21,-216 1486.21,-216 1591.7,-216 1591.7,-216 1597.7,-216 1603.7,-222 1603.7,-228 1603.7,-228 1603.7,-240 1603.7,-240 1603.7,-246 1597.7,-252 1591.7,-252"/>
<text xml:space="preserve" text-anchor="middle" x="1538.95" y="-229.8" font-family="Times,serif" font-size="14.00">VariableDeclaration</text>
</g>
<!-- 38&#45;&gt;51 -->
<g id="edge51" class="edge">
<title>38&#45;&gt;51</title>
<path fill="none" stroke="black" d="M1538.95,-287.7C1538.95,-280.41 1538.95,-271.73 1538.95,-263.54"/>
<polygon fill="black" stroke="black" points="1542.45,-263.62 1538.95,-253.62 1535.45,-263.62 1542.45,-263.62"/>
</g>
<!-- 57 -->
<g id="node58" class="node">
<title>57</title>
<path fill="none" stroke="black" d="M1738.7,-252C1738.7,-252 1633.21,-252 1633.21,-252 1627.21,-252 1621.21,-246 1621.21,-240 1621.21,-240 1621.21,-228 1621.21,-228 1621.21,-222 1627.21,-216 1633.21,-216 1633.21,-216 1738.7,-216 1738.7,-216 1744.7,-216 1750.7,-222 1750.7,-228 1750.7,-228 1750.7,-240 1750.7,-240 1750.7,-246 1744.7,-252 1738.7,-252"/>
<text xml:space="preserve" text-anchor="middle" x="1685.95" y="-229.8" font-family="Times,serif" font-size="14.00">VariableDeclaration</text>
</g>
<!-- 38&#45;&gt;57 -->
<g id="edge57" class="edge">
<title>38&#45;&gt;57</title>
<path fill="none" stroke="black" d="M1575.67,-287.52C1594.86,-278.38 1618.56,-267.09 1639.06,-257.33"/>
<polygon fill="black" stroke="black" points="1640.56,-260.49 1648.09,-253.03 1637.55,-254.17 1640.56,-260.49"/>
</g>
<!-- 63 -->
<g id="node64" class="node">
<title>63</title>
<path fill="none" stroke="black" d="M1891.05,-252C1891.05,-252 1780.85,-252 1780.85,-252 1774.85,-252 1768.85,-246 1768.85,-240 1768.85,-240 1768.85,-228 1768.85,-228 1768.85,-222 1774.85,-216 1780.85,-216 1780.85,-216 1891.05,-216 1891.05,-216 1897.05,-216 1903.05,-222 1903.05,-228 1903.05,-228 1903.05,-240 1903.05,-240 1903.05,-246 1897.05,-252 1891.05,-252"/>
<text xml:space="preserve" text-anchor="middle" x="1835.95" y="-229.8" font-family="Times,serif" font-size="14.00">ExpressionStatement</text>
</g>
<!-- 38&#45;&gt;63 -->
<g id="edge63" class="edge">
<title>38&#45;&gt;63</title>
<path fill="none" stroke="black" d="M1592.05,-292.49C1638.08,-281.64 1705.32,-265.79 1757.55,-253.48"/>
<polygon fill="black" stroke="black" points="1758.05,-256.96 1766.98,-251.26 1756.44,-250.14 1758.05,-256.96"/>
</g>
<!-- 69 -->
<g id="node70" class="node">
<title>69</title>
<path fill="none" stroke="black" d="M2043.05,-252C2043.05,-252 1932.85,-252 1932.85,-252 1926.85,-252 1920.85,-246 1920.85,-240 1920.85,-240 1920.85,-228 1920.85,-228 1920.85,-222 1926.85,-216 1932.85,-216 1932.85,-216 2043.05,-216 2043.05,-216 2049.05,-216 2055.05,-222 2055.05,-228 2055.05,-228 2055.05,-240 2055.05,-240 2055.05,-246 2049.05,-252 2043.05,-252"/>
<text xml:space="preserve" text-anchor="middle" x="1987.95" y="-229.8" font-family="Times,serif" font-size="14.00">ExpressionStatement</text>
</g>
<!-- 38&#45;&gt;69 -->
<g id="edge69" class="edge">
<title>38&#45;&gt;69</title>
<path fill="none" stroke="black" d="M1591.98,-298.8C1662.3,-290.29 1790.49,-273.75 1909.36,-252.4"/>
<polygon fill="black" stroke="black" points="1909.76,-255.88 1918.98,-250.66 1908.51,-249 1909.76,-255.88"/>
</g>
<!-- 40 -->
<g id="node41" class="node">
<title>40</title>
<path fill="none" stroke="black" d="M937.73,-180C937.73,-180 860.18,-180 860.18,-180 854.18,-180 848.18,-174 848.18,-168 848.18,-168 848.18,-156 848.18,-156 848.18,-150 854.18,-144 860.18,-144 860.18,-144 937.73,-144 937.73,-144 943.73,-144 949.73,-150 949.73,-156 949.73,-156 949.73,-168 949.73,-168 949.73,-174 943.73,-180 937.73,-180"/>
<text xml:space="preserve" text-anchor="middle" x="898.95" y="-157.8" font-family="Times,serif" font-size="14.00">CallExpression</text>
</g>
<!-- 39&#45;&gt;40 -->
<g id="edge40" class="edge">
<title>39&#45;&gt;40</title>
<path fill="none" stroke="black" d="M1174.43,-217.81C1171.57,-217.19 1168.73,-216.59 1165.95,-216 1096.02,-201.24 1015.53,-185.42 961.36,-174.95"/>
<polygon fill="black" stroke="black" points="962.18,-171.54 951.7,-173.08 960.86,-178.41 962.18,-171.54"/>
</g>
<!-- 41 -->
<g id="node42" class="node">
<title>41</title>
<path fill="none" stroke="black" d="M800.48,-108C800.48,-108 679.42,-108 679.42,-108 673.42,-108 667.42,-102 667.42,-96 667.42,-96 667.42,-84 667.42,-84 667.42,-78 673.42,-72 679.42,-72 679.42,-72 800.48,-72 800.48,-72 806.48,-72 812.48,-78 812.48,-84 812.48,-84 812.48,-96 812.48,-96 812.48,-102 806.48,-108 800.48,-108"/>
<text xml:space="preserve" text-anchor="middle" x="739.95" y="-85.8" font-family="Times,serif" font-size="14.00">Identifier (console.log)</text>
</g>
<!-- 40&#45;&gt;41 -->
<g id="edge41" class="edge">
<title>40&#45;&gt;41</title>
<path fill="none" stroke="black" d="M859.24,-143.52C838.2,-134.25 812.15,-122.78 789.76,-112.93"/>
<polygon fill="black" stroke="black" points="791.38,-109.82 780.82,-108.99 788.56,-116.22 791.38,-109.82"/>
</g>
<!-- 42 -->
<g id="node43" class="node">
<title>42</title>
<path fill="none" stroke="black" d="M955.47,-108C955.47,-108 842.44,-108 842.44,-108 836.44,-108 830.44,-102 830.44,-96 830.44,-96 830.44,-84 830.44,-84 830.44,-78 836.44,-72 842.44,-72 842.44,-72 955.47,-72 955.47,-72 961.47,-72 967.47,-78 967.47,-84 967.47,-84 967.47,-96 967.47,-96 967.47,-102 961.47,-108 955.47,-108"/>
<text xml:space="preserve" text-anchor="middle" x="898.95" y="-85.8" font-family="Times,serif" font-size="14.00">BinaryExpression (+)</text>
</g>
<!-- 40&#45;&gt;42 -->
<g id="edge42" class="edge">
<title>40&#45;&gt;42</title>
<path fill="none" stroke="black" d="M898.95,-143.7C898.95,-136.41 898.95,-127.73 898.95,-119.54"/>
<polygon fill="black" stroke="black" points="902.45,-119.62 898.95,-109.62 895.45,-119.62 902.45,-119.62"/>
</g>
<!-- 43 -->
<g id="node44" class="node">
<title>43</title>
<path fill="none" stroke="black" d="M887.79,-36C887.79,-36 802.12,-36 802.12,-36 796.12,-36 790.12,-30 790.12,-24 790.12,-24 790.12,-12 790.12,-12 790.12,-6 796.12,0 802.12,0 802.12,0 887.79,0 887.79,0 893.79,0 899.79,-6 899.79,-12 899.79,-12 899.79,-24 899.79,-24 899.79,-30 893.79,-36 887.79,-36"/>
<text xml:space="preserve" text-anchor="middle" x="844.95" y="-13.8" font-family="Times,serif" font-size="14.00">Identifier (valor)</text>
</g>
<!-- 42&#45;&gt;43 -->
<g id="edge43" class="edge">
<title>42&#45;&gt;43</title>
<path fill="none" stroke="black" d="M885.61,-71.7C879.39,-63.64 871.87,-53.89 865,-44.98"/>
<polygon fill="black" stroke="black" points="867.95,-43.08 859.07,-37.3 862.41,-47.36 867.95,-43.08"/>
</g>
<!-- 44 -->
<g id="node45" class="node">
<title>44</title>
<path fill="none" stroke="black" d="M975.77,-36C975.77,-36 930.14,-36 930.14,-36 924.14,-36 918.14,-30 918.14,-24 918.14,-24 918.14,-12 918.14,-12 918.14,-6 924.14,0 930.14,0 930.14,0 975.77,0 975.77,0 981.77,0 987.77,-6 987.77,-12 987.77,-12 987.77,-24 987.77,-24 987.77,-30 981.77,-36 975.77,-36"/>
<text xml:space="preserve" text-anchor="middle" x="952.95" y="-13.8" font-family="Times,serif" font-size="14.00">Literal ( )</text>
</g>
<!-- 42&#45;&gt;44 -->
<g id="edge44" class="edge">
<title>42&#45;&gt;44</title>
<path fill="none" stroke="black" d="M912.3,-71.7C918.51,-63.64 926.04,-53.89 932.91,-44.98"/>
<polygon fill="black" stroke="black" points="935.5,-47.36 938.83,-37.3 929.96,-43.08 935.5,-47.36"/>
</g>
<!-- 46 -->
<g id="node47" class="node">
<title>46</title>
<path fill="none" stroke="black" d="M1261.58,-180C1261.58,-180 1162.32,-180 1162.32,-180 1156.32,-180 1150.32,-174 1150.32,-168 1150.32,-168 1150.32,-156 1150.32,-156 1150.32,-150 1156.32,-144 1162.32,-144 1162.32,-144 1261.58,-144 1261.58,-144 1267.58,-144 1273.58,-150 1273.58,-156 1273.58,-156 1273.58,-168 1273.58,-168 1273.58,-174 1267.58,-180 1261.58,-180"/>
<text xml:space="preserve" text-anchor="middle" x="1211.95" y="-157.8" font-family="Times,serif" font-size="14.00">VariableDeclarator</text>
</g>
<!-- 45&#45;&gt;46 -->
<g id="edge46" class="edge">
<title>45&#45;&gt;46</title>
<path fill="none" stroke="black" d="M1347,-215.52C1322.85,-206.13 1292.88,-194.47 1267.31,-184.53"/>
<polygon fill="black" stroke="black" points="1268.65,-181.29 1258.06,-180.93 1266.11,-187.82 1268.65,-181.29"/>
</g>
<!-- 47 -->
<g id="node48" class="node">
<title>47</title>
<path fill="none" stroke="black" d="M1114.73,-108C1114.73,-108 997.18,-108 997.18,-108 991.18,-108 985.18,-102 985.18,-96 985.18,-96 985.18,-84 985.18,-84 985.18,-78 991.18,-72 997.18,-72 997.18,-72 1114.73,-72 1114.73,-72 1120.73,-72 1126.73,-78 1126.73,-84 1126.73,-84 1126.73,-96 1126.73,-96 1126.73,-102 1120.73,-108 1114.73,-108"/>
<text xml:space="preserve" text-anchor="middle" x="1055.95" y="-85.8" font-family="Times,serif" font-size="14.00">Identifier (numerador)</text>
</g>
<!-- 46&#45;&gt;47 -->
<g id="edge47" class="edge">
<title>46&#45;&gt;47</title>
<path fill="none" stroke="black" d="M1172.99,-143.52C1152.44,-134.29 1127.01,-122.89 1105.12,-113.06"/>
<polygon fill="black" stroke="black" points="1106.63,-109.9 1096.07,-109 1103.76,-116.29 1106.63,-109.9"/>
</g>
<!-- 48 -->
<g id="node49" class="node">
<title>48</title>
<path fill="none" stroke="black" d="M1266.86,-108C1266.86,-108 1157.05,-108 1157.05,-108 1151.05,-108 1145.05,-102 1145.05,-96 1145.05,-96 1145.05,-84 1145.05,-84 1145.05,-78 1151.05,-72 1157.05,-72 1157.05,-72 1266.86,-72 1266.86,-72 1272.86,-72 1278.86,-78 1278.86,-84 1278.86,-84 1278.86,-96 1278.86,-96 1278.86,-102 1272.86,-108 1266.86,-108"/>
<text xml:space="preserve" text-anchor="middle" x="1211.95" y="-85.8" font-family="Times,serif" font-size="14.00">BinaryExpression (&#45;)</text>
</g>
<!-- 46&#45;&gt;48 -->
<g id="edge48" class="edge">
<title>46&#45;&gt;48</title>
<path fill="none" stroke="black" d="M1211.95,-143.7C1211.95,-136.41 1211.95,-127.73 1211.95,-119.54"/>
<polygon fill="black" stroke="black" points="1215.45,-119.62 1211.95,-109.62 1208.45,-119.62 1215.45,-119.62"/>
</g>
<!-- 49 -->
<g id="node50" class="node">
<title>49</title>
<path fill="none" stroke="black" d="M1191.35,-36C1191.35,-36 1130.56,-36 1130.56,-36 1124.56,-36 1118.56,-30 1118.56,-24 1118.56,-24 1118.56,-12 1118.56,-12 1118.56,-6 1124.56,0 1130.56,0 1130.56,0 1191.35,0 1191.35,0 1197.35,0 1203.35,-6 1203.35,-12 1203.35,-12 1203.35,-24 1203.35,-24 1203.35,-30 1197.35,-36 1191.35,-36"/>
<text xml:space="preserve" text-anchor="middle" x="1160.95" y="-13.8" font-family="Times,serif" font-size="14.00">Identifier (i)</text>
</g>
<!-- 48&#45;&gt;49 -->
<g id="edge49" class="edge">
<title>48&#45;&gt;49</title>
<path fill="none" stroke="black" d="M1199.35,-71.7C1193.54,-63.73 1186.53,-54.1 1180.09,-45.26"/>
<polygon fill="black" stroke="black" points="1183.02,-43.35 1174.31,-37.33 1177.37,-47.47 1183.02,-43.35"/>
</g>
<!-- 50 -->
<g id="node51" class="node">
<title>50</title>
<path fill="none" stroke="black" d="M1294.35,-36C1294.35,-36 1233.56,-36 1233.56,-36 1227.56,-36 1221.56,-30 1221.56,-24 1221.56,-24 1221.56,-12 1221.56,-12 1221.56,-6 1227.56,0 1233.56,0 1233.56,0 1294.35,0 1294.35,0 1300.35,0 1306.35,-6 1306.35,-12 1306.35,-12 1306.35,-24 1306.35,-24 1306.35,-30 1300.35,-36 1294.35,-36"/>
<text xml:space="preserve" text-anchor="middle" x="1263.95" y="-13.8" font-family="Times,serif" font-size="14.00">Identifier (j)</text>
</g>
<!-- 48&#45;&gt;50 -->
<g id="edge50" class="edge">
<title>48&#45;&gt;50</title>
<path fill="none" stroke="black" d="M1224.81,-71.7C1230.73,-63.73 1237.88,-54.1 1244.44,-45.26"/>
<polygon fill="black" stroke="black" points="1247.19,-47.43 1250.34,-37.32 1241.57,-43.26 1247.19,-47.43"/>
</g>
<!-- 52 -->
<g id="node53" class="node">
<title>52</title>
<path fill="none" stroke="black" d="M1587.58,-180C1587.58,-180 1488.32,-180 1488.32,-180 1482.32,-180 1476.32,-174 1476.32,-168 1476.32,-168 1476.32,-156 1476.32,-156 1476.32,-150 1482.32,-144 1488.32,-144 1488.32,-144 1587.58,-144 1587.58,-144 1593.58,-144 1599.58,-150 1599.58,-156 1599.58,-156 1599.58,-168 1599.58,-168 1599.58,-174 1593.58,-180 1587.58,-180"/>
<text xml:space="preserve" text-anchor="middle" x="1537.95" y="-157.8" font-family="Times,serif" font-size="14.00">VariableDeclarator</text>
</g>
<!-- 51&#45;&gt;52 -->
<g id="edge52" class="edge">
<title>51&#45;&gt;52</title>
<path fill="none" stroke="black" d="M1538.71,-215.7C1538.6,-208.41 1538.48,-199.73 1538.36,-191.54"/>
<polygon fill="black" stroke="black" points="1541.86,-191.57 1538.22,-181.62 1534.86,-191.67 1541.86,-191.57"/>
</g>
<!-- 53 -->
<g id="node54" class="node">
<title>53</title>
<path fill="none" stroke="black" d="M1439.34,-108C1439.34,-108 1308.57,-108 1308.57,-108 1302.57,-108 1296.57,-102 1296.57,-96 1296.57,-96 1296.57,-84 1296.57,-84 1296.57,-78 1302.57,-72 1308.57,-72 1308.57,-72 1439.34,-72 1439.34,-72 1445.34,-72 1451.34,-78 1451.34,-84 1451.34,-84 1451.34,-96 1451.34,-96 1451.34,-102 1445.34,-108 1439.34,-108"/>
<text xml:space="preserve" text-anchor="middle" x="1373.95" y="-85.8" font-family="Times,serif" font-size="14.00">Identifier (denominador)</text>
</g>
<!-- 52&#45;&gt;53 -->
<g id="edge53" class="edge">
<title>52&#45;&gt;53</title>
<path fill="none" stroke="black" d="M1496.99,-143.52C1475.19,-134.21 1448.17,-122.68 1425.01,-112.79"/>
<polygon fill="black" stroke="black" points="1426.64,-109.68 1416.07,-108.98 1423.89,-116.12 1426.64,-109.68"/>
</g>
<!-- 54 -->
<g id="node55" class="node">
<title>54</title>
<path fill="none" stroke="black" d="M1594.47,-108C1594.47,-108 1481.44,-108 1481.44,-108 1475.44,-108 1469.44,-102 1469.44,-96 1469.44,-96 1469.44,-84 1469.44,-84 1469.44,-78 1475.44,-72 1481.44,-72 1481.44,-72 1594.47,-72 1594.47,-72 1600.47,-72 1606.47,-78 1606.47,-84 1606.47,-84 1606.47,-96 1606.47,-96 1606.47,-102 1600.47,-108 1594.47,-108"/>
<text xml:space="preserve" text-anchor="middle" x="1537.95" y="-85.8" font-family="Times,serif" font-size="14.00">BinaryExpression (+)</text>
</g>
<!-- 52&#45;&gt;54 -->
<g id="edge54" class="edge">
<title>52&#45;&gt;54</title>
<path fill="none" stroke="black" d="M1537.95,-143.7C1537.95,-136.41 1537.95,-127.73 1537.95,-119.54"/>
<polygon fill="black" stroke="black" points="1541.45,-119.62 1537.95,-109.62 1534.45,-119.62 1541.45,-119.62"/>
</g>
<!-- 55 -->
<g id="node56" class="node">
<title>55</title>
<path fill="none" stroke="black" d="M1504.35,-36C1504.35,-36 1443.56,-36 1443.56,-36 1437.56,-36 1431.56,-30 1431.56,-24 1431.56,-24 1431.56,-12 1431.56,-12 1431.56,-6 1437.56,0 1443.56,0 1443.56,0 1504.35,0 1504.35,0 1510.35,0 1516.35,-6 1516.35,-12 1516.35,-12 1516.35,-24 1516.35,-24 1516.35,-30 1510.35,-36 1504.35,-36"/>
<text xml:space="preserve" text-anchor="middle" x="1473.95" y="-13.8" font-family="Times,serif" font-size="14.00">Identifier (j)</text>
</g>
<!-- 54&#45;&gt;55 -->
<g id="edge55" class="edge">
<title>54&#45;&gt;55</title>
<path fill="none" stroke="black" d="M1522.13,-71.7C1514.62,-63.47 1505.48,-53.48 1497.2,-44.42"/>
<polygon fill="black" stroke="black" points="1499.94,-42.24 1490.61,-37.22 1494.78,-46.96 1499.94,-42.24"/>
</g>
<!-- 56 -->
<g id="node57" class="node">
<title>56</title>
<path fill="none" stroke="black" d="M1595.52,-36C1595.52,-36 1546.39,-36 1546.39,-36 1540.39,-36 1534.39,-30 1534.39,-24 1534.39,-24 1534.39,-12 1534.39,-12 1534.39,-6 1540.39,0 1546.39,0 1546.39,0 1595.52,0 1595.52,0 1601.52,0 1607.52,-6 1607.52,-12 1607.52,-12 1607.52,-24 1607.52,-24 1607.52,-30 1601.52,-36 1595.52,-36"/>
<text xml:space="preserve" text-anchor="middle" x="1570.95" y="-13.8" font-family="Times,serif" font-size="14.00">Literal (1)</text>
</g>
<!-- 54&#45;&gt;56 -->
<g id="edge56" class="edge">
<title>54&#45;&gt;56</title>
<path fill="none" stroke="black" d="M1546.11,-71.7C1549.71,-64.07 1554.02,-54.92 1558.04,-46.4"/>
<polygon fill="black" stroke="black" points="1561.15,-48.01 1562.24,-37.47 1554.81,-45.03 1561.15,-48.01"/>
</g>
<!-- 58 -->
<g id="node59" class="node">
<title>58</title>
<path fill="none" stroke="black" d="M1736.58,-180C1736.58,-180 1637.32,-180 1637.32,-180 1631.32,-180 1625.32,-174 1625.32,-168 1625.32,-168 1625.32,-156 1625.32,-156 1625.32,-150 1631.32,-144 1637.32,-144 1637.32,-144 1736.58,-144 1736.58,-144 1742.58,-144 1748.58,-150 1748.58,-156 1748.58,-156 1748.58,-168 1748.58,-168 1748.58,-174 1742.58,-180 1736.58,-180"/>
<text xml:space="preserve" text-anchor="middle" x="1686.95" y="-157.8" font-family="Times,serif" font-size="14.00">VariableDeclarator</text>
</g>
<!-- 57&#45;&gt;58 -->
<g id="edge58" class="edge">
<title>57&#45;&gt;58</title>
<path fill="none" stroke="black" d="M1686.2,-215.7C1686.3,-208.41 1686.43,-199.73 1686.55,-191.54"/>
<polygon fill="black" stroke="black" points="1690.04,-191.67 1686.69,-181.62 1683.05,-191.57 1690.04,-191.67"/>
</g>
<!-- 59 -->
<g id="node60" class="node">
<title>59</title>
<path fill="none" stroke="black" d="M1737.18,-108C1737.18,-108 1636.72,-108 1636.72,-108 1630.72,-108 1624.72,-102 1624.72,-96 1624.72,-96 1624.72,-84 1624.72,-84 1624.72,-78 1630.72,-72 1636.72,-72 1636.72,-72 1737.18,-72 1737.18,-72 1743.18,-72 1749.18,-78 1749.18,-84 1749.18,-84 1749.18,-96 1749.18,-96 1749.18,-102 1743.18,-108 1737.18,-108"/>
<text xml:space="preserve" text-anchor="middle" x="1686.95" y="-85.8" font-family="Times,serif" font-size="14.00">Identifier (produto)</text>
</g>
<!-- 58&#45;&gt;59 -->
<g id="edge59" class="edge">
<title>58&#45;&gt;59</title>
<path fill="none" stroke="black" d="M1686.95,-143.7C1686.95,-136.41 1686.95,-127.73 1686.95,-119.54"/>
<polygon fill="black" stroke="black" points="1690.45,-119.62 1686.95,-109.62 1683.45,-119.62 1690.45,-119.62"/>
</g>
<!-- 60 -->
<g id="node61" class="node">
<title>60</title>
<path fill="none" stroke="black" d="M1891.02,-108C1891.02,-108 1778.88,-108 1778.88,-108 1772.88,-108 1766.88,-102 1766.88,-96 1766.88,-96 1766.88,-84 1766.88,-84 1766.88,-78 1772.88,-72 1778.88,-72 1778.88,-72 1891.02,-72 1891.02,-72 1897.02,-72 1903.02,-78 1903.02,-84 1903.02,-84 1903.02,-96 1903.02,-96 1903.02,-102 1897.02,-108 1891.02,-108"/>
<text xml:space="preserve" text-anchor="middle" x="1834.95" y="-85.8" font-family="Times,serif" font-size="14.00">BinaryExpression (*)</text>
</g>
<!-- 58&#45;&gt;60 -->
<g id="edge60" class="edge">
<title>58&#45;&gt;60</title>
<path fill="none" stroke="black" d="M1723.92,-143.52C1743.33,-134.34 1767.32,-122.99 1788.03,-113.2"/>
<polygon fill="black" stroke="black" points="1789.29,-116.47 1796.84,-109.03 1786.3,-110.14 1789.29,-116.47"/>
</g>
<!-- 61 -->
<g id="node62" class="node">
<title>61</title>
<path fill="none" stroke="black" d="M1744.79,-36C1744.79,-36 1659.12,-36 1659.12,-36 1653.12,-36 1647.12,-30 1647.12,-24 1647.12,-24 1647.12,-12 1647.12,-12 1647.12,-6 1653.12,0 1659.12,0 1659.12,0 1744.79,0 1744.79,0 1750.79,0 1756.79,-6 1756.79,-12 1756.79,-12 1756.79,-24 1756.79,-24 1756.79,-30 1750.79,-36 1744.79,-36"/>
<text xml:space="preserve" text-anchor="middle" x="1701.95" y="-13.8" font-family="Times,serif" font-size="14.00">Identifier (valor)</text>
</g>
<!-- 60&#45;&gt;61 -->
<g id="edge61" class="edge">
<title>60&#45;&gt;61</title>
<path fill="none" stroke="black" d="M1801.74,-71.52C1784.47,-62.43 1763.16,-51.22 1744.68,-41.49"/>
<polygon fill="black" stroke="black" points="1746.57,-38.53 1736.09,-36.97 1743.31,-44.72 1746.57,-38.53"/>
</g>
<!-- 62 -->
<g id="node63" class="node">
<title>62</title>
<path fill="none" stroke="black" d="M1904.73,-36C1904.73,-36 1787.18,-36 1787.18,-36 1781.18,-36 1775.18,-30 1775.18,-24 1775.18,-24 1775.18,-12 1775.18,-12 1775.18,-6 1781.18,0 1787.18,0 1787.18,0 1904.73,0 1904.73,0 1910.73,0 1916.73,-6 1916.73,-12 1916.73,-12 1916.73,-24 1916.73,-24 1916.73,-30 1910.73,-36 1904.73,-36"/>
<text xml:space="preserve" text-anchor="middle" x="1845.95" y="-13.8" font-family="Times,serif" font-size="14.00">Identifier (numerador)</text>
</g>
<!-- 60&#45;&gt;62 -->
<g id="edge62" class="edge">
<title>60&#45;&gt;62</title>
<path fill="none" stroke="black" d="M1837.67,-71.7C1838.83,-64.32 1840.21,-55.52 1841.51,-47.25"/>
<polygon fill="black" stroke="black" points="1844.94,-48.02 1843.03,-37.6 1838.02,-46.93 1844.94,-48.02"/>
</g>
<!-- 64 -->
<g id="node65" class="node">
<title>64</title>
<path fill="none" stroke="black" d="M2046.87,-180C2046.87,-180 1905.04,-180 1905.04,-180 1899.04,-180 1893.04,-174 1893.04,-168 1893.04,-168 1893.04,-156 1893.04,-156 1893.04,-150 1899.04,-144 1905.04,-144 1905.04,-144 2046.87,-144 2046.87,-144 2052.87,-144 2058.87,-150 2058.87,-156 2058.87,-156 2058.87,-168 2058.87,-168 2058.87,-174 2052.87,-180 2046.87,-180"/>
<text xml:space="preserve" text-anchor="middle" x="1975.95" y="-157.8" font-family="Times,serif" font-size="14.00">AssignmentExpression (=)</text>
</g>
<!-- 63&#45;&gt;64 -->
<g id="edge64" class="edge">
<title>63&#45;&gt;64</title>
<path fill="none" stroke="black" d="M1870.92,-215.52C1889.18,-206.39 1911.73,-195.11 1931.25,-185.35"/>
<polygon fill="black" stroke="black" points="1932.7,-188.54 1940.08,-180.94 1929.57,-182.28 1932.7,-188.54"/>
</g>
<!-- 65 -->
<g id="node66" class="node">
<title>65</title>
<path fill="none" stroke="black" d="M2018.79,-108C2018.79,-108 1933.12,-108 1933.12,-108 1927.12,-108 1921.12,-102 1921.12,-96 1921.12,-96 1921.12,-84 1921.12,-84 1921.12,-78 1927.12,-72 1933.12,-72 1933.12,-72 2018.79,-72 2018.79,-72 2024.79,-72 2030.79,-78 2030.79,-84 2030.79,-84 2030.79,-96 2030.79,-96 2030.79,-102 2024.79,-108 2018.79,-108"/>
<text xml:space="preserve" text-anchor="middle" x="1975.95" y="-85.8" font-family="Times,serif" font-size="14.00">Identifier (valor)</text>
</g>
<!-- 64&#45;&gt;65 -->
<g id="edge65" class="edge">
<title>64&#45;&gt;65</title>
<path fill="none" stroke="black" d="M1975.95,-143.7C1975.95,-136.41 1975.95,-127.73 1975.95,-119.54"/>
<polygon fill="black" stroke="black" points="1979.45,-119.62 1975.95,-109.62 1972.45,-119.62 1979.45,-119.62"/>
</g>
<!-- 66 -->
<g id="node67" class="node">
<title>66</title>
<path fill="none" stroke="black" d="M2169.47,-108C2169.47,-108 2060.44,-108 2060.44,-108 2054.44,-108 2048.44,-102 2048.44,-96 2048.44,-96 2048.44,-84 2048.44,-84 2048.44,-78 2054.44,-72 2060.44,-72 2060.44,-72 2169.47,-72 2169.47,-72 2175.47,-72 2181.47,-78 2181.47,-84 2181.47,-84 2181.47,-96 2181.47,-96 2181.47,-102 2175.47,-108 2169.47,-108"/>
<text xml:space="preserve" text-anchor="middle" x="2114.95" y="-85.8" font-family="Times,serif" font-size="14.00">BinaryExpression (/)</text>
</g>
<!-- 64&#45;&gt;66 -->
<g id="edge66" class="edge">
<title>64&#45;&gt;66</title>
<path fill="none" stroke="black" d="M2010.67,-143.52C2028.8,-134.39 2051.19,-123.11 2070.57,-113.35"/>
<polygon fill="black" stroke="black" points="2071.97,-116.57 2079.33,-108.94 2068.82,-110.31 2071.97,-116.57"/>
</g>
<!-- 67 -->
<g id="node68" class="node">
<title>67</title>
<path fill="none" stroke="black" d="M2091.18,-36C2091.18,-36 1990.72,-36 1990.72,-36 1984.72,-36 1978.72,-30 1978.72,-24 1978.72,-24 1978.72,-12 1978.72,-12 1978.72,-6 1984.72,0 1990.72,0 1990.72,0 2091.18,0 2091.18,0 2097.18,0 2103.18,-6 2103.18,-12 2103.18,-12 2103.18,-24 2103.18,-24 2103.18,-30 2097.18,-36 2091.18,-36"/>
<text xml:space="preserve" text-anchor="middle" x="2040.95" y="-13.8" font-family="Times,serif" font-size="14.00">Identifier (produto)</text>
</g>
<!-- 66&#45;&gt;67 -->
<g id="edge67" class="edge">
<title>66&#45;&gt;67</title>
<path fill="none" stroke="black" d="M2096.66,-71.7C2087.86,-63.37 2077.13,-53.22 2067.45,-44.07"/>
<polygon fill="black" stroke="black" points="2070.06,-41.72 2060.39,-37.39 2065.25,-46.8 2070.06,-41.72"/>
</g>
<!-- 68 -->
<g id="node69" class="node">
<title>68</title>
<path fill="none" stroke="black" d="M2264.34,-36C2264.34,-36 2133.57,-36 2133.57,-36 2127.57,-36 2121.57,-30 2121.57,-24 2121.57,-24 2121.57,-12 2121.57,-12 2121.57,-6 2127.57,0 2133.57,0 2133.57,0 2264.34,0 2264.34,0 2270.34,0 2276.34,-6 2276.34,-12 2276.34,-12 2276.34,-24 2276.34,-24 2276.34,-30 2270.34,-36 2264.34,-36"/>
<text xml:space="preserve" text-anchor="middle" x="2198.95" y="-13.8" font-family="Times,serif" font-size="14.00">Identifier (denominador)</text>
</g>
<!-- 66&#45;&gt;68 -->
<g id="edge68" class="edge">
<title>66&#45;&gt;68</title>
<path fill="none" stroke="black" d="M2135.72,-71.7C2145.91,-63.2 2158.38,-52.81 2169.54,-43.51"/>
<polygon fill="black" stroke="black" points="2171.53,-46.41 2176.97,-37.32 2167.05,-41.03 2171.53,-46.41"/>
</g>
<!-- 70 -->
<g id="node71" class="node">
<title>70</title>
<path fill="none" stroke="black" d="M2312.87,-180C2312.87,-180 2171.04,-180 2171.04,-180 2165.04,-180 2159.04,-174 2159.04,-168 2159.04,-168 2159.04,-156 2159.04,-156 2159.04,-150 2165.04,-144 2171.04,-144 2171.04,-144 2312.87,-144 2312.87,-144 2318.87,-144 2324.87,-150 2324.87,-156 2324.87,-156 2324.87,-168 2324.87,-168 2324.87,-174 2318.87,-180 2312.87,-180"/>
<text xml:space="preserve" text-anchor="middle" x="2241.95" y="-157.8" font-family="Times,serif" font-size="14.00">AssignmentExpression (=)</text>
</g>
<!-- 69&#45;&gt;70 -->
<g id="edge70" class="edge">
<title>69&#45;&gt;70</title>
<path fill="none" stroke="black" d="M2051.39,-215.52C2086.83,-205.75 2131.17,-193.53 2168.16,-183.34"/>
<polygon fill="black" stroke="black" points="2168.71,-186.81 2177.42,-180.78 2166.85,-180.07 2168.71,-186.81"/>
</g>
<!-- 71 -->
<g id="node72" class="node">
<title>71</title>
<path fill="none" stroke="black" d="M2272.35,-108C2272.35,-108 2211.56,-108 2211.56,-108 2205.56,-108 2199.56,-102 2199.56,-96 2199.56,-96 2199.56,-84 2199.56,-84 2199.56,-78 2205.56,-72 2211.56,-72 2211.56,-72 2272.35,-72 2272.35,-72 2278.35,-72 2284.35,-78 2284.35,-84 2284.35,-84 2284.35,-96 2284.35,-96 2284.35,-102 2278.35,-108 2272.35,-108"/>
<text xml:space="preserve" text-anchor="middle" x="2241.95" y="-85.8" font-family="Times,serif" font-size="14.00">Identifier (j)</text>
</g>
<!-- 70&#45;&gt;71 -->
<g id="edge71" class="edge">
<title>70&#45;&gt;71</title>
<path fill="none" stroke="black" d="M2241.95,-143.7C2241.95,-136.41 2241.95,-127.73 2241.95,-119.54"/>
<polygon fill="black" stroke="black" points="2245.45,-119.62 2241.95,-109.62 2238.45,-119.62 2245.45,-119.62"/>
</g>
<!-- 72 -->
<g id="node73" class="node">
<title>72</title>
<path fill="none" stroke="black" d="M2427.47,-108C2427.47,-108 2314.44,-108 2314.44,-108 2308.44,-108 2302.44,-102 2302.44,-96 2302.44,-96 2302.44,-84 2302.44,-84 2302.44,-78 2308.44,-72 2314.44,-72 2314.44,-72 2427.47,-72 2427.47,-72 2433.47,-72 2439.47,-78 2439.47,-84 2439.47,-84 2439.47,-96 2439.47,-96 2439.47,-102 2433.47,-108 2427.47,-108"/>
<text xml:space="preserve" text-anchor="middle" x="2370.95" y="-85.8" font-family="Times,serif" font-size="14.00">BinaryExpression (+)</text>
</g>
<!-- 70&#45;&gt;72 -->
<g id="edge72" class="edge">
<title>70&#45;&gt;72</title>
<path fill="none" stroke="black" d="M2274.17,-143.52C2290.84,-134.47 2311.39,-123.32 2329.26,-113.62"/>
<polygon fill="black" stroke="black" points="2330.69,-116.83 2337.81,-108.98 2327.36,-110.68 2330.69,-116.83"/>
</g>
<!-- 73 -->
<g id="node74" class="node">
<title>73</title>
<path fill="none" stroke="black" d="M2389.35,-36C2389.35,-36 2328.56,-36 2328.56,-36 2322.56,-36 2316.56,-30 2316.56,-24 2316.56,-24 2316.56,-12 2316.56,-12 2316.56,-6 2322.56,0 2328.56,0 2328.56,0 2389.35,0 2389.35,0 2395.35,0 2401.35,-6 2401.35,-12 2401.35,-12 2401.35,-24 2401.35,-24 2401.35,-30 2395.35,-36 2389.35,-36"/>
<text xml:space="preserve" text-anchor="middle" x="2358.95" y="-13.8" font-family="Times,serif" font-size="14.00">Identifier (j)</text>
</g>
<!-- 72&#45;&gt;73 -->
<g id="edge73" class="edge">
<title>72&#45;&gt;73</title>
<path fill="none" stroke="black" d="M2367.99,-71.7C2366.72,-64.32 2365.21,-55.52 2363.8,-47.25"/>
<polygon fill="black" stroke="black" points="2367.28,-46.86 2362.14,-37.6 2360.38,-48.04 2367.28,-46.86"/>
</g>
<!-- 74 -->
<g id="node75" class="node">
<title>74</title>
<path fill="none" stroke="black" d="M2480.52,-36C2480.52,-36 2431.39,-36 2431.39,-36 2425.39,-36 2419.39,-30 2419.39,-24 2419.39,-24 2419.39,-12 2419.39,-12 2419.39,-6 2425.39,0 2431.39,0 2431.39,0 2480.52,0 2480.52,0 2486.52,0 2492.52,-6 2492.52,-12 2492.52,-12 2492.52,-24 2492.52,-24 2492.52,-30 2486.52,-36 2480.52,-36"/>
<text xml:space="preserve" text-anchor="middle" x="2455.95" y="-13.8" font-family="Times,serif" font-size="14.00">Literal (1)</text>
</g>
<!-- 72&#45;&gt;74 -->
<g id="edge74" class="edge">
<title>72&#45;&gt;74</title>
<path fill="none" stroke="black" d="M2391.96,-71.7C2402.28,-63.2 2414.9,-52.81 2426.19,-43.51"/>
<polygon fill="black" stroke="black" points="2428.23,-46.37 2433.72,-37.31 2423.78,-40.96 2428.23,-46.37"/>
</g>
<!-- 76 -->
<g id="node77" class="node">
<title>76</title>
<path fill="none" stroke="black" d="M2184.73,-324C2184.73,-324 2107.18,-324 2107.18,-324 2101.18,-324 2095.18,-318 2095.18,-312 2095.18,-312 2095.18,-300 2095.18,-300 2095.18,-294 2101.18,-288 2107.18,-288 2107.18,-288 2184.73,-288 2184.73,-288 2190.73,-288 2196.73,-294 2196.73,-300 2196.73,-300 2196.73,-312 2196.73,-312 2196.73,-318 2190.73,-324 2184.73,-324"/>
<text xml:space="preserve" text-anchor="middle" x="2145.95" y="-301.8" font-family="Times,serif" font-size="14.00">CallExpression</text>
</g>
<!-- 75&#45;&gt;76 -->
<g id="edge76" class="edge">
<title>75&#45;&gt;76</title>
<path fill="none" stroke="black" d="M1970.4,-359.52C2005.12,-349.13 2049.1,-335.97 2084.36,-325.43"/>
<polygon fill="black" stroke="black" points="2084.97,-328.89 2093.55,-322.68 2082.97,-322.19 2084.97,-328.89"/>
</g>
<!-- 77 -->
<g id="node78" class="node">
<title>77</title>
<path fill="none" stroke="black" d="M2206.48,-252C2206.48,-252 2085.42,-252 2085.42,-252 2079.42,-252 2073.42,-246 2073.42,-240 2073.42,-240 2073.42,-228 2073.42,-228 2073.42,-222 2079.42,-216 2085.42,-216 2085.42,-216 2206.48,-216 2206.48,-216 2212.48,-216 2218.48,-222 2218.48,-228 2218.48,-228 2218.48,-240 2218.48,-240 2218.48,-246 2212.48,-252 2206.48,-252"/>
<text xml:space="preserve" text-anchor="middle" x="2145.95" y="-229.8" font-family="Times,serif" font-size="14.00">Identifier (console.log)</text>
</g>
<!-- 76&#45;&gt;77 -->
<g id="edge77" class="edge">
<title>76&#45;&gt;77</title>
<path fill="none" stroke="black" d="M2145.95,-287.7C2145.95,-280.41 2145.95,-271.73 2145.95,-263.54"/>
<polygon fill="black" stroke="black" points="2149.45,-263.62 2145.95,-253.62 2142.45,-263.62 2149.45,-263.62"/>
</g>
<!-- 78 -->
<g id="node79" class="node">
<title>78</title>
<path fill="none" stroke="black" d="M2291.02,-252C2291.02,-252 2248.89,-252 2248.89,-252 2242.89,-252 2236.89,-246 2236.89,-240 2236.89,-240 2236.89,-228 2236.89,-228 2236.89,-222 2242.89,-216 2248.89,-216 2248.89,-216 2291.02,-216 2291.02,-216 2297.02,-216 2303.02,-222 2303.02,-228 2303.02,-228 2303.02,-240 2303.02,-240 2303.02,-246 2297.02,-252 2291.02,-252"/>
<text xml:space="preserve" text-anchor="middle" x="2269.95" y="-229.8" font-family="Times,serif" font-size="14.00">Literal ()</text>
</g>
<!-- 76&#45;&gt;78 -->
<g id="edge78" class="edge">
<title>76&#45;&gt;78</title>
<path fill="none" stroke="black" d="M2176.92,-287.52C2192.87,-278.51 2212.52,-267.42 2229.64,-257.76"/>
<polygon fill="black" stroke="black" points="2231.07,-260.97 2238.06,-253 2227.63,-254.87 2231.07,-260.97"/>
</g>
<!-- 80 -->
<g id="node81" class="node">
<title>80</title>
<path fill="none" stroke="black" d="M2433.87,-324C2433.87,-324 2292.04,-324 2292.04,-324 2286.04,-324 2280.04,-318 2280.04,-312 2280.04,-312 2280.04,-300 2280.04,-300 2280.04,-294 2286.04,-288 2292.04,-288 2292.04,-288 2433.87,-288 2433.87,-288 2439.87,-288 2445.87,-294 2445.87,-300 2445.87,-300 2445.87,-312 2445.87,-312 2445.87,-318 2439.87,-324 2433.87,-324"/>
<text xml:space="preserve" text-anchor="middle" x="2362.95" y="-301.8" font-family="Times,serif" font-size="14.00">AssignmentExpression (=)</text>
</g>
<!-- 79&#45;&gt;80 -->
<g id="edge80" class="edge">
<title>79&#45;&gt;80</title>
<path fill="none" stroke="black" d="M2251.17,-359.52C2270.71,-350.34 2294.86,-338.99 2315.71,-329.2"/>
<polygon fill="black" stroke="black" points="2317.02,-332.45 2324.59,-325.03 2314.05,-326.11 2317.02,-332.45"/>
</g>
<!-- 81 -->
<g id="node82" class="node">
<title>81</title>
<path fill="none" stroke="black" d="M2393.35,-252C2393.35,-252 2332.56,-252 2332.56,-252 2326.56,-252 2320.56,-246 2320.56,-240 2320.56,-240 2320.56,-228 2320.56,-228 2320.56,-222 2326.56,-216 2332.56,-216 2332.56,-216 2393.35,-216 2393.35,-216 2399.35,-216 2405.35,-222 2405.35,-228 2405.35,-228 2405.35,-240 2405.35,-240 2405.35,-246 2399.35,-252 2393.35,-252"/>
<text xml:space="preserve" text-anchor="middle" x="2362.95" y="-229.8" font-family="Times,serif" font-size="14.00">Identifier (i)</text>
</g>
<!-- 80&#45;&gt;81 -->
<g id="edge81" class="edge">
<title>80&#45;&gt;81</title>
<path fill="none" stroke="black" d="M2362.95,-287.7C2362.95,-280.41 2362.95,-271.73 2362.95,-263.54"/>
<polygon fill="black" stroke="black" points="2366.45,-263.62 2362.95,-253.62 2359.45,-263.62 2366.45,-263.62"/>
</g>
<!-- 82 -->
<g id="node83" class="node">
<title>82</title>
<path fill="none" stroke="black" d="M2548.47,-252C2548.47,-252 2435.44,-252 2435.44,-252 2429.44,-252 2423.44,-246 2423.44,-240 2423.44,-240 2423.44,-228 2423.44,-228 2423.44,-222 2429.44,-216 2435.44,-216 2435.44,-216 2548.47,-216 2548.47,-216 2554.47,-216 2560.47,-222 2560.47,-228 2560.47,-228 2560.47,-240 2560.47,-240 2560.47,-246 2554.47,-252 2548.47,-252"/>
<text xml:space="preserve" text-anchor="middle" x="2491.95" y="-229.8" font-family="Times,serif" font-size="14.00">BinaryExpression (+)</text>
</g>
<!-- 80&#45;&gt;82 -->
<g id="edge82" class="edge">
<title>80&#45;&gt;82</title>
<path fill="none" stroke="black" d="M2395.17,-287.52C2411.84,-278.47 2432.39,-267.32 2450.26,-257.62"/>
<polygon fill="black" stroke="black" points="2451.69,-260.83 2458.81,-252.98 2448.36,-254.68 2451.69,-260.83"/>
</g>
<!-- 83 -->
<g id="node84" class="node">
<title>83</title>
<path fill="none" stroke="black" d="M2473.35,-180C2473.35,-180 2412.56,-180 2412.56,-180 2406.56,-180 2400.56,-174 2400.56,-168 2400.56,-168 2400.56,-156 2400.56,-156 2400.56,-150 2406.56,-144 2412.56,-144 2412.56,-144 2473.35,-144 2473.35,-144 2479.35,-144 2485.35,-150 2485.35,-156 2485.35,-156 2485.35,-168 2485.35,-168 2485.35,-174 2479.35,-180 2473.35,-180"/>
<text xml:space="preserve" text-anchor="middle" x="2442.95" y="-157.8" font-family="Times,serif" font-size="14.00">Identifier (i)</text>
</g>
<!-- 82&#45;&gt;83 -->
<g id="edge83" class="edge">
<title>82&#45;&gt;83</title>
<path fill="none" stroke="black" d="M2479.84,-215.7C2474.26,-207.73 2467.52,-198.1 2461.34,-189.26"/>
<polygon fill="black" stroke="black" points="2464.4,-187.53 2455.79,-181.34 2458.66,-191.54 2464.4,-187.53"/>
</g>
<!-- 84 -->
<g id="node85" class="node">
<title>84</title>
<path fill="none" stroke="black" d="M2564.52,-180C2564.52,-180 2515.39,-180 2515.39,-180 2509.39,-180 2503.39,-174 2503.39,-168 2503.39,-168 2503.39,-156 2503.39,-156 2503.39,-150 2509.39,-144 2515.39,-144 2515.39,-144 2564.52,-144 2564.52,-144 2570.52,-144 2576.52,-150 2576.52,-156 2576.52,-156 2576.52,-168 2576.52,-168 2576.52,-174 2570.52,-180 2564.52,-180"/>
<text xml:space="preserve" text-anchor="middle" x="2539.95" y="-157.8" font-family="Times,serif" font-size="14.00">Literal (1)</text>
</g>
<!-- 82&#45;&gt;84 -->
<g id="edge84" class="edge">
<title>82&#45;&gt;84</title>
<path fill="none" stroke="black" d="M2503.82,-215.7C2509.22,-207.81 2515.75,-198.3 2521.75,-189.55"/>
<polygon fill="black" stroke="black" points="2524.6,-191.58 2527.37,-181.35 2518.83,-187.62 2524.6,-191.58"/>
</g>
</g>
</svg>
