<?xml version="1.0" encoding="UTF-8" standalone="no"?>
<!DOCTYPE svg PUBLIC "-//W3C//DTD SVG 1.1//EN"
 "http://www.w3.org/Graphics/SVG/1.1/DTD/svg11.dtd">
<!-- Generated by graphviz version 14.0.2 (0)
 -->
<!-- Title: AST Pages: 1 -->
<svg width="1124pt" height="476pt"
 viewBox="0.00 0.00 1124.00 476.00" xmlns="http://www.w3.org/2000/svg" xmlns:xlink="http://www.w3.org/1999/xlink">
<g id="graph0" class="graph" transform="scale(1 1) rotate(0) translate(4 472)">
<title>AST</title>
<polygon fill="white" stroke="none" points="-4,4 -4,-472 1119.94,-472 1119.94,4 -4,4"/>
<!-- 0 -->
<g id="node1" class="node">
<title>0</title>
<path fill="none" stroke="black" d="M505.05,-468C505.05,-468 464.84,-468 464.84,-468 458.84,-468 452.84,-462 452.84,-456 452.84,-456 452.84,-444 452.84,-444 452.84,-438 458.84,-432 464.84,-432 464.84,-432 505.05,-432 505.05,-432 511.05,-432 517.05,-438 517.05,-444 517.05,-444 517.05,-456 517.05,-456 517.05,-462 511.05,-468 505.05,-468"/>
<text xml:space="preserve" text-anchor="middle" x="484.94" y="-445.8" font-family="Times,serif" font-size="14.00">Program</text>
</g>
<!-- 1 -->
<g id="node2" class="node">
<title>1</title>
<path fill="none" stroke="black" d="M360.69,-396C360.69,-396 255.2,-396 255.2,-396 249.2,-396 243.2,-390 243.2,-384 243.2,-384 243.2,-372 243.2,-372 243.2,-366 249.2,-360 255.2,-360 255.2,-360 360.69,-360 360.69,-360 366.69,-360 372.69,-366 372.69,-372 372.69,-372 372.69,-384 372.69,-384 372.69,-390 366.69,-396 360.69,-396"/>
<text xml:space="preserve" text-anchor="middle" x="307.94" y="-373.8" font-family="Times,serif" font-size="14.00">VariableDeclaration</text>
</g>
<!-- 0&#45;&gt;1 -->
<g id="edge1" class="edge">
<title>0&#45;&gt;1</title>
<path fill="none" stroke="black" d="M452.48,-436.16C427.32,-426.21 391.91,-412.21 362.43,-400.55"/>
<polygon fill="black" stroke="black" points="363.86,-397.35 353.28,-396.93 361.29,-403.86 363.86,-397.35"/>
</g>
<!-- 5 -->
<g id="node6" class="node">
<title>5</title>
<path fill="none" stroke="black" d="M526.04,-396C526.04,-396 443.85,-396 443.85,-396 437.85,-396 431.85,-390 431.85,-384 431.85,-384 431.85,-372 431.85,-372 431.85,-366 437.85,-360 443.85,-360 443.85,-360 526.04,-360 526.04,-360 532.04,-360 538.04,-366 538.04,-372 538.04,-372 538.04,-384 538.04,-384 538.04,-390 532.04,-396 526.04,-396"/>
<text xml:space="preserve" text-anchor="middle" x="484.94" y="-373.8" font-family="Times,serif" font-size="14.00">WhileStatement</text>
</g>
<!-- 0&#45;&gt;5 -->
<g id="edge5" class="edge">
<title>0&#45;&gt;5</title>
<path fill="none" stroke="black" d="M484.94,-431.7C484.94,-424.41 484.94,-415.73 484.94,-407.54"/>
<polygon fill="black" stroke="black" points="488.44,-407.62 484.94,-397.62 481.44,-407.62 488.44,-407.62"/>
</g>
<!-- 19 -->
<g id="node20" class="node">
<title>19</title>
<path fill="none" stroke="black" d="M835.04,-396C835.04,-396 724.84,-396 724.84,-396 718.84,-396 712.84,-390 712.84,-384 712.84,-384 712.84,-372 712.84,-372 712.84,-366 718.84,-360 724.84,-360 724.84,-360 835.04,-360 835.04,-360 841.04,-360 847.04,-366 847.04,-372 847.04,-372 847.04,-384 847.04,-384 847.04,-390 841.04,-396 835.04,-396"/>
<text xml:space="preserve" text-anchor="middle" x="779.94" y="-373.8" font-family="Times,serif" font-size="14.00">ExpressionStatement</text>
</g>
<!-- 0&#45;&gt;19 -->
<g id="edge19" class="edge">
<title>0&#45;&gt;19</title>
<path fill="none" stroke="black" d="M517.36,-441.31C561.32,-430.88 641.26,-411.91 701.43,-397.63"/>
<polygon fill="black" stroke="black" points="702.03,-401.09 710.95,-395.37 700.41,-394.28 702.03,-401.09"/>
</g>
<!-- 2 -->
<g id="node3" class="node">
<title>2</title>
<path fill="none" stroke="black" d="M234.57,-324C234.57,-324 135.31,-324 135.31,-324 129.31,-324 123.31,-318 123.31,-312 123.31,-312 123.31,-300 123.31,-300 123.31,-294 129.31,-288 135.31,-288 135.31,-288 234.57,-288 234.57,-288 240.57,-288 246.57,-294 246.57,-300 246.57,-300 246.57,-312 246.57,-312 246.57,-318 240.57,-324 234.57,-324"/>
<text xml:space="preserve" text-anchor="middle" x="184.94" y="-301.8" font-family="Times,serif" font-size="14.00">VariableDeclarator</text>
</g>
<!-- 1&#45;&gt;2 -->
<g id="edge2" class="edge">
<title>1&#45;&gt;2</title>
<path fill="none" stroke="black" d="M277.22,-359.52C261.4,-350.51 241.92,-339.42 224.94,-329.76"/>
<polygon fill="black" stroke="black" points="227.01,-326.91 216.59,-325.01 223.55,-333 227.01,-326.91"/>
</g>
<!-- 3 -->
<g id="node4" class="node">
<title>3</title>
<path fill="none" stroke="black" d="M117.89,-252C117.89,-252 12,-252 12,-252 6,-252 0,-246 0,-240 0,-240 0,-228 0,-228 0,-222 6,-216 12,-216 12,-216 117.89,-216 117.89,-216 123.89,-216 129.89,-222 129.89,-228 129.89,-228 129.89,-240 129.89,-240 129.89,-246 123.89,-252 117.89,-252"/>
<text xml:space="preserve" text-anchor="middle" x="64.94" y="-229.8" font-family="Times,serif" font-size="14.00">Identifier (contador)</text>
</g>
<!-- 2&#45;&gt;3 -->
<g id="edge3" class="edge">
<title>2&#45;&gt;3</title>
<path fill="none" stroke="black" d="M154.97,-287.52C139.68,-278.6 120.88,-267.63 104.42,-258.03"/>
<polygon fill="black" stroke="black" points="106.24,-255.04 95.84,-253.02 102.71,-261.09 106.24,-255.04"/>
</g>
<!-- 4 -->
<g id="node5" class="node">
<title>4</title>
<path fill="none" stroke="black" d="M209.51,-252C209.51,-252 160.38,-252 160.38,-252 154.38,-252 148.38,-246 148.38,-240 148.38,-240 148.38,-228 148.38,-228 148.38,-222 154.38,-216 160.38,-216 160.38,-216 209.51,-216 209.51,-216 215.51,-216 221.51,-222 221.51,-228 221.51,-228 221.51,-240 221.51,-240 221.51,-246 215.51,-252 209.51,-252"/>
<text xml:space="preserve" text-anchor="middle" x="184.94" y="-229.8" font-family="Times,serif" font-size="14.00">Literal (1)</text>
</g>
<!-- 2&#45;&gt;4 -->
<g id="edge4" class="edge">
<title>2&#45;&gt;4</title>
<path fill="none" stroke="black" d="M184.94,-287.7C184.94,-280.41 184.94,-271.73 184.94,-263.54"/>
<polygon fill="black" stroke="black" points="188.44,-263.62 184.94,-253.62 181.44,-263.62 188.44,-263.62"/>
</g>
<!-- 6 -->
<g id="node7" class="node">
<title>6</title>
<path fill="none" stroke="black" d="M474.41,-324C474.41,-324 353.48,-324 353.48,-324 347.48,-324 341.48,-318 341.48,-312 341.48,-312 341.48,-300 341.48,-300 341.48,-294 347.48,-288 353.48,-288 353.48,-288 474.41,-288 474.41,-288 480.41,-288 486.41,-294 486.41,-300 486.41,-300 486.41,-312 486.41,-312 486.41,-318 480.41,-324 474.41,-324"/>
<text xml:space="preserve" text-anchor="middle" x="413.94" y="-301.8" font-family="Times,serif" font-size="14.00">BinaryExpression (&lt;=)</text>
</g>
<!-- 5&#45;&gt;6 -->
<g id="edge6" class="edge">
<title>5&#45;&gt;6</title>
<path fill="none" stroke="black" d="M467.39,-359.7C458.97,-351.39 448.71,-341.28 439.44,-332.14"/>
<polygon fill="black" stroke="black" points="441.95,-329.7 432.37,-325.17 437.03,-334.68 441.95,-329.7"/>
</g>
<!-- 9 -->
<g id="node10" class="node">
<title>9</title>
<path fill="none" stroke="black" d="M597.66,-324C597.66,-324 516.23,-324 516.23,-324 510.23,-324 504.23,-318 504.23,-312 504.23,-312 504.23,-300 504.23,-300 504.23,-294 510.23,-288 516.23,-288 516.23,-288 597.66,-288 597.66,-288 603.66,-288 609.66,-294 609.66,-300 609.66,-300 609.66,-312 609.66,-312 609.66,-318 603.66,-324 597.66,-324"/>
<text xml:space="preserve" text-anchor="middle" x="556.94" y="-301.8" font-family="Times,serif" font-size="14.00">BlockStatement</text>
</g>
<!-- 5&#45;&gt;9 -->
<g id="edge9" class="edge">
<title>5&#45;&gt;9</title>
<path fill="none" stroke="black" d="M502.74,-359.7C511.22,-351.45 521.53,-341.43 530.87,-332.35"/>
<polygon fill="black" stroke="black" points="533.29,-334.88 538.02,-325.4 528.41,-329.86 533.29,-334.88"/>
</g>
<!-- 7 -->
<g id="node8" class="node">
<title>7</title>
<path fill="none" stroke="black" d="M357.89,-252C357.89,-252 252,-252 252,-252 246,-252 240,-246 240,-240 240,-240 240,-228 240,-228 240,-222 246,-216 252,-216 252,-216 357.89,-216 357.89,-216 363.89,-216 369.89,-222 369.89,-228 369.89,-228 369.89,-240 369.89,-240 369.89,-246 363.89,-252 357.89,-252"/>
<text xml:space="preserve" text-anchor="middle" x="304.94" y="-229.8" font-family="Times,serif" font-size="14.00">Identifier (contador)</text>
</g>
<!-- 6&#45;&gt;7 -->
<g id="edge7" class="edge">
<title>6&#45;&gt;7</title>
<path fill="none" stroke="black" d="M386.72,-287.52C372.96,-278.68 356.08,-267.84 341.23,-258.3"/>
<polygon fill="black" stroke="black" points="343.4,-255.54 333.09,-253.08 339.62,-261.43 343.4,-255.54"/>
</g>
<!-- 8 -->
<g id="node9" class="node">
<title>8</title>
<path fill="none" stroke="black" d="M449.51,-252C449.51,-252 400.38,-252 400.38,-252 394.38,-252 388.38,-246 388.38,-240 388.38,-240 388.38,-228 388.38,-228 388.38,-222 394.38,-216 400.38,-216 400.38,-216 449.51,-216 449.51,-216 455.51,-216 461.51,-222 461.51,-228 461.51,-228 461.51,-240 461.51,-240 461.51,-246 455.51,-252 449.51,-252"/>
<text xml:space="preserve" text-anchor="middle" x="424.94" y="-229.8" font-family="Times,serif" font-size="14.00">Literal (5)</text>
</g>
<!-- 6&#45;&gt;8 -->
<g id="edge8" class="edge">
<title>6&#45;&gt;8</title>
<path fill="none" stroke="black" d="M416.66,-287.7C417.82,-280.32 419.2,-271.52 420.5,-263.25"/>
<polygon fill="black" stroke="black" points="423.93,-264.02 422.02,-253.6 417.01,-262.93 423.93,-264.02"/>
</g>
<!-- 10 -->
<g id="node11" class="node">
<title>10</title>
<path fill="none" stroke="black" d="M602.04,-252C602.04,-252 491.84,-252 491.84,-252 485.84,-252 479.84,-246 479.84,-240 479.84,-240 479.84,-228 479.84,-228 479.84,-222 485.84,-216 491.84,-216 491.84,-216 602.04,-216 602.04,-216 608.04,-216 614.04,-222 614.04,-228 614.04,-228 614.04,-240 614.04,-240 614.04,-246 608.04,-252 602.04,-252"/>
<text xml:space="preserve" text-anchor="middle" x="546.94" y="-229.8" font-family="Times,serif" font-size="14.00">ExpressionStatement</text>
</g>
<!-- 9&#45;&gt;10 -->
<g id="edge10" class="edge">
<title>9&#45;&gt;10</title>
<path fill="none" stroke="black" d="M554.47,-287.7C553.42,-280.32 552.16,-271.52 550.98,-263.25"/>
<polygon fill="black" stroke="black" points="554.48,-263.01 549.6,-253.6 547.55,-264 554.48,-263.01"/>
</g>
<!-- 16 -->
<g id="node17" class="node">
<title>16</title>
<path fill="none" stroke="black" d="M754.04,-252C754.04,-252 643.84,-252 643.84,-252 637.84,-252 631.84,-246 631.84,-240 631.84,-240 631.84,-228 631.84,-228 631.84,-222 637.84,-216 643.84,-216 643.84,-216 754.04,-216 754.04,-216 760.04,-216 766.04,-222 766.04,-228 766.04,-228 766.04,-240 766.04,-240 766.04,-246 760.04,-252 754.04,-252"/>
<text xml:space="preserve" text-anchor="middle" x="698.94" y="-229.8" font-family="Times,serif" font-size="14.00">ExpressionStatement</text>
</g>
<!-- 9&#45;&gt;16 -->
<g id="edge16" class="edge">
<title>9&#45;&gt;16</title>
<path fill="none" stroke="black" d="M592.41,-287.52C611.02,-278.34 634.01,-267.01 653.87,-257.22"/>
<polygon fill="black" stroke="black" points="655.15,-260.49 662.57,-252.93 652.05,-254.21 655.15,-260.49"/>
</g>
<!-- 11 -->
<g id="node12" class="node">
<title>11</title>
<path fill="none" stroke="black" d="M585.72,-180C585.72,-180 508.17,-180 508.17,-180 502.17,-180 496.17,-174 496.17,-168 496.17,-168 496.17,-156 496.17,-156 496.17,-150 502.17,-144 508.17,-144 508.17,-144 585.72,-144 585.72,-144 591.72,-144 597.72,-150 597.72,-156 597.72,-156 597.72,-168 597.72,-168 597.72,-174 591.72,-180 585.72,-180"/>
<text xml:space="preserve" text-anchor="middle" x="546.94" y="-157.8" font-family="Times,serif" font-size="14.00">CallExpression</text>
</g>
<!-- 10&#45;&gt;11 -->
<g id="edge11" class="edge">
<title>10&#45;&gt;11</title>
<path fill="none" stroke="black" d="M546.94,-215.7C546.94,-208.41 546.94,-199.73 546.94,-191.54"/>
<polygon fill="black" stroke="black" points="550.44,-191.62 546.94,-181.62 543.44,-191.62 550.44,-191.62"/>
</g>
<!-- 12 -->
<g id="node13" class="node">
<title>12</title>
<path fill="none" stroke="black" d="M449.47,-108C449.47,-108 328.41,-108 328.41,-108 322.41,-108 316.41,-102 316.41,-96 316.41,-96 316.41,-84 316.41,-84 316.41,-78 322.41,-72 328.41,-72 328.41,-72 449.47,-72 449.47,-72 455.47,-72 461.47,-78 461.47,-84 461.47,-84 461.47,-96 461.47,-96 461.47,-102 455.47,-108 449.47,-108"/>
<text xml:space="preserve" text-anchor="middle" x="388.94" y="-85.8" font-family="Times,serif" font-size="14.00">Identifier (console.log)</text>
</g>
<!-- 11&#45;&gt;12 -->
<g id="edge12" class="edge">
<title>11&#45;&gt;12</title>
<path fill="none" stroke="black" d="M507.48,-143.52C486.57,-134.25 460.68,-122.78 438.44,-112.93"/>
<polygon fill="black" stroke="black" points="440.12,-109.85 429.56,-108.99 437.29,-116.25 440.12,-109.85"/>
</g>
<!-- 13 -->
<g id="node14" class="node">
<title>13</title>
<path fill="none" stroke="black" d="M604.46,-108C604.46,-108 491.42,-108 491.42,-108 485.42,-108 479.42,-102 479.42,-96 479.42,-96 479.42,-84 479.42,-84 479.42,-78 485.42,-72 491.42,-72 491.42,-72 604.46,-72 604.46,-72 610.46,-72 616.46,-78 616.46,-84 616.46,-84 616.46,-96 616.46,-96 616.46,-102 610.46,-108 604.46,-108"/>
<text xml:space="preserve" text-anchor="middle" x="547.94" y="-85.8" font-family="Times,serif" font-size="14.00">BinaryExpression (+)</text>
</g>
<!-- 11&#45;&gt;13 -->
<g id="edge13" class="edge">
<title>11&#45;&gt;13</title>
<path fill="none" stroke="black" d="M547.19,-143.7C547.29,-136.41 547.42,-127.73 547.54,-119.54"/>
<polygon fill="black" stroke="black" points="551.03,-119.67 547.68,-109.62 544.03,-119.57 551.03,-119.67"/>
</g>
<!-- 14 -->
<g id="node15" class="node">
<title>14</title>
<path fill="none" stroke="black" d="M527.48,-36C527.48,-36 420.41,-36 420.41,-36 414.41,-36 408.41,-30 408.41,-24 408.41,-24 408.41,-12 408.41,-12 408.41,-6 414.41,0 420.41,0 420.41,0 527.48,0 527.48,0 533.48,0 539.48,-6 539.48,-12 539.48,-12 539.48,-24 539.48,-24 539.48,-30 533.48,-36 527.48,-36"/>
<text xml:space="preserve" text-anchor="middle" x="473.94" y="-13.8" font-family="Times,serif" font-size="14.00">Literal (Contagem: )</text>
</g>
<!-- 13&#45;&gt;14 -->
<g id="edge14" class="edge">
<title>13&#45;&gt;14</title>
<path fill="none" stroke="black" d="M529.65,-71.7C520.85,-63.37 510.12,-53.22 500.44,-44.07"/>
<polygon fill="black" stroke="black" points="503.05,-41.72 493.38,-37.39 498.24,-46.8 503.05,-41.72"/>
</g>
<!-- 15 -->
<g id="node16" class="node">
<title>15</title>
<path fill="none" stroke="black" d="M674.89,-36C674.89,-36 569,-36 569,-36 563,-36 557,-30 557,-24 557,-24 557,-12 557,-12 557,-6 563,0 569,0 569,0 674.89,0 674.89,0 680.89,0 686.89,-6 686.89,-12 686.89,-12 686.89,-24 686.89,-24 686.89,-30 680.89,-36 674.89,-36"/>
<text xml:space="preserve" text-anchor="middle" x="621.94" y="-13.8" font-family="Times,serif" font-size="14.00">Identifier (contador)</text>
</g>
<!-- 13&#45;&gt;15 -->
<g id="edge15" class="edge">
<title>13&#45;&gt;15</title>
<path fill="none" stroke="black" d="M566.24,-71.7C575.04,-63.37 585.76,-53.22 595.44,-44.07"/>
<polygon fill="black" stroke="black" points="597.65,-46.8 602.51,-37.39 592.84,-41.72 597.65,-46.8"/>
</g>
<!-- 17 -->
<g id="node18" class="node">
<title>17</title>
<path fill="none" stroke="black" d="M760.57,-180C760.57,-180 637.31,-180 637.31,-180 631.31,-180 625.31,-174 625.31,-168 625.31,-168 625.31,-156 625.31,-156 625.31,-150 631.31,-144 637.31,-144 637.31,-144 760.57,-144 760.57,-144 766.57,-144 772.57,-150 772.57,-156 772.57,-156 772.57,-168 772.57,-168 772.57,-174 766.57,-180 760.57,-180"/>
<text xml:space="preserve" text-anchor="middle" x="698.94" y="-157.8" font-family="Times,serif" font-size="14.00">UpdateExpression (++)</text>
</g>
<!-- 16&#45;&gt;17 -->
<g id="edge17" class="edge">
<title>16&#45;&gt;17</title>
<path fill="none" stroke="black" d="M698.94,-215.7C698.94,-208.41 698.94,-199.73 698.94,-191.54"/>
<polygon fill="black" stroke="black" points="702.44,-191.62 698.94,-181.62 695.44,-191.62 702.44,-191.62"/>
</g>
<!-- 18 -->
<g id="node19" class="node">
<title>18</title>
<path fill="none" stroke="black" d="M751.89,-108C751.89,-108 646,-108 646,-108 640,-108 634,-102 634,-96 634,-96 634,-84 634,-84 634,-78 640,-72 646,-72 646,-72 751.89,-72 751.89,-72 757.89,-72 763.89,-78 763.89,-84 763.89,-84 763.89,-96 763.89,-96 763.89,-102 757.89,-108 751.89,-108"/>
<text xml:space="preserve" text-anchor="middle" x="698.94" y="-85.8" font-family="Times,serif" font-size="14.00">Identifier (contador)</text>
</g>
<!-- 17&#45;&gt;18 -->
<g id="edge18" class="edge">
<title>17&#45;&gt;18</title>
<path fill="none" stroke="black" d="M698.94,-143.7C698.94,-136.41 698.94,-127.73 698.94,-119.54"/>
<polygon fill="black" stroke="black" points="702.44,-119.62 698.94,-109.62 695.44,-119.62 702.44,-119.62"/>
</g>
<!-- 20 -->
<g id="node21" class="node">
<title>20</title>
<path fill="none" stroke="black" d="M895.72,-324C895.72,-324 818.17,-324 818.17,-324 812.17,-324 806.17,-318 806.17,-312 806.17,-312 806.17,-300 806.17,-300 806.17,-294 812.17,-288 818.17,-288 818.17,-288 895.72,-288 895.72,-288 901.72,-288 907.72,-294 907.72,-300 907.72,-300 907.72,-312 907.72,-312 907.72,-318 901.72,-324 895.72,-324"/>
<text xml:space="preserve" text-anchor="middle" x="856.94" y="-301.8" font-family="Times,serif" font-size="14.00">CallExpression</text>
</g>
<!-- 19&#45;&gt;20 -->
<g id="edge20" class="edge">
<title>19&#45;&gt;20</title>
<path fill="none" stroke="black" d="M798.98,-359.7C808.14,-351.37 819.3,-341.22 829.37,-332.07"/>
<polygon fill="black" stroke="black" points="831.7,-334.68 836.74,-325.37 826.99,-329.5 831.7,-334.68"/>
</g>
<!-- 21 -->
<g id="node22" class="node">
<title>21</title>
<path fill="none" stroke="black" d="M917.47,-252C917.47,-252 796.41,-252 796.41,-252 790.41,-252 784.41,-246 784.41,-240 784.41,-240 784.41,-228 784.41,-228 784.41,-222 790.41,-216 796.41,-216 796.41,-216 917.47,-216 917.47,-216 923.47,-216 929.47,-222 929.47,-228 929.47,-228 929.47,-240 929.47,-240 929.47,-246 923.47,-252 917.47,-252"/>
<text xml:space="preserve" text-anchor="middle" x="856.94" y="-229.8" font-family="Times,serif" font-size="14.00">Identifier (console.log)</text>
</g>
<!-- 20&#45;&gt;21 -->
<g id="edge21" class="edge">
<title>20&#45;&gt;21</title>
<path fill="none" stroke="black" d="M856.94,-287.7C856.94,-280.41 856.94,-271.73 856.94,-263.54"/>
<polygon fill="black" stroke="black" points="860.44,-263.62 856.94,-253.62 853.44,-263.62 860.44,-263.62"/>
</g>
<!-- 22 -->
<g id="node23" class="node">
<title>22</title>
<path fill="none" stroke="black" d="M1103.94,-252C1103.94,-252 959.94,-252 959.94,-252 953.94,-252 947.94,-246 947.94,-240 947.94,-240 947.94,-228 947.94,-228 947.94,-222 953.94,-216 959.94,-216 959.94,-216 1103.94,-216 1103.94,-216 1109.94,-216 1115.94,-222 1115.94,-228 1115.94,-228 1115.94,-240 1115.94,-240 1115.94,-246 1109.94,-252 1103.94,-252"/>
<text xml:space="preserve" text-anchor="middle" x="1031.94" y="-229.8" font-family="Times,serif" font-size="14.00">Literal (Fim da contagem!)</text>
</g>
<!-- 20&#45;&gt;22 -->
<g id="edge22" class="edge">
<title>20&#45;&gt;22</title>
<path fill="none" stroke="black" d="M900.65,-287.52C924.13,-278.13 953.27,-266.47 978.13,-256.53"/>
<polygon fill="black" stroke="black" points="979.1,-259.91 987.08,-252.94 976.5,-253.41 979.1,-259.91"/>
</g>
</g>
</svg>
